<svg width="319" height="320" viewBox="0 0 319 320" fill="none" xmlns="http://www.w3.org/2000/svg">
<rect width="319" height="320" fill="white"/>
<g clip-path="url(#clip0_205_4)">
<path d="M43.932 122.684H25.362V130.55H43.932V122.684Z" fill="#ECECEC"/>
<path d="M33.57 132.6H15V140.466H33.57V132.6Z" fill="#DCDCDC"/>
<path d="M54.2871 132.6H35.7171V140.466H54.2871V132.6Z" fill="#ECECEC"/>
<path d="M293.645 21.2333H275.075V29.0996H293.645V21.2333Z" fill="#ECECEC"/>
<path d="M304 31.1495H285.43V39.0158H304V31.1495Z" fill="#DCDCDC"/>
<path d="M33.57 21.2402H15V29.1064H33.57V21.2402Z" fill="#ECECEC"/>
<path d="M230.4 224.55H248.97V216.683H230.4V224.55Z" fill="#DCDCDC"/>
<path d="M240.755 214.627H259.325V206.76H240.755V214.627Z" fill="#ECECEC"/>
<path d="M272.839 84.0542V-10" stroke="#C8C8C8" stroke-miterlimit="10"/>
<path d="M243.806 112.107L246.143 117.256H299.549L301.873 112.107L279.138 96.3336H266.541L243.806 112.107Z" fill="#ECECEC"/>
<path d="M264.964 81.1392L266.541 96.3336H279.138L280.714 81.1392H264.964Z" fill="#DCDCDC"/>
<path d="M243.812 112.114L246.143 117.256H299.549L301.88 112.114H243.812Z" fill="#DCDCDC"/>
<path d="M227.267 28.8203V-10" stroke="#C8C8C8" stroke-miterlimit="10"/>
<path d="M198.233 56.8731L200.571 62.0219H253.97L256.301 56.8731L233.566 41.0998H220.968L198.233 56.8731Z" fill="#ECECEC"/>
<path d="M219.392 25.9054L220.968 41.0998H233.566L235.142 25.9054H219.392Z" fill="#DCDCDC"/>
<path d="M198.233 56.8799L200.571 62.0219H253.977L256.301 56.8799H198.233Z" fill="#DCDCDC"/>
<path d="M103.719 68.6622H25.3008V73.3275H103.719V68.6622Z" fill="#ECECEC"/>
<path d="M35.9142 73.3343H31.253V88.7739H35.9142V73.3343Z" fill="#ECECEC"/>
<path d="M35.9142 73.3343H31.253V78.1085H35.9142V73.3343Z" fill="#DCDCDC"/>
<path d="M97.7733 73.3343H93.1122V88.7739H97.7733V73.3343Z" fill="#ECECEC"/>
<path d="M97.7733 73.3343H93.1122V78.1085H97.7733V73.3343Z" fill="#DCDCDC"/>
<path d="M52.5884 68.669V38.9204H45.1142V68.669H52.5884Z" fill="#C8C8C8"/>
<path d="M52.5952 40.6026V37.3336H45.121V40.6026H52.5952Z" fill="#DCDCDC"/>
<path d="M52.5952 45.9966V44.7843H45.121V45.9966H52.5952Z" fill="#DCDCDC"/>
<path d="M53.5193 64.7597V61.4907H45.1142V64.7597H53.5193Z" fill="#DCDCDC"/>
<path d="M57.8136 68.6622V33.9623H52.5884V68.6622H57.8136Z" fill="#DCDCDC"/>
<path d="M56.7468 50.5801V37.2314H53.6144V50.5801H56.7468Z" fill="#ECECEC"/>
<path d="M94.9639 64.9453L70.3439 40.5505L66.6705 44.2751L91.2905 68.6699L94.9639 64.9453Z" fill="#C8C8C8"/>
<path d="M88.4642 59.9537L78.9931 50.5692L76.791 52.802L86.2621 62.1865L88.4642 59.9537Z" fill="#DCDCDC"/>
<path d="M66.6807 68.669V42.3121H57.8135V68.669H66.6807Z" fill="#A8A8A8"/>
<path d="M66.6807 65.8767V63.4181H57.8136V65.8767H66.6807Z" fill="#C8C8C8"/>
<path d="M66.6807 61.8039V60.8505H57.8135V61.8039H66.6807Z" fill="#C8C8C8"/>
<path d="M45.1142 68.669V43.8989H38.9854V68.669H45.1142Z" fill="#A8A8A8"/>
<path d="M45.121 66.0402V63.7314H38.9922V66.0402H45.121Z" fill="#C8C8C8"/>
<path d="M45.1142 51.3157V49.0069H38.9854V51.3157H45.1142Z" fill="#C8C8C8"/>
<path d="M45.1142 53.7879V52.8958H38.9854V53.7879H45.1142Z" fill="#C8C8C8"/>
<path d="M298.578 305.643C298.578 313.571 236.311 320 159.503 320C82.6958 320 20.4358 313.571 20.4358 305.643C20.4358 297.716 82.7026 291.293 159.517 291.293C236.331 291.293 298.578 297.716 298.578 305.643Z" fill="#ECECEC"/>
<path d="M17.1267 275.711L52.7175 275.54L88.3151 275.479L159.503 275.357L230.692 275.472L266.282 275.534L301.88 275.711L266.282 275.881L230.692 275.942L159.503 276.058L88.3151 275.942L52.7175 275.881L17.1267 275.711Z" fill="#1A2E35"/>
<path d="M268.932 160.646C268.932 160.646 252.822 158.385 256.586 138.886C256.586 138.886 274.592 142.938 268.932 160.646Z" fill="#105182"/>
<path d="M268.124 156.573C267.805 155.593 267.444 154.619 267.023 153.672L266.982 153.304C266.982 153.032 266.935 152.766 266.914 152.494C266.874 151.915 266.833 151.329 266.799 150.75C266.731 149.586 266.656 148.421 266.636 147.256C266.636 147.25 266.635 147.244 266.632 147.238C266.63 147.232 266.626 147.227 266.622 147.223C266.617 147.218 266.612 147.215 266.606 147.212C266.601 147.21 266.594 147.209 266.588 147.209C266.582 147.209 266.576 147.21 266.57 147.212C266.564 147.215 266.559 147.218 266.555 147.223C266.55 147.227 266.547 147.232 266.544 147.238C266.542 147.244 266.541 147.25 266.541 147.256C266.541 148.421 266.541 149.586 266.541 150.757C266.541 151.336 266.595 151.922 266.629 152.501C266.629 152.63 266.629 152.759 266.663 152.889C265.758 150.947 264.675 149.093 263.429 147.352C262.878 146.575 262.294 145.833 261.669 145.111C261.044 144.389 260.344 143.674 259.698 142.945C259.658 142.898 259.583 142.945 259.63 143.02C260.787 144.302 261.826 145.686 262.736 147.154C263.225 147.897 263.687 148.659 264.129 149.436L263.979 149.374L263.402 149.143L262.083 148.646L259.495 147.679C259.44 147.679 259.406 147.747 259.461 147.767C260.317 148.114 261.166 148.448 262.009 148.843L263.259 149.381L263.884 149.64C264.021 149.705 264.164 149.755 264.312 149.79C264.638 150.376 264.991 150.961 265.256 151.561C266.008 153.069 266.666 154.623 267.227 156.212C267.268 156.321 267.302 156.437 267.342 156.546C266.92 156.302 266.479 156.09 266.024 155.913L264.366 155.15C263.238 154.625 262.117 154.101 261.03 153.488C260.976 153.454 260.928 153.543 260.983 153.57C262.09 154.176 263.177 154.823 264.285 155.429C264.842 155.729 265.399 156.022 265.963 156.301C266.435 156.579 266.946 156.783 267.478 156.907C268.017 158.383 268.373 159.92 268.538 161.484C268.715 163.69 268.695 165.917 268.749 168.124H268.803C268.966 166.081 269.055 164.092 269.068 162.083C269.047 160.208 268.728 158.348 268.124 156.573V156.573Z" fill="#1A2E35"/>
<path d="M265.637 145.111C265.483 146.251 265.431 147.402 265.481 148.55C265.481 148.55 265.528 148.55 265.528 148.55C265.596 147.406 265.603 146.269 265.732 145.145C265.725 145.07 265.644 145.05 265.637 145.111Z" fill="#1A2E35"/>
<path d="M261.03 146.085C260.32 145.81 259.637 145.468 258.992 145.063C258.944 145.029 258.89 145.118 258.944 145.152C259.589 145.587 260.294 145.924 261.037 146.153C261.046 146.152 261.054 146.148 261.06 146.141C261.066 146.134 261.068 146.125 261.068 146.116C261.067 146.107 261.062 146.098 261.055 146.092C261.048 146.087 261.039 146.084 261.03 146.085V146.085Z" fill="#1A2E35"/>
<path d="M269.449 191.593C269.449 189.809 269.401 188.025 269.381 186.24C269.347 180.308 269.299 174.383 269.191 168.458C269.109 163.749 269 159.046 268.864 154.346C268.864 154.333 268.86 154.32 268.853 154.31C268.846 154.299 268.836 154.29 268.824 154.285V150.43C268.824 150.43 268.824 150.382 268.749 150.382C268.674 150.382 268.674 150.382 268.674 150.43C268.674 151.717 268.674 153.005 268.674 154.292C268.67 154.3 268.669 154.31 268.669 154.319C268.669 154.328 268.67 154.338 268.674 154.346C268.436 162.723 268.226 171.1 268.171 179.47C268.171 181.173 268.171 182.876 268.171 184.585C268.117 190.034 268.097 195.482 268.11 200.931C268.11 201.802 268.11 202.667 268.11 203.539C268.11 208.538 268.158 213.53 268.165 218.522C268.165 218.788 268.464 218.924 268.776 218.938C269.089 218.951 269.524 218.808 269.524 218.502C269.524 212.992 269.564 207.482 269.564 201.973C269.462 198.547 269.476 195.073 269.449 191.593Z" fill="#1A2E35"/>
<path d="M262.722 186.179C262.722 186.179 254.969 180.424 247.617 184.313C240.266 188.202 239.104 203.171 239.104 203.171C239.104 203.171 249.907 204.717 256.709 198.227C263.266 191.995 262.722 186.179 262.722 186.179Z" fill="#1B5F9D"/>
<path d="M264.835 186.533C263.409 185.968 261.866 185.767 260.344 185.947C260.03 185.892 259.712 185.86 259.393 185.852L258.299 185.77C257.551 185.709 256.797 185.668 256.043 185.607C254.514 185.498 252.978 185.402 251.456 185.246C251.395 185.246 251.388 185.341 251.456 185.348C252.965 185.539 254.466 185.757 255.982 185.906C256.763 185.988 257.544 186.07 258.326 186.124L258.89 186.179C258.659 186.227 258.428 186.288 258.21 186.349C256.994 186.704 255.816 187.183 254.697 187.779C254.086 187.888 253.481 188.059 252.883 188.202C251.925 188.426 250.967 188.678 250.016 188.923C248.134 189.421 246.272 189.979 244.403 190.524C244.396 190.521 244.388 190.52 244.381 190.521C244.373 190.522 244.366 190.524 244.359 190.529C244.353 190.533 244.347 190.539 244.344 190.546C244.34 190.553 244.338 190.56 244.338 190.568C244.338 190.576 244.34 190.584 244.344 190.591C244.347 190.597 244.353 190.603 244.359 190.608C244.366 190.612 244.373 190.615 244.381 190.616C244.388 190.617 244.396 190.615 244.403 190.613C246.272 190.156 248.147 189.734 250.016 189.291C250.926 189.073 251.837 188.862 252.734 188.61C252.974 188.547 253.212 188.492 253.447 188.447C251.368 189.73 249.507 191.34 247.937 193.214C246.426 195.073 245.142 197.106 244.111 199.269C244.111 199.323 244.159 199.378 244.193 199.323C245.464 197.097 247.022 195.047 248.827 193.228L248.725 193.534L248.297 194.896C248.005 195.809 247.719 196.722 247.441 197.621C247.441 197.689 247.515 197.702 247.543 197.621C247.869 196.735 248.175 195.843 248.487 194.951C248.643 194.515 248.793 194.072 248.949 193.636C249.031 193.412 249.105 193.187 249.18 192.955C249.209 192.887 249.234 192.816 249.255 192.744C250.119 191.903 251.039 191.12 252.007 190.401C253.282 189.459 254.662 188.666 256.118 188.038C256.118 188.168 256.07 188.304 256.043 188.433C255.961 188.787 255.887 189.114 255.812 189.496C255.662 190.231 255.52 190.967 255.377 191.709C255.085 193.207 254.901 194.733 254.623 196.238C254.623 196.251 254.628 196.263 254.637 196.272C254.646 196.281 254.658 196.286 254.67 196.286C254.683 196.286 254.695 196.281 254.704 196.272C254.713 196.263 254.718 196.251 254.718 196.238C255.064 194.726 255.513 193.241 255.846 191.723C256.016 190.967 256.186 190.211 256.342 189.448C256.417 189.094 256.485 188.767 256.559 188.385C256.6 188.188 256.648 187.984 256.668 187.786C256.811 187.732 256.947 187.664 257.089 187.616C259.128 186.86 261.37 186.308 263.537 186.73C264.563 186.92 265.525 187.362 266.338 188.016C267.152 188.669 267.791 189.515 268.199 190.476C268.273 190.647 268.538 190.538 268.498 190.367C268.221 189.49 267.747 188.688 267.112 188.023C266.477 187.358 265.698 186.848 264.835 186.533V186.533Z" fill="#1A2E35"/>
<path d="M252.972 192.955C252.747 193.936 252.53 194.924 252.292 195.911C252.049 196.854 251.87 197.812 251.755 198.778C251.755 198.819 251.803 198.819 251.817 198.778C252.105 197.829 252.332 196.862 252.496 195.884L253.067 192.969C253.068 192.963 253.067 192.956 253.066 192.95C253.064 192.944 253.061 192.938 253.058 192.933C253.054 192.928 253.049 192.924 253.044 192.921C253.038 192.918 253.032 192.915 253.026 192.915C253.02 192.914 253.013 192.914 253.007 192.916C253.001 192.917 252.995 192.92 252.99 192.924C252.985 192.927 252.981 192.932 252.978 192.938C252.975 192.943 252.973 192.949 252.972 192.955V192.955Z" fill="#1A2E35"/>
<path d="M245.47 195.434C244.485 195.938 243.527 196.511 242.501 196.919C242.495 196.922 242.49 196.926 242.486 196.93C242.481 196.935 242.478 196.941 242.476 196.947C242.474 196.953 242.473 196.959 242.473 196.965C242.473 196.972 242.475 196.978 242.477 196.984C242.48 196.99 242.484 196.995 242.488 196.999C242.493 197.004 242.499 197.007 242.505 197.009C242.511 197.011 242.517 197.012 242.523 197.012C242.53 197.012 242.536 197.01 242.542 197.008C243.553 196.549 244.539 196.037 245.497 195.475C245.497 195.475 245.497 195.421 245.47 195.434Z" fill="#1A2E35"/>
<path d="M264.462 175.609C264.462 175.609 254.99 176.215 250.587 169.949C246.184 163.683 247.189 154.748 247.189 154.748C247.189 154.748 257.137 155.96 261.091 160.455C265.046 164.95 264.462 175.609 264.462 175.609Z" fill="#1B5F9D"/>
<path d="M268.912 184.973C268.579 183.959 268.171 182.93 267.791 181.956C267.41 180.982 267.03 180.049 266.615 179.116C265.766 177.202 264.818 175.334 263.775 173.518C263.096 172.367 262.416 171.25 261.649 170.113C261.649 169.949 261.601 169.779 261.581 169.609C261.533 169.316 261.492 169.023 261.445 168.73C261.35 168.124 261.248 167.525 261.146 166.925C260.928 165.618 260.656 164.317 260.466 163.002C260.466 162.941 260.357 162.941 260.364 163.002C260.555 164.296 260.684 165.604 260.867 166.898C260.955 167.538 261.037 168.172 261.139 168.812C261.139 169.037 261.207 169.268 261.248 169.493C259.797 167.366 258.232 165.32 256.559 163.363C256.335 163.105 256.097 162.846 255.88 162.587C255.88 162.519 255.819 162.444 255.791 162.376L255.588 161.831C255.445 161.45 255.309 161.075 255.173 160.7C254.908 159.951 254.67 159.202 254.494 158.439C254.494 158.427 254.489 158.415 254.48 158.406C254.471 158.397 254.459 158.392 254.446 158.392C254.433 158.392 254.421 158.397 254.412 158.406C254.404 158.415 254.399 158.427 254.399 158.439C254.589 159.223 254.793 159.999 255.017 160.769C255.126 161.136 255.248 161.504 255.377 161.872C255.377 161.933 255.425 161.994 255.445 162.056C254.235 160.734 252.972 159.454 251.701 158.194C251.691 158.185 251.678 158.18 251.665 158.181C251.651 158.182 251.639 158.188 251.63 158.198C251.621 158.207 251.616 158.221 251.617 158.234C251.617 158.247 251.623 158.26 251.633 158.269C254.08 160.836 256.323 163.591 258.339 166.51C258.117 166.436 257.89 166.377 257.66 166.333C256.933 166.19 256.199 166.088 255.459 165.992C253.916 165.795 252.38 165.597 250.838 165.359C250.825 165.359 250.813 165.364 250.804 165.373C250.796 165.382 250.791 165.394 250.791 165.407C250.791 165.419 250.796 165.431 250.804 165.44C250.813 165.449 250.825 165.454 250.838 165.454C252.306 165.74 253.76 166.074 255.214 166.408C255.893 166.564 256.573 166.701 257.286 166.837C257.851 166.96 258.407 167.12 258.951 167.314C259.1 167.531 259.264 167.749 259.413 167.995C260.093 169.003 260.772 170.038 261.451 171.087L260.48 170.896C259.753 170.753 259.019 170.617 258.278 170.501C256.838 170.262 255.391 170.01 253.964 169.684C253.903 169.684 253.875 169.765 253.964 169.779C255.418 170.119 256.851 170.514 258.285 170.903C258.965 171.087 259.644 171.257 260.385 171.407L261.438 171.638C261.577 171.671 261.717 171.696 261.859 171.713C263.245 173.961 264.541 176.26 265.746 178.612C266.276 179.641 266.779 180.689 267.275 181.738C267.771 182.787 268.212 183.918 268.681 185.007C268.64 185.307 268.987 185.212 268.912 184.973Z" fill="#1A2E35"/>
<path d="M259.216 163.152C259.033 162.246 258.842 161.347 258.645 160.428C258.645 160.367 258.537 160.428 258.55 160.462C258.727 161.347 258.897 162.24 259.06 163.132C259.191 164.029 259.37 164.917 259.596 165.795C259.596 165.795 259.596 165.795 259.596 165.795C259.53 164.906 259.403 164.023 259.216 163.152V163.152Z" fill="#1A2E35"/>
<path d="M253.685 162.893C253.243 162.677 252.789 162.484 252.326 162.315L251.606 162.035L251.246 161.885C251.103 161.849 250.968 161.789 250.845 161.708C250.77 161.661 250.723 161.783 250.797 161.797C250.939 161.835 251.076 161.89 251.205 161.96L251.558 162.124L252.238 162.43C252.693 162.643 253.161 162.83 253.638 162.989C253.705 162.989 253.739 162.914 253.685 162.893Z" fill="#1A2E35"/>
<path d="M274.158 168.144C274.158 168.144 279.892 157.411 288.617 155.749C297.341 154.087 302.675 163.077 302.675 163.077C302.675 163.077 296.315 171.25 288.311 172.612C280.307 173.974 274.158 168.144 274.158 168.144Z" fill="#1B5F9D"/>
<path d="M294.46 160.557C292.188 160.251 289.883 160.278 287.618 160.639L288.005 160.428C288.685 160.101 289.296 159.747 289.942 159.427C291.301 158.746 292.66 157.99 294.019 157.425C294.024 157.422 294.03 157.418 294.034 157.413C294.038 157.409 294.042 157.403 294.044 157.397C294.046 157.391 294.047 157.385 294.047 157.378C294.046 157.372 294.045 157.366 294.042 157.36C294.04 157.354 294.036 157.349 294.031 157.344C294.026 157.34 294.021 157.337 294.015 157.335C294.009 157.332 294.003 157.331 293.996 157.332C293.99 157.332 293.984 157.333 293.978 157.336C292.619 157.976 291.199 158.507 289.833 159.141C289.154 159.454 288.474 159.781 287.795 160.135C287.36 160.367 286.884 160.578 286.436 160.85C284.519 161.24 282.657 161.862 280.891 162.703L281.985 161.511C282.794 160.619 283.595 159.679 284.486 158.868C284.533 158.828 284.486 158.759 284.418 158.8C283.507 159.631 282.542 160.401 281.659 161.266C281.224 161.681 280.816 162.117 280.415 162.567C280.218 162.785 280.015 163.016 279.824 163.248C276.83 164.857 274.229 167.111 272.207 169.847C270.185 172.584 268.793 175.735 268.131 179.075C268.131 179.137 268.205 179.171 268.226 179.109C269.451 175.01 271.652 171.27 274.64 168.213C277.847 164.932 281.885 162.59 286.32 161.436C288.953 160.763 291.675 160.515 294.385 160.7C294.402 160.701 294.419 160.698 294.434 160.689C294.449 160.681 294.461 160.668 294.469 160.653C294.477 160.638 294.48 160.621 294.479 160.604C294.477 160.587 294.471 160.571 294.46 160.557V160.557Z" fill="#1A2E35"/>
<path opacity="0.1" d="M302.675 163.077C302.675 163.077 296.308 171.25 288.304 172.612C282.189 173.702 277.181 170.508 275.143 168.941L274.701 168.213C274.701 168.213 278.826 164.726 286.639 162.71C294.453 160.694 302.675 163.077 302.675 163.077Z" fill="black"/>
<path d="M289.391 156.73C288.724 157.123 288.078 157.551 287.455 158.01C286.849 158.473 286.288 158.991 285.777 159.556C285.729 159.604 285.777 159.665 285.851 159.624C286.429 159.12 287.006 158.616 287.611 158.14C288.195 157.66 288.808 157.216 289.446 156.812C289.507 156.778 289.446 156.696 289.391 156.73Z" fill="#1A2E35"/>
<path d="M294.182 158.548C293.855 158.685 293.502 158.8 293.203 158.93L292.232 159.338C292.164 159.338 292.198 159.481 292.266 159.447L293.237 159.052C293.563 158.923 293.883 158.773 294.209 158.644C294.263 158.616 294.263 158.521 294.182 158.548Z" fill="#1A2E35"/>
<path d="M273.016 181.65C273.016 181.65 274.545 192.295 282.529 196.02C290.512 199.746 300.256 196.02 300.256 196.02C300.256 196.02 296.431 172.987 273.016 181.65Z" fill="#1B5F9D"/>
<path d="M294.759 189.094C294.019 189.012 293.285 188.883 292.558 188.753L291.484 188.549L290.927 188.433C290.71 188.236 290.499 188.031 290.247 187.834C288.734 186.5 287.098 185.312 285.362 184.285C284.417 183.726 283.439 183.223 282.434 182.78H282.59L285.219 182.889C286.972 182.971 288.725 183.012 290.472 183.128C290.54 183.128 290.533 183.032 290.472 183.026C288.712 182.91 286.966 182.712 285.206 182.562L282.651 182.338L281.34 182.222L281 182.188C280.545 182.011 280.089 181.854 279.641 181.711C277.455 180.954 275.102 180.824 272.846 181.337C270.842 181.847 268.837 183.169 268.314 185.293C268.308 185.311 268.309 185.33 268.316 185.346C268.324 185.363 268.338 185.376 268.355 185.382C268.372 185.388 268.391 185.388 268.407 185.38C268.424 185.372 268.437 185.358 268.443 185.341C269.191 183.57 271.161 182.678 272.928 182.31C274.122 182.078 275.347 182.053 276.549 182.236C276.629 182.783 276.763 183.322 276.95 183.843C277.168 184.592 277.392 185.348 277.63 186.09C278.085 187.589 278.581 189.067 279.023 190.565C279.023 190.578 279.028 190.59 279.037 190.599C279.045 190.608 279.058 190.613 279.07 190.613C279.083 190.613 279.095 190.608 279.104 190.599C279.113 190.59 279.118 190.578 279.118 190.565C278.744 189.073 278.438 187.561 278.071 186.07C277.895 185.334 277.711 184.599 277.528 183.863C277.427 183.351 277.293 182.846 277.127 182.351C277.826 182.476 278.518 182.64 279.199 182.842C280.433 183.207 281.643 183.651 282.821 184.17C282.936 184.933 283.106 185.682 283.283 186.431C283.5 187.371 283.745 188.304 284.037 189.216C284.037 189.229 284.042 189.241 284.051 189.25C284.06 189.259 284.072 189.264 284.085 189.264C284.097 189.264 284.109 189.259 284.118 189.25C284.127 189.241 284.132 189.229 284.132 189.216L284.091 189.046C283.915 188.174 283.718 187.303 283.534 186.438C283.392 185.757 283.256 185.028 283.099 184.326C284.091 184.776 285.07 185.266 286.014 185.804C286.014 186.022 286.089 186.247 286.116 186.444C286.177 186.812 286.239 187.173 286.307 187.534C286.456 188.358 286.619 189.176 286.816 189.986C287.173 191.556 287.627 193.103 288.175 194.617C288.175 194.617 288.175 194.658 288.175 194.678L288.216 194.733C288.216 194.774 288.311 194.733 288.297 194.685C287.93 193.105 287.509 191.539 287.163 189.959C286.986 189.169 286.816 188.379 286.653 187.582L286.429 186.39C286.429 186.281 286.429 186.158 286.375 186.036C289.314 187.749 291.975 189.903 294.263 192.424C294.324 192.485 294.433 192.424 294.385 192.329C293.789 191.52 293.152 190.743 292.476 190C292.075 189.571 291.661 189.148 291.233 188.74H291.369L292.49 188.91C293.23 189.005 293.971 189.08 294.712 189.162C294.793 189.196 294.82 189.101 294.759 189.094Z" fill="#1A2E35"/>
<path d="M289.14 192.703C289.14 192.615 289.14 192.52 289.099 192.431C289.058 192.342 289.018 192.199 289.004 192.084C288.841 191.403 288.705 190.653 288.576 189.938C288.576 189.884 288.488 189.904 288.488 189.938C288.536 190.892 288.74 191.83 289.092 192.717H289.154L289.14 192.703Z" fill="#1A2E35"/>
<path d="M282.461 192.533C282.459 192.522 282.453 192.511 282.445 192.504C282.436 192.496 282.425 192.492 282.413 192.492C282.189 191.546 281.972 190.606 281.774 189.652C281.673 189.155 281.571 188.658 281.475 188.154C281.421 187.888 281.374 187.616 281.326 187.35C281.304 187.116 281.246 186.886 281.156 186.669C281.156 186.635 281.068 186.669 281.068 186.669C281.059 187.153 281.126 187.636 281.265 188.099C281.36 188.617 281.462 189.135 281.577 189.652C281.808 190.701 282.073 191.75 282.366 192.785C282.366 192.84 282.481 192.826 282.474 192.785C282.468 192.744 282.461 192.615 282.461 192.533Z" fill="#1A2E35"/>
<path d="M294.025 186.029C292.571 185.831 291.11 185.614 289.65 185.436C289.588 185.436 289.561 185.525 289.65 185.532C291.104 185.75 292.564 185.934 294.025 186.124C294.066 186.145 294.093 186.036 294.025 186.029Z" fill="#1A2E35"/>
<path d="M268.926 156.675C268.926 156.675 264.033 135.181 287.074 126.484C287.074 126.484 293.461 154.816 268.926 156.675Z" fill="#1B5F9D"/>
<path d="M273.879 144.491C273.961 144.43 274.049 144.382 274.124 144.335L275.428 143.606L278.099 142.108C279.858 141.127 281.591 140.064 283.364 139.131C283.419 139.131 283.364 139.022 283.31 139.05C281.537 140.017 279.736 140.923 277.949 141.869L275.306 143.231L274.226 143.803C275 142.346 275.815 140.909 276.719 139.533C277.922 137.688 279.24 135.937 280.619 134.221C280.629 134.205 280.632 134.186 280.629 134.168C280.627 134.15 280.618 134.133 280.605 134.121C280.591 134.108 280.574 134.1 280.556 134.099C280.537 134.097 280.519 134.102 280.504 134.112C278.482 136.08 276.694 138.276 275.177 140.657C275.177 140.582 275.177 140.507 275.177 140.432C275.177 139.901 275.218 139.363 275.224 138.832C275.224 137.783 275.224 136.727 275.224 135.685C275.224 135.617 275.129 135.624 275.129 135.685C275.088 136.714 274.959 137.728 274.905 138.777C274.905 139.295 274.851 139.806 274.837 140.323C274.837 140.602 274.803 140.923 274.837 141.222C274.368 141.985 273.913 142.748 273.478 143.531C272.712 144.93 272.031 146.374 271.44 147.856C271.44 147.318 271.385 146.786 271.351 146.248C271.283 145.077 271.141 143.906 271.093 142.727C271.089 142.717 271.082 142.708 271.073 142.702C271.064 142.695 271.053 142.692 271.042 142.692C271.031 142.692 271.02 142.695 271.011 142.702C271.002 142.708 270.995 142.717 270.991 142.727C270.991 143.906 270.991 145.084 270.991 146.262C270.991 146.848 271.032 147.433 271.066 148.026C271.066 148.237 271.066 148.462 271.107 148.707C270.373 150.626 269.791 152.601 269.367 154.612C268.97 156.759 268.684 158.925 268.511 161.102C268.511 161.102 268.511 161.102 268.511 161.102C268.759 159.142 269.168 157.206 269.734 155.313C270.02 154.305 270.325 153.27 270.645 152.289C271.603 151.84 272.52 151.275 273.451 150.757C274.382 150.239 275.381 149.701 276.339 149.177C278.262 148.121 280.178 147.045 282.162 146.105C282.223 146.105 282.162 145.996 282.114 146.024C280.076 146.936 278.078 147.801 276.108 148.796C275.122 149.293 274.158 149.817 273.2 150.362C272.405 150.812 271.582 151.261 270.815 151.785C271.039 151.104 271.27 150.423 271.528 149.79C272.22 147.984 273.005 146.216 273.879 144.491V144.491Z" fill="#1A2E35"/>
<path d="M271.956 139.574C271.956 139.513 271.854 139.513 271.854 139.574C271.936 140.8 271.976 142.026 272.112 143.252C272.112 143.32 272.221 143.32 272.221 143.252C272.174 142.019 272.044 140.8 271.956 139.574Z" fill="#1A2E35"/>
<path d="M282.998 143.681C281.557 144.26 280.103 144.811 278.669 145.418C278.629 145.418 278.669 145.499 278.669 145.479C280.123 144.934 281.557 144.341 283.011 143.776C283.086 143.749 283.059 143.654 282.998 143.681Z" fill="#1A2E35"/>
<path d="M285.192 133.765C283.789 134.414 282.427 135.151 281.115 135.971C281.107 135.974 281.098 135.979 281.092 135.985C281.085 135.991 281.08 135.999 281.076 136.008C281.073 136.017 281.072 136.026 281.073 136.035C281.074 136.044 281.076 136.053 281.081 136.061C281.086 136.069 281.092 136.076 281.1 136.081C281.108 136.086 281.117 136.089 281.126 136.091C281.135 136.092 281.144 136.091 281.153 136.088C281.162 136.085 281.17 136.08 281.177 136.073C282.535 135.29 283.894 134.541 285.253 133.846C285.301 133.819 285.247 133.737 285.192 133.765Z" fill="#1A2E35"/>
<path d="M284.839 203.158H251.613V238.259H284.839V203.158Z" fill="#2B454E"/>
<path d="M251.028 215.58H249.33V275.711H251.028V215.58Z" fill="#1A2E35"/>
<path d="M286.945 215.58H285.247V275.711H286.945V215.58Z" fill="#1A2E35"/>
<path d="M269.891 215.58H268.192V275.711H269.891V215.58Z" fill="#1A2E35"/>
<path d="M286.103 236.012H250.179V240.875H286.103V236.012Z" fill="#1A2E35"/>
<path d="M216.708 28.3436H102.278C99.184 28.3777 96.2297 29.6412 94.064 31.8566C91.8983 34.0721 90.6982 37.0584 90.7272 40.1599V276.276C90.7018 279.376 91.9031 282.361 94.068 284.575C96.2329 286.79 99.1851 288.055 102.278 288.092H216.708C219.808 288.064 222.769 286.803 224.943 284.588C227.116 282.372 228.324 279.383 228.3 276.276V40.1599C228.325 37.0525 227.118 34.0621 224.945 31.8463C222.771 29.6304 219.808 28.3705 216.708 28.3436V28.3436ZM221.057 268.975C221.057 275.186 216.416 280.219 210.688 280.219H108.312C102.577 280.219 97.9296 275.186 97.9296 268.975V49.109C97.9296 36.4482 102.577 35.8352 108.312 35.8352H128.825C130.014 35.8352 130.993 37.1973 130.993 38.8727V39.6015C130.993 43.538 133.14 43.5516 135.749 43.5516H183.169C185.84 43.5516 187.98 43.5516 187.98 39.6015V38.8727C187.98 37.1905 188.938 35.8352 190.148 35.8352H210.688C216.416 35.8352 221.057 37.5174 221.057 49.109V268.975Z" fill="#1A2E35"/>
<path d="M221.064 49.3065V269.166C221.064 275.384 216.423 280.41 210.695 280.41H108.319C102.584 280.41 97.9364 275.384 97.9364 269.166V49.3065C97.9364 36.6457 102.584 36.0259 108.319 36.0259H128.832C130.021 36.0259 131 37.388 131 39.0634V39.7922C131 43.7355 133.147 43.7491 135.79 43.7491H183.21C185.881 43.7491 188.021 43.7491 188.021 39.7922V39.0362C188.021 37.354 188.979 35.9987 190.188 35.9987H210.688C216.423 36.0259 221.064 37.7081 221.064 49.3065Z" fill="white"/>
<path d="M221.064 49.3066V69.2548H97.9364V49.3066C97.9364 36.6457 102.584 36.0259 108.319 36.0259H128.832C130.021 36.0259 131 37.3881 131 39.0703V39.7922C131 43.7355 133.147 43.7491 135.79 43.7491H183.21C185.881 43.7491 188.021 43.7491 188.021 39.7922V39.0703C188.021 37.3881 188.979 36.0259 190.188 36.0259H210.688C216.423 36.0259 221.064 37.715 221.064 49.3066Z" fill="#1B5F9D"/>
<path d="M165.965 38.6276H153.055C152.95 38.6285 152.846 38.6085 152.749 38.5689C152.652 38.5293 152.563 38.4707 152.489 38.3966C152.414 38.3225 152.355 38.2344 152.315 38.1373C152.274 38.0401 152.253 37.936 152.253 37.8307C152.253 37.7255 152.272 37.6212 152.312 37.5237C152.352 37.4263 152.41 37.3376 152.484 37.2629C152.558 37.1882 152.646 37.1289 152.743 37.0884C152.84 37.0479 152.943 37.0271 153.048 37.0271H165.958C166.171 37.0271 166.375 37.1118 166.525 37.2625C166.676 37.4132 166.76 37.6176 166.76 37.8307V37.8307C166.76 38.0421 166.676 38.2448 166.527 38.3942C166.378 38.5436 166.176 38.6276 165.965 38.6276Z" fill="white"/>
<path d="M125.285 40.7729C125.216 40.8353 125.15 40.9012 125.088 40.9704L124.973 41.0793C124.464 40.5761 123.778 40.2939 123.063 40.2939C122.349 40.2939 121.663 40.5761 121.154 41.0793L121.045 40.9636C120.984 40.8955 120.916 40.8342 120.848 40.7661L121.093 40.5481C121.272 40.4006 121.468 40.2749 121.677 40.1735C121.922 40.056 122.179 39.969 122.445 39.9147L122.825 39.8671H123.165H123.423C123.656 39.8953 123.884 39.9525 124.103 40.0373C124.266 40.0989 124.425 40.1717 124.579 40.2553C124.738 40.3502 124.89 40.4572 125.034 40.5754L125.244 40.7661L125.285 40.7729Z" fill="white"/>
<path d="M121.779 41.7059L121.467 41.3926C121.812 41.0458 122.26 40.821 122.744 40.7524C123.091 40.6992 123.446 40.7296 123.779 40.8409C124.112 40.9522 124.414 41.1413 124.66 41.3926L124.341 41.7059C124.175 41.5355 123.976 41.4005 123.756 41.3092C123.537 41.2179 123.301 41.1722 123.063 41.1747C122.825 41.1736 122.588 41.2199 122.368 41.3111C122.148 41.4023 121.947 41.5365 121.779 41.7059V41.7059Z" fill="white"/>
<path d="M124.028 42.0192L123.722 42.3325C123.547 42.1586 123.31 42.0611 123.063 42.0611C122.817 42.0611 122.58 42.1586 122.404 42.3325L122.098 42.0192C122.225 41.8915 122.375 41.7902 122.541 41.721C122.706 41.6519 122.884 41.6163 123.063 41.6163C123.243 41.6163 123.42 41.6519 123.586 41.721C123.751 41.7902 123.902 41.8915 124.028 42.0192Z" fill="white"/>
<path d="M123.342 42.6118C123.342 42.6858 123.313 42.7568 123.26 42.8092C123.208 42.8616 123.137 42.891 123.063 42.891C122.989 42.891 122.919 42.8616 122.866 42.8092C122.814 42.7568 122.785 42.6858 122.785 42.6118C122.785 42.5377 122.814 42.4667 122.866 42.4143C122.919 42.3619 122.989 42.3325 123.063 42.3325C123.137 42.3325 123.208 42.3619 123.26 42.4143C123.313 42.4667 123.342 42.5377 123.342 42.6118V42.6118Z" fill="white"/>
<path d="M105.961 41.3722C105.961 41.2106 106.009 41.0525 106.098 40.9181C106.188 40.7837 106.315 40.679 106.464 40.6171C106.613 40.5553 106.777 40.5391 106.935 40.5706C107.094 40.6022 107.239 40.68 107.353 40.7943C107.467 40.9086 107.545 41.0542 107.576 41.2128C107.608 41.3713 107.591 41.5356 107.53 41.685C107.468 41.8343 107.363 41.9619 107.229 42.0517C107.095 42.1415 106.938 42.1895 106.776 42.1895C106.56 42.1895 106.353 42.1034 106.2 41.9501C106.047 41.7968 105.961 41.589 105.961 41.3722V41.3722Z" fill="white"/>
<path d="M108.536 41.3722C108.536 41.2106 108.584 41.0525 108.674 40.9181C108.763 40.7837 108.891 40.679 109.04 40.6171C109.189 40.5553 109.352 40.5391 109.511 40.5706C109.669 40.6022 109.814 40.68 109.928 40.7943C110.042 40.9086 110.12 41.0542 110.151 41.2128C110.183 41.3713 110.167 41.5356 110.105 41.685C110.043 41.8343 109.939 41.9619 109.805 42.0517C109.67 42.1415 109.513 42.1895 109.352 42.1895C109.135 42.1895 108.928 42.1034 108.775 41.9501C108.622 41.7968 108.536 41.589 108.536 41.3722V41.3722Z" fill="white"/>
<path d="M111.105 41.3722C111.105 41.2106 111.152 41.0525 111.242 40.9181C111.332 40.7837 111.459 40.679 111.608 40.6171C111.757 40.5553 111.921 40.5391 112.079 40.5706C112.237 40.6022 112.382 40.68 112.496 40.7943C112.611 40.9086 112.688 41.0542 112.72 41.2128C112.751 41.3713 112.735 41.5356 112.673 41.685C112.612 41.8343 112.507 41.9619 112.373 42.0517C112.239 42.1415 112.081 42.1895 111.92 42.1895C111.704 42.1895 111.496 42.1034 111.343 41.9501C111.19 41.7968 111.105 41.589 111.105 41.3722V41.3722Z" fill="white"/>
<path d="M113.673 41.3722C113.673 41.2106 113.721 41.0525 113.81 40.9181C113.9 40.7837 114.027 40.679 114.176 40.6171C114.325 40.5553 114.489 40.5391 114.647 40.5706C114.806 40.6022 114.951 40.68 115.065 40.7943C115.179 40.9086 115.257 41.0542 115.288 41.2128C115.319 41.3713 115.303 41.5356 115.242 41.685C115.18 41.8343 115.075 41.9619 114.941 42.0517C114.807 42.1415 114.65 42.1895 114.488 42.1895C114.272 42.1895 114.065 42.1034 113.912 41.9501C113.759 41.7968 113.673 41.589 113.673 41.3722V41.3722Z" fill="white"/>
<path d="M116.241 41.3722C116.241 41.2106 116.289 41.0525 116.379 40.9181C116.468 40.7837 116.596 40.679 116.745 40.6171C116.894 40.5553 117.058 40.5391 117.216 40.5706C117.374 40.6022 117.519 40.68 117.633 40.7943C117.747 40.9086 117.825 41.0542 117.856 41.2128C117.888 41.3713 117.872 41.5356 117.81 41.685C117.748 41.8343 117.644 41.9619 117.51 42.0517C117.376 42.1415 117.218 42.1895 117.057 42.1895C116.841 42.1895 116.633 42.1034 116.48 41.9501C116.327 41.7968 116.241 41.589 116.241 41.3722V41.3722Z" fill="white"/>
<path d="M211.823 43.1566H205.178V40.0714H211.823V43.1566ZM205.517 42.8161H211.483V40.3983H205.517V42.8161Z" fill="white"/>
<path d="M210.015 40.5958H205.735V42.6322H210.015V40.5958Z" fill="white"/>
<path d="M212.421 40.7865H211.83V42.4347H212.421V40.7865Z" fill="white"/>
<path d="M109.603 61.6201L105.961 58.208L109.603 54.7891L110.167 55.3952L107.17 58.208L110.167 61.0207L109.603 61.6201Z" fill="white"/>
<path d="M209.893 61.8721H207.44V61.0139C207.441 60.978 207.431 60.9427 207.411 60.9125C207.392 60.8822 207.364 60.8583 207.331 60.8437C207.237 60.7958 207.146 60.7411 207.06 60.6802C207.029 60.6616 206.994 60.6517 206.958 60.6517C206.922 60.6517 206.887 60.6616 206.856 60.6802L206.115 61.1093L204.892 58.9776L205.633 58.5553C205.663 58.5356 205.687 58.5081 205.702 58.4757C205.718 58.4433 205.724 58.4072 205.721 58.3714V58.0581C205.726 58.0222 205.72 57.9855 205.705 57.9528C205.689 57.9201 205.664 57.8927 205.633 57.8743L204.892 57.4248L206.115 55.2931L206.856 55.7221C206.886 55.7423 206.921 55.7531 206.958 55.7531C206.994 55.7531 207.03 55.7423 207.06 55.7221C207.146 55.6634 207.237 55.611 207.331 55.5655C207.364 55.549 207.392 55.5237 207.411 55.4924C207.43 55.4612 207.44 55.4251 207.44 55.3884V54.5439H209.893V55.3816C209.893 55.4183 209.903 55.4543 209.922 55.4856C209.942 55.5169 209.969 55.5422 210.002 55.5587C210.098 55.6042 210.191 55.6565 210.28 55.7153C210.311 55.7355 210.346 55.7463 210.382 55.7463C210.419 55.7463 210.454 55.7355 210.484 55.7153L211.225 55.2862L212.448 57.418L211.707 57.847C211.676 57.8664 211.651 57.8937 211.635 57.926C211.618 57.9583 211.61 57.9945 211.612 58.0309C211.616 58.0831 211.616 58.1354 211.612 58.1876C211.616 58.2374 211.616 58.2875 211.612 58.3374C211.61 58.3737 211.618 58.41 211.635 58.4423C211.651 58.4746 211.676 58.5019 211.707 58.5213L212.448 58.9503L211.225 61.082L210.484 60.653C210.453 60.6344 210.418 60.6245 210.382 60.6245C210.346 60.6245 210.311 60.6344 210.28 60.653C210.191 60.7139 210.098 60.7686 210.002 60.8164C209.969 60.8311 209.941 60.855 209.922 60.8852C209.903 60.9155 209.893 60.9508 209.893 60.9867V61.8721ZM207.97 61.3408H209.37V61.0139C209.366 60.8802 209.401 60.7482 209.471 60.6344C209.541 60.5205 209.643 60.4299 209.764 60.3737C209.842 60.3362 209.917 60.2929 209.988 60.2443C210.1 60.1697 210.231 60.1298 210.365 60.1298C210.5 60.1298 210.631 60.1697 210.742 60.2443L211.028 60.4078L211.707 59.1955L211.422 59.0252C211.304 58.9571 211.209 58.8569 211.146 58.7363C211.084 58.6156 211.057 58.4796 211.069 58.3442V58.1058C211.058 57.9705 211.085 57.8348 211.147 57.7143C211.21 57.5938 211.305 57.4935 211.422 57.4248L211.707 57.2613L211.028 56.0422L210.749 56.2057C210.635 56.2761 210.503 56.3134 210.369 56.3134C210.234 56.3134 210.103 56.2761 209.988 56.2057C209.918 56.1546 209.843 56.1112 209.764 56.0763C209.64 56.0125 209.537 55.9144 209.467 55.7937C209.397 55.6729 209.364 55.5346 209.37 55.3952V55.0683H207.97V55.3816C207.975 55.5216 207.94 55.6601 207.869 55.7807C207.798 55.9014 207.694 55.9992 207.569 56.0626C207.492 56.1006 207.417 56.1438 207.345 56.192C207.232 56.2619 207.101 56.2989 206.968 56.2989C206.835 56.2989 206.704 56.2619 206.591 56.192L206.305 56.0286L205.626 57.2477L205.905 57.4111C206.026 57.4749 206.126 57.5741 206.19 57.6957C206.254 57.8173 206.28 57.9555 206.265 58.0922V58.351C206.275 58.487 206.247 58.6232 206.183 58.7437C206.119 58.8643 206.023 58.9642 205.905 59.0321L205.626 59.1955L206.305 60.4078L206.591 60.2443C206.702 60.1697 206.834 60.1298 206.968 60.1298C207.102 60.1298 207.233 60.1697 207.345 60.2443L207.569 60.3737C207.689 60.4323 207.79 60.5233 207.861 60.6364C207.932 60.7496 207.97 60.8803 207.97 61.0139V61.3408ZM208.65 60.0468C208.285 60.0468 207.929 59.9384 207.626 59.7353C207.323 59.5322 207.087 59.2435 206.948 58.9059C206.809 58.5682 206.773 58.1968 206.844 57.8386C206.916 57.4804 207.092 57.1515 207.35 56.8937C207.608 56.6358 207.937 56.4606 208.295 56.3901C208.652 56.3197 209.023 56.3572 209.359 56.498C209.695 56.6387 209.982 56.8763 210.184 57.1807C210.385 57.4851 210.492 57.8427 210.491 58.208C210.491 58.45 210.443 58.6897 210.351 58.9133C210.258 59.1368 210.122 59.3398 209.951 59.5107C209.78 59.6815 209.577 59.8168 209.354 59.9088C209.13 60.0008 208.891 60.0477 208.65 60.0468V60.0468ZM208.65 56.8867C208.389 56.8854 208.133 56.9617 207.915 57.1061C207.698 57.2504 207.528 57.4563 207.427 57.6976C207.326 57.9389 207.299 58.2048 207.349 58.4615C207.399 58.7183 207.524 58.9543 207.708 59.1398C207.892 59.3253 208.127 59.4518 208.383 59.5033C208.639 59.5549 208.904 59.5291 209.146 59.4293C209.387 59.3295 209.593 59.1602 209.738 58.9427C209.884 58.7253 209.961 58.4696 209.961 58.208C209.961 57.8587 209.823 57.5237 209.577 57.2761C209.332 57.0285 208.998 56.8885 208.65 56.8867V56.8867Z" fill="white"/>
<path d="M128.37 222.425H115.569V235.256H128.37V222.425Z" fill="#ECECEC"/>
<path d="M147.083 222.425H134.281V235.256H147.083V222.425Z" fill="#ECECEC"/>
<path d="M165.795 222.425H152.994V235.256H165.795V222.425Z" fill="#ECECEC"/>
<path d="M184.508 222.425H171.707V235.256H184.508V222.425Z" fill="#ECECEC"/>
<path d="M203.221 222.425H190.419V235.256H203.221V222.425Z" fill="#ECECEC"/>
<path d="M202.827 242.019H115.175V243.401H202.827V242.019Z" fill="#ECECEC"/>
<path d="M202.827 245.676H115.175V247.059H202.827V245.676Z" fill="#ECECEC"/>
<path d="M202.827 249.333H115.175V250.716H202.827V249.333Z" fill="#ECECEC"/>
<path d="M155.868 252.997H115.175V254.38H155.868V252.997Z" fill="#ECECEC"/>
<path d="M242.256 75.4728C242.014 74.4929 241.897 73.4858 241.91 72.4761C241.896 71.4661 242.015 70.4585 242.263 69.4795C242.513 70.4582 242.629 71.4662 242.61 72.4761C242.623 73.4862 242.505 74.4938 242.256 75.4728V75.4728Z" fill="#1A2E35"/>
<path d="M236.161 77.2368C235.463 76.5086 234.86 75.6938 234.368 74.8122C233.852 73.9442 233.453 73.0123 233.179 72.0403C233.883 72.7612 234.486 73.5745 234.972 74.458C235.491 75.3269 235.891 76.2614 236.161 77.2368V77.2368Z" fill="#1A2E35"/>
<path d="M231.752 81.8135C229.816 81.231 228.042 80.2024 226.574 78.81C228.51 79.3924 230.283 80.421 231.752 81.8135V81.8135Z" fill="#1A2E35"/>
<path d="M230.236 87.9839C228.271 88.4516 226.223 88.4516 224.257 87.9839C225.235 87.7413 226.24 87.6245 227.247 87.6365C228.254 87.6205 229.259 87.7373 230.236 87.9839V87.9839Z" fill="#1A2E35"/>
<path d="M231.996 94.093C231.272 94.7975 230.459 95.4042 229.577 95.8978C228.712 96.4157 227.782 96.8165 226.812 97.0896C227.535 96.3835 228.349 95.7766 229.231 95.2848C230.098 94.7696 231.027 94.369 231.996 94.093V94.093Z" fill="#1A2E35"/>
<path d="M236.562 98.5062C236.286 99.4786 235.884 100.41 235.367 101.278C234.876 102.16 234.27 102.973 233.566 103.696C234.147 101.755 235.173 99.978 236.562 98.5062V98.5062Z" fill="#1A2E35"/>
<path d="M242.718 100.039C242.961 101.019 243.078 102.026 243.065 103.035C243.079 104.045 242.96 105.053 242.712 106.032C242.245 104.061 242.245 102.009 242.712 100.039H242.718Z" fill="#1A2E35"/>
<path d="M248.806 98.2883C250.195 99.7618 251.219 101.542 251.796 103.485C251.09 102.761 250.484 101.946 249.996 101.06C249.479 100.193 249.079 99.2608 248.806 98.2883V98.2883Z" fill="#1A2E35"/>
<path d="M253.209 93.6979C255.144 94.2845 256.916 95.3126 258.387 96.7014C256.451 96.119 254.678 95.0904 253.209 93.6979Z" fill="#1A2E35"/>
<path d="M254.731 87.5276C256.7 87.06 258.749 87.06 260.718 87.5276C259.738 87.7706 258.731 87.8873 257.721 87.8749C256.714 87.8903 255.709 87.7735 254.731 87.5276Z" fill="#1A2E35"/>
<path d="M252.978 81.4185C253.702 80.7124 254.515 80.1055 255.397 79.6137C256.262 79.0945 257.192 78.6936 258.163 78.4218C257.438 79.1264 256.625 79.7331 255.744 80.2266C254.877 80.7406 253.947 81.1411 252.978 81.4185V81.4185Z" fill="#1A2E35"/>
<path d="M248.412 77.0052C248.689 76.0329 249.091 75.101 249.608 74.2333C250.097 73.3496 250.702 72.5362 251.409 71.8156C250.828 73.7561 249.802 75.5334 248.412 77.0052V77.0052Z" fill="#1A2E35"/>
<path d="M244.213 87.7523H123.267V175.411H244.213V87.7523Z" fill="#1B5F9D"/>
<path d="M135.545 175.411V198.928L159.075 175.343L135.545 175.411Z" fill="#1B5F9D"/>
<path d="M183.74 97.1918L152.206 151.928H215.268L183.74 97.1918Z" fill="#1A2E35"/>
<path d="M183.74 104.976L159.062 147.822H208.419L183.74 104.976Z" fill="white"/>
<path d="M181.24 117.378H186.241L185.901 135.849H181.573L181.24 117.378Z" fill="#1A2E35"/>
<path d="M185.901 138.157H181.579V142.489H185.901V138.157Z" fill="#1A2E35"/>
<path d="M166.414 157.023H168.207L171.34 165.645H169.301L168.622 163.718H165.945L165.265 165.645H163.227L166.414 157.023ZM168.316 162.342L167.311 159.297L166.278 162.342H168.316Z" fill="white"/>
<path d="M172.189 165.645V157.023H174.18V163.895H178.345V165.645H172.189Z" fill="white"/>
<path d="M185.323 163.895V165.645H179.283V157.023H185.215V158.773H181.267V160.448H184.664V162.063H181.267V163.895H185.323Z" fill="white"/>
<path d="M186.54 165.645V157.023H190.413C190.801 157.017 191.185 157.103 191.534 157.275C191.874 157.442 192.178 157.673 192.431 157.956C192.681 158.235 192.881 158.555 193.022 158.902C193.161 159.237 193.233 159.596 193.232 159.958C193.232 160.218 193.2 160.476 193.137 160.728C193.073 160.965 192.979 161.194 192.859 161.409C192.739 161.623 192.59 161.82 192.417 161.994C192.243 162.171 192.044 162.32 191.826 162.437L193.701 165.645H191.459L189.808 162.866H188.51V165.645H186.54ZM188.524 161.13H190.345C190.465 161.126 190.582 161.093 190.687 161.035C190.792 160.977 190.882 160.895 190.949 160.796C191.127 160.546 191.216 160.244 191.201 159.938C191.217 159.628 191.115 159.324 190.915 159.086C190.838 158.992 190.742 158.916 190.633 158.861C190.524 158.807 190.405 158.777 190.284 158.773H188.524V161.13Z" fill="white"/>
<path d="M201.08 158.773H198.458V165.645H196.467V158.773H193.837V157.023H201.074L201.08 158.773Z" fill="white"/>
<path d="M202.269 162.219V156.941H204.206V162.219H202.269ZM202.269 165.625V163.581H204.206V165.625H202.269Z" fill="white"/>
<path d="M63.4245 112.668L55.892 110.744L55.66 110.685L55.4684 110.828C52.9499 112.717 49.9561 113.865 46.8232 114.143C43.6903 114.421 40.5421 113.818 37.7319 112.402C34.9217 110.986 32.5607 108.813 30.914 106.126C29.3938 103.646 28.538 100.819 28.4232 97.9189L28.437 97.2153C28.5246 92.7733 30.3465 88.5431 33.5112 85.433C36.6758 82.323 40.9308 80.5812 45.3622 80.5812C49.7937 80.5812 54.0486 82.323 57.2133 85.433C60.3771 88.5422 62.1989 92.7709 62.2873 97.2116C62.3012 100.001 61.6208 102.751 60.3078 105.211L60.1926 105.427L60.2923 105.65L63.4245 112.668Z" fill="white" stroke="#1A2E35"/>
<path d="M43.0282 86.6626H47.1051L46.8265 101.721H43.3L43.0282 86.6626Z" fill="#1B5F9D"/>
<path d="M46.8265 103.607H43.3V107.142H46.8265V103.607Z" fill="#1B5F9D"/>
<path d="M92.9898 229.76L94.6613 239.805L105.981 301.06H107.802L99.5739 239.805L98.3577 229.76H92.9898Z" fill="#C8C8C8"/>
<path d="M98.3577 229.76H92.9898L94.6613 239.805H99.5739L98.3577 229.76Z" fill="#A8A8A8"/>
<path d="M57.4534 301.06H59.2744L70.5944 239.805L72.2659 229.76H66.8981L65.6818 239.805L57.4534 301.06Z" fill="#C8C8C8"/>
<path d="M66.8981 229.76L65.6819 239.805H70.5944L72.2659 229.76H66.8981Z" fill="#A8A8A8"/>
<path d="M23.507 301.06H25.3348L36.648 239.805L38.3195 229.76H32.9517L31.7354 239.805L23.507 301.06Z" fill="#C8C8C8"/>
<path d="M31.7354 239.805H36.648L38.3195 229.76H32.9517L31.7354 239.805Z" fill="#A8A8A8"/>
<path d="M26.4016 234.48H109.324V225.721H78.2861L67.8494 164.875H29.5611L26.4016 234.48Z" fill="#C8C8C8"/>
<path d="M26.4016 234.48H30.92L33.869 164.875H29.5611L26.4016 234.48Z" fill="#A8A8A8"/>
<path d="M187.28 303.859C185.792 304.383 141.953 303.764 140.308 302.749C140.111 302.64 139.819 294.229 139.819 294.229C139.819 293.411 138.936 288.222 138.936 288.222C135.015 278.776 125.672 262.124 125.672 262.124L154.407 262.893L167.881 289.666C167.881 289.666 173.847 292.056 179.052 294.433C181.328 295.398 183.545 296.499 185.69 297.729C187.382 299.057 188.761 303.341 187.28 303.859Z" fill="#C36358"/>
<path d="M187.423 303.968C185.881 304.479 141.769 304.247 140.098 303.171C139.459 302.769 138.936 288.385 138.936 288.304L167.392 288.133V288.617C167.392 288.617 184.229 296.265 185.942 297.648C187.654 299.03 188.945 303.443 187.423 303.968Z" fill="#1B5F9D"/>
<path d="M186.907 302.231C179.473 302.013 149.468 301.816 142.102 302.163C142.041 302.163 142.041 302.204 142.102 302.211C149.461 302.592 179.473 302.544 186.907 302.354C187.09 302.354 187.09 302.238 186.907 302.231Z" fill="#1A2E35"/>
<path d="M170.558 288.215C167.637 287.65 164.056 288.079 161.807 290.156C161.718 290.238 161.807 290.36 161.929 290.333C164.73 289.441 167.619 288.854 170.545 288.583C170.593 288.585 170.641 288.567 170.677 288.534C170.712 288.501 170.733 288.454 170.735 288.406C170.737 288.357 170.719 288.309 170.686 288.274C170.653 288.238 170.607 288.217 170.558 288.215V288.215Z" fill="#1A2E35"/>
<path d="M172.638 289.495C169.709 288.937 166.128 289.366 163.886 291.443C163.798 291.525 163.886 291.648 164.008 291.614C166.814 290.725 169.707 290.141 172.638 289.87C172.681 289.862 172.72 289.838 172.748 289.804C172.777 289.77 172.792 289.727 172.792 289.683C172.792 289.638 172.777 289.595 172.748 289.561C172.72 289.527 172.681 289.504 172.638 289.495V289.495Z" fill="#1A2E35"/>
<path d="M174.764 290.783C171.843 290.224 168.262 290.653 166.013 292.73C165.931 292.805 166.013 292.928 166.135 292.901C168.938 292.015 171.825 291.428 174.751 291.15C174.775 291.151 174.799 291.147 174.821 291.139C174.844 291.131 174.865 291.118 174.882 291.101C174.9 291.085 174.914 291.065 174.924 291.043C174.934 291.021 174.94 290.997 174.941 290.973C174.942 290.949 174.938 290.925 174.93 290.902C174.921 290.88 174.908 290.859 174.892 290.841C174.876 290.824 174.856 290.809 174.834 290.799C174.812 290.789 174.788 290.784 174.764 290.783V290.783Z" fill="#1A2E35"/>
<path d="M168.595 288.46L134.54 288.746C134.54 288.746 112.362 235.624 110.194 232.709C109.107 231.265 58.9211 223.814 50.1491 216.363C38.7475 206.686 47.1594 188.658 47.1594 188.658L79.3528 188.535C79.3528 188.535 77.9123 195.462 79.115 196.436C79.91 197.083 126.386 207.959 134.54 218.127C146.24 232.709 168.595 288.46 168.595 288.46Z" fill="#2B454E"/>
<path d="M164.484 282.896C162.677 282.801 160.849 282.896 159.048 282.896H153.612C149.977 282.896 146.349 282.937 142.741 282.971C140.702 282.971 138.664 283.114 136.585 283.196C136.569 283.196 136.553 283.202 136.542 283.214C136.53 283.225 136.524 283.241 136.524 283.257C136.524 283.273 136.53 283.289 136.542 283.3C136.553 283.312 136.569 283.318 136.585 283.318C140.213 283.482 143.835 283.584 147.456 283.557C151.078 283.529 154.72 283.475 158.328 283.359C160.366 283.291 162.452 283.305 164.491 283.114C164.52 283.113 164.547 283.101 164.567 283.08C164.586 283.058 164.597 283.03 164.596 283.001C164.595 282.973 164.583 282.945 164.562 282.925C164.541 282.906 164.513 282.895 164.484 282.896V282.896Z" fill="#1A2E35"/>
<path d="M134.784 273.191C133.908 270.916 132.956 268.669 131.971 266.442C130.041 262.056 128.003 257.724 125.965 253.392C123.831 248.852 121.693 244.334 119.55 239.839C118.495 237.619 117.44 235.401 116.384 233.186C116.005 232.314 115.524 231.491 114.95 230.734C114.288 229.935 113.428 229.324 112.457 228.963C111.431 228.561 110.344 228.282 109.277 228.003C108.108 227.676 106.937 227.356 105.764 227.042C103.417 226.407 101.066 225.798 98.711 225.217C93.9547 224.053 62.1486 217.725 56.8759 215.423C53.7023 214.006 51.216 211.389 49.9588 208.143C48.3349 203.723 48.464 198.996 49.0008 194.386C49.1367 193.201 49.3269 192.016 49.5036 190.83C49.5036 190.749 49.4017 190.722 49.3881 190.796C48.7086 195.455 47.8729 200.215 48.6407 204.915C49.2726 208.783 51.3586 212.822 54.7559 214.913C61.5031 219.088 98.0587 225.619 107.497 228.187L110.962 229.147C112.078 229.389 113.118 229.901 113.992 230.638C114.694 231.379 115.258 232.239 115.657 233.179C116.18 234.255 116.676 235.338 117.186 236.414C119.31 240.954 121.444 245.47 123.586 249.96C127.792 258.814 132.059 267.667 135.667 276.787C136.102 277.877 136.53 278.973 136.986 280.063C136.995 280.093 137.015 280.118 137.043 280.132C137.07 280.147 137.102 280.15 137.132 280.141C137.161 280.132 137.186 280.112 137.201 280.084C137.216 280.057 137.219 280.024 137.21 279.995C136.524 277.686 135.647 275.438 134.784 273.191Z" fill="#1A2E35"/>
<path d="M150.215 311.221C148.727 311.725 105.995 311.126 104.364 310.084C102.584 308.381 101.83 267.974 101.83 267.974L129.321 267.742L131.034 296.762C131.034 296.762 136.965 299.235 142.136 301.7C144.403 302.699 146.606 303.836 148.734 305.105C150.412 306.427 151.73 310.731 150.215 311.221Z" fill="#C36358"/>
<path d="M151.112 311.255C149.57 311.766 105.458 311.555 103.787 310.479C103.148 310.077 102.801 303.668 102.611 295.856C102.611 295.775 102.611 295.693 102.611 295.611L131.074 295.434V295.918C131.074 295.918 147.918 303.559 149.637 304.935C151.357 306.311 152.661 310.778 151.112 311.255Z" fill="#1B5F9D"/>
<path d="M150.623 309.539C143.189 309.321 113.184 309.144 105.818 309.491C105.757 309.491 105.757 309.539 105.818 309.539C113.184 309.914 143.189 309.852 150.629 309.662C150.779 309.662 150.779 309.546 150.623 309.539Z" fill="#1A2E35"/>
<path d="M134.234 295.53C131.305 294.971 127.724 295.4 125.482 297.477C125.394 297.559 125.482 297.682 125.605 297.648C128.407 296.762 131.295 296.175 134.22 295.897C134.269 295.899 134.316 295.882 134.352 295.848C134.388 295.815 134.409 295.769 134.41 295.72C134.412 295.672 134.395 295.624 134.362 295.588C134.328 295.552 134.282 295.531 134.234 295.53V295.53Z" fill="#1A2E35"/>
<path d="M136.34 296.81C133.412 296.251 129.831 296.687 127.589 298.758C127.5 298.84 127.589 298.962 127.711 298.935C130.511 298.034 133.399 297.438 136.327 297.157C136.361 297.144 136.39 297.12 136.411 297.09C136.432 297.06 136.444 297.025 136.445 296.988C136.447 296.951 136.438 296.915 136.419 296.883C136.4 296.852 136.373 296.826 136.34 296.81V296.81Z" fill="#1A2E35"/>
<path d="M138.447 298.097C135.518 297.539 131.937 297.968 129.695 300.045C129.607 300.127 129.695 300.249 129.817 300.215C132.62 299.33 135.508 298.743 138.433 298.465C138.457 298.466 138.481 298.462 138.504 298.454C138.526 298.445 138.547 298.432 138.565 298.416C138.582 298.399 138.597 298.38 138.607 298.358C138.617 298.336 138.622 298.312 138.623 298.288C138.624 298.264 138.62 298.24 138.612 298.217C138.603 298.194 138.591 298.174 138.574 298.156C138.558 298.138 138.538 298.124 138.516 298.114C138.494 298.104 138.471 298.098 138.447 298.097V298.097Z" fill="#1A2E35"/>
<path d="M132.583 295.713L101.442 295.877C101.442 295.877 101.972 239.703 99.5399 236.591C96.2989 232.443 50.9713 232.538 41.248 219.013C32.5168 206.869 41.248 188.535 41.248 188.535H74.25C73.4644 192.263 72.3876 195.922 71.0293 199.48C71.0293 199.48 114.053 209.015 123.974 219.816C131.822 228.37 132.583 295.713 132.583 295.713Z" fill="#2B454E"/>
<path d="M77.0698 197.123C76.0742 197.346 75.1009 197.658 74.1617 198.057C73.1764 198.431 72.2048 198.86 71.2535 199.323C69.3875 200.25 67.5729 201.278 65.8177 202.402C65.7634 202.436 65.8177 202.511 65.8721 202.483C67.7271 201.516 69.65 200.645 71.5661 199.82L74.3451 198.622C75.2986 198.256 76.2329 197.843 77.1445 197.382C77.2669 197.314 77.2057 197.103 77.0698 197.123Z" fill="#1A2E35"/>
<path d="M75.011 188.644C74.6169 190.211 74.2772 191.791 73.8287 193.344C73.6181 194.059 73.421 194.787 73.1492 195.475C72.8775 196.163 72.5785 196.728 71.899 196.837C71.2195 196.946 70.9002 196.32 70.9613 195.68C71.0225 195.039 71.2195 194.243 71.3622 193.534C71.5253 192.717 72.4154 188.767 72.2863 188.624C72.2756 188.616 72.2625 188.611 72.2489 188.611C72.2354 188.611 72.2223 188.616 72.2116 188.624C71.9543 189.141 71.7604 189.688 71.634 190.252C71.4166 191.001 71.206 191.757 71.0157 192.513C70.8255 193.269 70.642 194.025 70.4585 194.781C70.2617 195.337 70.208 195.934 70.3023 196.517C70.3759 196.793 70.5342 197.039 70.7549 197.22C70.9756 197.401 71.2475 197.508 71.5321 197.525L71.4506 197.675C71.3826 197.832 71.3351 197.995 71.2739 198.152C71.2128 198.308 71.1652 198.479 71.1176 198.642C71.092 198.722 71.076 198.804 71.0701 198.887C71.0701 198.976 71.0701 199.064 71.0701 199.16C71.0671 199.189 71.0741 199.218 71.0898 199.243C71.1055 199.267 71.1291 199.286 71.1566 199.295C71.1842 199.305 71.2141 199.305 71.2416 199.295C71.269 199.285 71.2924 199.266 71.3079 199.242C71.3486 199.167 71.4098 199.105 71.4574 199.024C71.5034 198.942 71.5398 198.855 71.5661 198.765C71.6204 198.608 71.668 198.452 71.7088 198.288C71.7495 198.125 71.7971 197.968 71.8243 197.811C71.8313 197.714 71.8313 197.616 71.8243 197.518C72.1518 197.494 72.4654 197.376 72.728 197.178C73.1728 196.8 73.4985 196.301 73.6656 195.741C73.9035 195.094 74.0869 194.413 74.2704 193.745C74.7517 192.094 75.0859 190.403 75.2692 188.692C75.2631 188.665 75.2491 188.64 75.2289 188.62C75.2088 188.601 75.1833 188.588 75.1558 188.583C75.1283 188.578 75.0999 188.581 75.0742 188.592C75.0484 188.603 75.0264 188.621 75.011 188.644V188.644Z" fill="#1A2E35"/>
<path d="M54.5929 192.479C54.457 193.262 54.3618 194.045 54.1852 194.821C54.0085 195.598 53.8047 196.327 53.5601 197.062C53.3388 197.785 53.0162 198.473 52.602 199.105C52.171 199.693 51.6585 200.216 51.08 200.658C49.9709 201.535 48.7271 202.225 47.3972 202.701C46.7304 202.942 46.0497 203.142 45.3588 203.301C44.9987 203.382 44.6386 203.444 44.2717 203.491C43.9666 203.5 43.6664 203.57 43.3884 203.696C43.3631 203.712 43.3424 203.735 43.3281 203.762C43.3138 203.789 43.3063 203.819 43.3063 203.849C43.3063 203.879 43.3138 203.909 43.3281 203.936C43.3424 203.963 43.3631 203.985 43.3884 204.002C43.9183 204.161 44.4808 204.178 45.0191 204.05C45.6062 203.995 46.188 203.893 46.7585 203.743C47.9135 203.448 49.0208 202.989 50.0472 202.381C51.0743 201.79 51.9934 201.028 52.7651 200.127C53.4966 199.182 53.9991 198.079 54.2327 196.905C54.5964 195.475 54.7587 194.001 54.7152 192.526C54.7118 192.514 54.7056 192.503 54.6971 192.493C54.6886 192.484 54.6779 192.476 54.666 192.471C54.6541 192.467 54.6413 192.465 54.6286 192.466C54.6159 192.468 54.6036 192.472 54.5929 192.479V192.479Z" fill="#1A2E35"/>
<path d="M106.049 256.873C105.75 251.992 105.347 247.12 104.84 242.257C104.711 241.059 104.595 239.86 104.446 238.661C104.357 237.732 104.154 236.817 103.841 235.937C103.162 234.105 101.606 233.213 99.7642 232.716C97.5967 232.171 95.3544 231.844 93.1461 231.483C90.9378 231.122 88.6276 230.802 86.3514 230.475C81.765 229.835 77.1717 229.242 72.6125 228.473C68.0704 227.744 63.5791 226.727 59.1657 225.428C55.0889 224.202 50.9509 222.704 47.703 219.871C40.718 213.809 40.4598 203.648 41.316 195.148C41.4383 193.95 41.581 192.751 41.7304 191.552C41.7304 191.491 41.6421 191.471 41.6353 191.552C41.0782 196.32 40.4327 201.155 40.9083 205.977C41.2155 209.968 42.5321 213.814 44.7337 217.153C47.0983 220.559 50.5976 222.745 54.3822 224.27C58.5492 225.887 62.8513 227.129 67.2378 227.982C76.302 229.882 85.5428 230.706 94.6614 232.246C95.7825 232.443 96.9036 232.647 98.0587 232.865C99.0987 233.018 100.118 233.29 101.096 233.676C103.134 234.602 103.739 236.625 103.997 238.709C104.588 243.551 104.996 248.421 105.356 253.283C106.036 263.091 106.437 272.946 106.416 282.773C106.416 283.992 106.416 286.349 106.375 287.541C106.375 287.65 106.539 287.636 106.545 287.541C106.763 277.686 106.654 266.7 106.049 256.873Z" fill="#1A2E35"/>
<path d="M131.781 262.852C131.147 254.226 130.209 245.64 128.968 237.095C128.363 232.961 127.792 228.786 126.929 224.693C126.629 223.012 125.93 221.428 124.891 220.075C123.493 218.43 121.852 217.008 120.026 215.859C104.887 206.454 72.9318 199.814 71.9602 199.582C71.8786 199.582 71.8514 199.684 71.9602 199.698C79.7197 201.625 106.674 209.028 117.587 215.362C119.238 216.316 123.702 218.686 125.367 222.091C126.202 223.814 126.59 226.457 126.909 228.343C127.276 230.489 127.589 232.634 127.942 234.786C129.206 243.204 130.175 251.658 130.85 260.149C131.53 268.635 132.209 282.303 132.209 283.373C132.218 283.423 132.244 283.469 132.283 283.501C132.323 283.534 132.372 283.552 132.423 283.552C132.474 283.552 132.523 283.534 132.563 283.501C132.602 283.469 132.628 283.423 132.637 283.373C132.691 274.682 132.42 271.509 131.781 262.852Z" fill="#1A2E35"/>
<path d="M130.388 289.666C128.716 289.523 127.025 289.55 125.346 289.502L120.298 289.373C116.934 289.298 113.571 289.243 110.201 289.189C108.298 289.189 106.389 289.237 104.487 289.271C104.47 289.271 104.455 289.277 104.443 289.289C104.432 289.3 104.425 289.316 104.425 289.332C104.425 289.348 104.432 289.364 104.443 289.375C104.455 289.387 104.47 289.393 104.487 289.393C107.85 289.645 111.206 289.829 114.577 289.89C117.947 289.952 121.31 289.972 124.674 289.945C126.576 289.945 128.499 289.986 130.395 289.843C130.418 289.842 130.44 289.832 130.456 289.814C130.472 289.797 130.481 289.774 130.48 289.751C130.479 289.727 130.469 289.705 130.451 289.689C130.434 289.673 130.411 289.665 130.388 289.666V289.666Z" fill="#1A2E35"/>
<path d="M106.953 133.914L98.0383 152.092C97.7122 152.616 97.8956 153.134 98.446 153.25L108.332 155.368C108.639 155.408 108.951 155.362 109.232 155.233C109.513 155.104 109.752 154.898 109.922 154.639L118.837 136.468C118.927 136.377 118.99 136.263 119.018 136.138C119.047 136.013 119.039 135.882 118.996 135.761C118.954 135.64 118.878 135.533 118.778 135.454C118.677 135.374 118.557 135.324 118.429 135.311L108.543 133.199C108.238 133.156 107.926 133.2 107.645 133.326C107.363 133.453 107.123 133.657 106.953 133.914V133.914Z" fill="#2B454E"/>
<path d="M108.128 134.16L99.2138 152.33C99.1255 152.421 99.0643 152.535 99.0373 152.66C99.0102 152.784 99.0184 152.913 99.0608 153.033C99.1032 153.152 99.1782 153.258 99.2773 153.337C99.3764 153.416 99.4956 153.466 99.6215 153.481L109.508 155.599C109.814 155.64 110.126 155.593 110.407 155.464C110.689 155.335 110.928 155.13 111.098 154.871L120.019 136.7C120.108 136.608 120.169 136.494 120.196 136.369C120.222 136.244 120.214 136.115 120.17 135.995C120.127 135.875 120.051 135.77 119.951 135.691C119.851 135.612 119.731 135.563 119.605 135.549L109.718 133.431C109.412 133.389 109.1 133.436 108.818 133.565C108.537 133.694 108.298 133.9 108.128 134.16V134.16Z" fill="#1A2E35"/>
<path d="M110.649 135.617C110.61 135.782 110.522 135.932 110.398 136.047C110.273 136.162 110.118 136.237 109.95 136.264C109.783 136.29 109.612 136.266 109.458 136.195C109.304 136.124 109.175 136.009 109.087 135.864C108.998 135.719 108.955 135.551 108.962 135.382C108.968 135.212 109.025 135.048 109.125 134.911C109.224 134.774 109.362 134.669 109.521 134.611C109.68 134.552 109.853 134.542 110.017 134.582C110.127 134.608 110.23 134.656 110.321 134.722C110.412 134.789 110.489 134.872 110.547 134.968C110.606 135.064 110.645 135.171 110.663 135.282C110.68 135.394 110.676 135.507 110.649 135.617V135.617Z" fill="#375A64"/>
<path d="M68.8957 156.178C71.8311 169.343 80.9292 187.616 86.1 188.869C88.5597 189.455 92.8336 191.028 96.7065 188.91C105.146 184.285 113.693 173.743 116.411 167.218C117.376 164.903 106.817 157.05 104.65 158.63C99.5739 162.335 92.8471 170.317 92.1473 170.106C89.5381 169.309 81.0787 158.324 75.1605 150.607C68.0328 141.195 67.727 150.927 68.8957 156.178Z" fill="#C36358"/>
<path d="M119.469 154.775C119.319 149.599 118.484 148.292 120.672 143.878C122.112 140.963 120.869 138.798 118.144 140.779C113.68 144.028 112.477 150.75 112.708 153.202L119.469 154.775Z" fill="#C36358"/>
<path d="M115.365 169.173C115.365 169.173 119.068 162.825 119.442 157.288C119.707 153.461 119.36 145.063 109.929 138.573C107.7 137.034 103.427 136.428 106.165 140.269C108.108 142.993 110.16 144.144 111.003 145.935C111.003 145.935 105.479 145.813 104.024 148.114C102.747 150.128 101.611 152.228 100.627 154.401C100.983 154.674 101.358 154.922 101.748 155.143C101.748 155.143 100.45 157.343 101.463 161.095L115.365 169.173Z" fill="#C36358"/>
<path d="M119.122 153.59C117.913 151.99 115.283 148.632 112.185 146.637C108.74 144.423 101.517 141.079 99.9069 143.647C98.7314 145.527 101.375 147.052 101.375 147.052C101.375 147.052 98.0995 146.303 97.4064 148.23C96.7745 149.994 98.8945 151.043 98.8945 151.043C98.8945 151.043 96.856 150.934 96.5435 152.746C96.2037 154.925 100.586 154.789 102.149 157.309C102.496 157.867 119.122 153.59 119.122 153.59Z" fill="#C36358"/>
<path d="M110.452 150.675C107.895 148.56 104.754 147.279 101.449 147.004C101.368 147.004 101.32 147.059 101.395 147.079C104.543 147.919 107.577 149.138 110.432 150.709C110.432 150.709 110.473 150.689 110.452 150.675Z" fill="#1A2E35"/>
<path d="M108.122 154.094C106.81 153.079 102.686 151.002 98.9148 150.968C98.8333 150.968 98.7857 151.029 98.8673 151.05C102.048 151.724 105.141 152.759 108.088 154.135L108.122 154.094Z" fill="#1A2E35"/>
<path d="M87.9889 164.153L74.2092 177.775C74.2092 177.775 68.026 157.343 67.8969 150.866C67.7542 143.538 71.5253 145.063 76.5738 149.851C81.6223 154.639 87.9889 164.153 87.9889 164.153Z" fill="#1B5F9D"/>
<path d="M73.6317 173.307C74.0326 172.762 78.2589 168.458 79.2033 167.538C80.1478 166.619 83.9596 162.846 84.9924 161.981C85.04 161.94 85.1012 161.981 85.0604 162.042C84.1975 163.084 80.372 166.912 79.4344 167.858C78.4967 168.805 74.2228 172.98 73.686 173.375C73.6453 173.409 73.6045 173.341 73.6317 173.307Z" fill="#1A2E35"/>
<path d="M80.2294 193.384C79.2577 194.324 37.8235 198.622 37.6196 198.349C37.0693 197.593 44.8356 158.63 61.4352 145.227C64.3637 142.864 69.2355 143.865 71.4438 145.281C72.5445 145.996 76.105 151.86 76.9815 156.859C77.858 161.858 80.8001 192.785 80.2294 193.384Z" fill="#1B5F9D"/>
<path d="M47.5739 165.127L77.9939 165.386C77.9124 164.637 77.8376 163.915 77.7561 163.227L48.5795 162.989C48.233 163.67 47.9001 164.405 47.5739 165.127Z" fill="#2B454E"/>
<path d="M45.7189 169.432L78.4491 169.704C78.3676 168.968 78.2996 168.247 78.2181 167.545L46.6158 167.286C46.3033 167.995 46.0043 168.716 45.7189 169.432Z" fill="#2B454E"/>
<path d="M72.8707 145.962C74.4946 147.645 74.7936 152.841 71.3962 153.617C67.9988 154.394 63.7589 148.625 63.426 145.629C63.0931 142.632 69.2627 142.257 72.8707 145.962Z" fill="#2B454E"/>
<path d="M71.4438 152.289C69.0249 152.644 65.281 148.687 63.922 145.574C63.8337 145.363 65.3761 137.401 65.512 135.767C65.512 135.433 75.4187 139.111 75.4187 139.111C74.6636 141.084 74.1524 143.143 73.8967 145.24C73.8831 145.458 73.788 151.949 71.4438 152.289Z" fill="#C36358"/>
<path d="M65.8313 135.781C66.1167 138.43 67.3805 145.356 72.8639 145.996C73.1964 146.02 73.5302 146.02 73.8627 145.996C73.8627 145.554 73.8967 145.268 73.8967 145.213C74.1515 143.116 74.6603 141.058 75.4119 139.084C75.4119 139.084 75.4119 139.084 75.4119 139.084L75.2488 139.022L74.9702 138.92L74.8615 138.873L74.6441 138.798L74.3723 138.689L73.9103 138.525C73.8552 138.501 73.7984 138.48 73.7404 138.464L73.3803 138.334L72.0213 137.824L71.4845 137.633L70.8051 137.388L70.1256 137.149H70.0373L68.8822 136.741L68.5017 136.611L67.7678 136.359L67.2718 136.196L66.3002 135.896L66.0895 135.835C66.0019 135.825 65.9154 135.807 65.8313 135.781V135.781Z" fill="#1A2E35"/>
<path d="M66.6399 123.331C64.8257 126.634 64.5471 137.211 66.5787 140.01C69.5141 144.096 75.4119 145.642 79.115 141.856C82.7094 138.191 82.8317 124.4 80.474 121.744C76.9815 117.835 69.3578 118.461 66.6399 123.331Z" fill="#C36358"/>
<path d="M75.0722 131.66C75.0722 131.66 75.0178 131.66 75.0178 131.721C75.0178 132.437 74.8819 133.261 74.2296 133.472C74.2296 133.472 74.2296 133.519 74.2296 133.513C75.0246 133.397 75.1809 132.341 75.0722 131.66Z" fill="#1A2E35"/>
<path d="M74.4606 130.85C73.3123 130.72 73.1017 133.029 74.1956 133.152C75.2896 133.274 75.4255 130.979 74.4606 130.85Z" fill="#1A2E35"/>
<path d="M79.2034 131.885C79.2034 131.885 79.2577 131.926 79.2509 131.953C79.1694 132.634 79.1966 133.499 79.8217 133.792C79.8217 133.792 79.8217 133.84 79.8217 133.833C79.0335 133.656 79.0131 132.552 79.2034 131.885Z" fill="#1A2E35"/>
<path d="M79.9032 131.197C81.0583 131.197 80.9564 133.519 79.9032 133.513C78.85 133.506 78.9384 131.183 79.9032 131.197Z" fill="#1A2E35"/>
<path d="M75.3915 129.917C75.0902 130.011 74.784 130.088 74.4742 130.148C74.1622 130.28 73.8149 130.301 73.489 130.209C73.3916 130.162 73.3128 130.083 73.2648 129.986C73.2168 129.888 73.2025 129.778 73.224 129.671C73.2975 129.467 73.4246 129.286 73.5921 129.149C73.7595 129.011 73.961 128.921 74.1753 128.888C74.5982 128.738 75.0622 128.755 75.473 128.936C75.5734 128.978 75.6579 129.051 75.7143 129.145C75.7708 129.238 75.7963 129.347 75.7872 129.456C75.7782 129.565 75.735 129.668 75.664 129.751C75.5929 129.833 75.4975 129.891 75.3915 129.917V129.917Z" fill="#1A2E35"/>
<path d="M80.9904 129.304C80.6861 129.218 80.3867 129.116 80.0934 128.997C79.7621 128.928 79.4618 128.754 79.2373 128.5C79.1818 128.407 79.159 128.298 79.1725 128.191C79.1861 128.083 79.2352 127.984 79.3121 127.907C79.4857 127.778 79.6908 127.698 79.9059 127.675C80.1211 127.653 80.3383 127.688 80.5351 127.778C80.9698 127.89 81.3461 128.162 81.5883 128.541C81.6394 128.631 81.6624 128.735 81.6546 128.839C81.6468 128.942 81.6084 129.041 81.5443 129.123C81.4802 129.205 81.3934 129.266 81.2947 129.298C81.1961 129.33 81.0901 129.332 80.9904 129.304V129.304Z" fill="#1A2E35"/>
<path d="M74.5218 137.313C75.4526 137.108 76.4182 137.125 77.3416 137.361C77.4299 137.361 77.5115 137.197 77.5318 137.122L77.593 135.603C77.79 135.719 78.7685 136.25 78.7753 135.964C78.8828 133.502 78.7416 131.036 78.354 128.602C78.3495 128.589 78.3409 128.577 78.3293 128.568C78.3177 128.56 78.3038 128.555 78.2895 128.555C78.2751 128.555 78.2612 128.56 78.2496 128.568C78.238 128.577 78.2294 128.589 78.2249 128.602C78.1094 130.877 78.3948 133.158 78.3132 135.413C77.9657 135.221 77.5928 135.078 77.2057 134.99C77.1242 134.99 77.2057 136.598 77.2057 136.843C76.3415 136.539 75.3931 136.586 74.5626 136.972C74.216 137.177 74.1141 137.456 74.5218 137.313Z" fill="#1A2E35"/>
<path d="M72.6532 138.811C72.8095 138.988 72.9658 139.227 73.2172 139.268C73.4816 139.279 73.7454 139.235 73.9918 139.138C73.9918 139.138 74.0393 139.138 73.9918 139.179C73.8809 139.311 73.7367 139.411 73.5742 139.469C73.4117 139.526 73.2368 139.539 73.0677 139.506C72.9245 139.456 72.7993 139.364 72.7075 139.243C72.6157 139.122 72.5614 138.977 72.5513 138.825C72.5717 138.798 72.626 138.784 72.6532 138.811Z" fill="#1A2E35"/>
<path d="M76.2341 136.68C75.5546 136.618 73.3259 136.863 73.5569 137.939C73.6521 138.416 74.4131 138.369 75.0857 137.939C75.5433 137.595 75.9327 137.167 76.2341 136.68V136.68Z" fill="#1A2E35"/>
<path d="M74.7528 138.103C74.1821 138.369 73.6385 138.334 73.5501 137.939C73.5273 137.81 73.5421 137.678 73.5927 137.557C73.6433 137.436 73.7276 137.332 73.8355 137.258C74.2364 137.286 75.079 137.456 74.7528 138.103Z" fill="#FF9ABD"/>
<path d="M64.6015 132.273C64.4452 131.279 63.1746 120.647 63.5823 119.551C63.99 118.454 65.0228 119.101 65.0432 119.047C65.0635 118.992 65.2062 118.059 65.8313 117.773C66.0392 117.715 66.2568 117.7 66.4706 117.73C66.6844 117.759 66.89 117.832 67.0748 117.944C67.0748 117.944 67.3669 116.977 68.0192 116.786C68.2342 116.744 68.4563 116.759 68.6637 116.829C68.871 116.9 69.0564 117.023 69.2015 117.188C69.288 116.932 69.4353 116.702 69.6307 116.517C69.826 116.332 70.0636 116.197 70.3226 116.125C70.5513 116.086 70.7865 116.123 70.9924 116.23C71.1984 116.337 71.364 116.508 71.4642 116.718C71.4642 116.718 71.8379 115.812 72.5106 115.703C73.1832 115.594 73.6521 116.384 73.6521 116.384C73.7742 116.162 73.9532 115.977 74.1706 115.848C74.388 115.718 74.6359 115.65 74.8887 115.648C75.6905 115.73 75.8807 116.622 75.8807 116.622C76.0334 116.418 76.2299 116.251 76.4557 116.133C76.6815 116.015 76.9308 115.95 77.1853 115.941C77.9191 116.009 78.0686 116.956 78.0686 116.956C78.0686 116.956 78.4695 116.173 79.1558 116.275C79.8421 116.377 79.9032 117.358 79.9032 117.358C79.9032 117.358 80.3992 116.5 81.1874 116.861C82.3901 117.412 81.8669 123.433 81.8669 126.069C81.8669 126.069 81.663 124.781 81.1331 124.707C80.6031 124.632 80.1138 125.428 79.0946 125.503C76.5466 125.708 75.1197 123.773 73.1289 123.964C71.138 124.155 70.18 125.919 69.154 128.813C67.9581 132.069 64.9888 134.623 64.6015 132.273Z" fill="#1A2E35"/>
<path d="M67.0748 132.096C67.0748 132.096 65.3897 128.35 63.7318 128.888C62.0738 129.426 62.9096 134.555 64.5471 135.542C64.7477 135.683 64.9746 135.782 65.2142 135.833C65.4538 135.884 65.7012 135.886 65.9417 135.839C66.1821 135.792 66.4106 135.697 66.6135 135.559C66.8163 135.422 66.9894 135.244 67.1223 135.038L67.0748 132.096Z" fill="#C36358"/>
<path d="M64.0103 130.352V130.393C65.1519 131.129 65.5799 132.437 65.8109 133.676C65.7626 133.539 65.6852 133.413 65.5839 133.309C65.4827 133.204 65.36 133.123 65.2244 133.071C65.0887 133.018 64.9434 132.996 64.7983 133.005C64.6533 133.014 64.5119 133.055 64.3841 133.124C64.3501 133.124 64.3841 133.199 64.3841 133.192C64.6147 133.166 64.8479 133.212 65.052 133.323C65.2561 133.433 65.4214 133.604 65.5256 133.812C65.6969 134.16 65.8291 134.525 65.9197 134.902C65.9197 135.025 66.1643 135.004 66.1507 134.902V134.868C66.4768 133.267 65.6683 130.829 64.0103 130.352Z" fill="#1A2E35"/>
<path d="M56.9846 153.148C55.3199 161.32 54.5725 190.395 60.0694 194.903C65.5663 199.412 70.8186 197.75 71.4845 192.09C72.0281 187.418 66.3613 159.12 64.3637 152.398C62.4611 145.996 58.9211 143.599 56.9846 153.148Z" fill="#C36358"/>
<path d="M70.146 170.698L52.0177 177.441C52.0177 177.441 54.7356 156.328 57.2564 150.301C60.1238 143.558 62.9368 146.5 65.5867 152.943C68.2367 159.386 70.146 170.698 70.146 170.698Z" fill="#1B5F9D"/>
<path d="M53.3019 173.143C53.893 172.816 59.5122 170.623 60.7421 170.174C61.9719 169.724 66.9864 167.838 68.2978 167.484C68.3095 167.478 68.3229 167.478 68.335 167.482C68.3471 167.487 68.357 167.496 68.3624 167.508C68.3678 167.519 68.3683 167.533 68.3638 167.545C68.3594 167.557 68.3503 167.567 68.3386 167.572C67.1223 168.165 62.0738 170.085 60.8236 170.569C59.5734 171.053 53.9745 173.096 53.3494 173.232C53.2747 173.246 53.2611 173.205 53.3019 173.143Z" fill="#1A2E35"/>
<path d="M68.6376 171.1C69.1675 170.862 69.9965 170.514 69.9965 170.514C69.2355 167.913 68.7395 165.216 68.0872 162.587C67.4349 159.958 66.8505 157.22 66.2186 154.537C66.2186 154.528 66.2222 154.519 66.2286 154.513C66.235 154.506 66.2436 154.503 66.2526 154.503C66.2616 154.503 66.2703 154.506 66.2766 154.513C66.283 154.519 66.2866 154.528 66.2866 154.537C66.735 156.035 67.1835 157.527 67.6455 159.025L67.5844 158.433C67.5096 157.751 67.4485 157.07 67.3534 156.342C67.3569 156.333 67.363 156.325 67.3708 156.32C67.3787 156.315 67.388 156.312 67.3975 156.312C67.407 156.312 67.4163 156.315 67.4242 156.32C67.4321 156.325 67.4382 156.333 67.4417 156.342C67.6107 157.03 67.7355 157.728 67.8154 158.433C67.863 158.93 67.8765 159.427 67.8901 159.917C68.1279 160.782 68.3793 161.64 68.5696 162.505C69.2491 165.168 70.2003 168.076 70.6692 170.78C70.6692 170.78 69.3102 171.148 68.6308 171.264C68.6091 171.263 68.5888 171.253 68.5741 171.237C68.5594 171.221 68.5517 171.2 68.5526 171.179C68.5535 171.157 68.563 171.136 68.5789 171.122C68.5948 171.107 68.6159 171.099 68.6376 171.1V171.1Z" fill="#1A2E35"/>
<path d="M55.8635 176.011C54.6223 176.592 53.3653 177.141 52.0924 177.659L51.7595 177.795V177.42C52.0177 174.185 52.4389 170.978 52.9485 167.783C53.2135 166.183 53.5057 164.589 53.859 163.016C54.2124 161.443 54.5929 159.856 55.0753 158.317L54.3143 163.084L53.6348 167.852C53.1728 171.046 52.7243 174.24 52.2351 177.434L51.9293 177.196C53.2339 176.782 54.5453 176.387 55.8635 176.011Z" fill="#1A2E35"/>
<path d="M53.6824 160.823C53.7639 161.504 53.7775 162.137 53.7979 162.784C53.8183 163.432 53.7979 164.072 53.8454 164.739C53.7021 164.437 53.6015 164.116 53.5465 163.786C53.4853 163.458 53.4512 163.125 53.4445 162.791C53.4255 162.127 53.5057 161.464 53.6824 160.823V160.823Z" fill="#1A2E35"/>
<path d="M60.7897 190.415C59.519 196.545 65.3013 198.928 69.0996 196.803C78.0143 191.811 85.869 180.186 89.9526 171.005C91.1621 168.281 74.7528 162.648 72.925 165.25C70.377 168.894 63.3649 178.013 60.7897 190.415Z" fill="#C36358"/>
<path d="M78.7889 157.111C78.1094 157.969 77.627 157.602 77.6745 155.633C77.7221 153.665 79.5499 145.908 76.832 145.486C74.1141 145.063 71.6272 156.056 71.8039 159.338C71.9806 162.621 73.4142 167.886 73.4142 167.886C74.2976 165.842 76.9611 161.095 78.7889 157.111Z" fill="#C36358"/>
<path d="M89.0625 172.871C92.1745 166.823 94.6681 159.89 93.6014 152.868C93.501 152.093 93.1446 151.374 92.589 150.825C92.1677 147.672 90.5505 146.923 90.5505 146.923C89.2595 144.103 87.5065 143.565 87.5065 143.565C87.5065 143.565 86.9697 139.867 84.6867 139.819C82.1251 139.758 83.3753 144.968 82.3153 148.251C79.8896 155.783 74.3383 165.808 73.4278 167.913L89.0625 172.871Z" fill="#C36358"/>
<path d="M85.271 157.908C86.007 155.712 86.5927 153.469 87.0241 151.193C87.3399 148.675 87.4693 146.136 87.4114 143.599C87.4114 143.583 87.4178 143.567 87.4293 143.556C87.4408 143.544 87.4563 143.538 87.4725 143.538C87.4888 143.538 87.5043 143.544 87.5158 143.556C87.5273 143.567 87.5337 143.583 87.5337 143.599C88.1371 148.49 87.3898 153.454 85.373 157.949C85.3254 158.044 85.2371 158.017 85.271 157.908Z" fill="#1A2E35"/>
<path d="M89.5925 160.04C90.1293 157.826 91.0398 153.944 90.4418 146.902C90.4418 146.902 90.4418 146.902 90.4826 146.902C91.4439 151.278 91.1734 155.836 89.7012 160.067C89.6537 160.196 89.5585 160.183 89.5925 160.04Z" fill="#1A2E35"/>
<path d="M91.9366 161.136C92.7045 157.35 92.7044 154.864 92.5346 150.818C92.5346 150.818 92.5753 150.818 92.5821 150.818C93.2616 155.402 92.9762 157.139 92.0657 161.191C92.0318 161.32 91.9095 161.286 91.9366 161.136Z" fill="#1A2E35"/>
<path d="M81.8601 149.463C82.2706 148.218 82.4994 146.919 82.5395 145.608C82.5179 144.275 82.6042 142.943 82.7977 141.624C82.8673 141.283 82.9768 140.952 83.1239 140.636C83.2674 140.299 83.5029 140.009 83.8034 139.799C84.1247 139.619 84.4886 139.529 84.8565 139.54C85.2236 139.544 85.5792 139.668 85.869 139.894C86.3981 140.341 86.7854 140.932 86.9833 141.597C87.1959 142.227 87.3461 142.878 87.4317 143.538C87.266 142.901 87.0525 142.277 86.793 141.672C86.5713 141.076 86.1876 140.555 85.6855 140.167C85.4389 139.999 85.1479 139.909 84.8498 139.908C84.5567 139.91 84.269 139.988 84.014 140.132C83.5559 140.539 83.2672 141.103 83.2054 141.713C83.0042 143.007 82.8861 144.312 82.8521 145.622C82.7609 146.953 82.4245 148.255 81.8601 149.463V149.463Z" fill="#1A2E35"/>
<path d="M73.1968 151.036C73.4572 149.7 73.8913 148.404 74.4878 147.181C74.7891 146.542 75.2388 145.984 75.7992 145.554C76.1228 145.336 76.5125 145.24 76.8999 145.281C77.096 145.313 77.2832 145.386 77.4494 145.495C77.6156 145.605 77.7571 145.747 77.8648 145.915C78.2439 146.532 78.4634 147.234 78.5035 147.958C78.5804 148.636 78.6008 149.319 78.5646 150.001C78.4695 151.363 78.2657 152.725 78.089 154.04C77.9819 154.688 77.9342 155.344 77.9463 156.001C77.9653 156.324 78.0061 156.645 78.0686 156.961C78.0984 157.086 78.1465 157.205 78.2113 157.316C78.2113 157.316 78.2113 157.316 78.2113 157.316L78.3064 157.261C78.7099 156.772 79.0271 156.216 79.2441 155.62C79.5227 155.007 79.7877 154.387 80.0527 153.767C80.5759 152.528 81.0583 151.268 81.5339 150.008C82.0362 148.758 82.4184 147.462 82.6754 146.139C82.5181 147.485 82.215 148.81 81.7717 150.09C81.3641 151.384 80.902 152.65 80.4128 153.917C80.1682 154.551 79.9236 155.184 79.6654 155.811C79.5363 156.124 79.3936 156.43 79.2441 156.744C79.1626 156.9 79.0878 157.05 78.9859 157.213C78.8804 157.376 78.7522 157.523 78.6054 157.649C78.5069 157.74 78.384 157.799 78.2521 157.82C78.1699 157.826 78.0874 157.813 78.0109 157.782C77.9344 157.751 77.8658 157.704 77.8104 157.643C77.6783 157.476 77.5896 157.28 77.5522 157.07C77.4713 156.728 77.419 156.38 77.3959 156.028C77.3737 155.345 77.4124 154.662 77.5115 153.985C77.6541 152.623 77.9191 151.302 78.0143 149.981C78.0687 149.323 78.0687 148.663 78.0143 148.006C77.9731 147.369 77.7946 146.748 77.4911 146.187C77.4196 146.063 77.3216 145.955 77.2042 145.873C77.0868 145.791 76.9528 145.735 76.8116 145.71C76.523 145.668 76.2288 145.731 75.9826 145.887C75.4615 146.26 75.0374 146.753 74.746 147.325C74.0874 148.497 73.5675 149.743 73.1968 151.036V151.036Z" fill="#1A2E35"/>
<path d="M62.0467 185.995C62.366 184.715 62.7805 183.475 63.2222 182.236C63.6638 180.996 64.1666 179.791 64.6898 178.592C65.213 177.393 65.8041 176.215 66.4428 175.064C67.0712 173.912 67.7701 172.799 68.5356 171.734C68.2638 172.333 67.9445 172.905 67.6795 173.504C67.4145 174.104 67.1087 174.676 66.8369 175.268C66.2934 176.453 65.7362 177.632 65.213 178.823L62.0467 185.995Z" fill="#1A2E35"/>
<path d="M81.6426 185.076C82.4648 183.782 83.2802 182.494 84.0752 181.194C84.8701 179.893 85.6651 178.592 86.4125 177.264C87.16 175.936 87.921 174.614 88.648 173.28C89.375 171.945 90.0545 170.555 90.768 169.193C90.2593 170.641 89.6718 172.06 89.0081 173.443C88.3286 174.805 87.6492 176.167 86.8678 177.529C86.0864 178.892 85.2846 180.151 84.4081 181.411C83.5508 182.68 82.6278 183.903 81.6426 185.076V185.076Z" fill="#1A2E35"/>
</g>
<defs>
<clipPath id="clip0_205_4">
<rect width="289" height="320" fill="white" transform="translate(15)"/>
</clipPath>
</defs>
</svg>
