<svg width="244" height="223" viewBox="0 0 244 223" fill="none" xmlns="http://www.w3.org/2000/svg">
<g clip-path="url(#clip0_4_210)">
<path d="M74.9987 98.2043L83.4065 103.109L172.719 155.288C175.457 156.894 178.694 156.517 179.959 154.434C181.234 152.352 180.101 149.326 177.414 147.62L90.2334 92.3388L81.843 87.0219L74.9987 98.2043Z" fill="#007FBE"/>
<path opacity="0.6" d="M74.9987 98.2044L83.4065 103.109C85.0629 101.525 86.5065 99.7337 87.7013 97.7799C88.7468 96.0663 89.5961 94.2412 90.2334 92.3388L81.843 87.0219L74.9987 98.2044Z" fill="#1B1B43"/>
<path d="M86.8026 101.002C87.2771 101.291 87.8268 101.433 88.3823 101.41C88.9378 101.388 89.4741 101.201 89.9234 100.875C90.3727 100.549 90.7148 100.097 90.9064 99.5763C91.0981 99.056 91.1307 98.4908 91.0001 97.952C90.8695 97.4132 90.5817 96.9252 90.1729 96.5495C89.7641 96.1739 89.2527 95.9275 88.7035 95.8416C88.1543 95.7557 87.5918 95.8341 87.0873 96.0669C86.5827 96.2997 86.1588 96.6764 85.869 97.1494C85.6762 97.4634 85.5475 97.8122 85.4901 98.1758C85.4327 98.5395 85.4478 98.9108 85.5345 99.2686C85.6212 99.6265 85.7779 99.9637 85.9955 100.261C86.2131 100.559 86.4873 100.81 86.8026 101.002Z" fill="white"/>
<path d="M44.4695 116.28C69.0265 116.28 88.9339 96.4327 88.9339 71.9499C88.9339 47.467 69.0265 27.6198 44.4695 27.6198C19.9125 27.6198 0.00512695 47.467 0.00512695 71.9499C0.00512695 96.4327 19.9125 116.28 44.4695 116.28Z" fill="#007FBE"/>
<path d="M44.4695 107.907C64.3885 107.907 80.536 91.8086 80.536 71.9498C80.536 52.091 64.3885 35.9923 44.4695 35.9923C24.5506 35.9923 8.40308 52.091 8.40308 71.9498C8.40308 91.8086 24.5506 107.907 44.4695 107.907Z" fill="#CFE8FF"/>
<path d="M127.438 387.821L157.255 390.156L163.504 283.992L172.741 249.089L184.826 203.446L185.454 201.065L188.367 190.064L188.797 188.418L183.091 187.905L152.263 185.149L150.398 193.557L131.934 276.801C131.332 279.511 130.98 282.272 130.884 285.047L127.438 387.821Z" fill="#007FBE"/>
<path d="M170.371 225.471L172.741 249.089L176.58 287.315C177.019 291.722 178.005 296.058 179.513 300.223L211.28 387.821L237.98 377.547L213.155 287.886C206.756 250.976 207.814 222.648 206.166 204.68C206.061 203.56 205.949 202.485 205.827 201.453C205.163 195.952 204.132 191.591 202.382 188.423L188.367 190.069L178.493 191.226L176.346 200.276L175.916 202.108L170.371 225.471Z" fill="#007FBE"/>
<path opacity="0.6" d="M150.398 193.557L150.077 197.136C150.077 197.136 191.92 208.343 206.166 204.68C206.062 203.56 205.95 202.485 205.828 201.453C205.163 195.952 204.132 191.591 202.382 188.423L188.367 190.069L188.798 188.423L183.091 187.905L152.263 185.149L150.398 193.557Z" fill="#1B1B43"/>
<path d="M190.904 120.862L203.577 125.948C205.399 126.68 207.059 127.763 208.46 129.137C209.861 130.51 210.976 132.146 211.74 133.951L222.377 159.329C223.413 161.808 223.632 164.552 223.001 167.163C222.371 169.774 220.923 172.118 218.869 173.855C217.156 175.298 215.091 176.264 212.883 176.653C210.675 177.042 208.403 176.842 206.298 176.072L197.307 172.775L190.904 120.862Z" fill="#E5CB6D"/>
<path d="M103.267 97.7997C105.635 98.9689 108.366 103.936 107.33 105.721C106.481 107.185 104.505 105.204 103.845 104.524C102.647 103.283 99.555 99.9419 101.263 98.048C101.811 97.4473 102.52 97.4373 103.267 97.7997Z" fill="#FFBC96"/>
<path d="M108.999 99.5994C110.966 101.359 112.255 106.877 110.774 108.319C109.561 109.501 108.19 107.063 107.746 106.232C106.93 104.708 104.851 100.667 106.999 99.3015C107.694 98.8646 108.381 99.0409 108.999 99.5994Z" fill="#FFBC96"/>
<path d="M112.805 102.372C114.797 104.07 116.189 109.29 114.752 110.615C113.577 111.703 112.168 109.374 111.708 108.585C110.866 107.135 108.72 103.285 110.824 102.047C111.496 101.652 112.181 101.836 112.805 102.372Z" fill="#FFBC96"/>
<path d="M116.431 103.663C118.422 105.363 119.814 110.581 118.378 111.906C117.202 112.993 115.793 110.665 115.333 109.878C114.491 108.426 112.345 104.576 114.449 103.338C115.121 102.943 115.806 103.129 116.431 103.663Z" fill="#FFBC96"/>
<path d="M190.904 121.011L204.099 143.622C204.099 143.622 200.673 180.982 203.163 185.569C205.653 190.156 211.282 193.76 207.846 196.384C204.411 199.008 177.242 203.595 147.891 196.712C139.772 194.418 145.401 190.158 147.266 188.193C149.131 186.227 151.638 136.741 151.638 136.741L168.518 121.406L180.99 118.06L190.904 121.011Z" fill="#E5CB6D"/>
<path opacity="0.2" d="M168.773 121.408C171.115 125.494 198.679 129.694 190.904 120.862L182.937 119.189L168.773 121.408Z" fill="#1B1B43"/>
<path d="M133.057 148.025L143.935 131.94C145.183 129.918 146.835 128.174 148.789 126.817C150.742 125.46 152.956 124.519 155.29 124.052L168.501 121.408L160.693 150.594C160.693 150.594 148.516 167.64 137.509 171.609C127.629 175.171 114.528 169.32 107.308 130.813L123.686 128.579L133.057 148.025Z" fill="#E5CB6D"/>
<path d="M98.3177 107.942C99.9734 107.731 105.657 116.27 105.657 116.27L114.84 119.395C116.505 119.961 118.04 120.852 119.357 122.015C120.673 123.178 121.745 124.591 122.508 126.172L123.681 128.604L107.308 130.813C107.037 129.376 106.773 127.907 106.521 126.378C100.895 121.329 94.6503 108.409 98.3177 107.942Z" fill="#FFBC96"/>
<path d="M166.253 85.3241L162.929 89.9063C162.366 90.6857 162.715 91.7406 163.661 92.1055L167.206 93.4682L169.696 87.9304L166.253 85.3241Z" fill="#D28572"/>
<path d="M187.727 110.489C187.22 104.882 187.054 99.2493 187.229 93.6222L172.089 94.7143C172.216 96.4332 172.244 98.1578 172.174 99.8798C172.058 102.643 171.776 105.396 171.33 108.126C171.095 109.615 170.832 111.07 170.535 112.47L187.727 110.489Z" fill="#FFBC96"/>
<path d="M171.334 108.126C175.199 106.487 178.348 103.522 180.208 99.7682L172.179 99.8799C172.063 102.643 171.781 105.396 171.334 108.126Z" fill="#D28572"/>
<path d="M187.727 110.484L190.899 120.862C183.596 122.615 176.117 122.692 168.491 121.408L170.528 112.472L187.727 110.484Z" fill="#FFF5E8"/>
<path d="M166.626 77.5895L165.07 98.4724C164.931 99.3636 165.479 100.183 166.25 100.903C166.922 101.502 167.707 101.964 168.558 102.26C169.41 102.556 170.312 102.681 171.212 102.628L181.941 102.183L189.589 93.6222L183.644 75.4101L172.871 75.2537L166.626 77.5895Z" fill="#FFBC96"/>
<path d="M184.241 90.0031C184.241 90.0031 181.43 98.7579 187.401 103.196C193.842 101.094 205.788 81.6007 190.914 75.41C190.914 75.41 186.816 65.0194 175.692 68.8719C165.872 72.2725 163.28 78.2125 163.28 78.2125C163.28 78.2125 170.189 83.3482 178.268 78.5625C178.266 78.5625 177.439 88.9531 184.241 90.0031Z" fill="#1B1B43"/>
<path d="M180.258 86.4262C178.515 88.5857 178.682 91.6165 180.644 93.1952C182.605 94.7739 185.623 94.3048 187.366 92.1452C189.109 89.9857 188.947 86.9574 186.98 85.3886C185.013 83.8198 182.015 84.2666 180.258 86.4262Z" fill="#FFBC96"/>
<path d="M182.424 91.4502C182.463 91.2988 183.397 87.7393 185.909 88.2829L186.059 87.5978C183.514 87.0492 182.12 89.7673 181.741 91.2814L182.424 91.4502Z" fill="#1B1B43"/>
<path opacity="0.4" d="M172.806 93.7021C174.484 93.3072 175.523 91.6307 175.127 89.9576C174.731 88.2845 173.05 87.2482 171.371 87.6431C169.693 88.038 168.654 89.7145 169.05 91.3876C169.446 93.0608 171.127 94.097 172.806 93.7021Z" fill="#FE5B52"/>
<path d="M204.441 198.313C207.284 197.637 208.89 196.592 209.355 195.103C210.102 192.678 207.613 189.89 205.387 187.45C205.041 187.068 204.705 186.706 204.391 186.346C203.786 185.654 203.367 184.822 203.171 183.926C201.117 174.215 204.523 143.984 204.555 143.679L203.626 143.574C203.485 144.816 200.168 174.262 202.255 184.117C202.482 185.169 202.974 186.146 203.684 186.956C203.995 187.314 204.334 187.701 204.68 188.073C206.627 190.228 209.049 192.909 208.452 194.825C208.098 195.957 206.671 196.826 204.219 197.409L204.441 198.313Z" fill="#1B1B43"/>
<path d="M150.055 197.603L150.097 196.669C146.898 196.528 144.941 195.766 144.438 194.468C143.935 193.169 144.854 191.206 146.972 189.113C147.52 188.564 147.899 187.87 148.063 187.113C149.746 179.564 151.548 154.613 151.548 154.362L150.63 154.295C150.612 154.543 148.822 179.43 147.144 186.909C147.018 187.492 146.728 188.027 146.308 188.451C143.878 190.851 142.902 193.107 143.569 194.803C144.236 196.498 146.397 197.441 150.055 197.603Z" fill="#1B1B43"/>
<path d="M134.745 152.2L135.587 151.791L123.955 128.088L107.238 130.362L107.365 131.287L123.409 129.106L134.745 152.2Z" fill="#1B1B43"/>
<path d="M168.695 86.0975C168.696 86.2651 168.646 86.4291 168.553 86.5686C168.46 86.7081 168.328 86.8169 168.173 86.8813C168.018 86.9456 167.847 86.9625 167.683 86.9299C167.518 86.8973 167.367 86.8166 167.248 86.698C167.13 86.5795 167.049 86.4285 167.016 86.2641C166.984 86.0996 167 85.9292 167.065 85.7745C167.129 85.6197 167.238 85.4874 167.378 85.3945C167.518 85.3016 167.682 85.2522 167.849 85.2526C168.074 85.2531 168.288 85.3422 168.447 85.5006C168.606 85.6589 168.695 85.8736 168.695 86.0975Z" fill="#1B1B43"/>
<path d="M170.006 84.9995L167.693 84.0235C167.628 83.9962 167.57 83.9566 167.521 83.9068C167.472 83.857 167.433 83.798 167.407 83.7333C167.381 83.6685 167.367 83.5992 167.368 83.5293C167.369 83.4594 167.383 83.3904 167.41 83.326C167.437 83.2615 167.477 83.203 167.527 83.1538C167.576 83.1046 167.635 83.0657 167.7 83.0393C167.765 83.0129 167.835 82.9995 167.905 83C167.975 83.0005 168.044 83.0147 168.108 83.042L170.427 84.018C170.492 84.0452 170.55 84.0849 170.6 84.1348C170.649 84.1847 170.688 84.2438 170.714 84.3088C170.741 84.3737 170.754 84.4432 170.754 84.5133C170.753 84.5834 170.739 84.6527 170.711 84.7172C170.684 84.7825 170.644 84.8416 170.594 84.8913C170.544 84.9409 170.484 84.98 170.418 85.0063C170.352 85.0326 170.282 85.0455 170.211 85.0443C170.141 85.0432 170.071 85.0279 170.006 84.9995Z" fill="#1B1B43"/>
<path d="M166.617 96.2037C167.807 97.8807 169.315 97.1651 170.341 96.3056C169.099 96.3784 167.853 96.3443 166.617 96.2037Z" fill="#1B1B43"/>
<path d="M170.341 96.3056C170.762 95.9479 171.146 95.5489 171.488 95.1147C171.501 95.0965 171.488 95.0747 171.459 95.0765C169.649 95.202 167.832 95.1764 166.026 95C166.022 94.9998 166.017 95.001 166.013 95.0033C166.009 95.0057 166.005 95.0091 166.003 95.0133C166.001 95.0174 166 95.0222 166 95.0269C166 95.0316 166.002 95.0362 166.005 95.0401C166.162 95.4509 166.367 95.8415 166.617 96.2036C167.853 96.3443 169.099 96.3784 170.341 96.3056Z" fill="white"/>
<path d="M47 44C56.5 45.8333 74.8 55.2 72 78" stroke="white" stroke-width="3" stroke-linecap="round"/>
<path d="M53 55C56.381 55.701 62.894 59.2824 61.8975 68" stroke="white" stroke-width="3" stroke-linecap="round"/>
</g>
<defs>
<clipPath id="clip0_4_210">
<rect width="244" height="223" fill="white"/>
</clipPath>
</defs>
</svg>
