<svg width="319" height="320" viewBox="0 0 319 320" fill="none" xmlns="http://www.w3.org/2000/svg">
<rect width="319" height="320" fill="white"/>
<g clip-path="url(#clip0_205_213)">
<path d="M360.343 282.428H-55.6701V282.636H360.343V282.428Z" fill="#EBEBEB"/>
<path d="M318.658 295.815H274.503V296.023H318.658V295.815Z" fill="#EBEBEB"/>
<path d="M219.914 293.211H171.107V293.419H219.914V293.211Z" fill="#EBEBEB"/>
<path d="M276.633 292.004H260.666V292.212H276.633V292.004Z" fill="#EBEBEB"/>
<path d="M63.8588 289.492H27.9236V289.7H63.8588V289.492Z" fill="#EBEBEB"/>
<path d="M23.2892 289.492H10.4427V289.7H23.2892V289.492Z" fill="#EBEBEB"/>
<path d="M98.8122 293.003H53.7164V293.211H98.8122V293.003Z" fill="#EBEBEB"/>
<path d="M302.775 23.062H108.372V192.409H302.775V23.062Z" fill="#E6E6E6"/>
<path d="M308.608 23.062H111.093V192.409H308.608V23.062Z" fill="#F0F0F0"/>
<path d="M302.775 192.409H108.372V195.687H302.775V192.409Z" fill="#E6E6E6"/>
<path d="M311.719 192.409H114.205V195.687H311.719V192.409Z" fill="#F0F0F0"/>
<path d="M300.437 187.143V28.32L119.255 28.32V187.143H300.437Z" fill="#FAFAFA"/>
<path d="M177.181 187.151L211.335 28.3283H233.958L199.803 187.151H177.181Z" fill="white"/>
<path d="M150.772 187.151L184.927 28.3283H207.55L173.395 187.151H150.772Z" fill="white"/>
<path d="M123.523 28.7526V177.168C123.523 177.401 123.823 177.592 124.189 177.592H125.071C125.437 177.592 125.737 177.401 125.737 177.168V28.7526C125.737 28.5197 125.437 28.3283 125.071 28.3283H124.189C123.823 28.3034 123.523 28.5197 123.523 28.7526Z" fill="#F0F0F0"/>
<path d="M235.356 187.151L269.511 28.3283H278.33L244.175 187.151H235.356Z" fill="white"/>
<path d="M300.445 187.151V28.3283H299.405V187.151H300.445Z" fill="#E6E6E6"/>
<path opacity="0.5" d="M310.538 34.9175H116.135L115.378 30.3666H309.789L310.538 34.9175Z" fill="#E0E0E0"/>
<path opacity="0.5" d="M310.538 50.5003H116.135L115.378 45.9578H309.789L310.538 50.5003Z" fill="#E0E0E0"/>
<path opacity="0.5" d="M310.538 66.0914H116.135L115.378 61.5488H309.789L310.538 66.0914Z" fill="#E0E0E0"/>
<path opacity="0.5" d="M310.538 81.6741H116.135L115.378 77.1316H309.789L310.538 81.6741Z" fill="#E0E0E0"/>
<path opacity="0.5" d="M310.538 97.2653H116.135L115.378 92.7227H309.789L310.538 97.2653Z" fill="#E0E0E0"/>
<path opacity="0.5" d="M310.538 112.856H116.135L115.378 108.314H309.789L310.538 112.856Z" fill="#E0E0E0"/>
<path opacity="0.5" d="M310.538 42.7047H116.135L115.378 38.1622H309.789L310.538 42.7047Z" fill="#E0E0E0"/>
<path opacity="0.5" d="M310.538 58.2958H116.135L115.378 53.7533H309.789L310.538 58.2958Z" fill="#E0E0E0"/>
<path opacity="0.5" d="M310.538 73.8869H116.135L115.378 69.3444H309.789L310.538 73.8869Z" fill="#E0E0E0"/>
<path opacity="0.5" d="M310.538 89.4697H116.135L115.378 84.9272H309.789L310.538 89.4697Z" fill="#E0E0E0"/>
<path opacity="0.5" d="M310.538 105.061H116.135L115.378 100.518H309.789L310.538 105.061Z" fill="#E0E0E0"/>
<path opacity="0.5" d="M310.538 120.644H116.135L115.378 116.101H309.789L310.538 120.644Z" fill="#E0E0E0"/>
<path d="M302.775 205.247H277.032V282.42H302.775V205.247Z" fill="#E6E6E6"/>
<path d="M287.091 282.428H302.775V273.568H270.65L287.091 282.428Z" fill="#EBEBEB"/>
<path d="M225.613 205.247H199.87V282.42H225.613V205.247Z" fill="#E6E6E6"/>
<path d="M302.775 205.247H211.934V280.581H302.775V205.247Z" fill="#EBEBEB"/>
<path d="M227.618 282.428H211.934V273.568H244.059L227.618 282.428Z" fill="#EBEBEB"/>
<path d="M290.611 213.941H224.099V252.752H290.611V213.941Z" fill="#FAFAFA"/>
<path d="M290.611 256.704H224.099V275.174H290.611V256.704Z" fill="#FAFAFA"/>
<path d="M263.553 215.912H251.156C250.209 215.912 249.302 215.536 248.632 214.867C247.963 214.198 247.587 213.29 247.587 212.343H267.156C267.156 212.815 267.063 213.282 266.881 213.717C266.7 214.152 266.434 214.547 266.099 214.879C265.764 215.211 265.366 215.473 264.93 215.65C264.493 215.828 264.025 215.917 263.553 215.912V215.912Z" fill="#EBEBEB"/>
<path d="M263.553 258.676H251.156C250.687 258.676 250.222 258.583 249.788 258.403C249.355 258.223 248.961 257.96 248.629 257.627C248.298 257.295 248.035 256.901 247.856 256.467C247.677 256.033 247.586 255.568 247.587 255.098H267.156C267.157 255.57 267.065 256.038 266.884 256.474C266.703 256.91 266.437 257.306 266.102 257.639C265.767 257.972 265.369 258.235 264.931 258.413C264.494 258.591 264.026 258.68 263.553 258.676V258.676Z" fill="#EBEBEB"/>
<path d="M204.97 205.247H179.227V282.42H204.97V205.247Z" fill="#E6E6E6"/>
<path d="M189.295 282.428H204.97V273.568H172.854L189.295 282.428Z" fill="#EBEBEB"/>
<path d="M127.817 205.247H102.074V282.42H127.817V205.247Z" fill="#E6E6E6"/>
<path d="M204.979 205.247H114.138V280.581H204.979V205.247Z" fill="#EBEBEB"/>
<path d="M129.813 282.428H114.138V273.568H146.254L129.813 282.428Z" fill="#EBEBEB"/>
<path d="M192.814 213.941H126.302V252.752H192.814V213.941Z" fill="#FAFAFA"/>
<path d="M192.814 256.704H126.302V275.174H192.814V256.704Z" fill="#FAFAFA"/>
<path d="M165.749 215.912H153.36C152.412 215.912 151.504 215.537 150.833 214.868C150.162 214.198 149.784 213.291 149.782 212.343H169.326C169.326 212.813 169.234 213.277 169.054 213.711C168.874 214.145 168.61 214.538 168.278 214.87C167.946 215.202 167.551 215.464 167.117 215.643C166.683 215.822 166.218 215.913 165.749 215.912V215.912Z" fill="#EBEBEB"/>
<path d="M165.749 258.676H153.36C152.89 258.676 152.425 258.583 151.991 258.403C151.557 258.224 151.162 257.96 150.83 257.628C150.498 257.296 150.234 256.901 150.054 256.467C149.875 256.033 149.782 255.568 149.782 255.098H169.326C169.327 255.568 169.236 256.034 169.056 256.468C168.877 256.903 168.613 257.298 168.281 257.63C167.949 257.963 167.554 258.226 167.119 258.406C166.685 258.585 166.219 258.677 165.749 258.676Z" fill="#EBEBEB"/>
<path d="M114.404 205.255L302.775 205.255V202.019L114.404 202.019V205.255Z" fill="#F0F0F0"/>
<path d="M114.404 202.01H102.074V205.247H114.404V202.01Z" fill="#E0E0E0"/>
<path d="M14.5446 209.614C13.3714 179.381 12.1234 149.322 14.686 134.155L18.8461 131.201C18.8461 131.201 17.9309 134.03 17.4483 180.354C16.9658 226.678 16.375 202.726 16.8826 209.614H14.5446Z" fill="#E6E6E6"/>
<path d="M21.2674 102.39C27.6989 85.6343 42.6837 69.4525 58.9581 62.83C65.3481 60.2343 56.1459 117.382 32.974 121.068C21.6584 122.865 18.1306 151.851 16.2253 165.745C15.5763 138.373 14.8358 119.146 21.2674 102.39Z" fill="#E6E6E6"/>
<path d="M19.8945 144.929C24.4207 137.749 31.8174 127.707 42.6254 127.699C54.8729 127.699 44.1564 147.857 29.754 154.322C22.7234 157.467 16.8576 167.45 15.335 173.698C15.4681 161.019 15.3683 152.1 19.8945 144.929Z" fill="#E6E6E6"/>
<path d="M159.5 319C242.067 319 309 315.194 309 310.5C309 305.806 242.067 302 159.5 302C76.9334 302 10 305.806 10 310.5C10 315.194 76.9334 319 159.5 319Z" fill="#ECECEC"/>
<path d="M266.108 215.305H16.4416C16.0629 215.303 15.6992 215.157 15.4253 214.895C15.1514 214.634 14.988 214.277 14.9689 213.899L6.0163 29.9673C6.00733 29.768 6.03872 29.5689 6.1086 29.382C6.17848 29.1952 6.2854 29.0243 6.42294 28.8798C6.56048 28.7353 6.72581 28.62 6.909 28.541C7.09219 28.4619 7.28947 28.4207 7.48899 28.4198H257.172C257.551 28.4213 257.916 28.5677 258.191 28.829C258.466 29.0903 258.631 29.4469 258.653 29.8258L267.605 213.758C267.614 213.959 267.582 214.16 267.511 214.349C267.439 214.537 267.33 214.709 267.19 214.854C267.05 214.999 266.881 215.114 266.695 215.191C266.509 215.269 266.309 215.308 266.108 215.305Z" fill="#185791"/>
<path opacity="0.8" d="M17.8394 210.879L9.178 32.9873C9.16903 32.788 9.20042 32.5889 9.2703 32.4021C9.34018 32.2152 9.4471 32.0444 9.58464 31.8999C9.72218 31.7553 9.88751 31.6401 10.0707 31.561C10.2539 31.482 10.4512 31.4408 10.6507 31.4399H254.276C254.656 31.4374 255.022 31.5827 255.297 31.845C255.572 32.1074 255.734 32.4663 255.749 32.8459L264.41 210.738C264.42 210.937 264.39 211.137 264.32 211.324C264.251 211.511 264.144 211.683 264.006 211.828C263.869 211.972 263.703 212.088 263.519 212.166C263.335 212.245 263.137 212.285 262.938 212.285H19.3121C18.9334 212.283 18.5697 212.137 18.2958 211.875C18.0218 211.614 17.8585 211.257 17.8394 210.879V210.879Z" fill="white"/>
<path d="M79.0349 202.343C78.8417 202.341 78.6563 202.267 78.5158 202.134C78.3754 202.001 78.2904 201.82 78.2778 201.627L70.515 42.1723C70.523 41.9837 70.6012 41.805 70.7342 41.6711C70.8671 41.5372 71.0453 41.4578 71.2338 41.4484C71.4223 41.4391 71.6075 41.5004 71.7531 41.6205C71.8987 41.7405 71.9942 41.9106 72.0209 42.0974L79.792 201.553C79.7989 201.753 79.7269 201.948 79.5915 202.096C79.4562 202.243 79.2683 202.332 79.0682 202.343H79.0349Z" fill="white"/>
<path d="M202.325 202.343C202.131 202.341 201.946 202.267 201.805 202.134C201.665 202.001 201.58 201.82 201.567 201.627L193.805 42.1723C193.794 42.0702 193.805 41.967 193.836 41.8691C193.867 41.7712 193.917 41.6806 193.984 41.6028C194.051 41.525 194.133 41.4616 194.225 41.4165C194.317 41.3713 194.418 41.3454 194.52 41.3403C194.719 41.3334 194.913 41.4042 195.06 41.5378C195.208 41.6714 195.298 41.8572 195.311 42.0558L203.09 201.553C203.097 201.753 203.025 201.948 202.889 202.096C202.754 202.243 202.566 202.332 202.366 202.343H202.325Z" fill="white"/>
<path d="M140.688 202.343C140.495 202.341 140.309 202.267 140.169 202.134C140.029 202.001 139.943 201.82 139.931 201.627L132.16 42.1723C132.168 41.9837 132.246 41.805 132.379 41.6711C132.512 41.5372 132.69 41.4578 132.879 41.4484C133.067 41.4391 133.252 41.5004 133.398 41.6205C133.543 41.7405 133.639 41.9106 133.666 42.0974L141.429 201.553C141.438 201.752 141.367 201.947 141.233 202.095C141.099 202.243 140.912 202.332 140.713 202.343H140.688Z" fill="white"/>
<path d="M249.384 58.6036H17.9725C17.867 58.6148 17.7603 58.6036 17.6594 58.5708C17.5584 58.538 17.4655 58.4844 17.3867 58.4134C17.3078 58.3424 17.2447 58.2556 17.2016 58.1587C17.1584 58.0618 17.1361 57.9568 17.1361 57.8507C17.1361 57.7446 17.1584 57.6397 17.2016 57.5428C17.2447 57.4458 17.3078 57.359 17.3867 57.2881C17.4655 57.2171 17.5584 57.1634 17.6594 57.1307C17.7603 57.0979 17.867 57.0867 17.9725 57.0978H249.384C249.489 57.0867 249.596 57.0979 249.697 57.1307C249.798 57.1634 249.891 57.2171 249.97 57.2881C250.049 57.359 250.112 57.4458 250.155 57.5428C250.198 57.6397 250.22 57.7446 250.22 57.8507C250.22 57.9568 250.198 58.0618 250.155 58.1587C250.112 58.2556 250.049 58.3424 249.97 58.4134C249.891 58.4844 249.798 58.538 249.697 58.5708C249.596 58.6036 249.489 58.6148 249.384 58.6036V58.6036Z" fill="white"/>
<path d="M24.9449 49.2856C25.4833 49.07 26.0646 48.9833 26.6425 49.0324C27.2204 49.0816 27.7787 49.2651 28.273 49.5685C29.105 50.0926 29.6126 51.2324 30.6609 51.482C31.8507 51.7233 32.2168 50.7416 33.0572 50.1925C34.1221 49.4853 35.7446 49.8014 36.9344 49.8846C40.0905 50.1287 43.2439 50.406 46.3945 50.7166C49.5063 51.0161 52.6514 51.5486 55.7548 50.9412C56.8281 50.7249 56.3705 49.0943 55.3055 49.2773C52.1272 49.9013 48.7575 49.2107 45.5708 48.9112C42.3842 48.6117 39.1725 48.3122 35.9609 48.0793C34.8641 47.9399 33.7499 48.0595 32.7077 48.4287C32.2139 48.6439 31.7715 48.9615 31.4097 49.3605C31.2766 49.4936 31.1435 49.7682 30.9272 49.7266C30.7108 49.685 30.4696 49.2107 30.3863 49.1109C29.6633 48.293 28.7106 47.7118 27.6524 47.4432C26.5942 47.1746 25.4797 47.231 24.454 47.605C23.4473 47.9961 23.8799 49.6434 24.9033 49.269L24.9449 49.2856Z" fill="white"/>
<path d="M81.1233 51.7815C82.388 50.8247 84.2933 49.5685 85.3333 51.4653C85.8575 52.4138 86.365 53.5536 87.6713 53.3539C88.9776 53.1542 89.8429 51.5319 90.7665 50.7665C92.131 49.6184 93.5121 49.2773 95.1096 50.2091C96.3552 51.1049 97.771 51.7363 99.2698 52.0644C100.709 52.2393 102.168 52.0058 103.48 51.3905C104.233 50.9622 105.06 50.6799 105.918 50.5585C106.828 50.6245 107.734 50.744 108.63 50.9162C110.571 50.9884 112.513 50.8009 114.404 50.3588C115.478 50.1592 115.02 48.5285 113.947 48.6949C111.893 49.1818 109.77 49.3057 107.673 49.061C106.913 48.8866 106.13 48.8277 105.352 48.8862C104.62 49.0208 103.909 49.2531 103.239 49.5768C101.5 50.3422 99.8189 50.7083 97.9968 49.9012C96.5823 49.2773 95.5007 48.1208 93.9032 47.8879C92.5762 47.749 91.2481 48.1408 90.209 48.9778C89.6143 49.4367 89.0578 49.9431 88.5449 50.4919C88.3191 50.7873 88.0716 51.0654 87.8044 51.3239C87.3884 51.6317 87.3552 51.6068 87.1055 51.1492C86.4982 50.0094 85.9157 49.0776 84.5512 48.803C82.9288 48.4786 81.531 49.3521 80.2913 50.2923C79.4592 50.9412 80.2913 52.4138 81.1233 51.7565V51.7815Z" fill="white"/>
<path d="M144.848 51.3156C145.835 50.8409 146.846 50.4188 147.877 50.051C148.884 49.6114 149.953 49.3307 151.047 49.219C152.004 49.219 152.844 49.7681 153.759 49.9595C154.462 50.1253 155.2 50.0521 155.856 49.7515C156.455 49.4686 157.071 48.803 157.72 48.6949C158.369 48.5867 159.084 49.4437 159.725 49.7348C160.374 50.0058 161.086 50.0894 161.78 49.9761C162.421 49.9012 163.361 49.5685 163.96 49.9761C164.559 50.3838 164.684 51.1076 165.283 51.4653C165.541 51.617 165.832 51.7024 166.131 51.714C166.43 51.7256 166.728 51.6631 166.997 51.5319C167.596 51.2407 167.92 50.6999 168.419 50.259C169.152 49.6517 170 49.9928 170.841 50.1841C171.594 50.3996 172.381 50.4758 173.162 50.4087C174.036 50.2923 175.051 49.7348 175.933 49.9096C177.397 50.2008 178.154 51.7482 179.785 50.9495C180.767 50.467 179.91 49.0027 178.953 49.4853C178.537 49.6849 177.33 48.6533 176.931 48.4536C176.214 48.1782 175.43 48.1289 174.685 48.3122C173.802 48.6122 172.87 48.7421 171.939 48.6949C171.16 48.4934 170.371 48.3323 169.576 48.2123C168.871 48.1525 168.169 48.3473 167.596 48.7614C167.271 49.0027 166.572 50.076 166.148 49.9844C165.957 49.9428 165.649 49.3105 165.532 49.1525C165.34 48.8991 165.107 48.6797 164.842 48.5035C164.255 48.1837 163.582 48.0584 162.92 48.1458C162.178 48.3193 161.413 48.3615 160.657 48.2706C159.941 48.0709 159.467 47.3637 158.751 47.1225C157.137 46.5567 156.363 47.8879 154.982 48.2872C154.092 48.5535 153.177 47.9212 152.336 47.6965C151.467 47.4635 150.552 47.4635 149.682 47.6965C147.728 48.2267 145.831 48.9455 144.016 49.843C143.034 50.3089 143.891 51.7732 144.848 51.3156V51.3156Z" fill="white"/>
<path d="M201.551 50.858L206.085 49.5684C206.801 49.3604 207.525 49.1108 208.249 48.9444C208.96 48.8393 209.686 48.974 210.312 49.3272C211.543 49.6998 212.831 49.8463 214.114 49.7598L218.649 49.7015L237.203 49.4769C237.424 49.4769 237.635 49.3893 237.791 49.2332C237.947 49.0772 238.035 48.8656 238.035 48.6449C238.035 48.4243 237.947 48.2127 237.791 48.0566C237.635 47.9006 237.424 47.813 237.203 47.813L218.258 48.0459C216.769 48.0459 215.279 48.0958 213.79 48.0958C213.055 48.1278 212.318 48.0804 211.593 47.9544C210.911 47.813 210.337 47.4303 209.68 47.2472C208.44 46.9061 207.025 47.5717 205.852 47.9045L201.126 49.2523C200.906 49.3119 200.718 49.4566 200.604 49.6548C200.49 49.8529 200.459 50.0882 200.519 50.3089C200.579 50.5295 200.723 50.7175 200.922 50.8314C201.12 50.9453 201.355 50.9758 201.576 50.9162L201.551 50.858Z" fill="white"/>
<path opacity="0.3" d="M80.4078 116.866L40.2292 119.03C38.0542 105.495 36.9829 91.8052 37.0259 78.0967L76.2809 76.5576C76.9031 90.0603 78.2808 103.518 80.4078 116.866V116.866Z" fill="#407BFF"/>
<path d="M81.323 115.019L41.1444 117.191C38.8444 103.873 37.4545 90.4138 36.9843 76.907L77.1628 74.7355C77.7969 88.2306 79.1858 101.68 81.323 115.019V115.019Z" fill="#1B5F9D"/>
<path opacity="0.3" d="M131.012 131.634L90.6167 129.196V89.1536L131.012 91.5912V131.634Z" fill="#407BFF"/>
<path d="M130.479 130.727L90.0925 128.298L90.5668 88.0221L130.953 90.4598L130.479 130.727Z" fill="white"/>
<path opacity="0.3" d="M169.518 123.78L209.896 122.466C210.894 113.172 206.501 89.8108 204.072 81.5078L164.908 84.0037C168.261 98.7378 169.701 112.598 169.518 123.78Z" fill="#407BFF"/>
<path d="M170.208 122.466L209.314 120.452C210.312 111.159 207.724 95.9424 204.804 80.1932L164.667 82.7391C167.979 97.4816 170.391 111.276 170.208 122.466Z" fill="#1B5F9D"/>
<path opacity="0.3" d="M58.7834 185.679L100.002 181.519C99.8938 172.126 95.0597 150.295 92.1976 142.117L53.3253 146.701C57.4854 161.277 57.6352 174.48 58.7834 185.679Z" fill="#407BFF"/>
<path d="M59.7569 185.105L99.4944 180.787C99.9853 171.427 96.574 156.335 92.8382 140.719L53.0008 145.453C56.2041 160.071 59.3242 173.898 59.7569 185.105Z" fill="#1B5F9D"/>
<path opacity="0.3" d="M158.993 140.835L199.113 148.323C202.125 139.579 202.899 116.068 202.316 107.557L163.153 101.425C163.194 116.384 161.58 130.078 158.993 140.835Z" fill="#407BFF"/>
<path d="M159.933 139.712L198.913 146.285C201.933 137.533 202.699 122.283 203.265 106.434L163.103 100.152C163.153 115.103 162.554 128.972 159.933 139.712Z" fill="white"/>
<path d="M254.376 103.447C255.208 104.279 255.84 105.036 256.531 105.851C257.222 106.666 257.887 107.457 258.536 108.272C259.851 109.936 261.099 111.6 262.289 113.356C263.478 115.111 264.61 116.891 265.617 118.788C266.694 120.689 267.637 122.662 268.437 124.695L268.745 125.477L268.82 125.669L268.92 125.952L269.103 126.526C269.194 126.892 269.278 127.241 269.353 127.591C269.427 127.94 269.469 128.256 269.511 128.572C269.641 129.76 269.683 130.956 269.635 132.15C269.54 134.313 269.298 136.467 268.912 138.597C268.165 142.678 267.094 146.693 265.708 150.603L261.332 149.629C261.656 145.719 261.956 141.726 262.064 137.882C262.131 136.018 262.1 134.152 261.972 132.291C261.915 131.473 261.795 130.661 261.615 129.862L261.49 129.371L261.332 128.972L260.858 128.007C259.148 124.69 257.157 121.525 254.909 118.547C253.777 117.008 252.587 115.502 251.389 113.996C250.79 113.247 250.174 112.507 249.559 111.775L247.728 109.645L254.376 103.447Z" fill="#B65B52"/>
<path d="M261.864 147.99L258.836 151.243L264.76 154.738C264.76 154.738 266.807 152.009 266.008 149.23L261.864 147.99Z" fill="#B55B52"/>
<path d="M254.892 156.052L260.658 158.074L264.751 154.738L258.827 151.243L254.892 156.052Z" fill="#B55B52"/>
<path d="M271.499 169.38L233.417 161.061C235.317 148.192 238.097 135.469 241.738 122.981L279.828 131.301C276.339 143.828 273.558 156.541 271.499 169.38V169.38Z" fill="#1B5F9D"/>
<path d="M277.506 133.12L240.146 121.998L229.023 159.355L266.383 170.477L277.506 133.12Z" fill="#E8E8E8"/>
<path d="M232.793 78.4961C232.793 78.9786 232.494 79.328 232.178 79.328C231.861 79.328 231.628 78.912 231.653 78.4295C231.678 77.947 231.953 77.5975 232.269 77.5975C232.585 77.5975 232.818 78.0135 232.793 78.4961Z" fill="#263238"/>
<path d="M232.535 79.3613C231.891 80.8136 231.051 82.1711 230.039 83.3964C230.359 83.6437 230.728 83.8187 231.122 83.9092C231.515 83.9997 231.924 84.0035 232.319 83.9205L232.535 79.3613Z" fill="#A02724"/>
<path d="M234.707 75.8836C234.741 75.88 234.775 75.8693 234.805 75.8521C234.835 75.8349 234.861 75.8117 234.882 75.7838C234.935 75.7308 234.964 75.659 234.964 75.5841C234.964 75.5093 234.935 75.4375 234.882 75.3845C234.538 75.1031 234.133 74.9074 233.699 74.8134C233.265 74.7194 232.815 74.7298 232.386 74.8437C232.35 74.855 232.317 74.8733 232.288 74.8974C232.26 74.9216 232.237 74.9511 232.22 74.9844C232.203 75.0177 232.192 75.054 232.189 75.0912C232.186 75.1285 232.191 75.1659 232.203 75.2014C232.214 75.237 232.232 75.2698 232.256 75.298C232.281 75.3263 232.31 75.3492 232.344 75.3656C232.377 75.3819 232.414 75.3913 232.451 75.3931C232.488 75.3949 232.525 75.3892 232.56 75.3761C232.904 75.2907 233.264 75.2876 233.609 75.3671C233.955 75.4466 234.277 75.6065 234.549 75.8337C234.595 75.8663 234.65 75.8837 234.707 75.8836V75.8836Z" fill="#263238"/>
<path d="M247.271 85.418C246.355 89.8025 245.765 95.8676 248.785 98.7878C248.785 98.7878 247.537 103.23 239.391 103.23C230.447 103.23 235.14 99.3286 235.14 99.3286C238.867 98.1888 238.867 93.9374 238.093 90.5346L247.271 85.418Z" fill="#B55B52"/>
<path d="M228.325 304.775C227.56 304.775 226.819 304.667 226.57 304.317C226.506 304.227 226.472 304.12 226.472 304.01C226.472 303.899 226.506 303.792 226.57 303.702C226.618 303.618 226.682 303.546 226.76 303.488C226.837 303.431 226.925 303.391 227.019 303.369C228.018 303.103 230.098 304.292 230.181 304.342C230.208 304.356 230.229 304.378 230.243 304.405C230.256 304.432 230.261 304.462 230.256 304.492C230.249 304.52 230.235 304.545 230.214 304.564C230.193 304.583 230.167 304.596 230.139 304.6C229.541 304.715 228.934 304.773 228.325 304.775ZM227.393 303.61C227.302 303.597 227.21 303.597 227.119 303.61C227.06 303.622 227.005 303.645 226.956 303.68C226.907 303.714 226.866 303.759 226.836 303.81C226.736 303.985 226.769 304.076 226.836 304.126C227.111 304.509 228.625 304.517 229.74 304.359C229.014 303.959 228.217 303.704 227.393 303.61V303.61Z" fill="#407BFF"/>
<path d="M230.139 304.609H230.081C229.357 304.284 227.943 302.995 228.059 302.312C228.059 302.154 228.209 301.955 228.592 301.921C228.739 301.898 228.891 301.908 229.034 301.95C229.178 301.991 229.311 302.064 229.424 302.163C230.172 302.787 230.314 304.401 230.322 304.467C230.32 304.517 230.299 304.565 230.264 304.6C230.245 304.61 230.224 304.616 230.202 304.617C230.181 304.619 230.159 304.616 230.139 304.609V304.609ZM228.708 302.179H228.617C228.367 302.179 228.35 302.304 228.342 302.337C228.267 302.745 229.232 303.76 229.964 304.201C229.902 303.522 229.635 302.878 229.199 302.354C229.062 302.239 228.887 302.177 228.708 302.179V302.179Z" fill="#407BFF"/>
<path d="M236.97 304.467H230.979L230.563 290.598H236.554L236.97 304.467Z" fill="#B55B52"/>
<path d="M230.78 303.768H237.32C237.439 303.77 237.554 303.811 237.646 303.887C237.739 303.963 237.802 304.068 237.827 304.184L238.942 309.501C238.968 309.63 238.965 309.765 238.932 309.893C238.9 310.022 238.839 310.141 238.755 310.243C238.67 310.345 238.564 310.427 238.444 310.483C238.324 310.539 238.193 310.567 238.06 310.566C235.705 310.566 232.302 310.391 229.332 310.391C225.871 310.391 223.683 310.574 219.614 310.574C217.16 310.574 216.511 308.078 217.542 307.87C222.235 306.847 225.255 306.73 229.332 304.234C229.763 303.95 230.264 303.789 230.78 303.768V303.768Z" fill="#263238"/>
<path d="M251.189 99.5033C256.93 99.5615 264.959 114.129 264.959 114.129L256.057 123.206C252.132 121.12 248.96 117.855 246.988 113.871C243.593 106.924 245.324 99.445 251.189 99.5033Z" fill="#1A5C99"/>
<path d="M223.957 106.142C222.651 112.607 221.711 125.893 224.931 152.192H256.947C257.197 147.932 255.133 129.338 257.871 109.37C258.044 108.095 257.951 106.797 257.598 105.559C257.245 104.321 256.639 103.17 255.819 102.177C255 101.185 253.983 100.373 252.834 99.7922C251.685 99.2117 250.428 98.8754 249.143 98.8044H248.785C244.251 98.5422 239.706 98.5422 235.173 98.8044C233.675 98.9459 232.194 99.1622 230.88 99.3951C229.182 99.6948 227.613 100.499 226.379 101.702C225.144 102.906 224.3 104.453 223.957 106.142V106.142Z" fill="#1B5F9D"/>
<path opacity="0.2" d="M231.321 119.462L227.011 116.534C222.851 117.881 222.634 121.925 222.851 127.765C226.428 126.867 230.547 123.481 231.321 119.462Z" fill="black"/>
<path opacity="0.2" d="M230.563 290.607L230.78 297.753H236.77L236.554 290.607H230.563Z" fill="black"/>
<path d="M248.935 78.1217C248.252 84.037 248.153 87.5229 244.999 90.4431C240.257 94.8359 233.093 91.8242 231.995 85.859C231.004 80.4761 232.286 71.7155 238.21 69.594C239.502 69.1142 240.896 68.9761 242.257 69.1931C243.618 69.4101 244.899 69.9747 245.978 70.8324C247.057 71.6901 247.896 72.8118 248.414 74.0888C248.932 75.3658 249.111 76.7549 248.935 78.1217Z" fill="#B55B52"/>
<path d="M236.321 80.6508C234.482 81.0668 233.65 76.7323 235.489 75.0683C233.825 74.2364 231.42 73.0383 230.613 71.2246C229.698 69.1447 232.194 66.6488 234.349 66.7486C233.65 65.3676 235.181 61.657 239.574 63.0547C243.967 64.4524 246.031 66.6155 246.031 66.6155C246.031 66.6155 247.479 61.8067 250.532 65.692C253.236 69.1364 252.196 72.0816 252.196 72.0816C252.196 72.0816 256.223 75.9003 255.183 78.7373C254.603 80.397 253.413 81.774 251.855 82.5893C251.855 82.5893 252.462 89.2451 247.57 90.8674C242.678 92.4898 239.591 89.2035 240.007 87.265C236.845 87.448 233.617 83.2133 236.321 80.6508Z" fill="#263238"/>
<path d="M238.451 80.2182C238.226 81.6722 237.538 83.0147 236.488 84.0453C235.081 85.4014 233.783 84.4363 233.675 82.6808C233.575 81.1001 234.191 78.521 235.839 77.7889C237.486 77.0567 238.676 78.4544 238.451 80.2182Z" fill="#B55B52"/>
<path d="M287.79 296.913L282.465 298.826L277.174 285.124L282.499 283.21L287.79 296.913Z" fill="#B55B52"/>
<path d="M280.102 299.692C279.503 300.166 278.854 300.524 278.438 300.424C278.333 300.388 278.242 300.321 278.177 300.232C278.111 300.143 278.075 300.035 278.072 299.925C278.06 299.829 278.067 299.732 278.093 299.639C278.118 299.546 278.162 299.459 278.222 299.384C278.846 298.552 281.209 298.202 281.309 298.186C281.338 298.183 281.368 298.189 281.394 298.202C281.421 298.215 281.443 298.235 281.459 298.261C281.472 298.286 281.48 298.315 281.48 298.344C281.48 298.373 281.472 298.402 281.459 298.427C281.043 298.886 280.589 299.309 280.102 299.692V299.692ZM278.655 299.359C278.578 299.412 278.511 299.476 278.455 299.55C278.382 299.645 278.349 299.764 278.363 299.883C278.363 300.083 278.472 300.133 278.53 300.149C278.979 300.282 280.194 299.317 280.959 298.544C280.145 298.662 279.362 298.939 278.655 299.359V299.359Z" fill="#407BFF"/>
<path d="M281.425 298.444H281.375C280.61 298.635 278.696 298.494 278.372 297.886C278.297 297.745 278.264 297.52 278.546 297.246C278.646 297.146 278.766 297.068 278.898 297.018C279.03 296.968 279.171 296.946 279.312 296.955C280.285 296.955 281.392 298.161 281.442 298.211C281.454 298.231 281.46 298.254 281.46 298.277C281.46 298.301 281.454 298.324 281.442 298.344C281.446 298.361 281.447 298.378 281.444 298.396C281.441 298.413 281.435 298.429 281.425 298.444V298.444ZM278.804 297.42C278.779 297.435 278.756 297.455 278.738 297.479C278.555 297.653 278.605 297.745 278.621 297.77C278.813 298.136 280.194 298.344 281.043 298.236C280.579 297.738 279.971 297.397 279.304 297.262C279.123 297.247 278.944 297.304 278.804 297.42V297.42Z" fill="#407BFF"/>
<path d="M281.45 297.362L286.592 293.319C286.689 293.248 286.805 293.211 286.925 293.211C287.045 293.211 287.161 293.248 287.258 293.319L291.676 296.647C291.779 296.724 291.863 296.825 291.921 296.94C291.979 297.056 292.009 297.183 292.009 297.312C292.009 297.441 291.979 297.569 291.921 297.684C291.863 297.8 291.779 297.9 291.676 297.978C289.795 299.409 286.168 302.329 283.955 304.301C281.367 306.605 283.381 305.066 280.344 307.762C278.505 309.426 276.258 308.07 276.874 307.229C279.653 303.377 280.244 301.089 280.61 298.635C280.659 298.378 280.759 298.133 280.903 297.915C281.047 297.696 281.233 297.509 281.45 297.362V297.362Z" fill="#263238"/>
<path d="M193.996 120.993L191.658 116.001L185.293 119.936C185.293 119.936 187.39 124.221 191.733 123.747L193.996 120.993Z" fill="#B55B52"/>
<path d="M185.676 114.603L184.253 115.826C184.035 116.014 183.859 116.245 183.736 116.504C183.613 116.764 183.547 117.047 183.54 117.334C183.534 117.621 183.588 117.907 183.7 118.172C183.811 118.436 183.977 118.675 184.186 118.871L185.293 119.903L191.658 115.968L187.839 114.304C187.488 114.142 187.097 114.083 186.713 114.137C186.33 114.19 185.97 114.352 185.676 114.603V114.603Z" fill="#B55B52"/>
<path opacity="0.2" d="M277.174 285.124L279.903 292.187L285.228 290.282L282.499 283.219L277.174 285.124Z" fill="black"/>
<path d="M236.288 152.192C236.288 152.192 246.272 198.175 250.099 215.247C254.26 233.933 276.3 290.756 276.3 290.756L285.968 285.523C285.968 285.523 275.626 240.938 268.071 216.62C265.326 196.511 256.947 152.192 256.947 152.192H236.288Z" fill="#263238"/>
<path d="M273.579 287.928C273.529 287.928 275.559 291.68 275.559 291.68L287.524 287.179L286.575 283.526L273.579 287.928Z" fill="#1B5F9D"/>
<path opacity="0.3" d="M242.195 173.507C249.733 174.505 250.582 201.062 250.441 216.645C250.341 216.154 250.224 215.679 250.133 215.239C248.044 205.92 244.126 187.967 240.98 173.59C241.373 173.468 241.789 173.44 242.195 173.507V173.507Z" fill="black"/>
<path d="M224.931 152.192C224.931 152.192 222.385 196.952 222.801 215.205C223.233 234.191 228.567 296.364 228.567 296.364H238.709C238.709 296.364 240.373 235.306 241.055 216.653C241.813 196.328 245.981 152.192 245.981 152.192H224.931Z" fill="#263238"/>
<path d="M226.67 292.329C226.62 292.329 227.185 296.539 227.185 296.539H239.524L239.907 292.778L226.67 292.329Z" fill="#1B5F9D"/>
<path d="M233.559 109.237C232.171 111.698 230.629 114.068 228.941 116.334C227.266 118.566 225.463 120.699 223.541 122.724C221.644 124.754 219.639 126.667 217.584 128.472C215.529 130.278 213.382 132.025 211.452 133.614L210.77 134.18L210.204 134.379C208.825 134.863 207.354 135.025 205.902 134.854C204.709 134.713 203.539 134.413 202.424 133.963C200.547 133.178 198.787 132.139 197.191 130.877C195.713 129.731 194.322 128.477 193.031 127.125C192.398 126.467 191.799 125.777 191.209 125.078C190.618 124.379 190.069 123.697 189.495 122.907L192.781 119.837C194.054 120.785 195.427 121.808 196.8 122.699C198.126 123.601 199.498 124.434 200.91 125.194C202.166 125.883 203.498 126.425 204.879 126.809C205.391 126.945 205.921 127.007 206.451 126.992C206.729 126.996 207.002 126.924 207.242 126.784L206.002 127.549C208.032 125.644 209.871 123.955 211.701 122.166C213.532 120.377 215.254 118.555 216.91 116.683C218.566 114.812 220.147 112.881 221.603 110.86C223.059 108.838 224.407 106.808 225.68 104.72L233.559 109.237Z" fill="#B65B52"/>
<path d="M237.819 107.981C237.245 116.592 227.369 123.788 227.369 123.788L214.555 116.758C214.555 116.758 219.273 106.608 225.63 101.783C233.492 95.9424 238.251 101.425 237.819 107.981Z" fill="#1A5C99"/>
</g>
<path d="M31.57 8H13V15.8662H31.57V8Z" fill="#ECECEC"/>
<path d="M41.9251 17.9162H23.3552V25.7824H41.9251V17.9162Z" fill="#DCDCDC"/>
<path d="M56.57 4H38V11.8662H56.57V4Z" fill="#F1ECEC"/>
<defs>
<clipPath id="clip0_205_213">
<rect width="319" height="310" fill="white" transform="translate(0 10)"/>
</clipPath>
</defs>
</svg>
