<svg width="319" height="320" viewBox="0 0 319 320" fill="none" xmlns="http://www.w3.org/2000/svg">
<rect width="319" height="320" fill="white"/>
<g clip-path="url(#clip0_205_421)">
<path d="M326.875 299.414H299.851V299.618H326.875V299.414Z" fill="#EBEBEB"/>
<path d="M230.041 301.634H222.95V301.838H230.041V301.634Z" fill="#EBEBEB"/>
<path d="M299.036 291.839H283.378V292.043H299.036V291.839Z" fill="#EBEBEB"/>
<path d="M37.8324 293.211H2.59244V293.415H37.8324V293.211Z" fill="#EBEBEB"/>
<path d="M50.2671 293.211H45.1023V293.415H50.2671V293.211Z" fill="#EBEBEB"/>
<path d="M143.495 296.655H67.059V296.859H143.495V296.655Z" fill="#EBEBEB"/>
<path d="M367.753 286.281H-40.2112V286.485H367.753V286.281Z" fill="#EBEBEB"/>
<path d="M291.538 13H269.598C262.64 13 257 18.6425 257 25.6029V47.5518C257 54.5122 262.64 60.1547 269.598 60.1547H291.538C298.496 60.1547 304.136 54.5122 304.136 47.5518V25.6029C304.136 18.6425 298.496 13 291.538 13Z" fill="#F0F0F0"/>
<path d="M286.431 29.9045C286.431 33.9205 284.391 37.1773 280.376 37.1773C276.362 37.1773 274.322 33.9123 274.322 29.9045C274.322 25.8967 276.362 22.6399 280.376 22.6399C284.391 22.6399 286.431 25.8967 286.431 29.9045Z" fill="#FAFAFA"/>
<path d="M280.376 50.5067H291.579V43.8379C291.579 40.1648 286.561 37.1773 280.376 37.1773C274.192 37.1773 269.174 40.1648 269.174 43.8379V50.5067H280.376Z" fill="#FAFAFA"/>
<path d="M109.119 23H93.7957C88.938 23 85 26.9395 85 31.7992V47.1283C85 51.988 88.938 55.9275 93.7957 55.9275H109.119C113.977 55.9275 117.915 51.988 117.915 47.1283V31.7992C117.915 26.9395 113.977 23 109.119 23Z" fill="#E6E6E6"/>
<path d="M100.788 41.2432C101.287 40.5598 101.859 39.933 102.493 39.374C102.931 38.9905 103.335 38.5699 103.701 38.1169C103.954 37.7838 104.089 37.3761 104.085 36.9579C104.093 36.6736 104.03 36.3919 103.902 36.1381C103.774 35.8844 103.584 35.6667 103.35 35.5049C102.767 35.1182 102.075 34.9294 101.376 34.9662C100.652 34.952 99.9365 35.1205 99.295 35.456C98.6849 35.7814 98.1595 36.2455 97.7611 36.8109L94.7503 35.0397C95.4532 33.9834 96.4287 33.1373 97.5734 32.5909C98.8979 31.9839 100.344 31.688 101.8 31.7257C103.42 31.6449 105.025 32.0699 106.394 32.9419C106.945 33.3137 107.393 33.8195 107.696 34.4121C107.999 35.0046 108.146 35.6644 108.123 36.3294C108.137 36.9454 108.02 37.5573 107.781 38.1251C107.581 38.6015 107.305 39.0425 106.965 39.4311C106.638 39.7902 106.222 40.1984 105.708 40.6636C105.214 41.08 104.763 41.5449 104.362 42.0513C104.071 42.4417 103.921 42.9195 103.938 43.4062H100.176C100.151 42.6391 100.365 41.8832 100.788 41.2432V41.2432ZM100.388 48.9812C100.165 48.7732 99.9885 48.5201 99.8704 48.2386C99.7522 47.9572 99.6952 47.6539 99.703 47.3487C99.6974 47.0519 99.7549 46.7572 99.8717 46.4842C99.9884 46.2112 100.162 45.9662 100.38 45.7652C100.858 45.3543 101.468 45.1284 102.098 45.1284C102.728 45.1284 103.337 45.3543 103.815 45.7652C104.033 45.9666 104.205 46.2119 104.32 46.4849C104.436 46.7579 104.491 47.0524 104.484 47.3487C104.492 47.6539 104.435 47.9572 104.317 48.2386C104.199 48.5201 104.022 48.7732 103.799 48.9812C103.333 49.4068 102.725 49.6428 102.094 49.6428C101.463 49.6428 100.854 49.4068 100.388 48.9812V48.9812Z" fill="#FAFAFA"/>
<path d="M130.805 10H142.66C144.467 10 146.2 10.7181 147.478 11.9963C148.755 13.2745 149.473 15.0081 149.473 16.8157V28.6758C149.473 30.4812 148.756 32.2128 147.48 33.4894C146.204 34.7661 144.473 35.4833 142.668 35.4833H130.805C129 35.4833 127.269 34.7661 125.993 33.4894C124.717 32.2128 124 30.4812 124 28.6758V16.8157C124 15.0102 124.717 13.2787 125.993 12.002C127.269 10.7254 129 10.0082 130.805 10.0082V10Z" fill="#EBEBEB"/>
<path d="M136.206 24.1211C136.592 23.5891 137.035 23.1018 137.528 22.6682C137.867 22.3709 138.181 22.046 138.466 21.6968C138.661 21.4384 138.764 21.1226 138.76 20.799C138.767 20.5783 138.719 20.3595 138.619 20.1626C138.519 19.9657 138.371 19.7972 138.189 19.6725C137.744 19.3751 137.214 19.2317 136.68 19.2644C136.133 19.2482 135.591 19.3698 135.103 19.618C134.615 19.8661 134.198 20.233 133.889 20.6847L131.556 19.3216C132.095 18.4955 132.851 17.8345 133.742 17.4115C134.764 16.9384 135.88 16.7066 137.006 16.734C138.261 16.6732 139.504 17.004 140.563 17.6809C140.99 17.9684 141.337 18.3597 141.571 18.818C141.805 19.2763 141.919 19.7867 141.901 20.3011C141.91 20.7766 141.821 21.2489 141.64 21.6887C141.487 22.0595 141.272 22.4017 141.004 22.7008C140.698 23.0371 140.374 23.3559 140.033 23.6558C139.655 23.9817 139.306 24.3394 138.989 24.7251C138.767 25.0309 138.653 25.4008 138.662 25.7781H135.758C135.732 25.1926 135.889 24.6137 136.206 24.1211V24.1211ZM135.896 30.1042C135.727 29.9439 135.593 29.75 135.503 29.535C135.413 29.3199 135.369 29.0884 135.374 28.8554C135.37 28.628 135.414 28.4024 135.503 28.1929C135.591 27.9835 135.722 27.7949 135.888 27.6391C136.257 27.3176 136.729 27.1405 137.218 27.1405C137.707 27.1405 138.179 27.3176 138.548 27.6391C138.715 27.7941 138.848 27.9825 138.938 28.1919C139.028 28.4014 139.073 28.6274 139.07 28.8554C139.073 29.089 139.028 29.3207 138.937 29.5357C138.845 29.7507 138.71 29.9443 138.54 30.1042C138.365 30.273 138.157 30.4048 137.93 30.4917C137.703 30.5787 137.461 30.619 137.218 30.6103C136.975 30.6176 136.733 30.5767 136.506 30.4898C136.28 30.4029 136.072 30.2719 135.896 30.1042V30.1042Z" fill="#FAFAFA"/>
<path d="M53.1188 71H37.7957C32.938 71 29 74.9395 29 79.7992V95.1283C29 99.988 32.938 103.927 37.7957 103.927H53.1188C57.9766 103.927 61.9145 99.988 61.9145 95.1283V79.7992C61.9145 74.9395 57.9766 71 53.1188 71Z" fill="#EBEBEB"/>
<path d="M45.4573 78.1504C43.4837 78.1504 41.591 78.9347 40.1955 80.3307C38.8 81.7268 38.016 83.6203 38.016 85.5946C38.016 89.6758 41.345 99.5688 45.4573 99.5688C49.5695 99.5688 52.8985 89.7085 52.8985 85.5946C52.8985 84.617 52.7061 83.649 52.3321 82.7458C51.9581 81.8426 51.41 81.022 50.719 80.3307C50.028 79.6395 49.2077 79.0912 48.3049 78.717C47.4021 78.3429 46.4345 78.1504 45.4573 78.1504V78.1504ZM45.4573 87.8393C45.0135 87.8393 44.5797 87.7076 44.2107 87.461C43.8417 87.2143 43.5541 86.8637 43.3843 86.4536C43.2144 86.0434 43.17 85.5921 43.2566 85.1567C43.3431 84.7212 43.5569 84.3213 43.8707 84.0074C44.1845 83.6934 44.5843 83.4796 45.0195 83.393C45.4548 83.3064 45.9059 83.3509 46.3159 83.5208C46.7259 83.6907 47.0764 83.9784 47.3229 84.3475C47.5695 84.7166 47.7011 85.1506 47.7011 85.5946C47.7021 85.89 47.6449 86.1828 47.5326 86.4561C47.4203 86.7294 47.2552 86.9778 47.0468 87.1871C46.8383 87.3964 46.5906 87.5625 46.3178 87.6758C46.0451 87.7891 45.7526 87.8474 45.4573 87.8474V87.8393Z" fill="#FAFAFA"/>
<path d="M50.9688 175.304C51.2081 173.789 51.2081 172.247 50.9688 170.733L48.6761 170.439C48.4911 169.596 48.2176 168.775 47.8601 167.99L49.541 166.398C48.8444 165.033 47.9387 163.786 46.8566 162.701L44.8167 163.819C44.1882 163.245 43.4988 162.741 42.7606 162.317L43.1849 160.04C41.8231 159.339 40.3574 158.862 38.8441 158.628L37.8569 160.709C37.4407 160.709 37.0409 160.644 36.584 160.644C36.1271 160.644 35.7191 160.644 35.303 160.709L34.3157 158.628C32.8025 158.862 31.3368 159.339 29.975 160.04L30.3993 162.317C29.6611 162.741 28.9716 163.245 28.3431 163.819L26.3033 162.701C25.2212 163.786 24.3155 165.033 23.6189 166.398L25.2997 167.99C24.9423 168.775 24.6688 169.596 24.4838 170.439L22.1992 170.733C21.949 172.246 21.949 173.79 22.1992 175.304L24.4838 175.597C24.6691 176.44 24.9426 177.261 25.2997 178.046L23.6189 179.63C24.3155 180.995 25.2212 182.242 26.3033 183.327L28.3431 182.217C28.9758 182.786 29.6647 183.29 30.3993 183.719L29.975 185.988C31.3379 186.688 32.8029 187.167 34.3157 187.409L35.303 185.319C36.1521 185.406 37.0078 185.406 37.8569 185.319L38.8441 187.409C40.3569 187.167 41.822 186.688 43.1849 185.988L42.7606 183.719C43.4952 183.29 44.1841 182.786 44.8167 182.217L46.8566 183.327C47.9387 182.242 48.8444 180.995 49.541 179.63L47.9091 178.03C48.2662 177.244 48.5397 176.424 48.725 175.581L50.9688 175.304ZM36.6085 178.103C35.6028 178.105 34.6192 177.808 33.7822 177.25C32.9452 176.692 32.2924 175.899 31.9064 174.97C31.5204 174.041 31.4186 173.018 31.6138 172.031C31.809 171.044 32.2925 170.137 33.0031 169.425C33.7136 168.713 34.6194 168.228 35.6056 168.031C36.5919 167.834 37.6144 167.934 38.5437 168.319C39.473 168.704 40.2674 169.356 40.8263 170.192C41.3852 171.028 41.6836 172.012 41.6836 173.018C41.6836 174.365 41.1491 175.658 40.1976 176.611C39.2461 177.564 37.9552 178.101 36.6085 178.103V178.103Z" fill="#EBEBEB"/>
<path d="M58.3285 191.718C58.4482 190.964 58.4482 190.195 58.3285 189.441L57.178 189.286C57.0895 188.871 56.9583 188.466 56.7864 188.078L57.6023 187.262C57.2524 186.58 56.7982 185.958 56.256 185.417L55.2361 185.972C54.9234 185.683 54.5785 185.431 54.2081 185.221L54.4202 184.086C53.739 183.736 53.0064 183.496 52.2498 183.376L51.7603 184.421C51.3344 184.377 50.9052 184.377 50.4793 184.421L49.9897 183.376C49.2332 183.496 48.5005 183.736 47.8193 184.086L48.0315 185.221C47.6611 185.431 47.3161 185.683 47.0034 185.972L45.9835 185.417C45.4414 185.958 44.9871 186.58 44.6372 187.262L45.4532 188.078C45.2813 188.466 45.15 188.871 45.0615 189.286L43.9192 189.441C43.7995 190.195 43.7995 190.964 43.9192 191.718L45.0615 191.865C45.1488 192.283 45.28 192.691 45.4532 193.081L44.6372 193.898C44.9864 194.582 45.4407 195.207 45.9835 195.751L47.0034 195.196C47.3203 195.479 47.6647 195.731 48.0315 195.946L47.8193 197.081C48.5005 197.432 49.2332 197.671 49.9897 197.791L50.4793 196.746C50.9052 196.79 51.3344 196.79 51.7603 196.746L52.2498 197.791C53.0064 197.671 53.739 197.432 54.4202 197.081L54.2081 195.946C54.5749 195.731 54.9193 195.479 55.2361 195.196L56.256 195.751C56.7989 195.207 57.2532 194.582 57.6023 193.898L56.7864 193.081C56.9595 192.691 57.0908 192.283 57.178 191.865L58.3285 191.718ZM51.1483 193.122C50.6445 193.124 50.1515 192.976 49.7318 192.697C49.3121 192.418 48.9845 192.021 48.7906 191.556C48.5967 191.091 48.5451 190.578 48.6424 190.084C48.7397 189.589 48.9815 189.135 49.3372 188.778C49.6929 188.421 50.1465 188.177 50.6405 188.078C51.1346 187.979 51.6468 188.029 52.1125 188.222C52.5781 188.414 52.9762 188.741 53.2563 189.16C53.5364 189.579 53.6859 190.071 53.6859 190.576C53.6859 191.245 53.4222 191.888 52.9518 192.365C52.4815 192.842 51.8423 193.114 51.1728 193.122H51.1483Z" fill="#E0E0E0"/>
<path d="M243.594 23.1987C243.902 22.9689 244.194 22.718 244.467 22.4478C244.739 22.181 244.987 21.8915 245.21 21.5826L244.508 20.6684C244.741 20.31 244.932 19.9267 245.079 19.5256H246.238C246.474 18.798 246.595 18.0379 246.597 17.2728L245.479 16.9463C245.463 16.5211 245.397 16.0992 245.283 15.6893L246.238 15.0363C246.005 14.3044 245.655 13.6152 245.202 12.9956L244.117 13.3874C243.986 13.2242 243.839 13.0609 243.692 12.9059C243.545 12.7508 243.382 12.612 243.219 12.4814L243.603 11.3958C242.984 10.9452 242.298 10.5954 241.571 10.3592L240.918 11.3142C240.504 11.2085 240.08 11.1429 239.653 11.1183L239.327 10C238.562 10.0017 237.802 10.1229 237.075 10.3592V11.5182C236.677 11.6685 236.296 11.8629 235.941 12.0978L235.019 11.3876C234.392 11.8424 233.842 12.3933 233.387 13.0201L234.089 13.9343C233.857 14.2944 233.663 14.6774 233.509 15.0771H232.359C232.123 15.8047 232.002 16.5649 232 17.3299L233.11 17.6564C233.134 18.0808 233.199 18.5018 233.305 18.9134L232.383 19.5828C232.623 20.3118 232.972 21 233.42 21.6234L234.505 21.2316C234.64 21.3971 234.785 21.5551 234.937 21.705C235.087 21.8578 235.245 22.0022 235.411 22.1376L235.027 23.2232C235.644 23.6755 236.33 24.0255 237.059 24.2599L237.711 23.3049C238.123 23.4105 238.544 23.4761 238.968 23.5008L239.294 24.6109C240.061 24.6127 240.824 24.4942 241.555 24.2599V23.1008C241.953 22.9505 242.333 22.7561 242.689 22.5213L243.594 23.1987ZM237.532 19.1175C237.177 18.7624 236.936 18.3101 236.838 17.8177C236.74 17.3253 236.791 16.815 236.983 16.3513C237.175 15.8876 237.5 15.4912 237.917 15.2124C238.335 14.9335 238.825 14.7847 239.327 14.7847C239.829 14.7847 240.319 14.9335 240.737 15.2124C241.154 15.4912 241.479 15.8876 241.671 16.3513C241.863 16.815 241.914 17.3253 241.816 17.8177C241.718 18.3101 241.477 18.7624 241.122 19.1175C240.886 19.3534 240.605 19.5401 240.297 19.6671C239.988 19.794 239.657 19.8585 239.324 19.857C238.99 19.8555 238.66 19.7879 238.352 19.6582C238.045 19.5285 237.766 19.3392 237.532 19.1012V19.1175Z" fill="#F0F0F0"/>
<path d="M31.5943 33.1987C31.9023 32.9689 32.194 32.718 32.4674 32.4478C32.7389 32.181 32.9873 31.8915 33.2099 31.5826L32.5082 30.6684C32.7407 30.31 32.9323 29.9267 33.0793 29.5256H34.238C34.4742 28.798 34.5953 28.0379 34.597 27.2728L33.4791 26.9463C33.4631 26.5211 33.3974 26.0992 33.2833 25.6893L34.238 25.0363C34.0054 24.3044 33.6554 23.6152 33.2017 22.9956L32.1165 23.3874C31.986 23.2242 31.8391 23.0609 31.6922 22.9059C31.5454 22.7508 31.3822 22.612 31.219 22.4814L31.6025 21.3958C30.9842 20.9452 30.2985 20.5954 29.5708 20.3592L28.9181 21.3142C28.5038 21.2085 28.0803 21.1429 27.6534 21.1183L27.327 20C26.5623 20.0017 25.8025 20.1229 25.0751 20.3592V21.5182C24.6766 21.6685 24.2962 21.8629 23.9409 22.0978L23.0189 21.3876C22.3924 21.8424 21.8416 22.3933 21.3871 23.0201L22.0888 23.9343C21.8572 24.2944 21.6631 24.6774 21.5095 25.0771H20.359C20.1228 25.8047 20.0017 26.5649 20 27.3299L21.1097 27.6564C21.1339 28.0808 21.1995 28.5018 21.3055 28.9134L20.3835 29.5828C20.6229 30.3118 20.9723 31 21.4197 31.6234L22.5049 31.2316C22.6404 31.3971 22.7848 31.5551 22.9373 31.705C23.087 31.8578 23.245 32.0022 23.4106 32.1376L23.0271 33.2232C23.6444 33.6755 24.3304 34.0255 25.0588 34.2599L25.7115 33.3049C26.1231 33.4105 26.5439 33.4761 26.968 33.5008L27.2944 34.6109C28.0615 34.6127 28.8241 34.4942 29.5545 34.2599V33.1008C29.953 32.9505 30.3334 32.7561 30.6887 32.5213L31.5943 33.1987ZM25.532 29.1175C25.1773 28.7624 24.9358 28.3101 24.8381 27.8177C24.7404 27.3253 24.7907 26.815 24.9828 26.3513C25.175 25.8876 25.5002 25.4912 25.9175 25.2124C26.3347 24.9335 26.8253 24.7847 27.327 24.7847C27.8288 24.7847 28.3193 24.9335 28.7366 25.2124C29.1538 25.4912 29.4791 25.8876 29.6712 26.3513C29.8633 26.815 29.9137 27.3253 29.816 27.8177C29.7182 28.3101 29.4767 28.7624 29.1221 29.1175C28.8859 29.3534 28.6054 29.5401 28.2967 29.6671C27.9881 29.794 27.6573 29.8585 27.3236 29.857C26.9899 29.8555 26.6598 29.7879 26.3523 29.6582C26.0448 29.5285 25.766 29.3392 25.532 29.1012V29.1175Z" fill="#F0F0F0"/>
<path d="M159.771 320C247.143 320 317.971 315.863 317.971 310.76C317.971 305.657 247.143 301.52 159.771 301.52C72.3993 301.52 1.57059 305.657 1.57059 310.76C1.57059 315.863 72.3993 320 159.771 320Z" fill="#ECECEC"/>
<path d="M192.785 67.0036V54.2783L199.035 53.4049V66.1221L192.785 67.0036Z" fill="#263238"/>
<path d="M172.004 74.0805L167.32 66.6282L171.31 63.7631L175.985 71.2155L172.004 74.0805Z" fill="#263238"/>
<path d="M215.827 65.616L220.511 56.8495L224.492 58.5881L219.817 67.3628L215.827 65.616Z" fill="#263238"/>
<g opacity="0.5">
<path opacity="0.5" d="M192.785 67.0036V54.2783L199.035 53.4049V66.1221L192.785 67.0036Z" fill="white"/>
<path opacity="0.5" d="M172.004 74.0805L167.32 66.6282L171.31 63.7631L175.985 71.2155L172.004 74.0805Z" fill="white"/>
<path opacity="0.5" d="M215.827 65.616L220.511 56.8495L224.492 58.5881L219.817 67.3628L215.827 65.616Z" fill="white"/>
</g>
<path d="M199.925 55.4537L191.896 56.5475C191.605 56.5997 191.305 56.5864 191.02 56.5084C190.734 56.4305 190.47 56.2898 190.246 56.0967C190.021 55.9036 189.843 55.6629 189.723 55.3921C189.604 55.1213 189.546 54.8272 189.554 54.5313C189.573 53.8832 189.817 53.2619 190.244 52.7746C190.672 52.2873 191.256 51.9646 191.896 51.8622L199.925 50.7276C200.216 50.6753 200.515 50.6886 200.801 50.7666C201.086 50.8446 201.351 50.9853 201.575 51.1784C201.799 51.3715 201.978 51.6122 202.097 51.883C202.217 52.1538 202.275 52.4478 202.266 52.7437C202.254 53.398 202.013 54.0273 201.585 54.5224C201.158 55.0174 200.57 55.347 199.925 55.4537V55.4537Z" fill="#263238"/>
<path d="M172.607 63.5672L166.659 67.8444C166.535 67.9474 166.391 68.0237 166.236 68.0686C166.081 68.1135 165.919 68.126 165.759 68.1053C165.599 68.0847 165.445 68.0312 165.306 67.9484C165.168 67.8656 165.048 67.7552 164.954 67.624C164.798 67.3258 164.758 66.9801 164.842 66.6542C164.927 66.3282 165.129 66.0454 165.411 65.8609L171.367 61.5837C171.491 61.4809 171.634 61.4047 171.788 61.3599C171.943 61.3151 172.105 61.3026 172.264 61.3233C172.423 61.344 172.577 61.3974 172.714 61.4801C172.852 61.5629 172.971 61.6732 173.064 61.8041V61.8041C173.221 62.1023 173.261 62.448 173.176 62.7739C173.092 63.0999 172.889 63.3827 172.607 63.5672V63.5672Z" fill="#263238"/>
<path d="M225.161 59.6165L219.205 57.0209C219.063 56.9487 218.938 56.8478 218.836 56.7246C218.735 56.6014 218.661 56.4585 218.618 56.305C218.575 56.1516 218.565 55.9908 218.587 55.8331C218.609 55.6753 218.664 55.5238 218.748 55.3884V55.3884C218.897 55.0829 219.153 54.8431 219.468 54.7151C219.783 54.5871 220.134 54.5798 220.453 54.6946L226.402 57.2984C226.545 57.3686 226.673 57.4686 226.775 57.5916C226.878 57.7146 226.953 57.8579 226.996 58.0121C227.039 58.1663 227.049 58.3279 227.026 58.4862C227.002 58.6446 226.945 58.7961 226.859 58.9309V58.9309C226.71 59.2343 226.454 59.4721 226.141 59.5986C225.828 59.7251 225.479 59.7315 225.161 59.6165V59.6165Z" fill="#263238"/>
<path opacity="0.7" d="M199.925 55.4537L191.896 56.5475C191.605 56.5997 191.305 56.5864 191.02 56.5084C190.734 56.4305 190.47 56.2898 190.246 56.0967C190.021 55.9036 189.843 55.6629 189.723 55.3921C189.604 55.1213 189.546 54.8272 189.554 54.5313C189.573 53.8832 189.817 53.2619 190.244 52.7746C190.672 52.2873 191.256 51.9646 191.896 51.8622L199.925 50.7276C200.216 50.6753 200.515 50.6886 200.801 50.7666C201.086 50.8446 201.351 50.9853 201.575 51.1784C201.799 51.3715 201.978 51.6122 202.097 51.883C202.217 52.1538 202.275 52.4478 202.266 52.7437C202.254 53.398 202.013 54.0273 201.585 54.5224C201.158 55.0174 200.57 55.347 199.925 55.4537V55.4537Z" fill="white"/>
<path opacity="0.7" d="M172.607 63.5672L166.659 67.8444C166.535 67.9474 166.391 68.0237 166.236 68.0686C166.081 68.1135 165.919 68.126 165.759 68.1053C165.599 68.0847 165.445 68.0312 165.306 67.9484C165.168 67.8656 165.048 67.7552 164.954 67.624C164.798 67.3258 164.758 66.9801 164.842 66.6542C164.927 66.3282 165.129 66.0454 165.411 65.8609L171.367 61.5837C171.491 61.4809 171.634 61.4047 171.788 61.3599C171.943 61.3151 172.105 61.3026 172.264 61.3233C172.423 61.344 172.577 61.3974 172.714 61.4801C172.852 61.5629 172.971 61.6732 173.064 61.8041V61.8041C173.221 62.1023 173.261 62.448 173.176 62.7739C173.092 63.0999 172.889 63.3827 172.607 63.5672V63.5672Z" fill="white"/>
<path opacity="0.7" d="M225.161 59.6165L219.205 57.0209C219.063 56.9487 218.938 56.8478 218.836 56.7246C218.735 56.6014 218.661 56.4585 218.618 56.305C218.575 56.1516 218.565 55.9908 218.587 55.8331C218.609 55.6753 218.664 55.5238 218.748 55.3884V55.3884C218.897 55.0829 219.153 54.8431 219.468 54.7151C219.783 54.5871 220.134 54.5798 220.453 54.6946L226.402 57.2984C226.545 57.3686 226.673 57.4686 226.775 57.5916C226.878 57.7146 226.953 57.8579 226.996 58.0121C227.039 58.1663 227.049 58.3279 227.026 58.4862C227.002 58.6446 226.945 58.7961 226.859 58.9309V58.9309C226.71 59.2343 226.454 59.4721 226.141 59.5986C225.828 59.7251 225.479 59.7315 225.161 59.6165V59.6165Z" fill="white"/>
<path d="M195.91 146.621C174.182 149.673 156.566 134.532 156.566 112.795C156.566 91.0585 174.182 70.9543 195.91 67.9015C217.639 64.8487 235.254 79.9902 235.254 101.727L240.623 100.976C240.623 76.2681 220.6 59.0615 195.91 62.5306C171.22 65.9996 151.197 88.8465 151.197 113.546C151.197 138.246 171.212 155.461 195.91 151.991V146.621Z" fill="#1B5F9D"/>
<path d="M180.276 135.136L177.34 140.637L178.492 141.252L181.428 135.751L180.276 135.136Z" fill="#263238"/>
<path d="M213.303 73.252L210.366 78.7531L211.518 79.3682L214.454 73.8671L213.303 73.252Z" fill="#263238"/>
<path d="M165.002 93.0349L164.479 94.2318L169.564 96.4531L170.086 95.2562L165.002 93.0349Z" fill="#263238"/>
<path d="M179.078 78.9227L177.968 79.6149L180.896 84.312L182.005 83.6199L179.078 78.9227Z" fill="#263238"/>
<path d="M169.47 125.462L164.379 129.117L165.14 130.178L170.231 126.523L169.47 125.462Z" fill="#263238"/>
<path d="M226.687 84.3568L221.596 88.0114L222.357 89.0725L227.448 85.4179L226.687 84.3568Z" fill="#263238"/>
<path d="M167.592 109.928L159.763 111.029L160.126 113.615L167.955 112.515L167.592 109.928Z" fill="#263238"/>
<path d="M197.216 71.2808H194.605V79.1168H197.216V71.2808Z" fill="#263238"/>
<path d="M197.216 135.405H194.605V143.241H197.216V135.405Z" fill="#263238"/>
<path d="M185.801 98.7638C185.497 99.0697 185.326 99.4835 185.326 99.9148C185.326 100.346 185.497 100.76 185.801 101.066L194.564 108.6L196.857 105.971L188.102 98.4455C187.93 98.3139 187.735 98.2177 187.526 98.1624C187.317 98.1071 187.099 98.0939 186.885 98.1235C186.671 98.1532 186.465 98.225 186.279 98.3349C186.093 98.4448 185.93 98.5906 185.801 98.7638Z" fill="#1B5F9D"/>
<path opacity="0.4" d="M185.801 98.7638C185.497 99.0697 185.326 99.4835 185.326 99.9148C185.326 100.346 185.497 100.76 185.801 101.066L194.564 108.6L196.857 105.971L188.102 98.4455C187.93 98.3139 187.735 98.2177 187.526 98.1624C187.317 98.1071 187.099 98.0939 186.885 98.1235C186.671 98.1532 186.465 98.225 186.279 98.3349C186.093 98.4448 185.93 98.5906 185.801 98.7638Z" fill="white"/>
<path d="M244.45 99.7842L237.914 108.543L231.387 101.621L244.45 99.7842Z" fill="#1B5F9D"/>
<path d="M210.817 90.0137C210.646 89.8821 210.45 89.7859 210.241 89.7306C210.032 89.6753 209.814 89.6621 209.6 89.6917C209.386 89.7213 209.18 89.7932 208.994 89.9031C208.808 90.013 208.646 90.1588 208.516 90.332L196.653 103.89C196.017 103.81 195.372 103.889 194.775 104.122C194.178 104.354 193.648 104.732 193.234 105.22C192.91 105.541 192.653 105.922 192.478 106.342C192.303 106.763 192.212 107.214 192.212 107.669C192.212 108.125 192.303 108.576 192.478 108.996C192.653 109.416 192.91 109.798 193.234 110.118C193.977 110.669 194.906 110.906 195.822 110.777C196.738 110.649 197.567 110.166 198.13 109.432C198.553 108.96 198.85 108.388 198.993 107.77C199.135 107.152 199.119 106.508 198.946 105.898L210.809 92.3645C210.968 92.2127 211.094 92.0306 211.18 91.8289C211.267 91.6273 211.312 91.4103 211.313 91.1908C211.313 90.9714 211.27 90.754 211.185 90.5518C211.1 90.3495 210.975 90.1665 210.817 90.0137V90.0137Z" fill="#1B5F9D"/>
<path d="M120.094 92.0706C111.372 92.0706 104.306 97.213 104.306 103.563C104.306 108.183 108.051 112.15 113.444 113.979C112.869 116.628 111.875 119.169 110.499 121.505C112.455 121.214 114.32 120.483 115.953 119.366C117.586 118.249 118.943 116.775 119.923 115.056H120.094C128.817 115.056 135.883 109.906 135.883 103.555C135.883 97.2048 128.817 92.0706 120.094 92.0706Z" fill="#1B5F9D"/>
<path opacity="0.7" d="M120.094 92.0706C111.372 92.0706 104.306 97.213 104.306 103.563C104.306 108.183 108.051 112.15 113.444 113.979C112.869 116.628 111.875 119.169 110.499 121.505C112.455 121.214 114.32 120.483 115.953 119.366C117.586 118.249 118.943 116.775 119.923 115.056H120.094C128.817 115.056 135.883 109.906 135.883 103.555C135.883 97.2048 128.817 92.0706 120.094 92.0706Z" fill="white"/>
<path d="M113.134 105.784C114.022 105.784 114.742 105.064 114.742 104.176C114.742 103.287 114.022 102.568 113.134 102.568C112.247 102.568 111.527 103.287 111.527 104.176C111.527 105.064 112.247 105.784 113.134 105.784Z" fill="#263238"/>
<path d="M121.596 104.176C121.596 104.498 121.5 104.814 121.321 105.083C121.141 105.351 120.886 105.56 120.588 105.684C120.29 105.807 119.962 105.84 119.645 105.777C119.329 105.714 119.038 105.558 118.81 105.33C118.582 105.102 118.426 104.811 118.363 104.494C118.3 104.177 118.333 103.849 118.456 103.551C118.58 103.253 118.789 102.998 119.057 102.818C119.325 102.639 119.641 102.543 119.964 102.543C120.397 102.543 120.812 102.715 121.118 103.021C121.424 103.327 121.596 103.743 121.596 104.176Z" fill="#263238"/>
<path d="M126.842 105.784C127.73 105.784 128.449 105.064 128.449 104.176C128.449 103.287 127.73 102.568 126.842 102.568C125.954 102.568 125.235 103.287 125.235 104.176C125.235 105.064 125.954 105.784 126.842 105.784Z" fill="#263238"/>
<path d="M96.7587 233.412H91.3981V268.658H96.7587V233.412Z" fill="#263238"/>
<path opacity="0.5" d="M96.7587 233.412H91.3981V268.658H96.7587V233.412Z" fill="white"/>
<path d="M110.368 295.047L97.8113 292.778V267.564C97.8123 267.378 97.7766 267.194 97.706 267.022C97.6355 266.851 97.5315 266.695 97.4002 266.563C97.2689 266.432 97.1129 266.328 96.9412 266.257C96.7694 266.187 96.5854 266.151 96.3997 266.152H91.7571C91.571 266.151 91.3866 266.187 91.2144 266.257C91.0422 266.328 90.8856 266.432 90.7537 266.563C90.6217 266.694 90.517 266.85 90.4456 267.022C90.3741 267.194 90.3374 267.378 90.3374 267.564V292.778L77.7884 295.047C76.9074 295.208 76.1106 295.672 75.5366 296.36C74.9626 297.047 74.6479 297.914 74.6471 298.81L94.0743 297.055L113.51 298.81C113.507 297.915 113.192 297.048 112.618 296.361C112.045 295.674 111.249 295.209 110.368 295.047V295.047Z" fill="#263238"/>
<path d="M78.7267 302.622C78.7267 303.429 78.4875 304.218 78.0392 304.89C77.5909 305.561 76.9537 306.084 76.2083 306.393C75.4628 306.702 74.6426 306.782 73.8512 306.625C73.0598 306.467 72.3329 306.079 71.7623 305.508C71.1918 304.937 70.8032 304.21 70.6458 303.418C70.4884 302.627 70.5692 301.806 70.878 301.06C71.1868 300.314 71.7097 299.677 72.3806 299.229C73.0514 298.78 73.8402 298.541 74.6471 298.541C75.7291 298.541 76.7667 298.971 77.5318 299.736C78.2969 300.502 78.7267 301.54 78.7267 302.622V302.622Z" fill="#1B5F9D"/>
<path d="M117.589 302.622C117.589 303.429 117.35 304.218 116.902 304.89C116.454 305.561 115.816 306.084 115.071 306.393C114.326 306.702 113.505 306.782 112.714 306.625C111.922 306.467 111.196 306.079 110.625 305.508C110.054 304.937 109.666 304.21 109.509 303.418C109.351 302.627 109.432 301.806 109.741 301.06C110.049 300.314 110.572 299.677 111.243 299.229C111.914 298.78 112.703 298.541 113.51 298.541C114.045 298.541 114.576 298.646 115.071 298.852C115.566 299.057 116.016 299.357 116.394 299.736C116.773 300.115 117.074 300.565 117.279 301.06C117.484 301.555 117.589 302.086 117.589 302.622V302.622Z" fill="#1B5F9D"/>
<path d="M97.2646 302.622C97.2646 304.875 96.3345 306.703 94.0743 306.703C91.8142 306.703 90.8922 304.875 90.8922 302.622C90.8922 300.369 91.8224 298.541 94.0743 298.541C96.3263 298.541 97.2646 300.361 97.2646 302.622Z" fill="#1B5F9D"/>
<g opacity="0.5">
<path opacity="0.5" d="M97.9337 292.803V297.406L99.4513 297.545V293.08L97.9337 292.803Z" fill="black"/>
<path opacity="0.5" d="M88.7382 293.072V297.537L90.2558 297.398V292.794L88.7382 293.072Z" fill="black"/>
</g>
<path d="M59.0792 201.309C58.7405 201.308 58.4057 201.382 58.0989 201.525C57.792 201.669 57.5205 201.878 57.3039 202.138C57.0872 202.399 56.9307 202.704 56.8454 203.032C56.7602 203.36 56.7484 203.702 56.8109 204.035L61.788 230.866C62.013 232.085 62.6577 233.187 63.6101 233.98C64.5625 234.773 65.7625 235.208 67.0018 235.208H145.437C146.37 235.206 147.265 234.833 147.924 234.172C148.583 233.511 148.954 232.616 148.954 231.682C148.955 231.024 148.826 230.373 148.575 229.766C148.324 229.158 147.956 228.606 147.491 228.141C147.026 227.677 146.475 227.308 145.867 227.057C145.26 226.806 144.609 226.677 143.952 226.678H99.1984C98.0122 226.679 96.86 226.282 95.9255 225.551C94.9909 224.82 94.3277 223.798 94.0417 222.646L90.0355 206.468C89.6711 204.996 88.8249 203.689 87.6316 202.754C86.4383 201.819 84.9666 201.31 83.4509 201.309H59.0792Z" fill="#263238"/>
<path d="M69.6699 222.646L65.6637 206.468C65.2994 204.996 64.4531 203.689 63.2598 202.754C62.0666 201.819 60.5948 201.31 59.0792 201.309V201.309C58.7405 201.308 58.4057 201.382 58.0989 201.525C57.792 201.669 57.5205 201.878 57.3039 202.138C57.0872 202.399 56.9307 202.704 56.8454 203.032C56.7602 203.36 56.7484 203.702 56.8109 204.035L61.788 230.866C62.013 232.085 62.6577 233.187 63.6101 233.98C64.5625 234.773 65.7625 235.208 67.0018 235.208H121.057C121.992 235.208 122.888 234.837 123.549 234.175C124.211 233.514 124.582 232.617 124.582 231.682V231.682C124.582 230.355 124.055 229.082 123.117 228.144C122.179 227.205 120.907 226.678 119.58 226.678H74.8347C73.6468 226.682 72.492 226.286 71.5555 225.555C70.619 224.824 69.955 223.8 69.6699 222.646V222.646Z" fill="#263238"/>
<path opacity="0.2" d="M69.6699 222.646L65.6637 206.468C65.2994 204.996 64.4531 203.689 63.2598 202.754C62.0666 201.819 60.5948 201.31 59.0792 201.309V201.309C58.7405 201.308 58.4057 201.382 58.0989 201.525C57.792 201.669 57.5205 201.878 57.3039 202.138C57.0872 202.399 56.9307 202.704 56.8454 203.032C56.7602 203.36 56.7484 203.702 56.8109 204.035L61.788 230.866C62.013 232.085 62.6577 233.187 63.6101 233.98C64.5625 234.773 65.7625 235.208 67.0018 235.208H121.057C121.992 235.208 122.888 234.837 123.549 234.175C124.211 233.514 124.582 232.617 124.582 231.682V231.682C124.582 230.355 124.055 229.082 123.117 228.144C122.179 227.205 120.907 226.678 119.58 226.678H74.8347C73.6468 226.682 72.492 226.286 71.5555 225.555C70.619 224.824 69.955 223.8 69.6699 222.646V222.646Z" fill="white"/>
<path d="M263.314 268.038C263.314 268.038 263.42 257.132 259.455 258.569C255.489 260.006 263.314 268.038 263.314 268.038Z" fill="#1B5F9D"/>
<path d="M267.573 257.949C267.573 257.949 272.828 249.223 268.079 247.982C263.33 246.742 267.573 257.949 267.573 257.949Z" fill="#1B5F9D"/>
<path d="M288.339 251.794C288.339 251.794 299.248 251.231 296.784 247.142C294.319 243.052 288.339 251.794 288.339 251.794Z" fill="#1B5F9D"/>
<path d="M271.082 254.692C271.082 254.692 282.505 252.113 280.367 258.528C278.229 264.944 271.082 254.692 271.082 254.692Z" fill="#1B5F9D"/>
<path d="M262.784 277.89C262.784 277.89 258.378 268.005 255.93 271.515C253.482 275.025 262.784 277.89 262.784 277.89Z" fill="#1B5F9D"/>
<path d="M275.235 252.627C275.235 252.627 286.87 249.574 283.247 245.281C279.625 240.987 275.235 252.627 275.235 252.627Z" fill="#1B5F9D"/>
<path d="M284.031 251.435C284.031 251.435 293.234 255.957 288.991 258.904C284.749 261.85 284.031 251.435 284.031 251.435Z" fill="#1B5F9D"/>
<path d="M264.465 263.654C264.465 263.654 270.837 255.973 272.803 261.557C274.77 267.14 264.465 263.654 264.465 263.654Z" fill="#1B5F9D"/>
<g opacity="0.4">
<path opacity="0.4" d="M262.784 277.89C262.784 277.89 258.378 268.005 255.93 271.515C253.482 275.025 262.784 277.89 262.784 277.89Z" fill="white"/>
<path opacity="0.4" d="M275.235 252.627C275.235 252.627 286.87 249.574 283.247 245.281C279.625 240.987 275.235 252.627 275.235 252.627Z" fill="white"/>
<path opacity="0.4" d="M284.031 251.435C284.031 251.435 293.234 255.957 288.991 258.904C284.749 261.85 284.031 251.435 284.031 251.435Z" fill="white"/>
<path opacity="0.4" d="M264.465 263.654C264.465 263.654 270.837 255.973 272.803 261.557C274.77 267.14 264.465 263.654 264.465 263.654Z" fill="white"/>
</g>
<path d="M262.719 273.613C262.719 273.613 267.288 263.818 270.968 268.756C274.647 273.694 262.719 273.613 262.719 273.613Z" fill="#1B5F9D"/>
<path d="M262.792 283.905C261.409 277.525 261.608 270.903 263.371 264.617C267.108 252.374 278.572 249.484 290.158 251.337C291.08 251.484 290.672 252.88 289.758 252.733C283.606 251.753 276.704 251.655 271.343 255.378C267.508 258.063 265.338 262.332 264.293 266.805C263.068 272.32 263.038 278.034 264.204 283.563C264.391 284.477 262.988 284.836 262.792 283.914V283.905Z" fill="#1B5F9D"/>
<g opacity="0.3">
<path opacity="0.3" d="M262.792 283.905C261.409 277.525 261.608 270.903 263.371 264.617C267.108 252.374 278.572 249.484 290.158 251.337C291.08 251.484 290.672 252.88 289.758 252.733C283.606 251.753 276.704 251.655 271.343 255.378C267.508 258.063 265.338 262.332 264.293 266.805C263.068 272.32 263.038 278.034 264.204 283.563C264.391 284.477 262.988 284.836 262.792 283.914V283.905Z" fill="black"/>
</g>
<path d="M253.711 264.691C253.711 264.691 247.999 251.37 244.295 254.847C240.591 258.324 253.711 264.691 253.711 264.691Z" fill="#1B5F9D"/>
<path d="M253.221 250.562C253.221 250.562 254.576 237.657 248.505 238.204C242.435 238.751 253.221 250.562 253.221 250.562Z" fill="#1B5F9D"/>
<path d="M273.611 234.008C273.611 234.008 285.728 228.564 280.751 224.662C275.773 220.76 273.611 234.008 273.611 234.008Z" fill="#1B5F9D"/>
<path d="M255.489 245.101C255.489 245.101 267.149 236.939 268.104 245.721C269.058 254.504 255.489 245.101 255.489 245.101Z" fill="#1B5F9D"/>
<path d="M258.361 276.935C258.361 276.935 248.089 266.83 247.167 272.168C246.245 277.506 258.361 276.935 258.361 276.935Z" fill="#1B5F9D"/>
<path d="M259.12 240.75C259.12 240.75 270.755 231.951 264.342 228.303C257.929 224.654 259.12 240.75 259.12 240.75Z" fill="#1B5F9D"/>
<path d="M268.512 235.453C268.512 235.453 281.395 236.939 278.123 242.383C274.851 247.827 268.512 235.453 268.512 235.453Z" fill="#1B5F9D"/>
<path d="M252.707 258.863C252.707 258.863 255.889 246.742 261.095 252.676C266.3 258.61 252.707 258.863 252.707 258.863Z" fill="#1B5F9D"/>
<g opacity="0.4">
<path opacity="0.4" d="M258.361 276.935C258.361 276.935 248.089 266.83 247.167 272.168C246.245 277.506 258.361 276.935 258.361 276.935Z" fill="white"/>
<path opacity="0.4" d="M259.12 240.75C259.12 240.75 270.755 231.951 264.342 228.303C257.929 224.654 259.12 240.75 259.12 240.75Z" fill="white"/>
<path opacity="0.4" d="M268.512 235.453C268.512 235.453 281.395 236.939 278.123 242.383C274.851 247.827 268.512 235.453 268.512 235.453Z" fill="white"/>
<path opacity="0.4" d="M252.707 258.863C252.707 258.863 255.889 246.742 261.095 252.676C266.3 258.61 252.707 258.863 252.707 258.863Z" fill="white"/>
</g>
<path d="M256.02 271.752C256.02 271.752 256.02 257.818 262.825 262.234C269.629 266.65 256.02 271.752 256.02 271.752Z" fill="#1B5F9D"/>
<path d="M261.56 284.281C256.779 277.286 253.091 268.772 251.981 260.536C249.745 244.015 261.25 235.494 275.439 232.686C276.565 232.465 276.834 234.318 275.724 234.563C268.193 236.049 260.222 238.963 256.142 245.811C253.197 250.749 252.985 256.904 254.168 262.789C255.737 270.114 258.726 277.06 262.963 283.236C263.032 283.329 263.081 283.435 263.109 283.548C263.137 283.66 263.142 283.777 263.125 283.891C263.107 284.006 263.067 284.116 263.008 284.215C262.948 284.314 262.869 284.4 262.776 284.469C262.682 284.537 262.577 284.587 262.464 284.615C262.352 284.642 262.235 284.648 262.121 284.63C262.006 284.613 261.897 284.573 261.797 284.513C261.698 284.453 261.612 284.374 261.544 284.281H261.56Z" fill="#1B5F9D"/>
<g opacity="0.3">
<path opacity="0.3" d="M261.56 284.281C256.779 277.286 253.091 268.772 251.981 260.536C249.745 244.015 261.25 235.494 275.439 232.686C276.565 232.465 276.834 234.318 275.724 234.563C268.193 236.049 260.222 238.963 256.142 245.811C253.197 250.749 252.985 256.904 254.168 262.789C255.737 270.114 258.726 277.06 262.963 283.236C263.032 283.329 263.081 283.435 263.109 283.548C263.137 283.66 263.142 283.777 263.125 283.891C263.107 284.006 263.067 284.116 263.008 284.215C262.948 284.314 262.869 284.4 262.776 284.469C262.682 284.537 262.577 284.587 262.464 284.615C262.352 284.642 262.235 284.648 262.121 284.63C262.006 284.613 261.897 284.573 261.797 284.513C261.698 284.453 261.612 284.374 261.544 284.281H261.56Z" fill="black"/>
</g>
<path d="M252.356 268.233C252.356 268.233 255.065 259.198 257.97 261.401C260.875 263.605 252.356 268.233 252.356 268.233Z" fill="#1B5F9D"/>
<path d="M251.41 258.789C251.41 258.789 249.313 250.235 253.556 250.423C257.798 250.611 251.41 258.789 251.41 258.789Z" fill="#1B5F9D"/>
<path d="M235.834 248.366C235.834 248.366 226.965 245.101 230.057 242.35C233.149 239.599 235.834 248.366 235.834 248.366Z" fill="#1B5F9D"/>
<path d="M249.354 255.198C249.354 255.198 240.558 250.129 240.697 256.014C240.835 261.899 249.354 255.198 249.354 255.198Z" fill="#1B5F9D"/>
<path d="M250.259 276.502C250.259 276.502 256.444 269.466 257.562 273C258.68 276.535 250.259 276.502 250.259 276.502Z" fill="#1B5F9D"/>
<path d="M246.449 252.447C246.449 252.447 237.621 246.929 241.717 244.285C245.812 241.64 246.449 252.447 246.449 252.447Z" fill="#1B5F9D"/>
<path d="M239.481 249.182C239.481 249.182 230.718 250.545 233.468 254.08C236.217 257.614 239.481 249.182 239.481 249.182Z" fill="#1B5F9D"/>
<path d="M252.519 264.307C252.519 264.307 249.256 256.324 246.163 260.43C243.071 264.536 252.519 264.307 252.519 264.307Z" fill="#1B5F9D"/>
<g opacity="0.4">
<path opacity="0.4" d="M250.259 276.502C250.259 276.502 256.444 269.466 257.562 273C258.68 276.535 250.259 276.502 250.259 276.502Z" fill="white"/>
<path opacity="0.4" d="M246.449 252.447C246.449 252.447 237.621 246.929 241.717 244.285C245.812 241.64 246.449 252.447 246.449 252.447Z" fill="white"/>
<path opacity="0.4" d="M239.481 249.182C239.481 249.182 230.718 250.545 233.468 254.08C236.217 257.614 239.481 249.182 239.481 249.182Z" fill="white"/>
<path opacity="0.4" d="M252.519 264.307C252.519 264.307 249.256 256.324 246.163 260.43C243.071 264.536 252.519 264.307 252.519 264.307Z" fill="white"/>
</g>
<path d="M251.393 272.984C251.393 272.984 250.145 263.703 245.829 266.846C241.513 269.988 251.393 272.984 251.393 272.984Z" fill="#1B5F9D"/>
<path d="M248.693 281.473C251.477 276.557 253.013 271.033 253.164 265.385C253.221 254.316 244.499 248.97 234.447 247.525C233.631 247.411 233.631 248.668 234.447 248.782C239.783 249.55 245.535 251.231 248.978 255.696C251.426 258.904 252.16 262.993 251.875 266.944C251.469 271.818 250.025 276.55 247.64 280.82C247.249 281.522 248.317 282.183 248.717 281.473H248.693Z" fill="#1B5F9D"/>
<g opacity="0.3">
<path opacity="0.3" d="M248.693 281.473C251.477 276.557 253.013 271.033 253.164 265.385C253.221 254.316 244.499 248.97 234.447 247.525C233.631 247.411 233.631 248.668 234.447 248.782C239.783 249.55 245.535 251.231 248.978 255.696C251.426 258.904 252.16 262.993 251.875 266.944C251.469 271.818 250.025 276.55 247.64 280.82C247.249 281.522 248.317 282.183 248.717 281.473H248.693Z" fill="black"/>
</g>
<path d="M274.084 279.179L270.927 302.998C270.731 304.48 270.003 305.84 268.878 306.825C267.754 307.811 266.31 308.353 264.815 308.352H245.176C243.681 308.353 242.237 307.811 241.113 306.825C239.989 305.84 239.261 304.48 239.065 302.998L235.907 279.179H274.084Z" fill="#1B5F9D"/>
<path opacity="0.3" d="M274.084 279.179L270.927 302.998C270.731 304.48 270.003 305.84 268.878 306.825C267.754 307.811 266.31 308.353 264.815 308.352H245.176C243.681 308.353 242.237 307.811 241.113 306.825C239.989 305.84 239.261 304.48 239.065 302.998L235.907 279.179H274.084Z" fill="white"/>
<path d="M102.805 124.533C102.805 124.533 111.731 127.202 107.562 133.797L103.686 128.149L102.805 124.533Z" fill="#263238"/>
<path d="M134.961 158.579L138.852 152.865L142.704 154.089L143.405 155.64L138.608 162.505L134.961 158.579Z" fill="#DBB178"/>
<path d="M140.729 160.064C136.829 166.194 130.677 175.124 128.327 174.593C121.424 173.051 111.935 166.512 107.064 159.329C106.327 158.246 106.024 156.926 106.216 155.629C106.408 154.333 107.081 153.157 108.1 152.334V152.285C108.631 151.85 109.242 151.525 109.899 151.327C110.556 151.13 111.245 151.064 111.928 151.134C112.61 151.203 113.272 151.407 113.875 151.734C114.479 152.06 115.012 152.503 115.443 153.036C115.533 153.142 115.615 153.257 115.696 153.371C120.013 159.566 125.488 165.443 126.385 165.941C127.438 166.545 130.171 163.958 135.956 156.644L140.729 160.064Z" fill="#1B5F9D"/>
<path opacity="0.6" d="M140.729 160.064C136.829 166.194 130.677 175.124 128.327 174.593C121.424 173.051 111.935 166.512 107.064 159.329C106.327 158.246 106.024 156.926 106.216 155.629C106.408 154.333 107.081 153.157 108.1 152.334V152.285C108.631 151.85 109.242 151.525 109.899 151.327C110.556 151.13 111.245 151.064 111.928 151.134C112.61 151.203 113.272 151.407 113.875 151.734C114.479 152.06 115.012 152.503 115.443 153.036C115.533 153.142 115.615 153.257 115.696 153.371C120.013 159.566 125.488 165.443 126.385 165.941C127.438 166.545 130.171 163.958 135.956 156.644L140.729 160.064Z" fill="white"/>
<path d="M140.819 155.134L148.529 156.644L144.939 150.171C144.939 150.171 140.272 150.171 138.852 152.865L140.819 155.134Z" fill="#DBB178"/>
<path opacity="0.2" d="M118.487 170.128C112.898 166.308 112.155 157.346 112.155 157.346L108.989 155.901L107.472 159.934C110.504 163.964 114.235 167.417 118.487 170.128V170.128Z" fill="black"/>
<path d="M153.98 153.869L150.683 148.62L144.947 150.179L148.529 156.644L153.98 153.869Z" fill="#DBB178"/>
<path d="M111.16 189.751L83.81 191.547C83.81 191.547 83.6141 184.201 82.6595 177.434C82.364 175.079 81.895 172.749 81.2561 170.463C80.5462 168.129 79.6243 165.508 78.5635 162.464C78.4248 162.088 78.2861 161.713 78.1311 161.313C77.7721 160.374 77.4049 159.387 76.9888 158.35V158.309C76.6192 157.304 76.6593 156.194 77.1004 155.218C77.5416 154.243 78.3484 153.479 79.3468 153.093C79.5348 153.02 79.7286 152.963 79.9261 152.922C81.6641 152.555 83.4183 152.22 85.197 151.942L86.731 151.706C90.826 151.094 94.9537 150.726 99.0923 150.604C101.238 150.604 103.531 150.669 105.489 150.759L107.121 150.84C109.193 150.963 110.63 151.085 110.63 151.085C110.63 151.085 111.527 151.265 112.057 156.081C112.069 156.354 112.097 156.627 112.139 156.897C112.204 157.893 112.261 159.15 112.286 160.66C112.367 166.831 112 177.189 111.16 189.751Z" fill="#1B5F9D"/>
<path opacity="0.6" d="M111.16 189.751L83.81 191.547C83.81 191.547 83.6141 184.201 82.6595 177.434C82.364 175.079 81.895 172.749 81.2561 170.463C80.5462 168.129 79.6243 165.508 78.5635 162.464C78.4248 162.088 78.2861 161.713 78.1311 161.313C77.7721 160.374 77.4049 159.387 76.9888 158.35V158.309C76.6192 157.304 76.6593 156.194 77.1004 155.218C77.5416 154.243 78.3484 153.479 79.3468 153.093C79.5348 153.02 79.7286 152.963 79.9261 152.922C81.6641 152.555 83.4183 152.22 85.197 151.942L86.731 151.706C90.826 151.094 94.9537 150.726 99.0923 150.604C101.238 150.604 103.531 150.669 105.489 150.759L107.121 150.84C109.193 150.963 110.63 151.085 110.63 151.085C110.63 151.085 111.527 151.265 112.057 156.081C112.069 156.354 112.097 156.627 112.139 156.897C112.204 157.893 112.261 159.15 112.286 160.66C112.367 166.831 112 177.189 111.16 189.751Z" fill="white"/>
<path d="M87.6856 151.583L94.5068 160.676L99.4023 156.481L105.767 159.55L102.323 150.645C101.263 150.645 100.169 150.604 99.1168 150.604C95.2913 150.721 91.4752 151.048 87.6856 151.583V151.583Z" fill="#1B5F9D"/>
<path opacity="0.9" d="M87.6856 151.583L94.5068 160.676L99.4023 156.481L105.767 159.55L102.323 150.645C101.263 150.645 100.169 150.604 99.1168 150.604C95.2913 150.721 91.4752 151.048 87.6856 151.583V151.583Z" fill="white"/>
<path d="M148.056 299.479H142.239L144.89 255.549H155.775L148.056 299.479Z" fill="#DBB178"/>
<path d="M141.594 298.924C141.529 298.369 148.472 297.847 148.472 297.847C148.472 297.847 153.303 301.561 157.545 301.928C161.788 302.296 159.838 305.103 155.244 305.74L143.879 307.332C140.615 307.846 142.263 304.752 141.594 298.924Z" fill="#263238"/>
<path d="M151.956 299.161C151.071 299.105 150.197 298.938 149.353 298.663C149.318 298.655 149.286 298.635 149.264 298.606V298.606C149.247 298.553 149.247 298.496 149.264 298.443C149.264 298.369 149.647 296.647 150.537 296.141C150.67 296.06 150.819 296.008 150.974 295.99C151.129 295.972 151.286 295.987 151.434 296.035C151.867 296.166 151.981 296.41 151.989 296.582C151.989 296.933 151.654 297.325 151.173 297.684C151.637 297.553 152.129 297.553 152.593 297.684C152.694 297.722 152.786 297.78 152.865 297.854C152.943 297.928 153.006 298.018 153.05 298.116C153.118 298.245 153.147 298.39 153.134 298.535C153.121 298.68 153.066 298.818 152.976 298.933C152.678 299.136 152.313 299.217 151.956 299.161V299.161ZM150.088 298.418C151.132 298.688 152.356 298.867 152.625 298.582C152.691 298.516 152.674 298.402 152.625 298.247C152.604 298.201 152.573 298.16 152.535 298.126C152.497 298.093 152.453 298.067 152.405 298.051C151.614 297.954 150.811 298.082 150.088 298.418V298.418ZM151.034 296.386C150.913 296.386 150.794 296.42 150.692 296.484C150.225 296.887 149.897 297.427 149.753 298.027C150.651 297.512 151.548 296.867 151.548 296.59C151.548 296.533 151.45 296.476 151.295 296.419C151.21 296.395 151.122 296.384 151.034 296.386V296.386Z" fill="#1B5F9D"/>
<path opacity="0.2" d="M144.425 263.23L154.371 263.532L155.775 255.549H144.89L144.425 263.23Z" fill="black"/>
<path d="M120.135 300.214L114.562 299.479L123.382 250.831L134.381 253.974L120.135 300.214Z" fill="#DBB178"/>
<path d="M113.836 298.696C113.836 298.133 120.788 298.696 120.788 298.696C120.788 298.696 125.006 303.095 129.143 304.083C133.28 305.071 130.938 307.577 126.304 307.52L114.815 307.381C111.494 307.348 113.616 304.565 113.836 298.696Z" fill="#263238"/>
<path d="M124.443 300.516C123.428 300.387 122.442 300.083 121.53 299.618L121.473 299.569C121.465 299.548 121.465 299.525 121.473 299.504C121.461 299.48 121.455 299.453 121.455 299.426C121.455 299.399 121.461 299.373 121.473 299.349C121.473 299.284 122.11 297.651 123.105 297.259C123.247 297.199 123.4 297.167 123.554 297.167C123.708 297.167 123.861 297.199 124.003 297.259C124.411 297.472 124.484 297.708 124.468 297.88C124.468 298.231 124.027 298.573 123.513 298.851C123.992 298.792 124.478 298.869 124.916 299.071C125.01 299.121 125.093 299.191 125.157 299.275C125.222 299.36 125.268 299.457 125.292 299.561C125.344 299.694 125.354 299.84 125.32 299.979C125.287 300.117 125.211 300.242 125.104 300.337C124.911 300.47 124.678 300.534 124.443 300.516V300.516ZM122.265 299.471C123.26 299.896 124.443 300.288 124.712 300.01C124.778 299.953 124.794 299.847 124.712 299.675C124.699 299.629 124.676 299.585 124.645 299.547C124.614 299.509 124.576 299.478 124.533 299.455C123.789 299.258 123.006 299.264 122.265 299.471V299.471ZM123.407 297.594C123.317 297.593 123.228 297.613 123.146 297.651C122.627 297.979 122.225 298.462 121.995 299.031C122.991 298.663 123.929 298.133 123.945 297.871C123.945 297.822 123.864 297.741 123.725 297.676C123.64 297.629 123.545 297.601 123.448 297.594H123.407Z" fill="#1B5F9D"/>
<path opacity="0.2" d="M134.381 253.974L123.382 250.831L121.645 260.422L131.827 262.267L134.381 253.974Z" fill="black"/>
<path d="M142.01 259.32L156.003 260.055C159.585 243.55 163.159 225.356 162.449 221.364C161.103 213.716 150.716 205.929 110.393 199.326L91.6266 227.535C91.6266 227.535 119.074 226.254 144.091 226.254C144.083 226.27 142.687 241.975 142.01 259.32Z" fill="#1B5F9D"/>
<path opacity="0.1" d="M142.01 259.32L156.003 260.055C159.585 243.55 163.159 225.356 162.449 221.364C161.103 213.716 150.716 205.929 110.393 199.326L91.6266 227.535C91.6266 227.535 119.074 226.254 144.091 226.254C144.083 226.27 142.687 241.975 142.01 259.32Z" fill="black"/>
<path d="M141.072 257.116L141.488 260.781L156.819 261.312L157.57 257.941L141.072 257.116Z" fill="#1B5F9D"/>
<path d="M101.458 150.628H99.0923C95.698 150.737 92.3146 151.009 88.9421 151.445C90.4108 153.191 94.9882 155.934 98.0561 155.934C102.34 155.901 101.385 152.718 101.458 150.628Z" fill="#DBB178"/>
<path d="M120.257 256.471L134.561 258.806C140.37 242.53 146.18 225.217 146.082 221.324C145.886 213.553 144.18 209.521 116.088 203.244C116.088 203.244 114.595 201.072 111.193 189.776L83.8099 191.571C83.8099 191.571 71.3181 214.598 80.9868 224.425C83.1246 226.613 87.3266 227.584 91.5939 227.552C91.5939 227.552 101.467 227.601 125.863 226.458C125.871 226.458 122.975 240.383 120.257 256.471Z" fill="#1B5F9D"/>
<path d="M119.686 253.974L136.258 256.781L134.683 260.259L119.613 257.794L119.686 253.974Z" fill="#1B5F9D"/>
<path opacity="0.1" d="M141.072 257.116L141.488 260.781L156.819 261.312L157.57 257.941L141.072 257.116Z" fill="black"/>
<path d="M99.386 148.269C99.071 150.282 99.1541 152.337 99.6308 154.318L92.1324 153.224C91.9709 153.2 91.817 153.139 91.6828 153.046C91.5487 152.953 91.4378 152.83 91.3588 152.687C91.2798 152.544 91.2349 152.385 91.2276 152.222C91.2203 152.059 91.2507 151.896 91.3165 151.747C92.3446 149.404 92.7525 144.71 93.0055 142.539C93.1442 141.241 93.2013 140.042 93.2094 139.217C93.2176 138.393 93.2094 138.066 93.2094 138.066L96.5629 139.609L102.038 142.107C100.775 143.976 99.8751 146.067 99.386 148.269Z" fill="#DBB178"/>
<path opacity="0.2" d="M102.054 142.107C100.781 143.975 99.8679 146.065 99.3615 148.269C96.6244 147.186 94.3644 145.159 92.9891 142.556C93.136 141.258 93.1931 140.058 93.2013 139.233C94.3925 139.356 95.5022 139.478 96.5629 139.625L102.054 142.107Z" fill="black"/>
<path d="M102.454 136.76C102.234 139.258 103.515 141.29 105.31 141.29C107.105 141.29 108.745 139.258 108.965 136.76C109.185 134.262 107.904 132.222 106.109 132.222C104.314 132.222 102.674 134.254 102.454 136.76Z" fill="#1B5F9D"/>
<path opacity="0.5" d="M102.136 136.76C101.915 139.258 103.196 141.29 104.991 141.29C106.786 141.29 108.418 139.258 108.639 136.76C108.859 134.262 107.578 132.222 105.783 132.222C103.988 132.222 102.348 134.254 102.136 136.76Z" fill="black"/>
<path d="M89.5786 132.344C90.9167 138.491 91.3818 142.139 95.0045 144.947C96.1724 145.875 97.5722 146.465 99.0517 146.653C100.531 146.841 102.034 146.619 103.397 146.013C104.759 145.406 105.929 144.437 106.78 143.212C107.631 141.986 108.13 140.551 108.223 139.062C108.704 133.348 106.436 124.255 99.9735 122.517C98.5847 122.105 97.1121 122.065 95.7031 122.401C94.2941 122.738 92.9983 123.439 91.9455 124.434C90.8927 125.43 90.1198 126.684 89.7044 128.073C89.289 129.461 89.2456 130.934 89.5786 132.344Z" fill="#DBB178"/>
<path d="M88.1588 138.76C89.1547 139.957 90.5317 140.776 92.059 141.078C93.9927 141.405 94.4333 139.609 93.4461 137.878C92.5649 136.319 90.4842 134.262 88.7545 134.72C87.0247 135.177 86.9105 137.25 88.1588 138.76Z" fill="#DBB178"/>
<path d="M99.2636 132.956C99.3452 133.463 99.6716 133.838 100.006 133.773C100.341 133.707 100.536 133.291 100.463 132.793C100.39 132.295 100.055 131.912 99.7205 131.977C99.386 132.042 99.1902 132.459 99.2636 132.956Z" fill="#263238"/>
<path d="M105.024 132.279C105.098 132.777 105.432 133.161 105.758 133.095C106.085 133.03 106.297 132.614 106.224 132.108C106.15 131.601 105.807 131.226 105.481 131.291C105.155 131.357 104.902 131.773 105.024 132.279Z" fill="#263238"/>
<path d="M103.205 132.744C104.049 134.215 105.083 135.568 106.281 136.768C105.968 137.056 105.597 137.271 105.192 137.398C104.787 137.525 104.359 137.561 103.939 137.503L103.205 132.744Z" fill="#C0854B"/>
<path d="M97.2156 131.324C97.1673 131.335 97.1171 131.335 97.0688 131.324C97.0339 131.305 97.0032 131.28 96.9784 131.249C96.9537 131.218 96.9354 131.182 96.9248 131.144C96.9141 131.106 96.9112 131.066 96.9163 131.027C96.9215 130.988 96.9345 130.95 96.9545 130.916C97.1758 130.5 97.495 130.145 97.8846 129.88C98.2741 129.615 98.7223 129.45 99.1902 129.398C99.2703 129.398 99.347 129.429 99.4037 129.486C99.4603 129.543 99.4921 129.62 99.4921 129.7C99.4921 129.78 99.4603 129.857 99.4037 129.913C99.347 129.97 99.2703 130.002 99.1902 130.002C98.8221 130.043 98.47 130.175 98.1653 130.386C97.8606 130.597 97.6128 130.88 97.4441 131.21C97.4171 131.245 97.3825 131.273 97.3429 131.293C97.3034 131.313 97.2599 131.323 97.2156 131.324V131.324Z" fill="#263238"/>
<path d="M107.137 130.01C107.089 130.009 107.042 129.997 106.999 129.974C106.956 129.952 106.92 129.919 106.893 129.879C106.685 129.557 106.407 129.286 106.079 129.088C105.751 128.89 105.381 128.769 105 128.736C104.96 128.736 104.921 128.729 104.885 128.713C104.849 128.698 104.816 128.676 104.789 128.648C104.762 128.619 104.74 128.586 104.726 128.549C104.712 128.513 104.705 128.474 104.706 128.434C104.706 128.356 104.737 128.28 104.791 128.224C104.846 128.167 104.921 128.135 105 128.132V128.132C105.479 128.165 105.945 128.31 106.359 128.555C106.772 128.8 107.123 129.139 107.382 129.545C107.427 129.61 107.444 129.69 107.43 129.768C107.417 129.846 107.373 129.915 107.309 129.961C107.257 129.992 107.198 130.009 107.137 130.01V130.01Z" fill="#263238"/>
<path d="M90.778 140.425C90.778 140.425 94.6781 136.434 92.7688 126.639C92.7688 126.639 95.9102 129.3 103.205 127.333C103.205 127.333 98.8883 127.757 96.9137 125.7C96.9137 125.7 100.936 127.569 107.439 125.7C107.439 125.7 106.281 119.113 99.2799 118.77C99.2799 118.77 101.54 116.868 103.719 117.244C103.719 117.244 101.491 115.326 95.8367 119.056L93.6011 119.97C93.6011 119.97 87.3021 117.701 83.8099 123.039C81.0276 127.259 82.4229 140.548 90.778 140.425Z" fill="#263238"/>
<path d="M105.081 138.621C105.081 138.621 103.107 138.123 97.542 138.001C98.1621 139.691 99.3452 141.078 102.201 141.119C102.557 141.159 102.917 141.124 103.259 141.018C103.601 140.911 103.917 140.735 104.187 140.501C104.458 140.266 104.677 139.978 104.831 139.654C104.985 139.331 105.07 138.979 105.081 138.621V138.621Z" fill="#263238"/>
<path d="M100.944 139.805C102.041 139.765 103.123 140.07 104.037 140.678C103.501 141.016 102.874 141.179 102.242 141.143C101.149 141.189 100.071 140.883 99.1657 140.27C99.695 139.932 100.317 139.769 100.944 139.805V139.805Z" fill="#A02724"/>
<path d="M104.828 138.564C104.771 138.77 104.657 138.955 104.5 139.099C104.343 139.244 104.149 139.341 103.939 139.38C102.296 139.338 100.658 139.164 99.0433 138.858C98.7853 138.835 98.5369 138.749 98.3205 138.606C98.104 138.464 97.9263 138.27 97.8031 138.042C100.155 138.032 102.504 138.206 104.828 138.564V138.564Z" fill="white"/>
<path d="M87.7509 134.467V127.871C87.7517 125.922 88.3809 124.025 89.5451 122.462C90.7092 120.899 92.3462 119.753 94.213 119.195L96.416 118.803C94.5012 119.377 92.8224 120.553 91.6289 122.158C90.4354 123.762 89.7908 125.708 89.7907 127.708V134.467H87.7509Z" fill="#1B5F9D"/>
<path d="M92.8667 137.658C93.087 140.156 91.806 142.188 90.011 142.188C88.2159 142.188 86.5759 140.156 86.3638 137.658C86.1516 135.16 87.4245 133.12 89.2195 133.12C91.0146 133.12 92.6464 135.152 92.8667 137.658Z" fill="#1B5F9D"/>
<path opacity="0.5" d="M92.8667 137.658C93.087 140.156 91.806 142.188 90.011 142.188C88.2159 142.188 86.5759 140.156 86.3638 137.658C86.1516 135.16 87.4245 133.12 89.2195 133.12C91.0146 133.12 92.6464 135.152 92.8667 137.658Z" fill="black"/>
<path d="M91.7816 137.658C91.9937 140.156 90.7209 142.188 88.9177 142.188C87.1145 142.188 85.4908 140.156 85.2705 137.658C85.0502 135.16 86.3312 133.12 88.1262 133.12C89.9213 133.12 91.5613 135.152 91.7816 137.658Z" fill="#1B5F9D"/>
<path opacity="0.3" d="M89.5214 138.311L89.3746 136.997H89.6275C89.3011 135.699 88.3873 134.728 87.3837 134.728C86.3801 134.728 85.6458 135.699 85.5397 136.997H85.7111L85.8579 138.311H85.6621C85.9885 139.609 86.9023 140.58 87.8977 140.58C88.8932 140.58 89.6438 139.609 89.7417 138.311H89.5214Z" fill="white"/>
<path d="M77.7966 138.172L81.354 131.161L84.2342 137.976C84.2342 137.976 81.3459 141.65 78.3677 141.119L77.7966 138.172Z" fill="#DBB178"/>
<path d="M86.9023 128.606L88.9993 134.442L84.2343 138.001L81.3622 131.185L86.9023 128.606Z" fill="#DBB178"/>
<path d="M78.7349 145.772L82.1618 140.001L81.8028 137.65L78.7838 136.581L74.4839 143.274L78.7349 145.772Z" fill="#DBB178"/>
<path d="M81.2071 142.18L74.949 155.958C74.949 155.958 77.9924 153.224 79.6732 152.832C82.3494 152.204 90.4271 154.644 82.2434 163.533C82.2434 163.533 66.039 173.663 62.7345 169.737C60.1643 166.684 71.0815 148.131 76.0831 140.001L81.2071 142.18Z" fill="#1B5F9D"/>
<path opacity="0.6" d="M81.2071 142.18L74.949 155.958C74.949 155.958 77.9924 153.224 79.6732 152.832C82.3494 152.204 90.4271 154.644 82.2434 163.533C82.2434 163.533 66.039 173.663 62.7345 169.737C60.1643 166.684 71.0815 148.131 76.0831 140.001L81.2071 142.18Z" fill="white"/>
<path opacity="0.2" d="M74.949 155.958L73.2029 161.329L78.3269 153.444C77.1329 154.187 76.0029 155.028 74.949 155.958V155.958Z" fill="black"/>
<path d="M98.3906 143.739C97.7054 143.757 97.02 143.713 96.3426 143.609C94.5965 142.98 92.9069 142.205 91.292 141.29L91.6184 140.703C93.1865 141.583 94.8238 142.334 96.514 142.947C98.2518 143.087 99.9981 143.087 101.736 142.947L101.785 143.617C101.654 143.617 99.9409 143.739 98.3906 143.739Z" fill="#1B5F9D"/>
<path d="M99.1249 143.886L102.389 143.641C102.389 143.641 102.299 142.629 100.757 142.67C99.2147 142.711 99.1249 143.886 99.1249 143.886Z" fill="#1B5F9D"/>
<g opacity="0.5">
<path opacity="0.5" d="M98.3906 143.739C97.7054 143.757 97.02 143.713 96.3426 143.609C94.5965 142.98 92.9069 142.205 91.292 141.29L91.6184 140.703C93.1865 141.583 94.8238 142.334 96.514 142.947C98.2518 143.087 99.9981 143.087 101.736 142.947L101.785 143.617C101.654 143.617 99.9409 143.739 98.3906 143.739Z" fill="black"/>
<path opacity="0.5" d="M99.1249 143.886L102.389 143.641C102.389 143.641 102.299 142.629 100.757 142.67C99.2147 142.711 99.1249 143.886 99.1249 143.886Z" fill="black"/>
</g>
<path d="M229.094 307.617C228.919 307.624 228.745 307.595 228.581 307.533C228.418 307.471 228.268 307.377 228.142 307.256C228.016 307.134 227.915 306.989 227.846 306.828C227.777 306.668 227.741 306.495 227.74 306.32L219.58 211.806C219.564 210.992 219.245 210.214 218.685 209.624C218.125 209.033 217.365 208.673 216.553 208.615H178.009C177.197 208.673 176.437 209.033 175.877 209.624C175.317 210.214 174.998 210.992 174.982 211.806L166.823 306.32C166.822 306.495 166.785 306.668 166.716 306.828C166.647 306.989 166.546 307.134 166.42 307.256C166.294 307.377 166.144 307.471 165.981 307.533C165.817 307.595 165.643 307.624 165.468 307.617V307.617C165.115 307.546 164.804 307.342 164.597 307.047C164.391 306.753 164.305 306.39 164.358 306.034L172.518 211.52C172.803 208.215 175.161 205.725 178.009 205.725H216.553C219.401 205.725 221.759 208.215 222.045 211.52L230.204 306.034C230.257 306.39 230.171 306.753 229.965 307.047C229.758 307.342 229.447 307.546 229.094 307.617V307.617Z" fill="#1B5F9D"/>
<g opacity="0.4">
<path opacity="0.4" d="M229.094 307.617C228.919 307.624 228.745 307.595 228.581 307.533C228.418 307.471 228.268 307.377 228.142 307.256C228.016 307.134 227.915 306.989 227.846 306.828C227.777 306.668 227.741 306.495 227.74 306.32L219.58 211.806C219.564 210.992 219.245 210.214 218.685 209.624C218.125 209.033 217.365 208.673 216.553 208.615H178.009C177.197 208.673 176.437 209.033 175.877 209.624C175.317 210.214 174.998 210.992 174.982 211.806L166.823 306.32C166.822 306.495 166.785 306.668 166.716 306.828C166.647 306.989 166.546 307.134 166.42 307.256C166.294 307.377 166.144 307.471 165.981 307.533C165.817 307.595 165.643 307.624 165.468 307.617V307.617C165.115 307.546 164.804 307.342 164.597 307.047C164.391 306.753 164.305 306.39 164.358 306.034L172.518 211.52C172.803 208.215 175.161 205.725 178.009 205.725H216.553C219.401 205.725 221.759 208.215 222.045 211.52L230.204 306.034C230.257 306.39 230.171 306.753 229.965 307.047C229.758 307.342 229.447 307.546 229.094 307.617V307.617Z" fill="black"/>
</g>
<path d="M228.556 201.677H123.782C122.868 201.677 122.126 202.418 122.126 203.333V208.704C122.126 209.62 122.868 210.361 123.782 210.361H228.556C229.47 210.361 230.212 209.62 230.212 208.704V203.333C230.212 202.418 229.47 201.677 228.556 201.677Z" fill="#263238"/>
<path opacity="0.2" d="M182.782 201.677H228.556C228.988 201.677 229.403 201.849 229.71 202.155C230.016 202.461 230.187 202.876 230.187 203.309V208.68C230.187 209.113 230.016 209.528 229.71 209.834C229.403 210.14 228.988 210.312 228.556 210.312H182.782V201.677Z" fill="white"/>
<path d="M186.878 307.617C186.703 307.625 186.527 307.597 186.363 307.536C186.198 307.474 186.048 307.38 185.921 307.259C185.793 307.137 185.692 306.992 185.622 306.83C185.553 306.669 185.516 306.495 185.515 306.32L177.356 211.806C177.34 210.992 177.021 210.214 176.461 209.624C175.901 209.033 175.14 208.673 174.329 208.615H135.785C134.975 208.675 134.216 209.036 133.658 209.626C133.1 210.217 132.782 210.994 132.766 211.806L124.606 306.32C124.605 306.495 124.569 306.668 124.5 306.828C124.431 306.989 124.33 307.134 124.204 307.256C124.078 307.377 123.928 307.471 123.765 307.533C123.601 307.595 123.427 307.624 123.252 307.617V307.617C122.899 307.546 122.588 307.342 122.381 307.047C122.175 306.753 122.089 306.39 122.142 306.034L130.302 211.52C130.587 208.215 132.953 205.725 135.793 205.725H174.337C177.185 205.725 179.543 208.215 179.828 211.52L187.988 306.034C188.041 306.389 187.957 306.75 187.752 307.045C187.547 307.339 187.237 307.544 186.886 307.617H186.878Z" fill="#1B5F9D"/>
<g opacity="0.4">
<path opacity="0.4" d="M186.878 307.617C186.703 307.625 186.527 307.597 186.363 307.536C186.198 307.474 186.048 307.38 185.921 307.259C185.793 307.137 185.692 306.992 185.622 306.83C185.553 306.669 185.516 306.495 185.515 306.32L177.356 211.806C177.34 210.992 177.021 210.214 176.461 209.624C175.901 209.033 175.14 208.673 174.329 208.615H135.785C134.975 208.675 134.216 209.036 133.658 209.626C133.1 210.217 132.782 210.994 132.766 211.806L124.606 306.32C124.605 306.495 124.569 306.668 124.5 306.828C124.431 306.989 124.33 307.134 124.204 307.256C124.078 307.377 123.928 307.471 123.765 307.533C123.601 307.595 123.427 307.624 123.252 307.617V307.617C122.899 307.546 122.588 307.342 122.381 307.047C122.175 306.753 122.089 306.39 122.142 306.034L130.302 211.52C130.587 208.215 132.953 205.725 135.793 205.725H174.337C177.185 205.725 179.543 208.215 179.828 211.52L187.988 306.034C188.041 306.389 187.957 306.75 187.752 307.045C187.547 307.339 187.237 307.544 186.886 307.617H186.878Z" fill="black"/>
</g>
<path d="M156.697 197.391H186.935V200.207C186.935 200.586 186.785 200.949 186.517 201.217C186.249 201.485 185.886 201.636 185.507 201.636H158.125C157.746 201.636 157.383 201.485 157.115 201.217C156.847 200.949 156.697 200.586 156.697 200.207V197.375V197.391Z" fill="#263238"/>
<path opacity="0.2" d="M156.697 197.391H186.935V200.207C186.935 200.586 186.785 200.949 186.517 201.217C186.249 201.485 185.886 201.636 185.507 201.636H158.125C157.746 201.636 157.383 201.485 157.115 201.217C156.847 200.949 156.697 200.586 156.697 200.207V197.375V197.391Z" fill="white"/>
<path d="M135.311 197.391H165.55V200.207C165.55 200.586 165.399 200.949 165.131 201.217C164.864 201.485 164.5 201.636 164.122 201.636H136.739C136.361 201.636 135.997 201.485 135.73 201.217C135.462 200.949 135.311 200.586 135.311 200.207V197.375V197.391Z" fill="#263238"/>
<path opacity="0.6" d="M135.311 197.391H165.55V200.207C165.55 200.586 165.399 200.949 165.131 201.217C164.864 201.485 164.5 201.636 164.122 201.636H136.739C136.361 201.636 135.997 201.485 135.73 201.217C135.462 200.949 135.311 200.586 135.311 200.207V197.375V197.391Z" fill="white"/>
<path d="M162.049 199.024H159.243V200.036H162.049V199.024Z" fill="#263238"/>
<path d="M157.554 199.024H154.747V200.036H157.554V199.024Z" fill="#263238"/>
<path d="M189.065 201.677H190.509C190.904 201.668 191.284 201.521 191.582 201.262C191.88 201.002 192.078 200.647 192.141 200.256L197.036 170.137C197.075 169.898 197.062 169.654 196.998 169.421C196.934 169.188 196.821 168.971 196.667 168.785C196.512 168.6 196.319 168.449 196.101 168.344C195.884 168.24 195.646 168.183 195.404 168.178L171.93 168.129L165.582 201.595H167.026L189.065 201.677Z" fill="#263238"/>
<path opacity="0.6" d="M189.065 201.677H190.509C190.904 201.668 191.284 201.521 191.582 201.262C191.88 201.002 192.078 200.647 192.141 200.256L197.036 170.137C197.075 169.898 197.062 169.654 196.998 169.421C196.934 169.188 196.821 168.971 196.667 168.785C196.512 168.6 196.319 168.449 196.101 168.344C195.884 168.24 195.646 168.183 195.404 168.178L171.93 168.129L165.582 201.595H167.026L189.065 201.677Z" fill="white"/>
<path opacity="0.2" d="M165.949 199.497L165.541 201.628H166.986L189.016 201.668H190.46C190.855 201.66 191.235 201.513 191.533 201.254C191.831 200.994 192.029 200.638 192.092 200.248L192.206 199.538L165.949 199.497Z" fill="black"/>
<path d="M165.574 201.66H167.035C167.431 201.652 167.812 201.504 168.11 201.243C168.408 200.981 168.605 200.624 168.666 200.232L173.513 170.112C173.552 169.874 173.539 169.629 173.475 169.396C173.411 169.163 173.298 168.946 173.143 168.761C172.989 168.575 172.796 168.425 172.578 168.32C172.36 168.215 172.123 168.158 171.881 168.153L165.574 201.66Z" fill="#263238"/>
<path opacity="0.3" d="M165.574 201.66H167.035C167.431 201.652 167.812 201.504 168.11 201.243C168.408 200.981 168.605 200.624 168.666 200.232L173.513 170.112C173.552 169.874 173.539 169.629 173.475 169.396C173.411 169.163 173.298 168.946 173.143 168.761C172.989 168.575 172.796 168.425 172.578 168.32C172.36 168.215 172.123 168.158 171.881 168.153L165.574 201.66Z" fill="white"/>
<path d="M210.755 140.475L214.283 140.444L214.123 122.049L214.195 122.048L219.107 140.402L223.175 140.366L222.955 115.167L219.427 115.198L219.559 130.281L219.487 130.282L215.503 115.232L210.535 115.276L210.755 140.475ZM227.414 140.329L231.086 140.297L231.763 135.359L236.262 135.32L236.262 135.248L237.025 140.245L240.985 140.211L236.662 115.048L231.298 115.094L227.414 140.329ZM232.201 131.935L233.82 119.465L233.892 119.464L235.765 131.904L232.201 131.935ZM246.69 140.161L250.65 140.126L250.461 118.527L254.601 118.491L254.57 114.891L242.33 114.998L242.362 118.598L246.501 118.562L246.69 140.161ZM259.047 140.053L263.007 140.019L262.787 114.82L258.827 114.854L259.047 140.053Z" fill="black"/>
<path d="M218.988 145.692L219.064 154.419L218.042 154.428L213.226 147.617L213.141 147.618L213.201 154.47L212.144 154.479L212.068 145.752L213.091 145.743L217.923 152.571L218.008 152.57L217.948 145.701L218.988 145.692ZM224.664 151.694L224.63 147.824L225.636 147.816L225.693 154.361L224.687 154.37L224.678 153.262L224.61 153.262C224.459 153.596 224.223 153.881 223.901 154.117C223.579 154.349 223.171 154.468 222.677 154.472C222.268 154.476 221.903 154.39 221.584 154.213C221.264 154.034 221.011 153.764 220.826 153.402C220.641 153.037 220.547 152.576 220.542 152.019L220.505 147.86L221.511 147.852L221.547 151.942C221.551 152.42 221.688 152.799 221.957 153.081C222.23 153.363 222.575 153.502 222.992 153.498C223.242 153.496 223.496 153.43 223.753 153.3C224.014 153.17 224.231 152.972 224.404 152.706C224.581 152.44 224.668 152.103 224.664 151.694ZM222.611 146.956L223.634 144.969L224.81 144.959L223.498 146.948L222.611 146.956ZM229.715 154.462C229.101 154.467 228.572 154.327 228.126 154.041C227.68 153.755 227.336 153.359 227.093 152.853C226.85 152.346 226.726 151.767 226.72 151.113C226.714 150.448 226.831 149.861 227.071 149.35C227.314 148.837 227.654 148.434 228.092 148.144C228.532 147.85 229.048 147.701 229.639 147.695C230.099 147.691 230.515 147.773 230.886 147.94C231.256 148.108 231.561 148.344 231.799 148.648C232.038 148.953 232.187 149.31 232.248 149.718L231.242 149.727C231.163 149.429 230.99 149.167 230.724 148.939C230.46 148.708 230.107 148.595 229.664 148.599C229.272 148.602 228.929 148.707 228.635 148.915C228.345 149.119 228.118 149.406 227.957 149.777C227.798 150.145 227.721 150.576 227.725 151.07C227.73 151.576 227.813 152.016 227.975 152.389C228.141 152.763 228.37 153.052 228.665 153.257C228.962 153.462 229.31 153.562 229.707 153.559C229.969 153.556 230.205 153.509 230.418 153.416C230.63 153.323 230.809 153.191 230.955 153.019C231.102 152.848 231.205 152.642 231.265 152.403L232.271 152.394C232.218 152.781 232.08 153.13 231.858 153.442C231.639 153.751 231.347 153.998 230.983 154.183C230.621 154.365 230.198 154.458 229.715 154.462ZM234.207 145.559L234.283 154.286L233.278 154.295L233.202 145.568L234.207 145.559ZM238.391 154.386C237.76 154.392 237.215 154.257 236.755 153.983C236.298 153.706 235.944 153.317 235.692 152.816C235.444 152.313 235.316 151.726 235.31 151.055C235.305 150.385 235.422 149.793 235.661 149.279C235.904 148.763 236.244 148.359 236.682 148.069C237.123 147.775 237.639 147.626 238.229 147.621C238.57 147.618 238.907 147.671 239.241 147.782C239.574 147.893 239.878 148.075 240.153 148.328C240.428 148.579 240.648 148.912 240.814 149.328C240.98 149.744 241.065 150.258 241.07 150.869L241.074 151.295L236.029 151.339L236.021 150.469L240.044 150.434C240.041 150.065 239.964 149.736 239.814 149.448C239.666 149.159 239.457 148.932 239.186 148.767C238.917 148.602 238.601 148.521 238.237 148.524C237.837 148.527 237.491 148.63 237.2 148.831C236.912 149.03 236.691 149.287 236.538 149.604C236.384 149.921 236.309 150.26 236.312 150.62L236.317 151.2C236.322 151.694 236.411 152.112 236.584 152.455C236.76 152.794 237.003 153.052 237.311 153.228C237.619 153.402 237.977 153.487 238.383 153.483C238.647 153.481 238.885 153.442 239.098 153.366C239.313 153.287 239.498 153.172 239.653 153.02C239.808 152.865 239.927 152.674 240.01 152.446L240.984 152.71C240.885 153.041 240.715 153.332 240.476 153.584C240.237 153.833 239.94 154.029 239.586 154.171C239.232 154.311 238.834 154.383 238.391 154.386ZM244.81 154.33C244.219 154.336 243.699 154.199 243.251 153.922C242.805 153.645 242.455 153.254 242.201 152.751C241.949 152.247 241.82 151.658 241.814 150.981C241.808 150.3 241.927 149.703 242.17 149.193C242.415 148.682 242.758 148.284 243.199 147.999C243.643 147.714 244.16 147.569 244.751 147.564C245.342 147.558 245.86 147.695 246.305 147.972C246.754 148.249 247.104 148.641 247.355 149.147C247.61 149.654 247.74 150.248 247.746 150.93C247.752 151.606 247.632 152.198 247.387 152.706C247.144 153.213 246.801 153.61 246.357 153.895C245.916 154.18 245.401 154.325 244.81 154.33ZM244.802 153.427C245.251 153.423 245.619 153.305 245.907 153.072C246.194 152.84 246.406 152.535 246.542 152.159C246.678 151.783 246.744 151.376 246.74 150.938C246.737 150.501 246.663 150.094 246.521 149.717C246.378 149.341 246.161 149.037 245.869 148.807C245.578 148.576 245.207 148.463 244.759 148.467C244.31 148.471 243.941 148.591 243.654 148.826C243.366 149.062 243.154 149.369 243.018 149.748C242.882 150.127 242.816 150.535 242.82 150.973C242.824 151.41 242.897 151.816 243.04 152.19C243.182 152.563 243.399 152.864 243.691 153.092C243.983 153.319 244.353 153.431 244.802 153.427ZM254.197 154.248C253.652 154.253 253.169 154.12 252.749 153.848C252.329 153.573 251.999 153.184 251.758 152.68C251.518 152.174 251.395 151.574 251.389 150.881C251.383 150.193 251.496 149.596 251.727 149.088C251.959 148.58 252.283 148.187 252.701 147.908C253.119 147.628 253.604 147.486 254.155 147.482C254.581 147.478 254.918 147.546 255.167 147.686C255.418 147.823 255.61 147.98 255.742 148.158C255.877 148.333 255.982 148.477 256.057 148.59L256.142 148.589L256.114 145.368L257.12 145.359L257.196 154.086L256.224 154.094L256.215 153.089L256.096 153.09C256.023 153.21 255.919 153.361 255.785 153.544C255.65 153.724 255.457 153.887 255.205 154.031C254.953 154.172 254.617 154.245 254.197 154.248ZM254.325 153.344C254.729 153.34 255.069 153.232 255.345 153.02C255.622 152.804 255.831 152.508 255.973 152.132C256.114 151.753 256.183 151.316 256.179 150.822C256.174 150.333 256.1 149.906 255.954 149.541C255.809 149.173 255.596 148.888 255.316 148.686C255.036 148.481 254.691 148.38 254.282 148.384C253.856 148.388 253.502 148.5 253.22 148.721C252.94 148.94 252.731 149.236 252.593 149.609C252.457 149.979 252.391 150.395 252.395 150.855C252.399 151.321 252.473 151.744 252.619 152.123C252.767 152.5 252.983 152.799 253.266 153.021C253.552 153.24 253.905 153.348 254.325 153.344ZM261.443 154.185C260.812 154.191 260.267 154.056 259.807 153.782C259.35 153.505 258.996 153.116 258.744 152.615C258.495 152.111 258.368 151.524 258.362 150.854C258.356 150.184 258.473 149.592 258.713 149.078C258.956 148.562 259.296 148.158 259.734 147.868C260.175 147.574 260.69 147.425 261.281 147.419C261.622 147.416 261.959 147.47 262.293 147.581C262.626 147.692 262.93 147.874 263.205 148.127C263.48 148.377 263.7 148.711 263.866 149.127C264.031 149.543 264.117 150.057 264.122 150.667L264.126 151.094L259.081 151.138L259.073 150.268L263.096 150.233C263.092 149.864 263.016 149.535 262.865 149.247C262.718 148.958 262.509 148.731 262.237 148.566C261.969 148.401 261.653 148.32 261.289 148.323C260.889 148.326 260.543 148.429 260.252 148.63C259.964 148.829 259.743 149.086 259.59 149.403C259.436 149.72 259.361 150.058 259.364 150.419L259.369 150.999C259.374 151.493 259.462 151.911 259.636 152.254C259.812 152.593 260.054 152.851 260.363 153.027C260.671 153.2 261.028 153.285 261.435 153.282C261.699 153.28 261.937 153.241 262.15 153.165C262.365 153.086 262.55 152.971 262.705 152.819C262.86 152.664 262.979 152.473 263.062 152.245L264.036 152.509C263.937 152.84 263.767 153.131 263.528 153.383C263.289 153.632 262.992 153.828 262.638 153.97C262.284 154.11 261.886 154.181 261.443 154.185ZM212.607 166.476L211.499 166.485L214.627 157.73L215.718 157.721L218.999 166.42L217.891 166.429L215.219 159.106L215.15 159.106L212.607 166.476ZM212.986 163.063L217.452 163.024L217.46 163.961L212.994 164L212.986 163.063ZM222.121 159.847L222.128 160.699L218.736 160.729L218.729 159.876L222.121 159.847ZM219.704 158.3L220.709 158.291L220.764 164.529C220.766 164.813 220.809 165.026 220.893 165.167C220.979 165.306 221.088 165.399 221.219 165.446C221.353 165.49 221.494 165.512 221.642 165.51C221.752 165.509 221.843 165.503 221.914 165.491C221.985 165.476 222.042 165.464 222.084 165.455L222.297 166.357C222.229 166.383 222.134 166.409 222.012 166.436C221.89 166.466 221.735 166.481 221.548 166.483C221.264 166.485 220.985 166.427 220.711 166.307C220.44 166.187 220.214 166.003 220.033 165.754C219.855 165.506 219.764 165.191 219.761 164.811L219.704 158.3ZM225.886 166.496C225.255 166.502 224.71 166.367 224.25 166.093C223.793 165.815 223.439 165.426 223.187 164.926C222.938 164.422 222.811 163.835 222.805 163.165C222.799 162.494 222.916 161.902 223.156 161.389C223.399 160.873 223.739 160.469 224.177 160.178C224.618 159.885 225.133 159.735 225.724 159.73C226.065 159.727 226.402 159.781 226.736 159.892C227.069 160.002 227.373 160.184 227.648 160.438C227.923 160.688 228.143 161.022 228.309 161.438C228.475 161.854 228.56 162.367 228.565 162.978L228.569 163.404L223.524 163.448L223.516 162.579L227.539 162.544C227.536 162.175 227.459 161.846 227.309 161.557C227.161 161.269 226.952 161.042 226.68 160.877C226.412 160.711 226.096 160.63 225.732 160.633C225.332 160.637 224.986 160.739 224.695 160.941C224.407 161.139 224.186 161.397 224.033 161.714C223.879 162.03 223.804 162.369 223.807 162.73L223.812 163.309C223.817 163.804 223.906 164.222 224.079 164.564C224.255 164.904 224.498 165.161 224.806 165.338C225.114 165.511 225.472 165.596 225.878 165.593C226.142 165.59 226.38 165.551 226.593 165.476C226.808 165.397 226.993 165.282 227.148 165.13C227.303 164.975 227.422 164.784 227.505 164.556L228.479 164.82C228.38 165.15 228.21 165.442 227.971 165.694C227.732 165.943 227.435 166.139 227.081 166.281C226.727 166.42 226.329 166.492 225.886 166.496ZM230.616 162.381L230.65 166.318L229.644 166.327L229.587 159.782L230.559 159.773L230.568 160.796L230.653 160.795C230.803 160.461 231.034 160.192 231.345 159.988C231.656 159.781 232.058 159.675 232.552 159.671C232.995 159.667 233.384 159.754 233.718 159.933C234.052 160.109 234.313 160.38 234.501 160.744C234.689 161.106 234.785 161.566 234.79 162.123L234.826 166.282L233.82 166.29L233.785 162.2C233.78 161.685 233.643 161.286 233.374 161.001C233.104 160.714 232.736 160.572 232.27 160.576C231.949 160.579 231.663 160.651 231.412 160.793C231.163 160.934 230.967 161.139 230.825 161.407C230.682 161.676 230.612 162 230.616 162.381ZM238.656 166.385C238.111 166.389 237.628 166.256 237.208 165.984C236.788 165.709 236.458 165.32 236.218 164.816C235.978 164.31 235.855 163.71 235.848 163.017C235.842 162.329 235.955 161.732 236.187 161.224C236.418 160.716 236.743 160.323 237.161 160.044C237.579 159.764 238.063 159.622 238.614 159.618C239.04 159.614 239.378 159.682 239.626 159.822C239.877 159.959 240.069 160.116 240.201 160.294C240.336 160.469 240.441 160.613 240.516 160.726L240.601 160.725L240.573 157.504L241.579 157.495L241.655 166.222L240.684 166.231L240.675 165.225L240.555 165.226C240.483 165.346 240.379 165.497 240.244 165.68C240.109 165.86 239.916 166.023 239.664 166.167C239.413 166.308 239.077 166.381 238.656 166.385ZM238.785 165.48C239.188 165.476 239.528 165.368 239.805 165.156C240.081 164.94 240.29 164.644 240.432 164.268C240.574 163.889 240.642 163.452 240.638 162.958C240.634 162.469 240.559 162.043 240.414 161.677C240.268 161.309 240.056 161.024 239.775 160.822C239.495 160.617 239.151 160.516 238.742 160.52C238.315 160.524 237.961 160.636 237.679 160.857C237.4 161.076 237.191 161.372 237.052 161.745C236.916 162.115 236.85 162.531 236.854 162.991C236.858 163.457 236.933 163.88 237.078 164.259C237.226 164.636 237.442 164.935 237.725 165.157C238.011 165.376 238.364 165.484 238.785 165.48ZM243.157 166.209L243.099 159.664L244.105 159.655L244.162 166.2L243.157 166.209ZM243.601 158.568C243.405 158.57 243.236 158.505 243.092 158.373C242.952 158.24 242.881 158.08 242.879 157.893C242.878 157.705 242.946 157.544 243.084 157.41C243.225 157.275 243.393 157.207 243.589 157.205C243.785 157.203 243.954 157.268 244.094 157.401C244.237 157.533 244.31 157.693 244.311 157.88C244.313 158.068 244.243 158.229 244.102 158.364C243.964 158.498 243.797 158.567 243.601 158.568ZM245.524 166.188L245.467 159.643L246.439 159.635L246.447 160.657L246.533 160.657C246.666 160.306 246.884 160.033 247.186 159.837C247.488 159.638 247.853 159.537 248.279 159.533C248.71 159.53 249.071 159.624 249.359 159.818C249.651 160.009 249.879 160.278 250.044 160.626L250.112 160.625C250.277 160.286 250.526 160.015 250.859 159.813C251.193 159.609 251.594 159.504 252.063 159.5C252.648 159.495 253.128 159.674 253.503 160.037C253.879 160.398 254.07 160.963 254.076 161.733L254.115 166.113L253.109 166.122L253.071 161.742C253.067 161.259 252.931 160.915 252.665 160.71C252.399 160.504 252.088 160.403 251.73 160.407C251.269 160.411 250.914 160.553 250.664 160.834C250.413 161.111 250.29 161.462 250.294 161.885L250.331 166.146L249.308 166.155L249.269 161.672C249.266 161.3 249.142 161.002 248.899 160.777C248.655 160.549 248.343 160.436 247.963 160.439C247.701 160.442 247.458 160.513 247.232 160.655C247.008 160.796 246.828 160.991 246.691 161.239C246.557 161.484 246.491 161.768 246.494 162.089L246.53 166.179L245.524 166.188ZM258.219 166.214C257.588 166.219 257.043 166.085 256.583 165.81C256.126 165.533 255.772 165.144 255.52 164.644C255.272 164.14 255.144 163.553 255.138 162.883C255.133 162.212 255.25 161.62 255.489 161.107C255.732 160.59 256.072 160.187 256.51 159.896C256.951 159.602 257.467 159.453 258.057 159.448C258.398 159.445 258.736 159.499 259.069 159.61C259.402 159.72 259.706 159.902 259.981 160.156C260.256 160.406 260.477 160.739 260.642 161.156C260.808 161.572 260.893 162.085 260.898 162.696L260.902 163.122L255.857 163.166L255.849 162.297L259.872 162.262C259.869 161.892 259.792 161.564 259.642 161.275C259.494 160.987 259.285 160.76 259.014 160.594C258.745 160.429 258.429 160.348 258.065 160.351C257.665 160.355 257.319 160.457 257.028 160.659C256.74 160.857 256.519 161.115 256.366 161.432C256.212 161.748 256.137 162.087 256.14 162.448L256.145 163.027C256.15 163.522 256.239 163.94 256.412 164.282C256.588 164.621 256.831 164.879 257.139 165.056C257.447 165.229 257.805 165.314 258.211 165.31C258.475 165.308 258.713 165.269 258.926 165.193C259.141 165.115 259.326 165 259.481 164.848C259.636 164.693 259.755 164.502 259.838 164.273L260.812 164.538C260.713 164.868 260.544 165.159 260.304 165.412C260.065 165.661 259.768 165.857 259.414 165.999C259.061 166.138 258.662 166.21 258.219 166.214ZM262.949 162.099L262.983 166.036L261.978 166.045L261.92 159.499L262.892 159.491L262.901 160.514L262.986 160.513C263.137 160.179 263.367 159.91 263.678 159.706C263.989 159.498 264.391 159.393 264.885 159.388C265.329 159.384 265.717 159.472 266.051 159.651C266.385 159.827 266.646 160.097 266.834 160.462C267.022 160.824 267.118 161.284 267.123 161.841L267.159 165.999L266.154 166.008L266.118 161.917C266.113 161.403 265.976 161.004 265.707 160.719C265.437 160.432 265.069 160.29 264.604 160.294C264.283 160.297 263.996 160.369 263.745 160.511C263.496 160.652 263.3 160.857 263.158 161.125C263.015 161.393 262.945 161.718 262.949 162.099ZM271.306 159.418L271.314 160.27L267.922 160.299L267.914 159.447L271.306 159.418ZM268.889 157.87L269.895 157.862L269.949 164.1C269.952 164.384 269.995 164.597 270.078 164.738C270.165 164.877 270.274 164.969 270.405 165.017C270.539 165.061 270.679 165.082 270.827 165.081C270.938 165.08 271.029 165.074 271.1 165.062C271.171 165.047 271.227 165.035 271.27 165.026L271.482 165.928C271.414 165.954 271.319 165.98 271.197 166.007C271.076 166.036 270.921 166.052 270.733 166.053C270.449 166.056 270.17 165.997 269.897 165.878C269.626 165.758 269.4 165.574 269.218 165.325C269.04 165.077 268.949 164.762 268.946 164.382L268.889 157.87ZM274.986 166.068C274.395 166.073 273.875 165.937 273.427 165.659C272.981 165.382 272.631 164.991 272.377 164.488C272.125 163.984 271.997 163.395 271.991 162.719C271.985 162.037 272.103 161.441 272.346 160.93C272.591 160.419 272.934 160.021 273.375 159.736C273.819 159.451 274.336 159.306 274.927 159.301C275.518 159.296 276.036 159.432 276.482 159.709C276.93 159.986 277.28 160.378 277.532 160.885C277.786 161.391 277.916 161.985 277.922 162.667C277.928 163.343 277.808 163.935 277.563 164.443C277.32 164.951 276.977 165.347 276.533 165.632C276.093 165.917 275.577 166.062 274.986 166.068ZM274.978 165.164C275.427 165.16 275.795 165.042 276.083 164.809C276.371 164.577 276.583 164.272 276.718 163.896C276.854 163.52 276.92 163.113 276.917 162.676C276.913 162.238 276.84 161.831 276.697 161.454C276.555 161.078 276.338 160.774 276.046 160.544C275.754 160.313 275.384 160.2 274.935 160.204C274.486 160.208 274.118 160.328 273.83 160.563C273.542 160.799 273.33 161.106 273.194 161.485C273.059 161.864 272.992 162.272 272.996 162.71C273 163.147 273.073 163.553 273.216 163.927C273.358 164.3 273.575 164.601 273.867 164.829C274.159 165.056 274.529 165.168 274.978 165.164ZM214.963 178.592C214.332 178.597 213.787 178.463 213.327 178.188C212.87 177.911 212.516 177.522 212.264 177.022C212.015 176.518 211.888 175.931 211.882 175.261C211.876 174.59 211.993 173.998 212.233 173.485C212.476 172.968 212.816 172.565 213.254 172.274C213.695 171.98 214.21 171.831 214.801 171.826C215.142 171.823 215.479 171.877 215.813 171.988C216.146 172.098 216.45 172.28 216.725 172.534C217 172.784 217.22 173.117 217.386 173.534C217.551 173.95 217.637 174.463 217.642 175.074L217.646 175.5L212.601 175.544L212.593 174.675L216.616 174.64C216.612 174.27 216.536 173.942 216.385 173.653C216.238 173.365 216.029 173.138 215.757 172.972C215.489 172.807 215.173 172.726 214.809 172.729C214.409 172.733 214.063 172.835 213.772 173.037C213.484 173.235 213.263 173.493 213.11 173.809C212.956 174.126 212.881 174.465 212.884 174.826L212.889 175.405C212.893 175.9 212.982 176.318 213.156 176.66C213.332 176.999 213.574 177.257 213.883 177.434C214.191 177.607 214.548 177.692 214.955 177.688C215.219 177.686 215.457 177.647 215.67 177.571C215.885 177.493 216.07 177.378 216.225 177.226C216.38 177.071 216.499 176.879 216.582 176.651L217.556 176.916C217.457 177.246 217.287 177.537 217.048 177.789C216.809 178.039 216.512 178.235 216.158 178.377C215.804 178.516 215.406 178.588 214.963 178.592ZM218.721 178.423L218.664 171.877L219.636 171.869L219.645 172.892L219.73 172.891C219.863 172.54 220.081 172.267 220.383 172.071C220.685 171.873 221.05 171.771 221.476 171.768C221.908 171.764 222.268 171.859 222.556 172.052C222.848 172.243 223.076 172.512 223.241 172.86L223.309 172.86C223.474 172.52 223.723 172.249 224.056 172.048C224.39 171.843 224.791 171.739 225.26 171.735C225.845 171.73 226.325 171.909 226.701 172.272C227.076 172.632 227.267 173.197 227.274 173.967L227.312 178.348L226.306 178.356L226.268 173.976C226.264 173.493 226.129 173.149 225.863 172.944C225.597 172.739 225.285 172.638 224.927 172.641C224.467 172.645 224.111 172.787 223.861 173.068C223.61 173.346 223.487 173.696 223.491 174.119L223.528 178.381L222.505 178.39L222.466 173.907C222.463 173.535 222.339 173.236 222.096 173.011C221.853 172.783 221.54 172.671 221.16 172.674C220.898 172.676 220.655 172.748 220.429 172.889C220.205 173.03 220.025 173.225 219.888 173.473C219.754 173.719 219.688 174.002 219.691 174.323L219.727 178.414L218.721 178.423ZM231.157 170.524L231.148 169.587L237.694 169.529L237.702 170.467L234.958 170.491L235.026 178.28L233.969 178.29L233.901 170.5L231.157 170.524ZM239.901 169.51L239.978 178.237L238.921 178.246L238.845 169.519L239.901 169.51Z" fill="black"/>
</g>
<defs>
<clipPath id="clip0_205_421">
<rect width="319" height="320" fill="white"/>
</clipPath>
</defs>
</svg>
