<svg width="319" height="320" viewBox="0 0 319 320" fill="none" xmlns="http://www.w3.org/2000/svg">
<rect width="319" height="320" fill="white"/>
<g clip-path="url(#clip0_205_1045)">
<path d="M220.29 56.49C198.14 26 165.93 11.82 132.33 11.82C132.33 11.82 50.04 11.82 25.66 85.49C16.66 112.64 18.66 142.13 29.57 168.57C33.6805 178.619 38.8532 188.2 45 197.15C66.24 227.85 132.38 311.66 132.38 311.66H146.7C165.16 286.02 211.64 200.85 225.56 173.55C243 139.26 245.72 91.47 220.29 56.49ZM146.05 192.76C132.146 192.76 118.553 188.637 106.992 180.912C95.4314 173.187 86.4209 162.207 81.1003 149.36C75.7798 136.514 74.3882 122.379 77.1015 108.741C79.8149 95.1043 86.5113 82.5781 96.3439 72.7469C106.177 62.9156 118.704 56.221 132.341 53.5096C145.979 50.7982 160.114 52.1918 172.96 57.5141C185.805 62.8365 196.784 71.8486 204.507 83.4107C212.231 94.9728 216.352 108.566 216.35 122.47C216.35 131.701 214.532 140.842 210.999 149.371C207.466 157.9 202.287 165.649 195.759 172.176C189.231 178.703 181.481 183.881 172.952 187.412C164.423 190.944 155.281 192.761 146.05 192.76V192.76Z" fill="#2479C7"/>
<path d="M234.76 57.06C212.61 26.6 180.4 12.4 146.8 12.4C146.8 12.4 64.51 12.4 40.14 86.07C31.14 113.22 33.14 142.7 44.04 169.14C48.1345 179.19 53.2903 188.775 59.42 197.73C80.67 228.42 146.8 312.24 146.8 312.24C146.8 312.24 223.21 207.12 240 174.12C257.51 139.83 260.19 92.05 234.76 57.06ZM146.15 193.34C132.247 193.342 118.656 189.222 107.095 181.5C95.5336 173.778 86.5215 162.802 81.198 149.959C75.8744 137.116 74.4785 122.982 77.1867 109.346C79.8948 95.7096 86.5855 83.1823 96.4127 73.3481C106.24 63.5139 118.762 56.8143 132.397 54.0964C146.031 51.3786 160.166 52.7644 173.013 58.0789C185.86 63.3933 196.842 72.3976 204.572 83.9533C212.302 95.509 216.432 109.097 216.44 123C216.516 132.254 214.75 141.431 211.245 149.996C207.74 158.561 202.566 166.343 196.025 172.889C189.483 179.435 181.705 184.615 173.142 188.126C164.58 191.637 155.404 193.409 146.15 193.34V193.34Z" fill="#1B5F9D"/>
<path d="M146.05 52.17C131.521 52.1743 117.35 56.6789 105.485 65.0646C93.6196 73.4503 84.6434 85.3054 79.79 99C85.2121 87.0087 94.4118 77.1229 105.983 70.8537C117.554 64.5845 130.859 62.2769 143.866 64.2837C156.872 66.2905 168.863 72.5013 178.006 81.9666C187.15 91.4318 192.942 103.631 194.497 116.699C196.053 129.767 193.286 142.984 186.62 154.332C179.955 165.679 169.756 174.531 157.585 179.535C145.413 184.539 131.937 185.419 119.218 182.041C106.499 178.663 95.2355 171.213 87.15 160.83C93.795 171.037 102.978 179.342 113.799 184.931C124.62 190.521 136.708 193.202 148.878 192.713C161.047 192.225 172.881 188.582 183.219 182.143C193.557 175.703 202.044 166.688 207.849 155.981C213.654 145.274 216.577 133.243 216.332 121.066C216.087 108.889 212.682 96.9847 206.451 86.5199C200.22 76.055 191.377 67.3888 180.789 61.3707C170.2 55.3525 158.229 52.1889 146.05 52.19V52.17Z" fill="#154E82"/>
<path d="M286.22 154.7C283.386 152.773 279.955 151.925 276.55 152.31C270.79 152.97 262.45 153.82 262.45 153.82V154.09L222.12 156.58L209.8 131.52L191.08 143.85C191.08 143.85 193.54 147.79 204.03 167.17C206.08 170.951 209.241 174.011 213.086 175.937C216.931 177.863 221.275 178.562 225.53 177.94L273 171V170.9C277.9 170.63 283.22 170.17 284 169.47C285.47 168.12 286.81 163.22 286.81 163.22C286.81 163.22 295.27 168.22 296.91 168.37C298.55 168.52 298.83 167.12 299.85 165.67C300.56 164.69 291.83 158.52 286.22 154.7Z" fill="#FFBE9D"/>
<path d="M212.28 129.88C212.28 129.88 204.44 114.79 197.28 100.55C188.46 83.05 169 79.55 169 79.55L140.82 75.85C140.82 75.85 117.25 65.19 95.3 91.64L77.3 111.76L81.13 115.2L99 131.26L102.53 134.43L110.61 126.11L106.8 147.19L100.17 176.57L114.5 174.84L124.2 115.59L178.85 120L174.57 157.36C175.44 157.22 182.06 155.92 184.2 146.94C184.912 144.079 184.929 141.089 184.25 138.22L187.41 146.31L212.28 129.88Z" fill="#FECC86"/>
<path d="M124.22 115.56L114.52 174.81L100.19 176.54C109.764 184.795 121.387 190.315 133.836 192.517C146.284 194.718 159.095 193.521 170.92 189.05L174.57 157.28L178.85 119.92L124.22 115.56Z" fill="#263238"/>
<path d="M127.46 72.9L126.27 121L135.39 122.44L136.61 73.67C136.61 73.67 133.41 72.19 127.46 72.9Z" fill="#263238"/>
<path d="M166 121.29L173.52 80C173.95 79.54 180.12 81.75 181.97 83.86L175.23 122.21L166 121.29Z" fill="#263238"/>
<path d="M135.72 115.39C135.803 115.655 135.847 115.932 135.85 116.21C135.919 116.972 135.919 117.738 135.85 118.5C135.78 119.661 135.389 120.779 134.72 121.73C134.307 122.303 133.757 122.764 133.12 123.07C132.422 123.386 131.643 123.48 130.89 123.34C130.184 123.19 129.517 122.896 128.929 122.479C128.341 122.061 127.844 121.527 127.47 120.91C126.899 119.907 126.557 118.791 126.47 117.64C126.403 116.881 126.403 116.119 126.47 115.36C126.472 115.078 126.519 114.797 126.61 114.53C126.71 114.53 126.61 115.73 126.83 117.6C126.943 118.676 127.284 119.716 127.83 120.65C128.177 121.202 128.631 121.68 129.165 122.054C129.699 122.429 130.302 122.692 130.94 122.83C131.571 122.941 132.221 122.869 132.813 122.623C133.405 122.377 133.914 121.966 134.28 121.44C134.929 120.563 135.327 119.526 135.43 118.44C135.72 116.59 135.62 115.39 135.72 115.39Z" fill="#455A64"/>
<path d="M130.32 119.64C129.938 119.488 129.609 119.226 129.376 118.887C129.142 118.548 129.015 118.147 129.009 117.736C129.003 117.324 129.12 116.92 129.344 116.575C129.568 116.23 129.89 115.959 130.268 115.796C130.646 115.634 131.064 115.587 131.468 115.662C131.873 115.737 132.246 115.931 132.541 116.218C132.836 116.505 133.038 116.874 133.124 117.276C133.209 117.679 133.173 118.098 133.02 118.48C132.815 118.992 132.416 119.401 131.91 119.618C131.404 119.836 130.832 119.844 130.32 119.64V119.64Z" fill="#455A64"/>
<path d="M173.07 119.9C173.07 120.311 172.948 120.714 172.719 121.056C172.491 121.398 172.166 121.664 171.786 121.822C171.406 121.979 170.988 122.02 170.584 121.94C170.181 121.86 169.81 121.662 169.519 121.371C169.228 121.08 169.03 120.709 168.95 120.306C168.87 119.902 168.911 119.484 169.068 119.104C169.226 118.724 169.492 118.399 169.834 118.171C170.176 117.942 170.579 117.82 170.99 117.82C171.541 117.823 172.068 118.043 172.458 118.432C172.847 118.822 173.067 119.349 173.07 119.9Z" fill="#455A64"/>
<path d="M175.87 118.46C175.847 119.294 175.684 120.119 175.39 120.9C175.115 121.783 174.639 122.591 174 123.26C173.596 123.681 173.102 124.005 172.554 124.206C172.007 124.407 171.42 124.48 170.84 124.42C169.679 124.305 168.605 123.751 167.84 122.87C167.238 122.161 166.835 121.305 166.67 120.39C166.573 119.781 166.573 119.159 166.67 118.55C166.676 118.322 166.738 118.099 166.85 117.9C166.857 118.709 166.933 119.515 167.08 120.31C167.283 121.143 167.684 121.916 168.25 122.56C168.957 123.315 169.912 123.791 170.94 123.9C171.449 123.95 171.962 123.886 172.442 123.713C172.923 123.54 173.36 123.262 173.72 122.9C174.323 122.286 174.793 121.554 175.1 120.75C175.58 119.37 175.78 118.44 175.87 118.46Z" fill="#455A64"/>
<path d="M130.19 138.23C130.11 138.23 130.09 137.82 130.1 137.23C130.1 136.92 130.1 136.54 130.16 136.13C130.16 135.91 130.16 135.7 130.16 135.48V135.14V134.96V134.81L130.45 134.55C131.624 134.592 132.787 134.804 133.9 135.18C132.734 135.318 131.555 135.281 130.4 135.07C130.33 135.12 130.94 134.58 130.69 134.81V134.97V135.14V135.49C130.69 135.71 130.69 135.93 130.61 136.15C130.55 136.57 130.5 136.94 130.44 137.26C130.36 137.85 130.26 138.23 130.19 138.23Z" fill="#455A64"/>
<path d="M128.73 152C128.586 150.845 128.62 149.675 128.83 148.53C128.873 147.365 129.085 146.213 129.46 145.11C129.592 146.266 129.555 147.435 129.35 148.58C129.313 149.744 129.104 150.897 128.73 152V152Z" fill="#455A64"/>
<path d="M130.75 163.94C129.607 163.663 128.512 163.218 127.5 162.62C127.5 162.62 127.23 162.12 127.36 162.35V162.2V162.02V161.68C127.36 161.46 127.42 161.25 127.44 161.02C127.5 160.61 127.56 160.24 127.62 159.92C127.73 159.3 127.84 158.92 127.91 158.92C127.98 158.92 128.01 159.33 127.98 159.92C127.98 160.24 127.98 160.62 127.92 161.03C127.92 161.26 127.92 161.47 127.92 161.69V162.04V162.37C128.04 162.6 127.74 162.05 127.77 162.11C128.85 162.566 129.855 163.183 130.75 163.94Z" fill="#455A64"/>
<path d="M140 168.53C139.14 168.388 138.317 168.076 137.58 167.61C136.762 167.3 136.015 166.831 135.38 166.23C136.242 166.376 137.067 166.689 137.81 167.15C138.627 167.455 139.373 167.925 140 168.53V168.53Z" fill="#455A64"/>
<path d="M151 171.06C150.038 171.736 148.979 172.262 147.86 172.62H147.6H147.52L147.36 172.54L147.05 172.38L146.47 172.08C146.1 171.88 145.77 171.7 145.47 171.53C144.92 171.21 144.6 170.98 144.63 170.91C144.66 170.84 145.05 170.96 145.63 171.2C145.93 171.32 146.27 171.47 146.63 171.65L147.22 171.93L147.53 172.08L147.69 172.16H147.77C147.68 172.16 147.99 172.16 147.56 172.16C148.645 171.624 149.805 171.253 151 171.06Z" fill="#455A64"/>
<path d="M158.46 168C158.52 168.13 157.73 168.58 156.69 169C155.65 169.42 154.78 169.65 154.69 169.52C154.6 169.39 155.43 168.94 156.46 168.52C157.49 168.1 158.41 167.9 158.46 168Z" fill="#455A64"/>
<path d="M165.8 161.72C165.944 162.888 165.91 164.072 165.7 165.23L165.54 165.45H165.45L165.29 165.52L164.97 165.65L164.35 165.88C163.96 166.03 163.6 166.15 163.3 166.25C162.69 166.44 162.3 166.53 162.3 166.46C162.3 166.39 162.61 166.19 163.18 165.91C163.47 165.76 163.81 165.61 164.18 165.44L164.78 165.17L165.1 165.04L165.27 164.97H165.35L165.19 165.18C165.226 164.003 165.432 162.838 165.8 161.72V161.72Z" fill="#455A64"/>
<path d="M167.14 148.77C167.285 149.854 167.258 150.954 167.06 152.03C167.032 153.128 166.833 154.214 166.47 155.25C166.325 154.163 166.352 153.059 166.55 151.98C166.575 150.886 166.774 149.802 167.14 148.77V148.77Z" fill="#455A64"/>
<path d="M164.69 138.43C165.856 138.299 167.035 138.339 168.19 138.55C168.66 139.12 168.32 138.71 168.43 138.83V139V139.18V139.52C168.43 139.74 168.37 139.95 168.35 140.18C168.29 140.59 168.23 140.96 168.18 141.28C168.06 141.9 167.96 142.28 167.89 142.28C167.82 142.28 167.79 141.87 167.81 141.28C167.81 140.96 167.81 140.58 167.87 140.17L167.92 139.51V139.17V138.99V138.83L168.15 139.11C166.969 139.057 165.803 138.828 164.69 138.43Z" fill="#455A64"/>
<path d="M152.42 137.11C153.447 136.958 154.491 136.982 155.51 137.18C156.536 137.21 157.549 137.409 158.51 137.77C157.483 137.916 156.439 137.892 155.42 137.7C154.395 137.665 153.382 137.466 152.42 137.11V137.11Z" fill="#455A64"/>
<path d="M140.15 135.78C141.177 135.635 142.222 135.662 143.24 135.86C144.266 135.884 145.281 136.084 146.24 136.45C145.213 136.595 144.168 136.568 143.15 136.37C142.124 136.346 141.109 136.146 140.15 135.78V135.78Z" fill="#455A64"/>
<path d="M75.85 118.84C75.79 120.04 75.76 121.25 75.76 122.47C75.7583 127.219 76.234 131.956 77.18 136.61V136.75C77.3 137.33 77.45 137.9 77.58 138.47C78.13 140.73 78.78 142.96 79.49 145.16C79.59 145.43 79.67 145.71 79.77 145.98C82.36 145.4 89.84 138.98 98.45 130.83L80.6 114.83C78.14 117.28 76.66 118.56 75.85 118.84Z" fill="#FFBE9D"/>
<path d="M188.47 15C189.09 21.91 196.97 27.74 203.9 27.52C207.73 27.4 211.59 25.7 215.27 26.76C221.43 28.55 223.92 37.14 230.22 38.29C234.94 39.15 239.3 35.29 244.09 35.07C247.61 34.88 250.93 36.64 253.84 38.62C256.75 40.6 259.55 42.9 262.84 44.02C266.13 45.14 269.23 43.15 272.6 42.12C273.44 44.27 273.98 46.9 275.06 49.12C276.14 51.34 277.43 55.45 275.52 56.33C275.52 56.33 270.21 59.08 267.14 58.94C268.38 60.1903 269.928 61.0911 271.628 61.5511C273.328 62.0112 275.119 62.0142 276.82 61.56C277.67 66.69 278.31 72.62 274.82 76.49C273.192 78.171 271.105 79.336 268.82 79.84C257.67 82.72 246.03 74.93 234.72 77.06C230.07 77.93 225.83 80.44 221.14 81.06C218.827 81.3501 216.479 81.173 214.236 80.5391C211.993 79.9053 209.899 78.8276 208.08 77.37C203.62 73.76 200.55 67.72 194.89 66.78C192.38 66.36 189.83 67.08 187.38 67.78C184.93 68.48 182.38 69.13 179.87 68.6C177.36 68.07 175.03 65.95 175.15 63.41" fill="#263238"/>
<path d="M166.32 82.1C167.57 75.1 169.01 67.82 169.01 67.82C169.01 67.82 178.25 67.91 182.17 56.52C185.92 45.66 188.62 19.52 188.62 19.52C182.693 15.8305 175.779 14.0444 168.806 14.402C161.834 14.7595 155.138 17.2436 149.62 21.52V21.52L140.4 78.27C139.33 84.86 144.15 91.02 151.21 92.12C158.38 93.22 165.13 88.73 166.32 82.1Z" fill="#FFBE9D"/>
<path d="M181.75 39.1C181.684 39.4985 181.463 39.8547 181.135 40.0907C180.807 40.3268 180.399 40.4236 180 40.36C179.806 40.3414 179.618 40.2842 179.446 40.1916C179.275 40.0991 179.123 39.9732 179.001 39.8213C178.879 39.6694 178.789 39.4945 178.735 39.3071C178.682 39.1197 178.666 38.9235 178.69 38.73C178.756 38.3375 178.973 37.9863 179.294 37.7511C179.616 37.5158 180.016 37.415 180.41 37.47C180.607 37.4848 180.798 37.5393 180.973 37.6302C181.148 37.721 181.303 37.8464 181.428 37.9987C181.553 38.1511 181.647 38.3272 181.702 38.5164C181.757 38.7057 181.774 38.9042 181.75 39.1V39.1Z" fill="#263238"/>
<path d="M184.48 37.85C184.26 38.01 183.27 36.97 181.65 36.69C180.03 36.41 178.71 37.01 178.57 36.78C178.43 36.55 178.75 36.35 179.33 36.07C180.113 35.7047 180.99 35.5928 181.84 35.75C182.681 35.8997 183.454 36.3089 184.05 36.92C184.48 37.39 184.59 37.78 184.48 37.85Z" fill="#263238"/>
<path d="M165.14 36.47C165.076 36.8617 164.861 37.2128 164.542 37.4483C164.222 37.6837 163.823 37.7848 163.43 37.73C163.236 37.7114 163.048 37.6542 162.876 37.5617C162.705 37.4691 162.553 37.3432 162.431 37.1913C162.309 37.0394 162.219 36.8645 162.165 36.6771C162.112 36.4897 162.096 36.2935 162.12 36.1C162.186 35.7095 162.402 35.3599 162.721 35.1249C163.04 34.8899 163.437 34.7878 163.83 34.84C164.025 34.8573 164.214 34.9136 164.386 35.0057C164.558 35.0978 164.71 35.2238 164.832 35.376C164.955 35.5282 165.045 35.7036 165.098 35.8916C165.151 36.0796 165.165 36.2763 165.14 36.47V36.47Z" fill="#263238"/>
<path d="M167.5 35.46C167.28 35.63 166.29 34.58 164.68 34.3C163.07 34.02 161.68 34.62 161.59 34.39C161.5 34.16 161.77 33.97 162.36 33.68C163.145 33.3225 164.021 33.2143 164.87 33.37C165.713 33.5138 166.487 33.9238 167.08 34.54C167.5 35 167.61 35.39 167.5 35.46Z" fill="#263238"/>
<path d="M171.26 48.49C172.16 48.3726 173.07 48.3726 173.97 48.49C174.39 48.49 174.8 48.49 174.92 48.23C175.027 47.8102 175.006 47.3679 174.86 46.96C174.64 45.89 174.42 44.78 174.19 43.6C173.28 38.83 172.7 34.93 172.89 34.9C173.08 34.87 173.98 38.7 174.89 43.48C175.1 44.65 175.3 45.77 175.5 46.85C175.671 47.3912 175.646 47.9752 175.43 48.5C175.343 48.6354 175.227 48.7496 175.09 48.8344C174.954 48.9191 174.8 48.9723 174.64 48.99C174.401 49.0216 174.159 49.0216 173.92 48.99C173.016 48.9335 172.123 48.7655 171.26 48.49V48.49Z" fill="#263238"/>
<path d="M169 67.82C163.447 66.9241 158.253 64.5003 154 60.82C154 60.82 156.39 69.54 168.31 70.51L169 67.82Z" fill="#EB996E"/>
<path d="M169.89 52.26C169.647 51.8216 169.299 51.451 168.876 51.182C168.453 50.913 167.97 50.7542 167.47 50.72C167.109 50.691 166.747 50.7344 166.403 50.8478C166.06 50.9611 165.742 51.1421 165.47 51.38C165.206 51.6121 165.019 51.9197 164.935 52.2612C164.851 52.6027 164.874 52.9618 165 53.29C165.208 53.6204 165.508 53.8826 165.864 54.0443C166.219 54.206 166.614 54.2601 167 54.2C167.809 54.0587 168.583 53.7633 169.28 53.33C169.485 53.2291 169.671 53.0938 169.83 52.93C169.905 52.8516 169.955 52.7525 169.973 52.6454C169.99 52.5384 169.976 52.4285 169.93 52.33" fill="#EB996E"/>
<path d="M166.31 48.77C166.57 48.77 166.31 50.55 167.55 52.06C168.79 53.57 170.73 53.71 170.7 53.96C170.67 54.21 170.23 54.23 169.43 54.11C168.401 53.9417 167.463 53.418 166.78 52.63C166.13 51.8656 165.798 50.8818 165.85 49.88C165.91 49.14 166.19 48.74 166.31 48.77Z" fill="#263238"/>
<path d="M157.58 13.14C160.71 20.05 170.86 28.45 178.69 31.43C178 30 173.58 26 172.86 24.58C176.02 28.01 180.59 32.68 185.42 33.84C185.978 34.0296 186.58 34.0504 187.15 33.9C187.466 33.731 187.738 33.4915 187.946 33.2002C188.154 32.9088 188.293 32.5734 188.35 32.22C189.283 28.7367 189.837 25.1625 190 21.56C190.169 18.5228 189.171 15.5359 187.21 13.21C184.54 10.21 180.21 8.77001 175.98 7.88001C172.496 6.98843 168.869 6.79807 165.31 7.32001C161.84 8.00001 158.6 10 157.56 12.93" fill="#263238"/>
<path d="M138.9 39.15C138.842 36.4798 138.942 33.8084 139.2 31.15C140 25 141.89 2.85001 162.36 8.55001L160.18 14.23C160.18 14.23 161.75 28.5 151.25 36.17C151.25 36.17 151.25 50.41 144.02 55.55C144.02 55.55 138.94 45.89 138.9 39.15" fill="#263238"/>
<path d="M151.68 35.2C150.473 34.7133 149.154 34.5681 147.87 34.78C146.583 35.0031 145.434 35.721 144.67 36.78C143.971 37.893 143.724 39.231 143.98 40.52C144.234 41.8007 144.774 43.0075 145.56 44.05C146.069 44.8337 146.754 45.4878 147.56 45.96C147.967 46.1907 148.425 46.317 148.892 46.3274C149.36 46.3379 149.823 46.2323 150.24 46.02" fill="#FFBE9D"/>
<path d="M149.65 42.67C149.79 42.74 149.11 43.41 148.02 42.9C147.44 42.5795 147.01 42.0446 146.82 41.41C146.593 40.7037 146.504 39.9599 146.56 39.22C146.61 38.4307 146.936 37.684 147.48 37.11C147.712 36.8655 147.996 36.6771 148.311 36.5593C148.627 36.4414 148.965 36.3972 149.3 36.43C150.48 36.61 150.7 37.49 150.57 37.49C150.44 37.49 150.07 37.07 149.27 37.12C148.766 37.2157 148.314 37.4899 147.996 37.8922C147.679 38.2945 147.517 38.7979 147.54 39.31C147.45 40.62 147.74 41.89 148.37 42.31C149 42.73 149.59 42.55 149.65 42.67Z" fill="#EB996E"/>
<path d="M270.16 36.16C270.023 36.4618 269.837 36.7389 269.61 36.98C268.951 37.6747 268.102 38.1613 267.17 38.38C265.698 38.7495 264.146 38.6409 262.74 38.07C260.927 37.2765 259.242 36.2183 257.74 34.93C256.02 33.63 254.1 32.1 251.63 31.56C250.358 31.3196 249.048 31.3743 247.8 31.72C246.485 32.1185 245.213 32.6443 244 33.29C242.71 33.94 241.42 34.66 240 35.29C238.585 35.9795 237.05 36.3903 235.48 36.5C233.821 36.5574 232.188 36.0807 230.82 35.14C229.465 34.1585 228.282 32.9588 227.32 31.59C225.32 28.92 223.7 26.03 221.25 24.14C220.071 23.2078 218.661 22.6133 217.17 22.42C215.725 22.2553 214.263 22.3228 212.84 22.62C210.03 23.13 207.41 24.02 204.84 24.35C202.443 24.6384 200.012 24.4273 197.7 23.73C194.353 22.7361 191.361 20.803 189.08 18.16C188.241 17.2103 187.54 16.1464 187 15C187 15 187.06 15.07 187.15 15.2C187.24 15.33 187.38 15.57 187.54 15.82C188.043 16.5888 188.605 17.3176 189.22 18C191.528 20.5451 194.499 22.3975 197.8 23.35C200.07 24.0174 202.455 24.2014 204.8 23.89C207.32 23.56 209.92 22.66 212.8 22.11C214.273 21.8036 215.785 21.7328 217.28 21.9C218.859 22.0983 220.356 22.7203 221.61 23.7C224.18 25.7 225.81 28.62 227.78 31.24C228.707 32.5668 229.85 33.7295 231.16 34.68C232.415 35.5615 233.917 36.0235 235.45 36C236.957 35.897 238.43 35.5066 239.79 34.85C241.15 34.24 242.44 33.53 243.79 32.85C245.052 32.1953 246.375 31.6661 247.74 31.27C249.045 30.9149 250.414 30.867 251.74 31.13C254.058 31.8107 256.191 33.0073 257.98 34.63C259.447 35.9162 261.095 36.9808 262.87 37.79C264.218 38.3635 265.711 38.4999 267.14 38.18C268.046 37.985 268.881 37.5419 269.55 36.9C270 36.45 270.13 36.15 270.16 36.16Z" fill="#263238"/>
</g>
<defs>
<clipPath id="clip0_205_1045">
<rect width="279.9" height="305.24" fill="white" transform="translate(20 7)"/>
</clipPath>
</defs>
</svg>
