<svg width="395" height="147" viewBox="0 0 395 147" fill="none" xmlns="http://www.w3.org/2000/svg">
<path d="M100.365 98H105.261L106.221 91.424H112.221V91.328L113.181 98H118.461L112.989 64.4H105.837L100.365 98ZM106.845 86.864L109.149 70.256H109.245L111.597 86.864H106.845ZM121.023 98H129.327C134.607 98 137.343 95.216 137.343 90.032V87.152C137.343 83.6 136.239 81.104 133.407 80.144V80.048C135.759 79.088 136.815 76.928 136.815 73.472V72.128C136.815 66.944 134.463 64.4 128.991 64.4H121.023V98ZM126.303 78.08V69.2H128.847C130.719 69.2 131.535 70.256 131.535 72.656V74.528C131.535 77.216 130.335 78.08 128.367 78.08H126.303ZM126.303 93.2V82.88H128.655C131.055 82.88 132.063 83.84 132.063 86.96V89.888C132.063 92.384 131.103 93.2 129.327 93.2H126.303ZM140.429 98H154.829V93.2H145.709V82.88H152.957V78.08H145.709V69.2H154.829V64.4H140.429V98ZM157.866 98H163.146V83.6H164.97C167.37 83.6 168.282 84.608 168.282 87.728V93.872C168.282 96.608 168.474 97.136 168.762 98H174.138C173.61 96.752 173.562 95.552 173.562 93.92V88.016C173.562 84.224 172.698 81.728 170.058 80.912V80.816C172.41 79.856 173.514 77.648 173.514 74.192V72.128C173.514 66.944 171.162 64.4 165.69 64.4H157.866V98ZM163.146 78.8V69.2H165.546C167.418 69.2 168.234 70.256 168.234 72.656V75.248C168.234 77.936 167.034 78.8 165.066 78.8H163.146ZM181.26 98H186.54V69.2H192.06V64.4H175.74V69.2H181.26V98ZM202.296 98.48C207.48 98.48 210.168 95.408 210.168 90.032V64.4H205.08V90.416C205.08 92.816 204.072 93.68 202.392 93.68C200.712 93.68 199.704 92.816 199.704 90.416V64.4H194.424V90.032C194.424 95.408 197.112 98.48 202.296 98.48ZM213.929 98H219.209V83.6H221.033C223.433 83.6 224.345 84.608 224.345 87.728V93.872C224.345 96.608 224.537 97.136 224.825 98H230.201C229.673 96.752 229.625 95.552 229.625 93.92V88.016C229.625 84.224 228.761 81.728 226.121 80.912V80.816C228.473 79.856 229.577 77.648 229.577 74.192V72.128C229.577 66.944 227.225 64.4 221.753 64.4H213.929V98ZM219.209 78.8V69.2H221.609C223.481 69.2 224.297 70.256 224.297 72.656V75.248C224.297 77.936 223.097 78.8 221.129 78.8H219.209ZM231.896 98H236.792L237.752 91.424H243.752V91.328L244.712 98H249.992L244.52 64.4H237.368L231.896 98ZM238.376 86.864L240.68 70.256H240.776L243.128 86.864H238.376ZM260.241 98H268.305C273.585 98 276.177 95.072 276.177 89.696V72.704C276.177 67.328 273.585 64.4 268.305 64.4H260.241V98ZM265.521 93.2V69.2H268.209C269.889 69.2 270.897 70.064 270.897 72.464V89.936C270.897 92.336 269.889 93.2 268.209 93.2H265.521ZM279.741 98H294.141V93.2H285.021V82.88H292.269V78.08H285.021V69.2H294.141V64.4H279.741V98ZM87.658 140.48C92.746 140.48 95.434 137.408 95.434 132.224V127.472H90.442V132.608C90.442 134.816 89.386 135.68 87.802 135.68C86.218 135.68 85.162 134.816 85.162 132.608V113.84C85.162 111.632 86.218 110.72 87.802 110.72C89.386 110.72 90.442 111.632 90.442 113.84V117.728H95.434V114.176C95.434 108.992 92.746 105.92 87.658 105.92C82.57 105.92 79.882 108.992 79.882 114.176V132.224C79.882 137.408 82.57 140.48 87.658 140.48ZM98.593 140H103.873V124.88H109.537V140H114.817V106.4H109.537V120.08H103.873V106.4H98.593V140ZM117.357 140H122.253L123.213 133.424H129.213V133.328L130.173 140H135.453L129.981 106.4H122.829L117.357 140ZM123.837 128.864L126.141 112.256H126.237L128.589 128.864H123.837ZM138.015 140H142.623V114.56H142.719L146.559 140H150.975L154.815 114.56H154.911V140H159.903V106.4H152.367L149.007 130.448H148.911L145.551 106.4H138.015V140ZM162.451 140H167.347L168.307 133.424H174.307V133.328L175.267 140H180.547L175.075 106.4H167.923L162.451 140ZM168.931 128.864L171.235 112.256H171.331L173.683 128.864H168.931ZM183.109 140H191.173C196.453 140 199.045 137.072 199.045 131.696V114.704C199.045 109.328 196.453 106.4 191.173 106.4H183.109V140ZM188.389 135.2V111.2H191.077C192.757 111.2 193.765 112.064 193.765 114.464V131.936C193.765 134.336 192.757 135.2 191.077 135.2H188.389ZM210.241 140.48C215.425 140.48 218.257 137.408 218.257 132.032V114.368C218.257 108.992 215.425 105.92 210.241 105.92C205.057 105.92 202.225 108.992 202.225 114.368V132.032C202.225 137.408 205.057 140.48 210.241 140.48ZM210.241 135.68C208.561 135.68 207.505 134.768 207.505 132.368V114.032C207.505 111.632 208.561 110.72 210.241 110.72C211.921 110.72 212.977 111.632 212.977 114.032V132.368C212.977 134.768 211.921 135.68 210.241 135.68ZM228.691 140.48C233.875 140.48 236.659 137.408 236.659 131.936C236.659 127.76 235.267 125.072 230.851 121.184C227.395 118.16 226.291 116.384 226.291 113.936C226.291 111.632 227.251 110.72 228.931 110.72C230.611 110.72 231.571 111.632 231.571 114.032V115.76H236.563V114.368C236.563 108.992 234.019 105.92 228.883 105.92C223.747 105.92 221.011 108.992 221.011 114.272C221.011 118.112 222.451 120.848 226.867 124.736C230.323 127.76 231.379 129.536 231.379 132.32C231.379 134.816 230.323 135.68 228.643 135.68C226.963 135.68 225.907 134.816 225.907 132.416V130.112H220.915V132.032C220.915 137.408 223.507 140.48 228.691 140.48ZM247.374 140H255.438C260.718 140 263.31 137.072 263.31 131.696V114.704C263.31 109.328 260.718 106.4 255.438 106.4H247.374V140ZM252.654 135.2V111.2H255.342C257.022 111.2 258.03 112.064 258.03 114.464V131.936C258.03 134.336 257.022 135.2 255.342 135.2H252.654ZM266.874 140H281.274V135.2H272.154V124.88H279.402V120.08H272.154V111.2H281.274V106.4H266.874V140ZM296.127 140H301.407V111.2H306.927V106.4H290.607V111.2H296.127V140ZM309.484 140H314.764V106.4H309.484V140Z" fill="#1B5F9D"/>
<rect y="100" width="68" height="5" fill="#E5CB6D"/>
<rect x="327" y="100" width="68" height="5" fill="#E5CB6D"/>
<rect x="87" y="76" width="5" height="5" fill="#E5CB6D"/>
<circle cx="89" cy="86" r="3" fill="#E5CB6D"/>
<path d="M80.6913 80.1408L86.233 82.3237L81.5716 86.0316L80.6913 80.1408Z" fill="#E5CB6D"/>
<rect width="5" height="5" transform="matrix(-1 0 0 1 305 76)" fill="#E5CB6D"/>
<circle r="3" transform="matrix(-1 0 0 1 303 86)" fill="#E5CB6D"/>
<path d="M311.309 80.1408L305.767 82.3237L310.428 86.0316L311.309 80.1408Z" fill="#E5CB6D"/>
<path d="M222.921 20.0516C220.543 14.4141 216.287 9.77287 210.877 6.91565C205.466 4.05842 199.234 3.16116 193.237 4.3761C187.24 5.59105 181.849 8.84337 177.977 13.5812C174.105 18.319 171.992 24.2505 171.995 30.3691V46.5142H172.002C172.011 47.0631 172.158 47.601 172.428 48.079C172.698 48.557 173.083 48.9598 173.549 49.2509L176.562 51.1349H181.002C181.189 51.1349 181.375 51.098 181.548 51.0264C181.721 50.9548 181.878 50.8497 182.01 50.7173C182.142 50.5849 182.248 50.4278 182.319 50.2548C182.391 50.0818 182.428 49.8964 182.428 49.7091V35.127C182.428 34.9398 182.391 34.7544 182.319 34.5814C182.248 34.4084 182.142 34.2512 182.01 34.1188C181.878 33.9864 181.721 33.8814 181.548 33.8098C181.375 33.7381 181.189 33.7013 181.002 33.7013H177.548V30.3691C177.548 24.8123 179.755 19.483 183.685 15.5537C187.614 11.6244 192.943 9.41698 198.5 9.41698C204.057 9.41698 209.386 11.6244 213.315 15.5537C217.245 19.483 219.452 24.8123 219.452 30.3691V33.7013H215.998C215.811 33.7013 215.625 33.7381 215.452 33.8098C215.279 33.8814 215.122 33.9864 214.99 34.1188C214.857 34.2512 214.752 34.4084 214.681 34.5814C214.609 34.7544 214.572 34.9398 214.572 35.127V49.7091C214.572 49.8964 214.609 50.0818 214.681 50.2548C214.752 50.4277 214.857 50.5849 214.99 50.7173C215.122 50.8497 215.279 50.9547 215.452 51.0264C215.625 51.098 215.811 51.1349 215.998 51.1349H220.438L223.451 49.2509C223.917 48.9598 224.302 48.557 224.572 48.079C224.842 47.601 224.988 47.0631 224.998 46.5142H225.005V30.3691C225.011 26.8248 224.302 23.3157 222.921 20.0516V20.0516Z" fill="#1B5F9D"/>
<path d="M196.384 24.4577C193.79 24.9643 191.461 26.3777 189.814 28.4449C188.167 30.512 187.31 33.0978 187.396 35.7394C187.416 36.3149 187.498 51.1349 187.498 51.1349L194.772 45.8324C196.382 46.4056 198.102 46.5997 199.799 46.3996C201.496 46.1995 203.125 45.6107 204.557 44.6788C205.99 43.747 207.188 42.4973 208.059 41.0269C208.929 39.5565 209.449 37.905 209.578 36.2009C209.706 34.4969 209.44 32.7861 208.8 31.2017C208.159 29.6173 207.162 28.202 205.886 27.0659C204.609 25.9297 203.088 25.1033 201.44 24.6509C199.792 24.1986 198.062 24.1325 196.384 24.4577V24.4577ZM199.409 41.9989C199.234 42.1789 199.008 42.3026 198.762 42.3543C198.516 42.4059 198.26 42.3831 198.027 42.2887C197.794 42.1944 197.594 42.0328 197.453 41.8245C197.312 41.6163 197.236 41.3708 197.235 41.1192C197.234 40.786 197.364 40.4658 197.599 40.2289C197.833 39.9921 198.152 39.8578 198.485 39.8557C198.735 39.8528 198.979 39.9238 199.189 40.0597C199.398 40.1957 199.562 40.3904 199.661 40.6195C199.76 40.8486 199.789 41.1019 199.744 41.3473C199.699 41.5927 199.583 41.8195 199.409 41.9989H199.409ZM200.768 34.8762L200.377 35.2248C200.165 35.3684 199.984 35.5535 199.846 35.7688C199.707 35.9841 199.613 36.2252 199.57 36.4777C199.539 36.901 199.517 37.3425 199.517 37.8308C199.523 37.8643 199.523 37.8987 199.515 37.9319C199.508 37.9651 199.493 37.9965 199.473 38.024C199.464 38.0347 199.431 38.0733 199.27 38.0676C199.168 38.0627 199.061 38.0627 198.959 38.0627H198.422C198.115 38.0627 197.799 38.0627 197.492 38.0676C197.357 38.0676 197.32 38.0298 197.32 37.8957C197.293 36.9504 197.299 35.8751 197.648 35.108C197.928 34.5825 198.343 34.1412 198.851 33.8297C199.246 33.5663 199.597 33.2435 199.893 32.8727C200.09 32.6556 200.218 32.3853 200.262 32.0956C200.306 31.806 200.264 31.5098 200.14 31.2442C199.965 30.9559 199.717 30.7195 199.42 30.5591C199.124 30.3987 198.79 30.3202 198.453 30.3316C198.001 30.3292 197.56 30.4788 197.203 30.7566C196.846 31.0343 196.592 31.424 196.483 31.8632C196.386 32.1739 196.358 32.1953 196.24 32.1953C196.154 32.1919 196.067 32.1834 195.982 32.1699C195.462 32.0991 194.935 32.035 194.408 31.9709C194.22 31.9487 194.193 31.8797 194.209 31.7391C194.419 29.5153 196.579 28.3553 198.604 28.3553C199.713 28.3258 200.795 28.6997 201.65 29.4076C202 29.7036 202.283 30.0709 202.481 30.4849C202.678 30.8989 202.785 31.3503 202.795 31.8089C202.789 33.0939 201.73 34.027 200.768 34.8762H200.768Z" fill="#1B5F9D"/>
</svg>
