<svg xmlns="http://www.w3.org/2000/svg" version="1.1" xmlns:xlink="http://www.w3.org/1999/xlink" xmlns:svgjs="http://svgjs.com/svgjs" width="41" height="41"><svg width="41" height="41" viewBox="0 0 41 41" fill="none" xmlns="http://www.w3.org/2000/svg">
<path d="M38.7046 14.9476C36.9319 10.745 33.7597 7.28524 29.7264 5.15531C25.6931 3.02538 21.0471 2.35651 16.5767 3.2622C12.1064 4.16789 8.08707 6.59234 5.20082 10.1242C2.31457 13.656 0.739174 18.0776 0.741947 22.6388V34.6742H0.747187C0.753991 35.0834 0.863022 35.4844 1.06435 35.8407C1.26569 36.197 1.55293 36.4973 1.89994 36.7143L4.14652 38.1187H7.45594C7.59552 38.1188 7.73374 38.0913 7.86269 38.0379C7.99165 37.9845 8.10882 37.9062 8.20752 37.8075C8.30622 37.7088 8.3845 37.5916 8.43791 37.4627C8.49132 37.3337 8.5188 37.1955 8.51879 37.0559V26.1856C8.5188 26.046 8.49132 25.9078 8.43791 25.7789C8.3845 25.6499 8.30622 25.5327 8.20752 25.434C8.10882 25.3354 7.99165 25.2571 7.86269 25.2037C7.73374 25.1502 7.59552 25.1228 7.45594 25.1228H4.88112V22.6388C4.88112 18.4964 6.52667 14.5237 9.45578 11.5946C12.3849 8.6655 16.3576 7.01994 20.5 7.01994C24.6424 7.01994 28.6151 8.6655 31.5442 11.5946C34.4733 14.5237 36.1188 18.4964 36.1188 22.6388V25.1228H33.544C33.4044 25.1228 33.2662 25.1502 33.1373 25.2037C33.0083 25.2571 32.8911 25.3353 32.7924 25.434C32.6937 25.5327 32.6154 25.6499 32.562 25.7789C32.5086 25.9078 32.4811 26.046 32.4811 26.1856V37.0559C32.4811 37.1955 32.5086 37.3337 32.562 37.4627C32.6154 37.5916 32.6937 37.7088 32.7924 37.8075C32.8911 37.9062 33.0083 37.9845 33.1373 38.0379C33.2662 38.0913 33.4044 38.1188 33.544 38.1187H36.8534L39.1 36.7143C39.447 36.4973 39.7343 36.197 39.9356 35.8407C40.1369 35.4844 40.246 35.0834 40.2528 34.6742H40.258V22.6388C40.2627 19.9967 39.7344 17.3808 38.7046 14.9476Z" fill="#1B5F9D"></path>
<path d="M18.9226 18.2321C16.9889 18.6097 15.2528 19.6634 14.0252 21.2043C12.7975 22.7453 12.1584 24.6729 12.2224 26.6421C12.2371 27.0711 12.2984 38.1187 12.2984 38.1187L17.7208 34.1659C18.9209 34.5932 20.2034 34.7379 21.4686 34.5888C22.7338 34.4396 23.9475 34.0007 25.0153 33.306C26.0832 32.6114 26.9764 31.6798 27.6255 30.5836C28.2747 29.4875 28.6622 28.2564 28.758 26.9861C28.8538 25.7158 28.6553 24.4405 28.1779 23.2594C27.7005 22.0784 26.9572 21.0233 26.0056 20.1763C25.054 19.3294 23.9198 18.7133 22.6914 18.3761C21.4629 18.0389 20.1732 17.9896 18.9226 18.2321ZM21.1778 31.3082C21.0469 31.4425 20.879 31.5347 20.6955 31.5732C20.512 31.6116 20.3211 31.5946 20.1473 31.5243C19.9735 31.454 19.8245 31.3335 19.7194 31.1783C19.6142 31.023 19.5577 30.84 19.5569 30.6525C19.5559 30.4041 19.6535 30.1654 19.8282 29.9888C20.0029 29.8122 20.2406 29.7122 20.489 29.7106C20.675 29.7084 20.8574 29.7614 21.0134 29.8627C21.1694 29.964 21.2919 30.1092 21.3655 30.28C21.4391 30.4508 21.4606 30.6395 21.4272 30.8225C21.3938 31.0055 21.3071 31.1745 21.1778 31.3082H21.1778ZM22.1909 25.9986L21.8992 26.2584C21.7411 26.3655 21.6064 26.5035 21.5031 26.664C21.3998 26.8245 21.33 27.0042 21.2979 27.1924C21.2747 27.508 21.2581 27.8371 21.2581 28.2011C21.2627 28.2261 21.2622 28.2517 21.2566 28.2765C21.2511 28.3012 21.2405 28.3246 21.2256 28.3452C21.2189 28.3531 21.1944 28.3819 21.0742 28.3777C20.9983 28.374 20.918 28.374 20.842 28.374H20.4418C20.2132 28.374 19.9773 28.374 19.7487 28.3777C19.6482 28.3777 19.6206 28.3494 19.6206 28.2495C19.6004 27.5448 19.6047 26.7432 19.8645 26.1714C20.0735 25.7796 20.3832 25.4507 20.7617 25.2184C21.056 25.0222 21.3181 24.7815 21.5388 24.5051C21.6854 24.3432 21.781 24.1417 21.8137 23.9258C21.8464 23.7099 21.8147 23.4891 21.7227 23.2911C21.5923 23.0762 21.4071 22.9 21.1861 22.7804C20.9651 22.6609 20.7162 22.6023 20.4651 22.6108C20.1277 22.609 19.7995 22.7206 19.5331 22.9276C19.2668 23.1346 19.0777 23.4252 18.9962 23.7525C18.9238 23.9842 18.9036 24.0001 18.8153 24.0001C18.7509 23.9976 18.6866 23.9912 18.6229 23.9811C18.235 23.9284 17.8422 23.8806 17.4499 23.8328C17.3096 23.8163 17.2894 23.7648 17.3016 23.66C17.4579 22.0023 19.0678 21.1375 20.5779 21.1375C21.4046 21.1156 22.2111 21.3943 22.8478 21.922C23.1091 22.1427 23.3203 22.4164 23.4675 22.7251C23.6147 23.0337 23.6945 23.3702 23.7015 23.7121C23.6972 24.67 22.9079 25.3655 22.1909 25.9986H22.1909Z" fill="#1B5F9D"></path>
</svg><style>@media (prefers-color-scheme: light) { :root { filter: none; } }
</style></svg>