<svg width="183" height="214" viewBox="0 0 183 214" fill="none" xmlns="http://www.w3.org/2000/svg">
<g clip-path="url(#clip0_4_131)">
<path d="M76.2054 71.883C71.3565 68.9495 70.2628 60.5568 74.7708 58.033C79.2787 55.5092 82.1479 57.7599 82.1479 57.7599C82.1479 57.7599 97.2778 52.2497 102.98 66.2873C107.284 76.8633 103.867 82.3898 107.624 87.7124C111.906 93.7761 118.758 99.2425 109.812 109.888L88.909 104.769L83.4403 79.0466L76.2054 71.883Z" fill="#1B1B43"/>
<path d="M88.9562 326.76C88.7623 326.825 88.5651 326.88 88.3656 326.924C84.8164 327.744 73.0717 326.924 73.0717 326.924C72.5549 326.813 72.0459 326.668 71.5477 326.491C60.5631 322.485 61.3105 303.31 62.9565 286.534C64.4732 271.151 58.0348 192.647 62.4826 165.972L90.2832 159.898L90.4473 164.572L90.7791 174.119L91.3678 191.01C91.3678 191.01 92.4178 207.353 93.8524 227.829C95.9998 258.534 99.0148 298.545 100.655 306.734C103.269 319.755 93.3931 325.468 88.9562 326.76Z" fill="#1B5F9D"/>
<path d="M151.845 309.755C151.24 310.455 150.562 311.09 149.822 311.647C146.083 314.52 141.043 315.576 136.617 316.771C135.823 316.987 135.015 317.143 134.198 317.239C130.077 317.745 125.576 316.803 123.651 313.307C113.782 295.344 102.659 259.688 93.8488 227.829C87.4068 204.569 82.2006 183.322 79.6103 172.489C78.4747 167.708 77.8367 164.949 77.8367 164.949L90.4345 164.572L111.851 163.926C112.435 166.808 113.098 169.845 113.844 172.997C121.155 204.168 135.556 247.022 141.187 263.412C144.572 273.23 149.696 281.985 151.942 292.274C153.161 297.722 155.947 305.031 151.845 309.755Z" fill="#1B5F9D"/>
<path opacity="0.6" d="M113.851 172.997C105.101 174.43 97.3925 174.618 90.7791 174.119C87.0227 173.842 83.2913 173.295 79.614 172.48C68.3942 170.007 62.479 165.963 62.479 165.963L90.2796 159.889L90.4437 164.563L111.861 163.916C112.442 166.808 113.106 169.845 113.851 172.997Z" fill="#1B1B43"/>
<path d="M93.4567 227.94L84.8838 197.604L76.0647 194.399L76.3454 193.63L85.5582 196.975L85.6165 197.179L94.246 227.718L93.4567 227.94Z" fill="#1B1B43"/>
<path d="M146.092 313.486L145.381 313.078C149.519 305.902 141.225 283.79 130.727 255.795C120.534 228.614 107.847 194.783 103.259 164.601L104.068 164.477C108.643 194.575 121.314 228.363 131.495 255.509C142.069 283.701 150.422 305.976 146.092 313.486Z" fill="#1B1B43"/>
<path d="M68.4343 140.19C67.4426 147.109 65.9606 156.146 65.9606 156.146H49.7644L53.7073 134.507L54.6862 129.128C54.6862 129.128 68.6202 132.405 69.2345 132.405C69.4751 132.403 69.0504 135.89 68.4343 140.19Z" fill="#FFBC96"/>
<path d="M68.4343 140.19L67.7052 141.829L53.7219 134.516L54.6862 129.128C54.6862 129.128 68.6203 132.405 69.2346 132.405C69.4752 132.403 69.0505 135.89 68.4343 140.19Z" fill="#D28572"/>
<path d="M64.9344 135.268C64.9344 135.268 67.5994 150.826 62.4772 165.972C62.4772 165.972 87.8844 173.751 111.859 163.926L106.326 128.922L108.171 111.113L71.4931 111.525L58.9937 115.618L64.9344 135.268Z" fill="#1B1B43"/>
<path d="M118.534 109.123C117.736 106.844 116.41 104.786 114.665 103.117C112.919 101.447 110.804 100.213 108.49 99.5156L101.603 97.4361C98.8289 101.471 93.8798 106.612 86.6558 106.612C78.1612 106.612 72.8348 101.741 69.8981 97.7621L65.1386 98.9202C62.6338 99.5304 60.348 100.824 58.5367 102.657C56.7254 104.49 55.4598 106.79 54.8813 109.299L49.5676 132.334L64.9344 135.268L65.3446 117.665L105.302 115.824L106.326 128.922C106.326 128.922 117.871 123.872 125.519 129.058L118.534 109.123Z" fill="#1B1B43"/>
<path d="M136.039 107.635C133.826 111.958 130.849 130.699 129.477 145.299C129.025 150.096 127.654 153.879 125.764 156.638C122.976 160.715 119.019 162.565 115.191 162.157C113.671 161.996 112.205 161.504 110.896 160.715C104.299 156.809 105.143 140.124 105.88 132.616C106.109 130.357 106.323 128.924 106.323 128.924C110.216 126.779 116.363 126.467 116.363 126.467C116.445 125.624 116.545 124.772 116.642 123.896C117.479 116.356 118.749 107.799 119.847 102.109C121.077 95.7627 123.536 98.1208 123.536 98.1208C124.765 95.861 126.609 97.8112 126.609 97.8112C128.25 94.224 130.297 97.6055 130.297 97.6055C132.849 93.9217 134.256 99.4482 134.256 99.4482C134.256 99.4482 142.199 92.9147 143.553 94.8049C144.235 95.7627 139.178 101.495 136.039 107.635Z" fill="#FFBC96"/>
<path d="M73.132 152.018H38.707V156.148H73.132V152.018Z" fill="white"/>
<path d="M53.4485 156.183H17.9408C17.1036 156.182 16.2843 155.942 15.5799 155.49C14.8755 155.038 14.3157 154.394 13.9669 153.634L0.140419 123.652C0.0345906 123.423 -0.0118113 123.171 0.00548702 122.919C0.0227853 122.667 0.103228 122.424 0.239405 122.211C0.375582 121.999 0.563116 121.824 0.784735 121.703C1.00635 121.581 1.25493 121.518 1.50757 121.518H34.8169C35.6091 121.518 36.3848 121.744 37.052 122.171C37.7192 122.597 38.2499 123.206 38.5812 123.925L53.4485 156.183Z" fill="#1B5F9D"/>
<path d="M65.1403 156.147C64.7447 157.693 64.1381 159.179 63.3375 160.56C61.4344 163.769 58.3866 165.972 53.689 166.57C51.89 166.784 50.0723 166.792 48.2714 166.593C32.0023 164.98 27.2975 156.088 27.2975 156.088C27.2975 156.088 25.4855 152.313 29.33 153.175C29.33 153.175 30.0591 150.777 33.0195 153.282C33.0195 153.282 32.6658 150.309 35.5843 153.027C35.5843 153.027 35.1741 150.006 38.3459 152.618C41.5177 155.229 43.9859 155.992 47.8248 156.147C51.6638 156.301 65.1403 156.147 65.1403 156.147Z" fill="#FFBC96"/>
<path d="M64.3255 117.637L63.5066 117.685L64.532 135.289L65.3509 135.242L64.3255 117.637Z" fill="#1B5F9D"/>
<path d="M84.8858 112.958C83.1763 112.961 81.4717 112.774 79.8036 112.4C74.9147 111.308 72.1002 109.003 71.9817 108.906L72.5049 108.274C72.616 108.365 83.69 117.246 99.6274 107.693L100.048 108.396C94.2043 111.898 89.0201 112.958 84.8858 112.958Z" fill="#1B5F9D"/>
<path d="M106.118 120.845L105.301 120.907L105.915 128.958L106.733 128.895L106.118 120.845Z" fill="#1B5F9D"/>
<path d="M93.5536 132.95C92.2849 132.954 91.0596 132.489 90.1136 131.644C89.1675 130.8 88.5677 129.635 88.4295 128.376L87.7715 122.549L99.0423 121.807L98.7069 128.081C98.6344 129.383 98.0715 130.609 97.1312 131.514C96.191 132.419 94.9429 132.935 93.6375 132.959L93.5536 132.95ZM88.6829 123.299L89.2444 128.283C89.368 129.362 89.8929 130.356 90.7152 131.067C91.5375 131.779 92.5972 132.156 93.6846 132.124C94.7719 132.092 95.8075 131.653 96.5864 130.894C97.3653 130.136 97.8306 129.113 97.8903 128.028L98.1746 122.676L88.6829 123.299Z" fill="#1B5F9D"/>
<path d="M115.9 126.448L112.954 147.019L113.766 147.135L116.712 126.564L115.9 126.448Z" fill="#D28572"/>
<path d="M130.596 97.564L129.992 97.6737L130.606 101.051L131.211 100.941L130.596 97.564Z" fill="#D28572"/>
<path d="M126.908 97.6656L126.303 97.7754L126.918 101.153L127.522 101.043L126.908 97.6656Z" fill="#D28572"/>
<path d="M123.835 97.8707L123.231 97.9805L123.845 101.358L124.449 101.248L123.835 97.8707Z" fill="#D28572"/>
<path d="M133.696 97.1564L133.121 97.371L135.033 102.489L135.609 102.274L133.696 97.1564Z" fill="#D28572"/>
<path d="M116.356 126.462L105.832 132.587C106.062 130.328 106.275 128.894 106.275 128.894C110.167 126.749 116.356 126.462 116.356 126.462Z" fill="#D28572"/>
<path opacity="0.4" d="M125.778 156.638C122.991 160.715 119.034 162.565 115.206 162.157C115.166 161.883 115.148 161.606 115.149 161.329C115.15 160.1 115.509 158.897 116.181 157.868C116.853 156.838 117.81 156.025 118.936 155.529C120.061 155.032 121.307 154.872 122.522 155.069C123.736 155.266 124.868 155.811 125.778 156.638Z" fill="#FE5B52"/>
<path opacity="0.4" d="M63.3377 160.56C61.4346 163.769 58.3868 165.972 53.6892 166.57C53.6728 166.373 53.6655 166.176 53.6655 165.98C53.6659 164.852 53.9671 163.744 54.5382 162.771C55.1093 161.798 55.9296 160.995 56.9147 160.443C57.8998 159.892 59.0142 159.613 60.1431 159.635C61.272 159.657 62.3747 159.979 63.3377 160.568V160.56Z" fill="#FE5B52"/>
<path d="M39.6385 157.301C38.018 156.984 35.9928 154.48 35.311 153.169L35.8579 152.887C36.5579 154.238 38.4683 156.447 39.757 156.698L39.6385 157.301Z" fill="#D28572"/>
<path d="M35.7885 157.725C34.414 156.314 33.1471 154.557 32.6367 153.355L33.2036 153.116C33.6867 154.258 34.9025 155.941 36.2296 157.305L35.7885 157.725Z" fill="#D28572"/>
<path d="M31.9968 157.623C30.6242 156.212 29.3573 154.455 28.8469 153.253L29.4138 153.015C29.8969 154.156 31.1128 155.839 32.438 157.203L31.9968 157.623Z" fill="#D28572"/>
<path d="M101.605 97.4343C98.8271 101.469 93.8762 106.612 86.6576 106.612C78.1666 106.612 72.8384 101.741 69.9036 97.762L78.6661 95.6243C78.8794 94.0528 79.0598 92.5287 79.213 91.072C79.3278 89.9339 79.4262 88.8449 79.5156 87.8125C79.6632 86.119 79.7617 84.5876 79.8437 83.2765C79.9494 81.4847 79.9986 80.1245 80.026 79.3725C80.0424 78.9373 80.0424 78.7078 80.0424 78.7078L92.3358 73.7913C92.3358 73.7913 91.9275 89.7572 95.617 95.6188L101.605 97.4343Z" fill="#FFBC96"/>
<path d="M89.7965 84.6423C89.7965 84.6423 86.5153 88.4844 79.2056 91.072C79.3204 89.9339 79.4188 88.845 79.5082 87.8125C79.6558 86.119 79.7543 84.5876 79.8363 83.2766L89.7965 84.6423Z" fill="#D28572"/>
<path d="M76.752 63.8308C76.752 63.8308 70.4686 80.8893 74.9765 84.0286C78.9868 86.8201 84.264 87.1661 89.4556 85.8022L92.8716 74.2029L90.8227 62.8767L76.752 63.8308Z" fill="#FFBC96"/>
<path d="M91.0946 74.3394C91.0946 74.3394 86.6577 76.0384 84.8111 69.8363C83.3091 64.7868 76.7522 63.8272 76.7522 63.8272L79.4154 61.3726L92.0552 61.0339L96.6999 66.697L95.1286 74.0663L91.0946 74.3394Z" fill="#1B1B43"/>
<path d="M96.8291 77.8871C98.2627 75.4066 97.836 72.4795 95.8761 71.3491C93.9161 70.2187 91.1651 71.3132 89.7315 73.7936C88.2979 76.274 88.7246 79.2012 90.6846 80.3315C92.6445 81.4619 95.3955 80.3675 96.8291 77.8871Z" fill="#FFBC96"/>
<path d="M91.8292 78.0614H91.2148C91.2148 78.0232 91.2951 74.2047 95.0903 73.7677L95.1596 74.3777C91.9112 74.7437 91.831 77.9358 91.8292 78.0614Z" fill="#1B1B43"/>
<path d="M75.9156 72.8044C76.3022 72.8044 76.6156 72.4913 76.6156 72.1051C76.6156 71.719 76.3022 71.4059 75.9156 71.4059C75.529 71.4059 75.2156 71.719 75.2156 72.1051C75.2156 72.4913 75.529 72.8044 75.9156 72.8044Z" fill="#1B1B43"/>
<path d="M81.3913 73.0739C81.3917 73.2415 81.3422 73.4055 81.2492 73.545C81.1562 73.6845 81.0239 73.7933 80.8689 73.8577C80.7139 73.922 80.5434 73.9389 80.3788 73.9063C80.2142 73.8737 80.063 73.793 79.9443 73.6745C79.8257 73.5559 79.7449 73.4049 79.7122 73.2405C79.6796 73.0761 79.6965 72.9057 79.7609 72.7509C79.8253 72.5961 79.9342 72.4638 80.0739 72.3709C80.2136 72.278 80.3777 72.2286 80.5455 72.229C80.7697 72.2295 80.9845 72.3187 81.1431 72.477C81.3016 72.6354 81.3908 72.85 81.3913 73.0739Z" fill="#1B1B43"/>
<path d="M77.4467 70.51H75.3559C75.2145 70.51 75.079 70.4541 74.9789 70.3544C74.8787 70.2547 74.8223 70.1195 74.8218 69.9783C74.8218 69.8368 74.8781 69.7011 74.9782 69.601C75.0784 69.501 75.2142 69.4448 75.3559 69.4448H77.4467C77.5884 69.4448 77.7242 69.501 77.8244 69.601C77.9246 69.7011 77.9808 69.8368 77.9808 69.9783C77.9804 70.1195 77.9239 70.2547 77.8238 70.3544C77.7236 70.4541 77.5881 70.51 77.4467 70.51Z" fill="#1B1B43"/>
<path d="M82.702 71.9759L80.3888 70.9999C80.3244 70.9726 80.266 70.933 80.2169 70.8832C80.1678 70.8334 80.1291 70.7744 80.1028 70.7097C80.0766 70.6449 80.0634 70.5756 80.064 70.5057C80.0646 70.4359 80.0789 70.3668 80.1063 70.3025C80.1334 70.2379 80.1729 70.1794 80.2227 70.1302C80.2725 70.081 80.3315 70.0421 80.3963 70.0157C80.4612 69.9893 80.5306 69.976 80.6007 69.9764C80.6707 69.9769 80.7399 69.9911 80.8044 70.0184L83.1231 70.9944C83.1878 71.0217 83.2464 71.0614 83.2957 71.1112C83.345 71.1611 83.3839 71.2202 83.4103 71.2852C83.4367 71.3501 83.4501 71.4196 83.4496 71.4897C83.4491 71.5598 83.4348 71.6291 83.4075 71.6936C83.3803 71.7589 83.3403 71.8181 83.2899 71.8677C83.2395 71.9173 83.1798 71.9564 83.1141 71.9827C83.0484 72.009 82.9781 72.0219 82.9074 72.0207C82.8366 72.0196 82.7668 72.0043 82.702 71.9759Z" fill="#1B1B43"/>
<path d="M75.5909 77.4186C75.5299 77.4185 75.4702 77.4002 75.4196 77.3662C75.369 77.3321 75.3296 77.2838 75.3065 77.2274C74.8964 76.2332 74.8854 75.4666 75.2737 74.9531C75.662 74.4396 76.4021 74.3394 76.7648 74.3394L77.545 72.8244C77.583 72.7523 77.648 72.6981 77.7258 72.6735C77.8036 72.649 77.888 72.6561 77.9606 72.6933C78.0327 72.731 78.0869 72.7955 78.1115 72.873C78.1361 72.9504 78.129 73.0344 78.0918 73.1067L77.1257 74.9822L76.9143 74.9604C76.9052 74.9604 76.0995 74.8784 75.7622 75.3246C75.5198 75.6469 75.5581 76.2241 75.8752 76.9925C75.906 77.0679 75.9056 77.1523 75.8742 77.2274C75.8428 77.3025 75.7828 77.3621 75.7075 77.3931C75.6708 77.4094 75.6311 77.4181 75.5909 77.4186Z" fill="#1B1B43"/>
<path d="M75.7349 80.0845C76.9252 81.7615 78.4327 81.0459 79.459 80.1864C78.217 80.2592 76.971 80.2251 75.7349 80.0845Z" fill="#1B1B43"/>
<path d="M79.4591 80.1864C79.8802 79.8287 80.2643 79.4297 80.6057 78.9955C80.6185 78.9773 80.6057 78.9555 80.5765 78.9573C78.7668 79.0828 76.9498 79.0572 75.1444 78.8808C75.1396 78.8806 75.1349 78.8818 75.1308 78.8841C75.1267 78.8865 75.1233 78.8899 75.121 78.8941C75.1188 78.8982 75.1177 78.903 75.118 78.9077C75.1182 78.9124 75.1198 78.917 75.1225 78.9209C75.2796 79.3317 75.4852 79.7223 75.735 80.0844C76.9711 80.2251 78.2171 80.2592 79.4591 80.1864Z" fill="white"/>
<path opacity="0.4" d="M86.6812 76.8432C86.6815 77.2668 86.5561 77.681 86.3208 78.0334C86.0855 78.3858 85.7508 78.6606 85.3591 78.8229C84.9674 78.9853 84.5363 79.028 84.1204 78.9455C83.7044 78.8631 83.3223 78.6593 83.0223 78.3599C82.7223 78.0605 82.518 77.6789 82.4351 77.2635C82.3523 76.848 82.3946 76.4174 82.5568 76.026C82.719 75.6346 82.9938 75.3 83.3463 75.0646C83.6989 74.8293 84.1134 74.7036 84.5375 74.7036C84.8189 74.7034 85.0976 74.7585 85.3577 74.866C85.6178 74.9734 85.8541 75.1309 86.0532 75.3296C86.2523 75.5283 86.4102 75.7643 86.518 76.024C86.6257 76.2837 86.6812 76.5621 86.6812 76.8432Z" fill="#FE5B52"/>
<g clip-path="url(#clip1_4_131)">
<path d="M133.419 38.9959C133.419 31.8606 127.678 26.0767 120.597 26.0767C113.515 26.0767 107.751 31.905 107.775 39.041C107.783 42.4453 109.129 45.7079 111.518 48.1151C113.317 49.9191 114.616 52.1659 115.286 54.6322L116.319 58.4838H124.724L125.703 54.8346C126.39 52.3174 127.73 50.0301 129.586 48.2078C130.801 47.007 131.767 45.5735 132.425 43.9916C133.083 42.4097 133.421 40.7112 133.419 38.9959Z" fill="#F4D242"/>
<path d="M122.538 63H118.44C117.279 63 116.286 62.1357 116.22 61.0415L115.874 56.8106L125.155 56.7512L124.759 61.0415C124.693 62.1357 123.699 63 122.538 63Z" fill="#59595B"/>
<path d="M124.321 58.5941C121.729 58.7058 119.126 58.5719 116.533 58.6875C116.303 58.6973 116.321 59.0361 116.546 59.0439C119.141 59.1307 121.742 58.9688 124.337 59.0517C124.628 59.0622 124.615 58.5811 124.321 58.5941Z" fill="#808183"/>
<path d="M124.321 59.7287C121.729 59.8404 119.126 59.7065 116.533 59.8221C116.303 59.8325 116.321 60.1707 116.546 60.1785C119.141 60.2653 121.742 60.1034 124.337 60.1863C124.628 60.1955 124.615 59.715 124.321 59.7287Z" fill="#808183"/>
<path d="M121.642 19.5074C121.642 20.3397 121.203 23.3329 120.661 23.3329C120.118 23.3329 119.68 20.3397 119.68 19.5074C119.68 18.675 120.119 18 120.661 18C121.202 18 121.642 18.675 121.642 19.5074Z" fill="#F4D242"/>
<path d="M133.869 24.1045C133.242 24.647 131.277 26.9331 131.629 27.347C131.981 27.7609 134.521 26.1465 135.148 25.604C135.774 25.0615 135.997 24.286 135.643 23.8714C135.29 23.4569 134.497 23.5613 133.869 24.1045Z" fill="#F4D242"/>
<path d="M138.634 37.4605C137.815 37.5656 134.811 37.5036 134.747 36.9617C134.682 36.4199 137.57 35.6039 138.39 35.4988C139.209 35.3937 139.929 35.7482 139.997 36.2893C140.065 36.8305 139.454 37.3554 138.634 37.4605Z" fill="#F4D242"/>
<path d="M108.575 23.1103C109.223 23.6234 111.296 25.8175 110.959 26.247C110.621 26.6766 108.015 25.181 107.365 24.6672C106.714 24.1535 106.458 23.389 106.792 22.9614C107.126 22.5338 107.925 22.5965 108.575 23.1103Z" fill="#F4D242"/>
<path d="M102.366 35.3205C103.185 35.4256 106.188 35.3636 106.253 34.8218C106.318 34.2799 103.43 33.4639 102.611 33.3588C101.791 33.2537 101.073 33.6082 101.005 34.15C100.937 34.6919 101.546 35.2161 102.366 35.3205Z" fill="#F4D242"/>
<path d="M126.131 45.5737C125.727 45.27 125.397 44.8769 125.167 44.4247C125.632 43.8463 125.837 43.0688 125.922 42.3455C125.969 41.9038 125.994 41.46 125.996 41.0157C126.003 40.5868 125.947 40.2232 125.587 39.9562C125.263 39.7179 124.836 39.9327 124.59 40.1638C124.305 40.4301 124.168 40.8662 124.058 41.2298C123.836 41.963 123.84 42.7496 123.979 43.4971C124.029 43.758 124.101 44.0141 124.195 44.2622C124.011 44.4084 123.802 44.5202 123.579 44.5925C122.878 44.8184 122.348 44.4117 122.024 43.8091C121.97 43.7099 121.919 43.6057 121.872 43.4964C121.927 43.3476 121.98 43.1987 122.029 43.0519C122.261 42.3339 122.405 41.59 122.459 40.8368C122.508 40.2147 122.523 39.4718 121.931 39.103C121.741 38.9841 121.526 39.0742 121.406 39.242C120.538 40.4549 120.587 42.0641 121.058 43.4409C120.905 43.8068 120.729 44.1622 120.53 44.505C120.313 44.8824 119.897 45.4647 119.393 45.3909C118.924 45.3224 118.551 44.7289 118.315 44.3614C118.147 44.0932 118.009 43.8065 117.905 43.5069C117.964 43.3489 118.019 43.1889 118.07 43.027C118.263 42.3894 118.383 41.7317 118.429 41.0666C118.472 40.5124 118.49 39.7336 117.888 39.4685C117.713 39.3915 117.455 39.3993 117.362 39.6076C116.837 40.7815 116.733 42.103 117.068 43.3456C117.08 43.3881 117.093 43.4305 117.106 43.4729C116.734 44.4105 116.194 45.271 115.513 46.0111C115.211 46.3421 115.689 46.8297 116.004 46.5059C116.601 45.8912 117.103 45.1899 117.494 44.4254C117.61 44.6439 117.74 44.8544 117.883 45.0553C118.276 45.6031 118.768 46.1168 119.475 46.1547C120.135 46.1906 120.672 45.6324 121.03 45.1454C121.202 44.9079 121.353 44.6564 121.484 44.3934C121.807 44.9124 122.273 45.3243 122.909 45.4137C123.492 45.496 124.06 45.3132 124.538 44.9901C124.819 45.4719 125.18 45.9017 125.604 46.2611C126.087 46.6678 126.638 45.9478 126.131 45.5737ZM121.714 40.1853C121.741 40.4948 121.671 40.8767 121.653 41.0647C121.621 41.4075 121.564 41.7476 121.484 42.0824C121.404 41.4224 121.458 40.7461 121.714 40.1853ZM124.713 42.132C124.743 41.8103 124.816 41.494 124.928 41.1913C124.975 41.054 125.038 40.9226 125.114 40.7996C125.133 40.7732 125.153 40.7479 125.175 40.7239C125.182 40.7548 125.187 40.7862 125.19 40.8179C125.23 41.6013 125.166 42.45 124.924 43.1948C124.894 43.2871 124.858 43.3774 124.817 43.4651C124.715 43.0286 124.681 42.5791 124.713 42.132Z" fill="white"/>
<path d="M126.86 43.6733C125.499 47.8657 124.061 52.0379 122.519 56.1676C122.334 56.6618 123.09 56.9647 123.274 56.4705C124.81 52.3349 126.237 48.1615 127.517 43.9364C127.65 43.5017 127.003 43.234 126.86 43.6733Z" fill="white"/>
<path d="M114.459 43.4083C115.548 47.6823 116.564 51.9765 117.468 56.2936C117.577 56.8106 118.375 56.6565 118.267 56.1408C117.354 51.8211 116.331 47.5295 115.157 43.2745C115.034 42.8358 114.347 42.9605 114.459 43.4083Z" fill="white"/>
</g>
</g>
<defs>
<clipPath id="clip0_4_131">
<rect width="183" height="214" fill="white"/>
</clipPath>
<clipPath id="clip1_4_131">
<rect width="39" height="45" fill="white" transform="translate(101 18)"/>
</clipPath>
</defs>
</svg>
