<svg width="319" height="320" viewBox="0 0 319 320" fill="none" xmlns="http://www.w3.org/2000/svg">
<g clip-path="url(#clip0_209_340)">
<rect width="319" height="320" fill="white"/>
<path d="M253.615 15.584L256.727 12.4728L236.928 -7.32623L233.817 -4.21496L253.615 15.584ZM259.34 9.85978L262.055 7.14449L247.064 -7.84617L247.121 -7.90274L264.374 4.82518L266.977 2.22303L254.249 -15.0304L254.305 -15.0869L269.296 -0.0962831L272.237 -3.03785L252.438 -22.8368L247.998 -18.3962L260.188 -2.24589L260.132 -2.18932L243.981 -14.3798L239.541 -9.93921L259.34 9.85978ZM274.022 -4.82219L276.907 -7.70718L273.597 -12.1478L277.133 -15.6833L277.076 -15.7399L281.574 -12.3741L284.685 -15.4854L261.661 -32.0599L257.447 -27.8456L274.022 -4.82219ZM271.278 -15.2025L262.849 -26.3465L262.906 -26.4031L274.078 -18.0027L271.278 -15.2025ZM291.117 -21.3519C294.172 -24.4066 293.946 -27.8007 290.778 -30.9686L284.301 -37.4457L279.803 -32.9485L282.632 -30.12L284.187 -31.6757L288.062 -27.8007C289.477 -26.3865 289.364 -25.2551 288.374 -24.2652C287.384 -23.2752 286.252 -23.1621 284.838 -24.5763L274.005 -35.4092C272.591 -36.8234 272.676 -37.9831 273.666 -38.973C274.656 -39.963 275.815 -40.0478 277.23 -38.6336L279.125 -36.7386L282.066 -39.6801L280.369 -41.3772C277.201 -44.545 273.807 -44.7713 270.752 -41.7166C267.698 -38.6619 267.924 -35.2678 271.092 -32.0999L281.5 -21.6913C284.668 -18.5235 288.062 -18.2972 291.117 -21.3519ZM297.753 -28.5538L306.239 -37.0391L303.41 -39.8675L298.036 -34.4935L291.955 -40.5746L296.226 -44.8455L293.398 -47.674L289.127 -43.403L283.894 -48.6356L289.268 -54.0096L286.44 -56.8381L277.954 -48.3528L297.753 -28.5538ZM308.311 -39.1118L311.027 -41.8271L296.036 -56.8177L296.093 -56.8743L313.346 -44.1464L315.948 -46.7485L303.22 -64.0019L303.277 -64.0585L318.267 -49.0678L321.209 -52.0094L301.41 -71.8084L296.969 -67.3678L309.16 -51.2175L309.103 -51.1609L292.953 -63.3514L288.512 -58.9108L308.311 -39.1118ZM333.406 -63.6411C336.461 -66.6958 336.32 -70.1748 333.152 -73.3426L322.743 -83.7512C319.575 -86.9191 316.096 -87.0605 313.042 -84.0058C309.987 -80.9511 310.128 -77.4721 313.296 -74.3043L323.705 -63.8957C326.873 -60.7278 330.352 -60.5864 333.406 -63.6411ZM330.578 -66.4695C329.588 -65.4796 328.428 -65.3947 327.014 -66.8089L316.209 -77.6135C314.795 -79.0277 314.88 -80.1874 315.87 -81.1773C316.86 -82.1673 318.02 -82.2521 319.434 -80.8379L330.238 -70.0333C331.653 -68.6191 331.568 -67.4595 330.578 -66.4695ZM344.59 -75.3901L347.701 -78.5014L327.902 -98.3004L325.809 -96.2073C327.025 -93.5769 326.657 -92.0778 324.027 -89.4474L326.233 -87.2412L329.486 -90.4939L344.59 -75.3901Z" fill="black" fill-opacity="0.3"/>
<path d="M319.615 89.584L322.727 86.4728L302.928 66.6738L299.817 69.785L319.615 89.584ZM325.34 83.8598L328.055 81.1445L313.064 66.1538L313.121 66.0973L330.374 78.8252L332.977 76.223L320.249 58.9696L320.305 58.9131L335.296 73.9037L338.237 70.9622L318.438 51.1632L313.998 55.6038L326.188 71.7541L326.132 71.8107L309.981 59.6202L305.541 64.0608L325.34 83.8598ZM340.022 69.1778L342.907 66.2928L339.597 61.8522L343.133 58.3167L343.076 58.2601L347.574 61.6259L350.685 58.5146L327.661 41.9401L323.447 46.1544L340.022 69.1778ZM337.278 58.7975L328.849 47.6535L328.906 47.5969L340.078 55.9973L337.278 58.7975ZM357.117 52.6481C360.172 49.5934 359.946 46.1993 356.778 43.0314L350.301 36.5543L345.803 41.0515L348.632 43.88L350.187 42.3243L354.062 46.1993C355.477 47.6135 355.364 48.7449 354.374 49.7348C353.384 50.7248 352.252 50.8379 350.838 49.4237L340.005 38.5908C338.591 37.1766 338.676 36.0169 339.666 35.027C340.656 34.037 341.815 33.9522 343.23 35.3664L345.125 37.2614L348.066 34.3199L346.369 32.6228C343.201 29.455 339.807 29.2287 336.752 32.2834C333.698 35.3381 333.924 38.7322 337.092 41.9001L347.5 52.3087C350.668 55.4765 354.062 55.7028 357.117 52.6481ZM363.753 45.4462L372.239 36.9609L369.41 34.1325L364.036 39.5065L357.955 33.4254L362.226 29.1545L359.398 26.326L355.127 30.597L349.894 25.3644L355.268 19.9904L352.44 17.1619L343.954 25.6472L363.753 45.4462ZM374.311 34.8882L377.027 32.1729L362.036 17.1823L362.093 17.1257L379.346 29.8536L381.948 27.2515L369.22 9.99806L369.277 9.94149L384.267 24.9322L387.209 21.9906L367.41 2.1916L362.969 6.63223L375.16 22.7825L375.103 22.8391L358.953 10.6486L354.512 15.0892L374.311 34.8882ZM399.406 10.3589C402.461 7.3042 402.32 3.82523 399.152 0.657396L388.743 -9.75122C385.575 -12.9191 382.096 -13.0605 379.042 -10.0058C375.987 -6.95107 376.128 -3.47211 379.296 -0.304269L389.705 10.1043C392.873 13.2722 396.352 13.4136 399.406 10.3589ZM396.578 7.53047C395.588 8.52042 394.428 8.60528 393.014 7.19106L382.209 -3.61353C380.795 -5.02774 380.88 -6.1874 381.87 -7.17735C382.86 -8.1673 384.02 -8.25215 385.434 -6.83793L396.238 3.96666C397.653 5.38087 397.568 6.54052 396.578 7.53047ZM410.59 -1.39011L413.701 -4.50138L393.902 -24.3004L391.809 -22.2073C393.025 -19.5769 392.657 -18.0778 390.027 -15.4474L392.233 -13.2412L395.486 -16.4939L410.59 -1.39011Z" fill="black" fill-opacity="0.3"/>
<path d="M235.615 99.584L238.727 96.4728L218.928 76.6738L215.817 79.785L235.615 99.584ZM241.34 93.8598L244.055 91.1445L229.064 76.1538L229.121 76.0973L246.374 88.8252L248.977 86.223L236.249 68.9696L236.305 68.9131L251.296 83.9037L254.237 80.9622L234.438 61.1632L229.998 65.6038L242.188 81.7541L242.132 81.8107L225.981 69.6202L221.541 74.0608L241.34 93.8598ZM256.022 79.1778L258.907 76.2928L255.597 71.8522L259.133 68.3167L259.076 68.2601L263.574 71.6259L266.685 68.5146L243.661 51.9401L239.447 56.1544L256.022 79.1778ZM253.278 68.7975L244.849 57.6535L244.906 57.5969L256.078 65.9973L253.278 68.7975ZM273.117 62.6481C276.172 59.5934 275.946 56.1993 272.778 53.0314L266.301 46.5543L261.803 51.0515L264.632 53.88L266.187 52.3243L270.062 56.1993C271.477 57.6135 271.364 58.7449 270.374 59.7348C269.384 60.7248 268.252 60.8379 266.838 59.4237L256.005 48.5908C254.591 47.1766 254.676 46.0169 255.666 45.027C256.656 44.037 257.815 43.9522 259.23 45.3664L261.125 47.2614L264.066 44.3199L262.369 42.6228C259.201 39.455 255.807 39.2287 252.752 42.2834C249.698 45.3381 249.924 48.7322 253.092 51.9001L263.5 62.3087C266.668 65.4765 270.062 65.7028 273.117 62.6481ZM279.753 55.4462L288.239 46.9609L285.41 44.1325L280.036 49.5065L273.955 43.4254L278.226 39.1545L275.398 36.326L271.127 40.597L265.894 35.3644L271.268 29.9904L268.44 27.1619L259.954 35.6472L279.753 55.4462ZM290.311 44.8882L293.027 42.1729L278.036 27.1823L278.093 27.1257L295.346 39.8536L297.948 37.2515L285.22 19.9981L285.277 19.9415L300.267 34.9322L303.209 31.9906L283.41 12.1916L278.969 16.6322L291.16 32.7825L291.103 32.8391L274.953 20.6486L270.512 25.0892L290.311 44.8882ZM315.406 20.3589C318.461 17.3042 318.32 13.8252 315.152 10.6574L304.743 0.248784C301.575 -2.91905 298.096 -3.06048 295.042 -0.00577418C291.987 3.04893 292.128 6.52789 295.296 9.69573L305.705 20.1043C308.873 23.2722 312.352 23.4136 315.406 20.3589ZM312.578 17.5305C311.588 18.5204 310.428 18.6053 309.014 17.1911L298.209 6.38647C296.795 4.97226 296.88 3.8126 297.87 2.82265C298.86 1.8327 300.02 1.74785 301.434 3.16207L312.238 13.9667C313.653 15.3809 313.568 16.5405 312.578 17.5305ZM326.59 8.60989L329.701 5.49862L309.902 -14.3004L307.809 -12.2073C309.025 -9.5769 308.657 -8.07784 306.027 -5.4474L308.233 -3.24123L311.486 -6.49392L326.59 8.60989Z" fill="black" fill-opacity="0.3"/>
<path d="M157.615 38.584L160.727 35.4728L140.928 15.6738L137.817 18.785L157.615 38.584ZM163.34 32.8598L166.055 30.1445L151.064 15.1538L151.121 15.0973L168.374 27.8252L170.977 25.223L158.249 7.96962L158.305 7.91305L173.296 22.9037L176.237 19.9622L156.438 0.163162L151.998 4.60379L164.188 20.7541L164.132 20.8107L147.981 8.62016L143.541 13.0608L163.34 32.8598ZM178.022 18.1778L180.907 15.2928L177.597 10.8522L181.133 7.31665L181.076 7.26008L185.574 10.6259L188.685 7.51464L165.661 -9.05994L161.447 -4.84558L178.022 18.1778ZM175.278 7.79749L166.849 -3.34652L166.906 -3.40309L178.078 4.99734L175.278 7.79749ZM195.117 1.64809C198.172 -1.40661 197.946 -4.80073 194.778 -7.96857L188.301 -14.4457L183.803 -9.94846L186.632 -7.12004L188.187 -8.67567L192.062 -4.80073C193.477 -3.38651 193.364 -2.25514 192.374 -1.26519C191.384 -0.275244 190.252 -0.162107 188.838 -1.57632L178.005 -12.4092C176.591 -13.8234 176.676 -14.9831 177.666 -15.973C178.656 -16.963 179.815 -17.0478 181.23 -15.6336L183.125 -13.7386L186.066 -16.6801L184.369 -18.3772C181.201 -21.545 177.807 -21.7713 174.752 -18.7166C171.698 -15.6619 171.924 -12.2678 175.092 -9.09994L185.5 1.30868C188.668 4.47651 192.062 4.70279 195.117 1.64809ZM201.753 -5.55379L210.239 -14.0391L207.41 -16.8675L202.036 -11.4935L195.955 -17.5746L200.226 -21.8455L197.398 -24.674L193.127 -20.403L187.894 -25.6356L193.268 -31.0096L190.44 -33.8381L181.954 -25.3528L201.753 -5.55379ZM212.311 -16.1118L215.027 -18.8271L200.036 -33.8177L200.093 -33.8743L217.346 -21.1464L219.948 -23.7485L207.22 -41.0019L207.277 -41.0585L222.267 -26.0678L225.209 -29.0094L205.41 -48.8084L200.969 -44.3678L213.16 -28.2175L213.103 -28.1609L196.953 -40.3514L192.512 -35.9108L212.311 -16.1118ZM237.406 -40.6411C240.461 -43.6958 240.32 -47.1748 237.152 -50.3426L226.743 -60.7512C223.575 -63.9191 220.096 -64.0605 217.042 -61.0058C213.987 -57.9511 214.128 -54.4721 217.296 -51.3043L227.705 -40.8957C230.873 -37.7278 234.352 -37.5864 237.406 -40.6411ZM234.578 -43.4695C233.588 -42.4796 232.428 -42.3947 231.014 -43.8089L220.209 -54.6135C218.795 -56.0277 218.88 -57.1874 219.87 -58.1773C220.86 -59.1673 222.02 -59.2521 223.434 -57.8379L234.238 -47.0333C235.653 -45.6191 235.568 -44.4595 234.578 -43.4695ZM248.59 -52.3901L251.701 -55.5014L231.902 -75.3004L229.809 -73.2073C231.025 -70.5769 230.657 -69.0778 228.027 -66.4474L230.233 -64.2412L233.486 -67.4939L248.59 -52.3901Z" fill="black" fill-opacity="0.3"/>
<path d="M145.615 126.584L148.727 123.473L128.928 103.674L125.817 106.785L145.615 126.584ZM151.34 120.86L154.055 118.144L139.064 103.154L139.121 103.097L156.374 115.825L158.977 113.223L146.249 95.9696L146.305 95.9131L161.296 110.904L164.237 107.962L144.438 88.1632L139.998 92.6038L152.188 108.754L152.132 108.811L135.981 96.6202L131.541 101.061L151.34 120.86ZM166.022 106.178L168.907 103.293L165.597 98.8522L169.133 95.3167L169.076 95.2601L173.574 98.6259L176.685 95.5146L153.661 78.9401L149.447 83.1544L166.022 106.178ZM163.278 95.7975L154.849 84.6535L154.906 84.5969L166.078 92.9973L163.278 95.7975ZM183.117 89.6481C186.172 86.5934 185.946 83.1993 182.778 80.0314L176.301 73.5543L171.803 78.0515L174.632 80.88L176.187 79.3243L180.062 83.1993C181.477 84.6135 181.364 85.7449 180.374 86.7348C179.384 87.7248 178.252 87.8379 176.838 86.4237L166.005 75.5908C164.591 74.1766 164.676 73.0169 165.666 72.027C166.656 71.037 167.815 70.9522 169.23 72.3664L171.125 74.2614L174.066 71.3199L172.369 69.6228C169.201 66.455 165.807 66.2287 162.752 69.2834C159.698 72.3381 159.924 75.7322 163.092 78.9001L173.5 89.3087C176.668 92.4765 180.062 92.7028 183.117 89.6481ZM189.753 82.4462L198.239 73.9609L195.41 71.1325L190.036 76.5065L183.955 70.4254L188.226 66.1545L185.398 63.326L181.127 67.597L175.894 62.3644L181.268 56.9904L178.44 54.1619L169.954 62.6472L189.753 82.4462ZM200.311 71.8882L203.027 69.1729L188.036 54.1823L188.093 54.1257L205.346 66.8536L207.948 64.2515L195.22 46.9981L195.277 46.9415L210.267 61.9322L213.209 58.9906L193.41 39.1916L188.969 43.6322L201.16 59.7825L201.103 59.8391L184.953 47.6486L180.512 52.0892L200.311 71.8882ZM225.406 47.3589C228.461 44.3042 228.32 40.8252 225.152 37.6574L214.743 27.2488C211.575 24.0809 208.096 23.9395 205.042 26.9942C201.987 30.0489 202.128 33.5279 205.296 36.6957L215.705 47.1043C218.873 50.2722 222.352 50.4136 225.406 47.3589ZM222.578 44.5305C221.588 45.5204 220.428 45.6053 219.014 44.1911L208.209 33.3865C206.795 31.9723 206.88 30.8126 207.87 29.8227C208.86 28.8327 210.02 28.7479 211.434 30.1621L222.238 40.9667C223.653 42.3809 223.568 43.5405 222.578 44.5305ZM236.929 35.8362C239.984 32.7815 239.842 29.4722 236.674 26.3044L234.921 24.5507C232.913 22.5426 230.848 21.7223 228.557 22.7688L228.5 22.7123C229.462 20.6192 228.84 18.6393 226.718 16.518L226.011 15.8109C222.843 12.6431 219.534 12.5016 216.564 15.4715C213.595 18.4413 213.764 21.7789 216.932 24.9467L217.979 25.9932L220.92 23.0517L219.619 21.7506C218.318 20.4495 218.375 19.3181 219.28 18.413C220.185 17.508 221.401 17.4231 222.815 18.8373L224.258 20.2798C225.842 21.8637 225.644 23.08 224.484 24.2396L223.353 25.371L226.181 28.1994L227.228 27.1529C228.642 25.7387 229.943 25.7952 231.781 27.6337L233.394 29.2459C235.147 30.9995 235.006 32.1026 234.016 33.0926C233.026 34.0825 231.866 34.1674 230.452 32.7532L228.698 30.9995L225.757 33.9411L227.369 35.5533C230.537 38.7212 233.874 38.8909 236.929 35.8362Z" fill="black" fill-opacity="0.3"/>
<path d="M211.615 200.584L214.727 197.473L194.928 177.674L191.817 180.785L211.615 200.584ZM217.34 194.86L220.055 192.144L205.064 177.154L205.121 177.097L222.374 189.825L224.977 187.223L212.249 169.97L212.305 169.913L227.296 184.904L230.237 181.962L210.438 162.163L205.998 166.604L218.188 182.754L218.132 182.811L201.981 170.62L197.541 175.061L217.34 194.86ZM232.022 180.178L234.907 177.293L231.597 172.852L235.133 169.317L235.076 169.26L239.574 172.626L242.685 169.515L219.661 152.94L215.447 157.154L232.022 180.178ZM229.278 169.797L220.849 158.653L220.906 158.597L232.078 166.997L229.278 169.797ZM249.117 163.648C252.172 160.593 251.946 157.199 248.778 154.031L242.301 147.554L237.803 152.052L240.632 154.88L242.187 153.324L246.062 157.199C247.477 158.613 247.364 159.745 246.374 160.735C245.384 161.725 244.252 161.838 242.838 160.424L232.005 149.591C230.591 148.177 230.676 147.017 231.666 146.027C232.656 145.037 233.815 144.952 235.23 146.366L237.125 148.261L240.066 145.32L238.369 143.623C235.201 140.455 231.807 140.229 228.752 143.283C225.698 146.338 225.924 149.732 229.092 152.9L239.5 163.309C242.668 166.477 246.062 166.703 249.117 163.648ZM255.753 156.446L264.239 147.961L261.41 145.132L256.036 150.507L249.955 144.425L254.226 140.154L251.398 137.326L247.127 141.597L241.894 136.364L247.268 130.99L244.44 128.162L235.954 136.647L255.753 156.446ZM266.311 145.888L269.027 143.173L254.036 128.182L254.093 128.126L271.346 140.854L273.948 138.251L261.22 120.998L261.277 120.941L276.267 135.932L279.209 132.991L259.41 113.192L254.969 117.632L267.16 133.783L267.103 133.839L250.953 121.649L246.512 126.089L266.311 145.888ZM291.406 121.359C294.461 118.304 294.32 114.825 291.152 111.657L280.743 101.249C277.575 98.0809 274.096 97.9395 271.042 100.994C267.987 104.049 268.128 107.528 271.296 110.696L281.705 121.104C284.873 124.272 288.352 124.414 291.406 121.359ZM288.578 118.53C287.588 119.52 286.428 119.605 285.014 118.191L274.209 107.386C272.795 105.972 272.88 104.813 273.87 103.823C274.86 102.833 276.02 102.748 277.434 104.162L288.238 114.967C289.653 116.381 289.568 117.541 288.578 118.53ZM302.929 109.836C305.984 106.781 305.842 103.472 302.674 100.304L300.921 98.5507C298.913 96.5426 296.848 95.7223 294.557 96.7688L294.5 96.7123C295.462 94.6192 294.84 92.6393 292.718 90.518L292.011 89.8109C288.843 86.6431 285.534 86.5016 282.564 89.4715C279.595 92.4413 279.764 95.7789 282.932 98.9467L283.979 99.9932L286.92 97.0517L285.619 95.7506C284.318 94.4495 284.375 93.3181 285.28 92.413C286.185 91.508 287.401 91.4231 288.815 92.8373L290.258 94.2798C291.842 95.8637 291.644 97.08 290.484 98.2396L289.353 99.371L292.181 102.199L293.228 101.153C294.642 99.7387 295.943 99.7952 297.781 101.634L299.394 103.246C301.147 105 301.006 106.103 300.016 107.093C299.026 108.083 297.866 108.167 296.452 106.753L294.698 105L291.757 107.941L293.369 109.553C296.537 112.721 299.874 112.891 302.929 109.836Z" fill="black" fill-opacity="0.3"/>
<path d="M291.615 192.584L294.727 189.473L274.928 169.674L271.817 172.785L291.615 192.584ZM297.34 186.86L300.055 184.144L285.064 169.154L285.121 169.097L302.374 181.825L304.977 179.223L292.249 161.97L292.305 161.913L307.296 176.904L310.237 173.962L290.438 154.163L285.998 158.604L298.188 174.754L298.132 174.811L281.981 162.62L277.541 167.061L297.34 186.86ZM312.022 172.178L314.907 169.293L311.597 164.852L315.133 161.317L315.076 161.26L319.574 164.626L322.685 161.515L299.661 144.94L295.447 149.154L312.022 172.178ZM309.278 161.797L300.849 150.653L300.906 150.597L312.078 158.997L309.278 161.797ZM329.117 155.648C332.172 152.593 331.946 149.199 328.778 146.031L322.301 139.554L317.803 144.052L320.632 146.88L322.187 145.324L326.062 149.199C327.477 150.613 327.364 151.745 326.374 152.735C325.384 153.725 324.252 153.838 322.838 152.424L312.005 141.591C310.591 140.177 310.676 139.017 311.666 138.027C312.656 137.037 313.815 136.952 315.23 138.366L317.125 140.261L320.066 137.32L318.369 135.623C315.201 132.455 311.807 132.229 308.752 135.283C305.698 138.338 305.924 141.732 309.092 144.9L319.5 155.309C322.668 158.477 326.062 158.703 329.117 155.648ZM335.753 148.446L344.239 139.961L341.41 137.132L336.036 142.507L329.955 136.425L334.226 132.154L331.398 129.326L327.127 133.597L321.894 128.364L327.268 122.99L324.44 120.162L315.954 128.647L335.753 148.446ZM346.311 137.888L349.027 135.173L334.036 120.182L334.093 120.126L351.346 132.854L353.948 130.251L341.22 112.998L341.277 112.941L356.267 127.932L359.209 124.991L339.41 105.192L334.969 109.632L347.16 125.783L347.103 125.839L330.953 113.649L326.512 118.089L346.311 137.888ZM371.406 113.359C374.461 110.304 374.32 106.825 371.152 103.657L360.743 93.2488C357.575 90.0809 354.096 89.9395 351.042 92.9942C347.987 96.0489 348.128 99.5279 351.296 102.696L361.705 113.104C364.873 116.272 368.352 116.414 371.406 113.359ZM368.578 110.53C367.588 111.52 366.428 111.605 365.014 110.191L354.209 99.3865C352.795 97.9723 352.88 96.8126 353.87 95.8227C354.86 94.8327 356.02 94.7479 357.434 96.1621L368.238 106.967C369.653 108.381 369.568 109.541 368.578 110.53ZM382.59 101.61L385.701 98.4986L365.902 78.6996L363.809 80.7927C365.025 83.4231 364.657 84.9222 362.027 87.5526L364.233 89.7588L367.486 86.5061L382.59 101.61Z" fill="black" fill-opacity="0.3"/>
<path d="M127.615 210.584L130.727 207.473L110.928 187.674L107.817 190.785L127.615 210.584ZM133.34 204.86L136.055 202.144L121.064 187.154L121.121 187.097L138.374 199.825L140.977 197.223L128.249 179.97L128.305 179.913L143.296 194.904L146.237 191.962L126.438 172.163L121.998 176.604L134.188 192.754L134.132 192.811L117.981 180.62L113.541 185.061L133.34 204.86ZM148.022 190.178L150.907 187.293L147.597 182.852L151.133 179.317L151.076 179.26L155.574 182.626L158.685 179.515L135.661 162.94L131.447 167.154L148.022 190.178ZM145.278 179.797L136.849 168.653L136.906 168.597L148.078 176.997L145.278 179.797ZM165.117 173.648C168.172 170.593 167.946 167.199 164.778 164.031L158.301 157.554L153.803 162.052L156.632 164.88L158.187 163.324L162.062 167.199C163.477 168.613 163.364 169.745 162.374 170.735C161.384 171.725 160.252 171.838 158.838 170.424L148.005 159.591C146.591 158.177 146.676 157.017 147.666 156.027C148.656 155.037 149.815 154.952 151.23 156.366L153.125 158.261L156.066 155.32L154.369 153.623C151.201 150.455 147.807 150.229 144.752 153.283C141.698 156.338 141.924 159.732 145.092 162.9L155.5 173.309C158.668 176.477 162.062 176.703 165.117 173.648ZM171.753 166.446L180.239 157.961L177.41 155.132L172.036 160.507L165.955 154.425L170.226 150.154L167.398 147.326L163.127 151.597L157.894 146.364L163.268 140.99L160.44 138.162L151.954 146.647L171.753 166.446ZM182.311 155.888L185.027 153.173L170.036 138.182L170.093 138.126L187.346 150.854L189.948 148.251L177.22 130.998L177.277 130.941L192.267 145.932L195.209 142.991L175.41 123.192L170.969 127.632L183.16 143.783L183.103 143.839L166.953 131.649L162.512 136.089L182.311 155.888ZM207.406 131.359C210.461 128.304 210.32 124.825 207.152 121.657L196.743 111.249C193.575 108.081 190.096 107.94 187.042 110.994C183.987 114.049 184.128 117.528 187.296 120.696L197.705 131.104C200.873 134.272 204.352 134.414 207.406 131.359ZM204.578 128.53C203.588 129.52 202.428 129.605 201.014 128.191L190.209 117.386C188.795 115.972 188.88 114.813 189.87 113.823C190.86 112.833 192.02 112.748 193.434 114.162L204.238 124.967C205.653 126.381 205.568 127.541 204.578 128.53ZM218.929 119.836C221.984 116.781 221.842 113.472 218.674 110.304L216.921 108.551C214.913 106.543 212.848 105.722 210.557 106.769L210.5 106.712C211.462 104.619 210.84 102.639 208.718 100.518L208.011 99.8109C204.843 96.6431 201.534 96.5016 198.564 99.4715C195.595 102.441 195.764 105.779 198.932 108.947L199.979 109.993L202.92 107.052L201.619 105.751C200.318 104.45 200.375 103.318 201.28 102.413C202.185 101.508 203.401 101.423 204.815 102.837L206.258 104.28C207.842 105.864 207.644 107.08 206.484 108.24L205.353 109.371L208.181 112.199L209.228 111.153C210.642 109.739 211.943 109.795 213.781 111.634L215.394 113.246C217.147 115 217.006 116.103 216.016 117.093C215.026 118.083 213.866 118.167 212.452 116.753L210.698 115L207.757 117.941L209.369 119.553C212.537 122.721 215.874 122.891 218.929 119.836Z" fill="black" fill-opacity="0.3"/>
<path d="M62.6155 61.584L65.7268 58.4728L45.9278 38.6738L42.8165 41.785L62.6155 61.584ZM68.3397 55.8598L71.055 53.1445L56.0644 38.1538L56.1209 38.0973L73.3743 50.8252L75.9765 48.223L63.2486 30.9696L63.3051 30.9131L78.2958 45.9037L81.2374 42.9622L61.4384 23.1632L56.9978 27.6038L69.1883 43.7541L69.1317 43.8107L52.9814 31.6202L48.5408 36.0608L68.3397 55.8598ZM83.0217 41.1778L85.9067 38.2928L82.5975 33.8522L86.133 30.3167L86.0764 30.2601L90.5736 33.6259L93.6849 30.5146L70.6615 13.9401L66.4471 18.1544L83.0217 41.1778ZM80.2781 30.7975L71.8494 19.6535L71.906 19.5969L83.0783 27.9973L80.2781 30.7975ZM100.117 24.6481C103.172 21.5934 102.946 18.1993 99.7777 15.0314L93.3006 8.55434L88.8034 13.0515L91.6318 15.88L93.1875 14.3243L97.0624 18.1993C98.4766 19.6135 98.3635 20.7449 97.3736 21.7348C96.3836 22.7248 95.2522 22.8379 93.838 21.4237L83.0051 10.5908C81.5909 9.17659 81.6758 8.01693 82.6657 7.02699C83.6557 6.03704 84.8153 5.95218 86.2296 7.3664L88.1246 9.26144L91.0662 6.31988L89.3691 4.62282C86.2013 1.45498 82.8072 1.22871 79.7525 4.28341C76.6978 7.33811 76.924 10.7322 80.0919 13.9001L90.5005 24.3087C93.6683 27.4765 97.0624 27.7028 100.117 24.6481ZM106.753 17.4462L115.239 8.96092L112.41 6.1325L107.036 11.5065L100.955 5.42539L105.226 1.15446L102.398 -1.67396L98.1266 2.59696L92.894 -2.63563L98.268 -8.00964L95.4396 -10.8381L86.9543 -2.35278L106.753 17.4462ZM117.311 6.88822L120.027 4.17293L105.036 -10.8177L105.093 -10.8743L122.346 1.85362L124.948 -0.748537L112.22 -18.0019L112.277 -18.0585L127.267 -3.06785L130.209 -6.00941L110.41 -25.8084L105.969 -21.3678L118.16 -5.21745L118.103 -5.16088L101.953 -17.3514L97.5123 -12.9108L117.311 6.88822ZM142.406 -17.6411C145.461 -20.6958 145.32 -24.1748 142.152 -27.3426L131.743 -37.7512C128.575 -40.9191 125.096 -41.0605 122.042 -38.0058C118.987 -34.9511 119.128 -31.4721 122.296 -28.3043L132.705 -17.8957C135.873 -14.7278 139.352 -14.5864 142.406 -17.6411ZM139.578 -20.4695C138.588 -19.4796 137.428 -19.3947 136.014 -20.8089L125.209 -31.6135C123.795 -33.0277 123.88 -34.1874 124.87 -35.1773C125.86 -36.1673 127.02 -36.2521 128.434 -34.8379L139.238 -24.0333C140.653 -22.6191 140.568 -21.4595 139.578 -20.4695ZM153.59 -29.3901L156.701 -32.5014L136.902 -52.3004L134.809 -50.2073C136.025 -47.5769 135.657 -46.0778 133.027 -43.4474L135.233 -41.2412L138.486 -44.4939L153.59 -29.3901Z" fill="black" fill-opacity="0.3"/>
<path d="M45.6155 149.584L48.7268 146.473L28.9278 126.674L25.8165 129.785L45.6155 149.584ZM51.3397 143.86L54.055 141.144L39.0644 126.154L39.1209 126.097L56.3743 138.825L58.9765 136.223L46.2486 118.97L46.3051 118.913L61.2958 133.904L64.2374 130.962L44.4384 111.163L39.9978 115.604L52.1883 131.754L52.1317 131.811L35.9814 119.62L31.5408 124.061L51.3397 143.86ZM66.0217 129.178L68.9067 126.293L65.5975 121.852L69.133 118.317L69.0764 118.26L73.5736 121.626L76.6849 118.515L53.6615 101.94L49.4471 106.154L66.0217 129.178ZM63.2781 118.797L54.8494 107.653L54.906 107.597L66.0783 115.997L63.2781 118.797ZM83.1171 112.648C86.1718 109.593 85.9456 106.199 82.7777 103.031L76.3006 96.5543L71.8034 101.052L74.6318 103.88L76.1875 102.324L80.0624 106.199C81.4766 107.613 81.3635 108.745 80.3736 109.735C79.3836 110.725 78.2522 110.838 76.838 109.424L66.0051 98.5908C64.5909 97.1766 64.6758 96.0169 65.6657 95.027C66.6557 94.037 67.8153 93.9522 69.2296 95.3664L71.1246 97.2614L74.0662 94.3199L72.3691 92.6228C69.2013 89.455 65.8072 89.2287 62.7525 92.2834C59.6978 95.3381 59.924 98.7322 63.0919 101.9L73.5005 112.309C76.6683 115.477 80.0624 115.703 83.1171 112.648ZM89.7533 105.446L98.2386 96.9609L95.4102 94.1325L90.0362 99.5065L83.955 93.4254L88.226 89.1545L85.3975 86.326L81.1266 90.597L75.894 85.3644L81.268 79.9904L78.4396 77.1619L69.9543 85.6472L89.7533 105.446ZM100.311 94.8882L103.027 92.1729L88.0359 77.1823L88.0925 77.1257L105.346 89.8536L107.948 87.2515L95.2201 69.9981L95.2767 69.9415L110.267 84.9322L113.209 81.9906L93.4099 62.1916L88.9693 66.6322L101.16 82.7825L101.103 82.8391L84.953 70.6486L80.5123 75.0892L100.311 94.8882ZM125.406 70.3589C128.461 67.3042 128.32 63.8252 125.152 60.6574L114.743 50.2488C111.575 47.0809 108.096 46.9395 105.042 49.9942C101.987 53.0489 102.128 56.5279 105.296 59.6957L115.705 70.1043C118.873 73.2722 122.352 73.4136 125.406 70.3589ZM122.578 67.5305C121.588 68.5204 120.428 68.6053 119.014 67.1911L108.209 56.3865C106.795 54.9723 106.88 53.8126 107.87 52.8227C108.86 51.8327 110.02 51.7479 111.434 53.1621L122.238 63.9667C123.653 65.3809 123.568 66.5405 122.578 67.5305ZM136.929 58.8362C139.984 55.7815 139.842 52.4722 136.674 49.3044L134.921 47.5507C132.913 45.5426 130.848 44.7223 128.557 45.7688L128.5 45.7123C129.462 43.6192 128.84 41.6393 126.718 39.518L126.011 38.8109C122.843 35.6431 119.534 35.5016 116.564 38.4715C113.595 41.4413 113.764 44.7789 116.932 47.9467L117.979 48.9932L120.92 46.0517L119.619 44.7506C118.318 43.4495 118.375 42.3181 119.28 41.413C120.185 40.508 121.401 40.4231 122.815 41.8373L124.258 43.2798C125.842 44.8637 125.644 46.08 124.484 47.2396L123.353 48.371L126.181 51.1994L127.228 50.1529C128.642 48.7387 129.943 48.7952 131.781 50.6337L133.394 52.2459C135.147 53.9995 135.006 55.1026 134.016 56.0926C133.026 57.0825 131.866 57.1674 130.452 55.7532L128.698 53.9995L125.757 56.9411L127.369 58.5533C130.537 61.7212 133.874 61.8909 136.929 58.8362Z" fill="black" fill-opacity="0.3"/>
<path d="M33.6155 237.584L36.7268 234.473L16.9278 214.674L13.8165 217.785L33.6155 237.584ZM39.3397 231.86L42.055 229.144L27.0644 214.154L27.1209 214.097L44.3743 226.825L46.9765 224.223L34.2486 206.97L34.3051 206.913L49.2958 221.904L52.2374 218.962L32.4384 199.163L27.9978 203.604L40.1883 219.754L40.1317 219.811L23.9814 207.62L19.5408 212.061L39.3397 231.86ZM54.0217 217.178L56.9067 214.293L53.5975 209.852L57.133 206.317L57.0764 206.26L61.5736 209.626L64.6849 206.515L41.6615 189.94L37.4471 194.154L54.0217 217.178ZM51.2781 206.797L42.8494 195.653L42.906 195.597L54.0783 203.997L51.2781 206.797ZM71.1171 200.648C74.1718 197.593 73.9456 194.199 70.7777 191.031L64.3006 184.554L59.8034 189.052L62.6318 191.88L64.1875 190.324L68.0624 194.199C69.4766 195.613 69.3635 196.745 68.3736 197.735C67.3836 198.725 66.2522 198.838 64.838 197.424L54.0051 186.591C52.5909 185.177 52.6758 184.017 53.6657 183.027C54.6557 182.037 55.8153 181.952 57.2296 183.366L59.1246 185.261L62.0662 182.32L60.3691 180.623C57.2013 177.455 53.8072 177.229 50.7525 180.283C47.6978 183.338 47.924 186.732 51.0919 189.9L61.5005 200.309C64.6683 203.477 68.0624 203.703 71.1171 200.648ZM77.7533 193.446L86.2386 184.961L83.4102 182.132L78.0362 187.507L71.955 181.425L76.226 177.154L73.3975 174.326L69.1266 178.597L63.894 173.364L69.268 167.99L66.4396 165.162L57.9543 173.647L77.7533 193.446ZM88.3113 182.888L91.0266 180.173L76.0359 165.182L76.0925 165.126L93.3459 177.854L95.9481 175.251L83.2201 157.998L83.2767 157.941L98.2674 172.932L101.209 169.991L81.4099 150.192L76.9693 154.632L89.1598 170.783L89.1033 170.839L72.953 158.649L68.5123 163.089L88.3113 182.888ZM113.406 158.359C116.461 155.304 116.32 151.825 113.152 148.657L102.743 138.249C99.5753 135.081 96.0963 134.94 93.0416 137.994C89.9869 141.049 90.1284 144.528 93.2962 147.696L103.705 158.104C106.873 161.272 110.352 161.414 113.406 158.359ZM110.578 155.53C109.588 156.52 108.428 156.605 107.014 155.191L96.2095 144.386C94.7953 142.972 94.8801 141.813 95.8701 140.823C96.86 139.833 98.0197 139.748 99.4339 141.162L110.238 151.967C111.653 153.381 111.568 154.541 110.578 155.53ZM124.929 146.836C127.984 143.781 127.842 140.472 124.674 137.304L122.921 135.551C120.913 133.543 118.848 132.722 116.557 133.769L116.5 133.712C117.462 131.619 116.84 129.639 114.718 127.518L114.011 126.811C110.843 123.643 107.534 123.502 104.564 126.471C101.595 129.441 101.764 132.779 104.932 135.947L105.979 136.993L108.92 134.052L107.619 132.751C106.318 131.45 106.375 130.318 107.28 129.413C108.185 128.508 109.401 128.423 110.815 129.837L112.258 131.28C113.842 132.864 113.644 134.08 112.484 135.24L111.353 136.371L114.181 139.199L115.228 138.153C116.642 136.739 117.943 136.795 119.781 138.634L121.394 140.246C123.147 142 123.006 143.103 122.016 144.093C121.026 145.083 119.866 145.167 118.452 143.753L116.698 142L113.757 144.941L115.369 146.553C118.537 149.721 121.874 149.891 124.929 146.836Z" fill="black" fill-opacity="0.3"/>
<path d="M99.6155 311.584L102.727 308.473L82.9278 288.674L79.8165 291.785L99.6155 311.584ZM105.34 305.86L108.055 303.144L93.0644 288.154L93.1209 288.097L110.374 300.825L112.977 298.223L100.249 280.97L100.305 280.913L115.296 295.904L118.237 292.962L98.4384 273.163L93.9978 277.604L106.188 293.754L106.132 293.811L89.9814 281.62L85.5408 286.061L105.34 305.86ZM120.022 291.178L122.907 288.293L119.597 283.852L123.133 280.317L123.076 280.26L127.574 283.626L130.685 280.515L107.661 263.94L103.447 268.154L120.022 291.178ZM117.278 280.797L108.849 269.653L108.906 269.597L120.078 277.997L117.278 280.797ZM137.117 274.648C140.172 271.593 139.946 268.199 136.778 265.031L130.301 258.554L125.803 263.052L128.632 265.88L130.187 264.324L134.062 268.199C135.477 269.613 135.364 270.745 134.374 271.735C133.384 272.725 132.252 272.838 130.838 271.424L120.005 260.591C118.591 259.177 118.676 258.017 119.666 257.027C120.656 256.037 121.815 255.952 123.23 257.366L125.125 259.261L128.066 256.32L126.369 254.623C123.201 251.455 119.807 251.229 116.752 254.283C113.698 257.338 113.924 260.732 117.092 263.9L127.5 274.309C130.668 277.477 134.062 277.703 137.117 274.648ZM143.753 267.446L152.239 258.961L149.41 256.132L144.036 261.507L137.955 255.425L142.226 251.154L139.398 248.326L135.127 252.597L129.894 247.364L135.268 241.99L132.44 239.162L123.954 247.647L143.753 267.446ZM154.311 256.888L157.027 254.173L142.036 239.182L142.093 239.126L159.346 251.854L161.948 249.251L149.22 231.998L149.277 231.941L164.267 246.932L167.209 243.991L147.41 224.192L142.969 228.632L155.16 244.783L155.103 244.839L138.953 232.649L134.512 237.089L154.311 256.888ZM179.406 232.359C182.461 229.304 182.32 225.825 179.152 222.657L168.743 212.249C165.575 209.081 162.096 208.94 159.042 211.994C155.987 215.049 156.128 218.528 159.296 221.696L169.705 232.104C172.873 235.272 176.352 235.414 179.406 232.359ZM176.578 229.53C175.588 230.52 174.428 230.605 173.014 229.191L162.209 218.386C160.795 216.972 160.88 215.813 161.87 214.823C162.86 213.833 164.02 213.748 165.434 215.162L176.238 225.967C177.653 227.381 177.568 228.541 176.578 229.53ZM190.929 220.836C193.984 217.781 193.842 214.472 190.674 211.304L188.921 209.551C186.913 207.543 184.848 206.722 182.557 207.769L182.5 207.712C183.462 205.619 182.84 203.639 180.718 201.518L180.011 200.811C176.843 197.643 173.534 197.502 170.564 200.471C167.595 203.441 167.764 206.779 170.932 209.947L171.979 210.993L174.92 208.052L173.619 206.751C172.318 205.45 172.375 204.318 173.28 203.413C174.185 202.508 175.401 202.423 176.815 203.837L178.258 205.28C179.842 206.864 179.644 208.08 178.484 209.24L177.353 210.371L180.181 213.199L181.228 212.153C182.642 210.739 183.943 210.795 185.781 212.634L187.394 214.246C189.147 216 189.006 217.103 188.016 218.093C187.026 219.083 185.866 219.167 184.452 217.753L182.698 216L179.757 218.941L181.369 220.553C184.537 223.721 187.874 223.891 190.929 220.836Z" fill="black" fill-opacity="0.3"/>
<path d="M179.615 303.584L182.727 300.473L162.928 280.674L159.817 283.785L179.615 303.584ZM185.34 297.86L188.055 295.144L173.064 280.154L173.121 280.097L190.374 292.825L192.977 290.223L180.249 272.97L180.305 272.913L195.296 287.904L198.237 284.962L178.438 265.163L173.998 269.604L186.188 285.754L186.132 285.811L169.981 273.62L165.541 278.061L185.34 297.86ZM200.022 283.178L202.907 280.293L199.597 275.852L203.133 272.317L203.076 272.26L207.574 275.626L210.685 272.515L187.661 255.94L183.447 260.154L200.022 283.178ZM197.278 272.797L188.849 261.653L188.906 261.597L200.078 269.997L197.278 272.797ZM217.117 266.648C220.172 263.593 219.946 260.199 216.778 257.031L210.301 250.554L205.803 255.052L208.632 257.88L210.187 256.324L214.062 260.199C215.477 261.613 215.364 262.745 214.374 263.735C213.384 264.725 212.252 264.838 210.838 263.424L200.005 252.591C198.591 251.177 198.676 250.017 199.666 249.027C200.656 248.037 201.815 247.952 203.23 249.366L205.125 251.261L208.066 248.32L206.369 246.623C203.201 243.455 199.807 243.229 196.752 246.283C193.698 249.338 193.924 252.732 197.092 255.9L207.5 266.309C210.668 269.477 214.062 269.703 217.117 266.648ZM223.753 259.446L232.239 250.961L229.41 248.132L224.036 253.507L217.955 247.425L222.226 243.154L219.398 240.326L215.127 244.597L209.894 239.364L215.268 233.99L212.44 231.162L203.954 239.647L223.753 259.446ZM234.311 248.888L237.027 246.173L222.036 231.182L222.093 231.126L239.346 243.854L241.948 241.251L229.22 223.998L229.277 223.941L244.267 238.932L247.209 235.991L227.41 216.192L222.969 220.632L235.16 236.783L235.103 236.839L218.953 224.649L214.512 229.089L234.311 248.888ZM259.406 224.359C262.461 221.304 262.32 217.825 259.152 214.657L248.743 204.249C245.575 201.081 242.096 200.94 239.042 203.994C235.987 207.049 236.128 210.528 239.296 213.696L249.705 224.104C252.873 227.272 256.352 227.414 259.406 224.359ZM256.578 221.53C255.588 222.52 254.428 222.605 253.014 221.191L242.209 210.386C240.795 208.972 240.88 207.813 241.87 206.823C242.86 205.833 244.02 205.748 245.434 207.162L256.238 217.967C257.653 219.381 257.568 220.541 256.578 221.53ZM270.929 212.836C273.984 209.781 273.842 206.472 270.674 203.304L268.921 201.551C266.913 199.543 264.848 198.722 262.557 199.769L262.5 199.712C263.462 197.619 262.84 195.639 260.718 193.518L260.011 192.811C256.843 189.643 253.534 189.502 250.564 192.471C247.595 195.441 247.764 198.779 250.932 201.947L251.979 202.993L254.92 200.052L253.619 198.751C252.318 197.45 252.375 196.318 253.28 195.413C254.185 194.508 255.401 194.423 256.815 195.837L258.258 197.28C259.842 198.864 259.644 200.08 258.484 201.24L257.353 202.371L260.181 205.199L261.228 204.153C262.642 202.739 263.943 202.795 265.781 204.634L267.394 206.246C269.147 208 269.006 209.103 268.016 210.093C267.026 211.083 265.866 211.167 264.452 209.753L262.698 208L259.757 210.941L261.369 212.553C264.537 215.721 267.874 215.891 270.929 212.836Z" fill="black" fill-opacity="0.3"/>
<path d="M285.615 272.584L288.727 269.473L268.928 249.674L265.817 252.785L285.615 272.584ZM291.34 266.86L294.055 264.144L279.064 249.154L279.121 249.097L296.374 261.825L298.977 259.223L286.249 241.97L286.305 241.913L301.296 256.904L304.237 253.962L284.438 234.163L279.998 238.604L292.188 254.754L292.132 254.811L275.981 242.62L271.541 247.061L291.34 266.86ZM306.022 252.178L308.907 249.293L305.597 244.852L309.133 241.317L309.076 241.26L313.574 244.626L316.685 241.515L293.661 224.94L289.447 229.154L306.022 252.178ZM303.278 241.797L294.849 230.653L294.906 230.597L306.078 238.997L303.278 241.797ZM323.117 235.648C326.172 232.593 325.946 229.199 322.778 226.031L316.301 219.554L311.803 224.052L314.632 226.88L316.187 225.324L320.062 229.199C321.477 230.613 321.364 231.745 320.374 232.735C319.384 233.725 318.252 233.838 316.838 232.424L306.005 221.591C304.591 220.177 304.676 219.017 305.666 218.027C306.656 217.037 307.815 216.952 309.23 218.366L311.125 220.261L314.066 217.32L312.369 215.623C309.201 212.455 305.807 212.229 302.752 215.283C299.698 218.338 299.924 221.732 303.092 224.9L313.5 235.309C316.668 238.477 320.062 238.703 323.117 235.648ZM329.753 228.446L338.239 219.961L335.41 217.132L330.036 222.507L323.955 216.425L328.226 212.154L325.398 209.326L321.127 213.597L315.894 208.364L321.268 202.99L318.44 200.162L309.954 208.647L329.753 228.446ZM340.311 217.888L343.027 215.173L328.036 200.182L328.093 200.126L345.346 212.854L347.948 210.251L335.22 192.998L335.277 192.941L350.267 207.932L353.209 204.991L333.41 185.192L328.969 189.632L341.16 205.783L341.103 205.839L324.953 193.649L320.512 198.089L340.311 217.888ZM365.406 193.359C368.461 190.304 368.32 186.825 365.152 183.657L354.743 173.249C351.575 170.081 348.096 169.94 345.042 172.994C341.987 176.049 342.128 179.528 345.296 182.696L355.705 193.104C358.873 196.272 362.352 196.414 365.406 193.359ZM362.578 190.53C361.588 191.52 360.428 191.605 359.014 190.191L348.209 179.386C346.795 177.972 346.88 176.813 347.87 175.823C348.86 174.833 350.02 174.748 351.434 176.162L362.238 186.967C363.653 188.381 363.568 189.541 362.578 190.53ZM376.59 181.61L379.701 178.499L359.902 158.7L357.809 160.793C359.025 163.423 358.657 164.922 356.027 167.553L358.233 169.759L361.486 166.506L376.59 181.61Z" fill="black" fill-opacity="0.3"/>
<path d="M15.6155 321.584L18.7268 318.473L-1.07222 298.674L-4.18349 301.785L15.6155 321.584ZM21.3397 315.86L24.055 313.144L9.06437 298.154L9.12094 298.097L26.3743 310.825L28.9765 308.223L16.2486 290.97L16.3051 290.913L31.2958 305.904L34.2374 302.962L14.4384 283.163L9.99775 287.604L22.1883 303.754L22.1317 303.811L5.98139 291.62L1.54076 296.061L21.3397 315.86ZM36.0217 301.178L38.9067 298.293L35.5975 293.852L39.133 290.317L39.0764 290.26L43.5736 293.626L46.6849 290.515L23.6615 273.94L19.4471 278.154L36.0217 301.178ZM33.2781 290.797L24.8494 279.653L24.906 279.597L36.0783 287.997L33.2781 290.797ZM53.1171 284.648C56.1718 281.593 55.9456 278.199 52.7777 275.031L46.3006 268.554L41.8034 273.052L44.6318 275.88L46.1875 274.324L50.0624 278.199C51.4766 279.613 51.3635 280.745 50.3736 281.735C49.3836 282.725 48.2522 282.838 46.838 281.424L36.0051 270.591C34.5909 269.177 34.6758 268.017 35.6657 267.027C36.6557 266.037 37.8153 265.952 39.2296 267.366L41.1246 269.261L44.0662 266.32L42.3691 264.623C39.2013 261.455 35.8072 261.229 32.7525 264.283C29.6978 267.338 29.924 270.732 33.0919 273.9L43.5005 284.309C46.6683 287.477 50.0624 287.703 53.1171 284.648ZM59.7533 277.446L68.2386 268.961L65.4102 266.132L60.0362 271.507L53.955 265.425L58.226 261.154L55.3975 258.326L51.1266 262.597L45.894 257.364L51.268 251.99L48.4396 249.162L39.9543 257.647L59.7533 277.446ZM70.3113 266.888L73.0266 264.173L58.0359 249.182L58.0925 249.126L75.3459 261.854L77.9481 259.251L65.2201 241.998L65.2767 241.941L80.2674 256.932L83.2089 253.991L63.4099 234.192L58.9693 238.632L71.1598 254.783L71.1033 254.839L54.953 242.649L50.5123 247.089L70.3113 266.888ZM95.4063 242.359C98.461 239.304 98.3196 235.825 95.1518 232.657L84.7431 222.249C81.5753 219.081 78.0963 218.94 75.0416 221.994C71.9869 225.049 72.1284 228.528 75.2962 231.696L85.7048 242.104C88.8726 245.272 92.3516 245.414 95.4063 242.359ZM92.5779 239.53C91.5879 240.52 90.4283 240.605 89.0141 239.191L78.2095 228.386C76.7953 226.972 76.8801 225.813 77.8701 224.823C78.86 223.833 80.0197 223.748 81.4339 225.162L92.2385 235.967C93.6527 237.381 93.5678 238.541 92.5779 239.53ZM106.929 230.836C109.984 227.781 109.842 224.472 106.674 221.304L104.921 219.551C102.913 217.543 100.848 216.722 98.5569 217.769L98.5003 217.712C99.462 215.619 98.8398 213.639 96.7184 211.518L96.0113 210.811C92.8435 207.643 89.5342 207.502 86.5644 210.471C83.5945 213.441 83.7642 216.779 86.9321 219.947L87.9786 220.993L90.9202 218.052L89.6191 216.751C88.318 215.45 88.3746 214.318 89.2797 213.413C90.1848 212.508 91.401 212.423 92.8152 213.837L94.2577 215.28C95.8416 216.864 95.6436 218.08 94.484 219.24L93.3526 220.371L96.181 223.199L97.2275 222.153C98.6418 220.739 99.9428 220.795 101.781 222.634L103.394 224.246C105.147 226 105.006 227.103 104.016 228.093C103.026 229.083 101.866 229.167 100.452 227.753L98.6983 226L95.7568 228.941L97.369 230.553C100.537 233.721 103.874 233.891 106.929 230.836Z" fill="black" fill-opacity="0.3"/>
<path d="M-45.3845 170.584L-42.2732 167.473L-62.0722 147.674L-65.1835 150.785L-45.3845 170.584ZM-39.6603 164.86L-36.945 162.144L-51.9356 147.154L-51.8791 147.097L-34.6257 159.825L-32.0235 157.223L-44.7514 139.97L-44.6949 139.913L-29.7042 154.904L-26.7626 151.962L-46.5616 132.163L-51.0022 136.604L-38.8117 152.754L-38.8683 152.811L-55.0186 140.62L-59.4592 145.061L-39.6603 164.86ZM-24.9783 150.178L-22.0933 147.293L-25.4025 142.852L-21.867 139.317L-21.9236 139.26L-17.4264 142.626L-14.3151 139.515L-37.3385 122.94L-41.5529 127.154L-24.9783 150.178ZM-27.7219 139.797L-36.1506 128.653L-36.094 128.597L-24.9217 136.997L-27.7219 139.797ZM-7.88287 133.648C-4.82817 130.593 -5.05444 127.199 -8.22228 124.031L-14.6994 117.554L-19.1966 122.052L-16.3682 124.88L-14.8125 123.324L-10.9376 127.199C-9.52336 128.613 -9.6365 129.745 -10.6264 130.735C-11.6164 131.725 -12.7478 131.838 -14.162 130.424L-24.9949 119.591C-26.4091 118.177 -26.3242 117.017 -25.3343 116.027C-24.3443 115.037 -23.1847 114.952 -21.7704 116.366L-19.8754 118.261L-16.9338 115.32L-18.6309 113.623C-21.7987 110.455 -25.1928 110.229 -28.2475 113.283C-31.3022 116.338 -31.076 119.732 -27.9081 122.9L-17.4995 133.309C-14.3317 136.477 -10.9376 136.703 -7.88287 133.648ZM-1.24668 126.446L7.23861 117.961L4.41018 115.132L-0.963834 120.507L-7.04495 114.425L-2.77403 110.154L-5.60245 107.326L-9.87338 111.597L-15.106 106.364L-9.73196 100.99L-12.5604 98.1619L-21.0457 106.647L-1.24668 126.446ZM9.31131 115.888L12.0266 113.173L-2.96406 98.1823L-2.90749 98.1257L14.3459 110.854L16.9481 108.251L4.22014 90.9981L4.27671 90.9415L19.2674 105.932L22.2089 102.991L2.40995 83.1916L-2.03068 87.6322L10.1598 103.783L10.1033 103.839L-6.04705 91.6486L-10.4877 96.0892L9.31131 115.888ZM34.4063 91.3589C37.461 88.3042 37.3196 84.8252 34.1518 81.6574L23.7431 71.2488C20.5753 68.0809 17.0963 67.9395 14.0416 70.9942C10.9869 74.0489 11.1284 77.5279 14.2962 80.6957L24.7048 91.1043C27.8726 94.2722 31.3516 94.4136 34.4063 91.3589ZM31.5779 88.5305C30.5879 89.5204 29.4283 89.6053 28.0141 88.1911L17.2095 77.3865C15.7953 75.9723 15.8801 74.8126 16.8701 73.8227C17.86 72.8327 19.0197 72.7479 20.4339 74.1621L31.2385 84.9667C32.6527 86.3809 32.5678 87.5405 31.5779 88.5305ZM45.9291 79.8362C48.9838 76.7815 48.8423 73.4722 45.6745 70.3044L43.9209 68.5507C41.9127 66.5426 39.8479 65.7223 37.5569 66.7688L37.5003 66.7123C38.462 64.6192 37.8398 62.6393 35.7184 60.518L35.0113 59.8109C31.8435 56.6431 28.5342 56.5016 25.5644 59.4715C22.5945 62.4413 22.7642 65.7789 25.9321 68.9467L26.9786 69.9932L29.9202 67.0517L28.6191 65.7506C27.318 64.4495 27.3746 63.3181 28.2797 62.413C29.1848 61.508 30.401 61.4231 31.8152 62.8373L33.2577 64.2798C34.8416 65.8637 34.6436 67.08 33.484 68.2396L32.3526 69.371L35.181 72.1994L36.2275 71.1529C37.6418 69.7387 38.9428 69.7952 40.7813 71.6337L42.3935 73.2459C44.1471 74.9995 44.0057 76.1026 43.0158 77.0926C42.0258 78.0825 40.8662 78.1674 39.452 76.7532L37.6983 74.9995L34.7568 77.9411L36.369 79.5533C39.5368 82.7212 42.8744 82.8909 45.9291 79.8362Z" fill="black" fill-opacity="0.3"/>
<path d="M-62.3845 258.584L-59.2732 255.473L-79.0722 235.674L-82.1835 238.785L-62.3845 258.584ZM-56.6603 252.86L-53.945 250.144L-68.9356 235.154L-68.8791 235.097L-51.6257 247.825L-49.0235 245.223L-61.7514 227.97L-61.6949 227.913L-46.7042 242.904L-43.7626 239.962L-63.5616 220.163L-68.0022 224.604L-55.8117 240.754L-55.8683 240.811L-72.0186 228.62L-76.4592 233.061L-56.6603 252.86ZM-41.9783 238.178L-39.0933 235.293L-42.4025 230.852L-38.867 227.317L-38.9236 227.26L-34.4264 230.626L-31.3151 227.515L-54.3385 210.94L-58.5529 215.154L-41.9783 238.178ZM-44.7219 227.797L-53.1506 216.653L-53.094 216.597L-41.9217 224.997L-44.7219 227.797ZM-24.8829 221.648C-21.8282 218.593 -22.0544 215.199 -25.2223 212.031L-31.6994 205.554L-36.1966 210.052L-33.3682 212.88L-31.8125 211.324L-27.9376 215.199C-26.5234 216.613 -26.6365 217.745 -27.6264 218.735C-28.6164 219.725 -29.7478 219.838 -31.162 218.424L-41.9949 207.591C-43.4091 206.177 -43.3242 205.017 -42.3343 204.027C-41.3443 203.037 -40.1847 202.952 -38.7704 204.366L-36.8754 206.261L-33.9338 203.32L-35.6309 201.623C-38.7987 198.455 -42.1928 198.229 -45.2475 201.283C-48.3022 204.338 -48.076 207.732 -44.9081 210.9L-34.4995 221.309C-31.3317 224.477 -27.9376 224.703 -24.8829 221.648ZM-18.2467 214.446L-9.76139 205.961L-12.5898 203.132L-17.9638 208.507L-24.045 202.425L-19.774 198.154L-22.6025 195.326L-26.8734 199.597L-32.106 194.364L-26.732 188.99L-29.5604 186.162L-38.0457 194.647L-18.2467 214.446ZM-7.68869 203.888L-4.9734 201.173L-19.9641 186.182L-19.9075 186.126L-2.65409 198.854L-0.0519341 196.251L-12.7799 178.998L-12.7233 178.941L2.26738 193.932L5.20894 190.991L-14.5901 171.192L-19.0307 175.632L-6.84016 191.783L-6.89673 191.839L-23.047 179.649L-27.4877 184.089L-7.68869 203.888ZM17.4063 179.359C20.461 176.304 20.3196 172.825 17.1518 169.657L6.74314 159.249C3.5753 156.081 0.0963387 155.94 -2.95836 158.994C-6.01306 162.049 -5.87164 165.528 -2.7038 168.696L7.70481 179.104C10.8726 182.272 14.3516 182.414 17.4063 179.359ZM14.5779 176.53C13.5879 177.52 12.4283 177.605 11.0141 176.191L0.209476 165.386C-1.20474 163.972 -1.11988 162.813 -0.129936 161.823C0.860014 160.833 2.01967 160.748 3.43388 162.162L14.2385 172.967C15.6527 174.381 15.5678 175.541 14.5779 176.53ZM28.9291 167.836C31.9838 164.781 31.8423 161.472 28.6745 158.304L26.9209 156.551C24.9127 154.543 22.8479 153.722 20.5569 154.769L20.5003 154.712C21.462 152.619 20.8398 150.639 18.7184 148.518L18.0113 147.811C14.8435 144.643 11.5342 144.502 8.56438 147.471C5.59453 150.441 5.76424 153.779 8.93208 156.947L9.97859 157.993L12.9202 155.052L11.6191 153.751C10.318 152.45 10.3746 151.318 11.2797 150.413C12.1848 149.508 13.401 149.423 14.8152 150.837L16.2577 152.28C17.8416 153.864 17.6436 155.08 16.484 156.24L15.3526 157.371L18.181 160.199L19.2275 159.153C20.6418 157.739 21.9428 157.795 23.7813 159.634L25.3935 161.246C27.1471 163 27.0057 164.103 26.0158 165.093C25.0258 166.083 23.8662 166.167 22.452 164.753L20.6983 163L17.7568 165.941L19.369 167.553C22.5368 170.721 25.8744 170.891 28.9291 167.836Z" fill="black" fill-opacity="0.3"/>
<path d="M-74.3845 346.584L-71.2732 343.473L-91.0722 323.674L-94.1835 326.785L-74.3845 346.584ZM-68.6603 340.86L-65.945 338.144L-80.9356 323.154L-80.8791 323.097L-63.6257 335.825L-61.0235 333.223L-73.7514 315.97L-73.6949 315.913L-58.7042 330.904L-55.7626 327.962L-75.5616 308.163L-80.0022 312.604L-67.8117 328.754L-67.8683 328.811L-84.0186 316.62L-88.4592 321.061L-68.6603 340.86ZM-53.9783 326.178L-51.0933 323.293L-54.4025 318.852L-50.867 315.317L-50.9236 315.26L-46.4264 318.626L-43.3151 315.515L-66.3385 298.94L-70.5529 303.154L-53.9783 326.178ZM-56.7219 315.797L-65.1506 304.653L-65.094 304.597L-53.9217 312.997L-56.7219 315.797ZM-36.8829 309.648C-33.8282 306.593 -34.0544 303.199 -37.2223 300.031L-43.6994 293.554L-48.1966 298.052L-45.3682 300.88L-43.8125 299.324L-39.9376 303.199C-38.5234 304.613 -38.6365 305.745 -39.6264 306.735C-40.6164 307.725 -41.7478 307.838 -43.162 306.424L-53.9949 295.591C-55.4091 294.177 -55.3242 293.017 -54.3343 292.027C-53.3443 291.037 -52.1847 290.952 -50.7704 292.366L-48.8754 294.261L-45.9338 291.32L-47.6309 289.623C-50.7987 286.455 -54.1928 286.229 -57.2475 289.283C-60.3022 292.338 -60.076 295.732 -56.9081 298.9L-46.4995 309.309C-43.3317 312.477 -39.9376 312.703 -36.8829 309.648ZM-30.2467 302.446L-21.7614 293.961L-24.5898 291.132L-29.9638 296.507L-36.045 290.425L-31.774 286.154L-34.6025 283.326L-38.8734 287.597L-44.106 282.364L-38.732 276.99L-41.5604 274.162L-50.0457 282.647L-30.2467 302.446ZM-19.6887 291.888L-16.9734 289.173L-31.9641 274.182L-31.9075 274.126L-14.6541 286.854L-12.0519 284.251L-24.7799 266.998L-24.7233 266.941L-9.73262 281.932L-6.79106 278.991L-26.5901 259.192L-31.0307 263.632L-18.8402 279.783L-18.8967 279.839L-35.047 267.649L-39.4877 272.089L-19.6887 291.888ZM5.40631 267.359C8.46101 264.304 8.31959 260.825 5.15175 257.657L-5.25686 247.249C-8.4247 244.081 -11.9037 243.94 -14.9584 246.994C-18.0131 250.049 -17.8716 253.528 -14.7038 256.696L-4.29519 267.104C-1.12735 270.272 2.35161 270.414 5.40631 267.359ZM2.57789 264.53C1.58794 265.52 0.428281 265.605 -0.985933 264.191L-11.7905 253.386C-13.2047 251.972 -13.1199 250.813 -12.1299 249.823C-11.14 248.833 -9.98033 248.748 -8.56612 250.162L2.23847 260.967C3.65269 262.381 3.56784 263.541 2.57789 264.53ZM16.9291 255.836C19.9838 252.781 19.8423 249.472 16.6745 246.304L14.9209 244.551C12.9127 242.543 10.8479 241.722 8.55691 242.769L8.50034 242.712C9.46201 240.619 8.83975 238.639 6.71843 236.518L6.01133 235.811C2.84349 232.643 -0.465772 232.502 -3.43562 235.471C-6.40547 238.441 -6.23576 241.779 -3.06792 244.947L-2.02141 245.993L0.920157 243.052L-0.380919 241.751C-1.682 240.45 -1.62543 239.318 -0.72033 238.413C0.184767 237.508 1.40099 237.423 2.8152 238.837L4.2577 240.28C5.84162 241.864 5.64363 243.08 4.48398 244.24L3.3526 245.371L6.18103 248.199L7.22755 247.153C8.64176 245.739 9.94284 245.795 11.7813 247.634L13.3935 249.246C15.1471 251 15.0057 252.103 14.0158 253.093C13.0258 254.083 11.8662 254.167 10.452 252.753L8.69833 251L5.75677 253.941L7.36897 255.553C10.5368 258.721 13.8744 258.891 16.9291 255.836Z" fill="black" fill-opacity="0.3"/>
<path d="M-8.3845 420.584L-5.27323 417.473L-25.0722 397.674L-28.1835 400.785L-8.3845 420.584ZM-2.66025 414.86L0.055039 412.144L-14.9356 397.154L-14.8791 397.097L2.37435 409.825L4.9765 407.223L-7.75142 389.97L-7.69485 389.913L7.29581 404.904L10.2374 401.962L-9.56161 382.163L-14.0022 386.604L-1.81172 402.754L-1.86829 402.811L-18.0186 390.62L-22.4592 395.061L-2.66025 414.86ZM12.0217 400.178L14.9067 397.293L11.5975 392.852L15.133 389.317L15.0764 389.26L19.5736 392.626L22.6849 389.515L-0.338512 372.94L-4.55287 377.154L12.0217 400.178ZM9.27814 389.797L0.849429 378.653L0.905997 378.597L12.0783 386.997L9.27814 389.797ZM29.1171 383.648C32.1718 380.593 31.9456 377.199 28.7777 374.031L22.3006 367.554L17.8034 372.052L20.6318 374.88L22.1875 373.324L26.0624 377.199C27.4766 378.613 27.3635 379.745 26.3736 380.735C25.3836 381.725 24.2522 381.838 22.838 380.424L12.0051 369.591C10.5909 368.177 10.6758 367.017 11.6657 366.027C12.6557 365.037 13.8153 364.952 15.2296 366.366L17.1246 368.261L20.0662 365.32L18.3691 363.623C15.2013 360.455 11.8072 360.229 8.75245 363.283C5.69775 366.338 5.92402 369.732 9.09186 372.9L19.5005 383.309C22.6683 386.477 26.0624 386.703 29.1171 383.648ZM35.7533 376.446L44.2386 367.961L41.4102 365.132L36.0362 370.507L29.955 364.425L34.226 360.154L31.3975 357.326L27.1266 361.597L21.894 356.364L27.268 350.99L24.4396 348.162L15.9543 356.647L35.7533 376.446ZM46.3113 365.888L49.0266 363.173L34.0359 348.182L34.0925 348.126L51.3459 360.854L53.9481 358.251L41.2201 340.998L41.2767 340.941L56.2674 355.932L59.2089 352.991L39.4099 333.192L34.9693 337.632L47.1598 353.783L47.1033 353.839L30.953 341.649L26.5123 346.089L46.3113 365.888ZM71.4063 341.359C74.461 338.304 74.3196 334.825 71.1518 331.657L60.7431 321.249C57.5753 318.081 54.0963 317.94 51.0416 320.994C47.9869 324.049 48.1284 327.528 51.2962 330.696L61.7048 341.104C64.8726 344.272 68.3516 344.414 71.4063 341.359ZM68.5779 338.53C67.5879 339.52 66.4283 339.605 65.0141 338.191L54.2095 327.386C52.7953 325.972 52.8801 324.813 53.8701 323.823C54.86 322.833 56.0197 322.748 57.4339 324.162L68.2385 334.967C69.6527 336.381 69.5678 337.541 68.5779 338.53ZM82.9291 329.836C85.9838 326.781 85.8423 323.472 82.6745 320.304L80.9209 318.551C78.9127 316.543 76.8479 315.722 74.5569 316.769L74.5003 316.712C75.462 314.619 74.8398 312.639 72.7184 310.518L72.0113 309.811C68.8435 306.643 65.5342 306.502 62.5644 309.471C59.5945 312.441 59.7642 315.779 62.9321 318.947L63.9786 319.993L66.9202 317.052L65.6191 315.751C64.318 314.45 64.3746 313.318 65.2797 312.413C66.1848 311.508 67.401 311.423 68.8152 312.837L70.2577 314.28C71.8416 315.864 71.6436 317.08 70.484 318.24L69.3526 319.371L72.181 322.199L73.2275 321.153C74.6418 319.739 75.9428 319.795 77.7813 321.634L79.3935 323.246C81.1471 325 81.0057 326.103 80.0158 327.093C79.0258 328.083 77.8662 328.167 76.452 326.753L74.6983 325L71.7568 327.941L73.369 329.553C76.5368 332.721 79.8744 332.891 82.9291 329.836Z" fill="black" fill-opacity="0.3"/>
<path d="M71.6155 412.584L74.7268 409.473L54.9278 389.674L51.8165 392.785L71.6155 412.584ZM77.3397 406.86L80.055 404.144L65.0644 389.154L65.1209 389.097L82.3743 401.825L84.9765 399.223L72.2486 381.97L72.3051 381.913L87.2958 396.904L90.2374 393.962L70.4384 374.163L65.9978 378.604L78.1883 394.754L78.1317 394.811L61.9814 382.62L57.5408 387.061L77.3397 406.86ZM92.0217 392.178L94.9067 389.293L91.5975 384.852L95.133 381.317L95.0764 381.26L99.5736 384.626L102.685 381.515L79.6615 364.94L75.4471 369.154L92.0217 392.178ZM89.2781 381.797L80.8494 370.653L80.906 370.597L92.0783 378.997L89.2781 381.797ZM109.117 375.648C112.172 372.593 111.946 369.199 108.778 366.031L102.301 359.554L97.8034 364.052L100.632 366.88L102.187 365.324L106.062 369.199C107.477 370.613 107.364 371.745 106.374 372.735C105.384 373.725 104.252 373.838 102.838 372.424L92.0051 361.591C90.5909 360.177 90.6758 359.017 91.6657 358.027C92.6557 357.037 93.8153 356.952 95.2296 358.366L97.1246 360.261L100.066 357.32L98.3691 355.623C95.2013 352.455 91.8072 352.229 88.7525 355.283C85.6978 358.338 85.924 361.732 89.0919 364.9L99.5005 375.309C102.668 378.477 106.062 378.703 109.117 375.648ZM115.753 368.446L124.239 359.961L121.41 357.132L116.036 362.507L109.955 356.425L114.226 352.154L111.398 349.326L107.127 353.597L101.894 348.364L107.268 342.99L104.44 340.162L95.9543 348.647L115.753 368.446ZM126.311 357.888L129.027 355.173L114.036 340.182L114.093 340.126L131.346 352.854L133.948 350.251L121.22 332.998L121.277 332.941L136.267 347.932L139.209 344.991L119.41 325.192L114.969 329.632L127.16 345.783L127.103 345.839L110.953 333.649L106.512 338.089L126.311 357.888ZM151.406 333.359C154.461 330.304 154.32 326.825 151.152 323.657L140.743 313.249C137.575 310.081 134.096 309.94 131.042 312.994C127.987 316.049 128.128 319.528 131.296 322.696L141.705 333.104C144.873 336.272 148.352 336.414 151.406 333.359ZM148.578 330.53C147.588 331.52 146.428 331.605 145.014 330.191L134.209 319.386C132.795 317.972 132.88 316.813 133.87 315.823C134.86 314.833 136.02 314.748 137.434 316.162L148.238 326.967C149.653 328.381 149.568 329.541 148.578 330.53ZM162.929 321.836C165.984 318.781 165.842 315.472 162.674 312.304L160.921 310.551C158.913 308.543 156.848 307.722 154.557 308.769L154.5 308.712C155.462 306.619 154.84 304.639 152.718 302.518L152.011 301.811C148.843 298.643 145.534 298.502 142.564 301.471C139.595 304.441 139.764 307.779 142.932 310.947L143.979 311.993L146.92 309.052L145.619 307.751C144.318 306.45 144.375 305.318 145.28 304.413C146.185 303.508 147.401 303.423 148.815 304.837L150.258 306.28C151.842 307.864 151.644 309.08 150.484 310.24L149.353 311.371L152.181 314.199L153.228 313.153C154.642 311.739 155.943 311.795 157.781 313.634L159.394 315.246C161.147 317 161.006 318.103 160.016 319.093C159.026 320.083 157.866 320.167 156.452 318.753L154.698 317L151.757 319.941L153.369 321.553C156.537 324.721 159.874 324.891 162.929 321.836Z" fill="black" fill-opacity="0.3"/>
<path d="M177.615 381.584L180.727 378.473L160.928 358.674L157.817 361.785L177.615 381.584ZM183.34 375.86L186.055 373.144L171.064 358.154L171.121 358.097L188.374 370.825L190.977 368.223L178.249 350.97L178.305 350.913L193.296 365.904L196.237 362.962L176.438 343.163L171.998 347.604L184.188 363.754L184.132 363.811L167.981 351.62L163.541 356.061L183.34 375.86ZM198.022 361.178L200.907 358.293L197.597 353.852L201.133 350.317L201.076 350.26L205.574 353.626L208.685 350.515L185.661 333.94L181.447 338.154L198.022 361.178ZM195.278 350.797L186.849 339.653L186.906 339.597L198.078 347.997L195.278 350.797ZM215.117 344.648C218.172 341.593 217.946 338.199 214.778 335.031L208.301 328.554L203.803 333.052L206.632 335.88L208.187 334.324L212.062 338.199C213.477 339.613 213.364 340.745 212.374 341.735C211.384 342.725 210.252 342.838 208.838 341.424L198.005 330.591C196.591 329.177 196.676 328.017 197.666 327.027C198.656 326.037 199.815 325.952 201.23 327.366L203.125 329.261L206.066 326.32L204.369 324.623C201.201 321.455 197.807 321.229 194.752 324.283C191.698 327.338 191.924 330.732 195.092 333.9L205.5 344.309C208.668 347.477 212.062 347.703 215.117 344.648ZM221.753 337.446L230.239 328.961L227.41 326.132L222.036 331.507L215.955 325.425L220.226 321.154L217.398 318.326L213.127 322.597L207.894 317.364L213.268 311.99L210.44 309.162L201.954 317.647L221.753 337.446ZM232.311 326.888L235.027 324.173L220.036 309.182L220.093 309.126L237.346 321.854L239.948 319.251L227.22 301.998L227.277 301.941L242.267 316.932L245.209 313.991L225.41 294.192L220.969 298.632L233.16 314.783L233.103 314.839L216.953 302.649L212.512 307.089L232.311 326.888ZM257.406 302.359C260.461 299.304 260.32 295.825 257.152 292.657L246.743 282.249C243.575 279.081 240.096 278.94 237.042 281.994C233.987 285.049 234.128 288.528 237.296 291.696L247.705 302.104C250.873 305.272 254.352 305.414 257.406 302.359ZM254.578 299.53C253.588 300.52 252.428 300.605 251.014 299.191L240.209 288.386C238.795 286.972 238.88 285.813 239.87 284.823C240.86 283.833 242.02 283.748 243.434 285.162L254.238 295.967C255.653 297.381 255.568 298.541 254.578 299.53ZM268.929 290.836C271.984 287.781 271.842 284.472 268.674 281.304L266.921 279.551C264.913 277.543 262.848 276.722 260.557 277.769L260.5 277.712C261.462 275.619 260.84 273.639 258.718 271.518L258.011 270.811C254.843 267.643 251.534 267.502 248.564 270.471C245.595 273.441 245.764 276.779 248.932 279.947L249.979 280.993L252.92 278.052L251.619 276.751C250.318 275.45 250.375 274.318 251.28 273.413C252.185 272.508 253.401 272.423 254.815 273.837L256.258 275.28C257.842 276.864 257.644 278.08 256.484 279.24L255.353 280.371L258.181 283.199L259.228 282.153C260.642 280.739 261.943 280.795 263.781 282.634L265.394 284.246C267.147 286 267.006 287.103 266.016 288.093C265.026 289.083 263.866 289.167 262.452 287.753L260.698 286L257.757 288.941L259.369 290.553C262.537 293.721 265.874 293.891 268.929 290.836Z" fill="black" fill-opacity="0.3"/>
<path d="M283.615 350.584L286.727 347.473L266.928 327.674L263.817 330.785L283.615 350.584ZM289.34 344.86L292.055 342.144L277.064 327.154L277.121 327.097L294.374 339.825L296.977 337.223L284.249 319.97L284.305 319.913L299.296 334.904L302.237 331.962L282.438 312.163L277.998 316.604L290.188 332.754L290.132 332.811L273.981 320.62L269.541 325.061L289.34 344.86ZM304.022 330.178L306.907 327.293L303.597 322.852L307.133 319.317L307.076 319.26L311.574 322.626L314.685 319.515L291.661 302.94L287.447 307.154L304.022 330.178ZM301.278 319.797L292.849 308.653L292.906 308.597L304.078 316.997L301.278 319.797ZM321.117 313.648C324.172 310.593 323.946 307.199 320.778 304.031L314.301 297.554L309.803 302.052L312.632 304.88L314.187 303.324L318.062 307.199C319.477 308.613 319.364 309.745 318.374 310.735C317.384 311.725 316.252 311.838 314.838 310.424L304.005 299.591C302.591 298.177 302.676 297.017 303.666 296.027C304.656 295.037 305.815 294.952 307.23 296.366L309.125 298.261L312.066 295.32L310.369 293.623C307.201 290.455 303.807 290.229 300.752 293.283C297.698 296.338 297.924 299.732 301.092 302.9L311.5 313.309C314.668 316.477 318.062 316.703 321.117 313.648ZM327.753 306.446L336.239 297.961L333.41 295.132L328.036 300.507L321.955 294.425L326.226 290.154L323.398 287.326L319.127 291.597L313.894 286.364L319.268 280.99L316.44 278.162L307.954 286.647L327.753 306.446ZM338.311 295.888L341.027 293.173L326.036 278.182L326.093 278.126L343.346 290.854L345.948 288.251L333.22 270.998L333.277 270.941L348.267 285.932L351.209 282.991L331.41 263.192L326.969 267.632L339.16 283.783L339.103 283.839L322.953 271.649L318.512 276.089L338.311 295.888ZM363.406 271.359C366.461 268.304 366.32 264.825 363.152 261.657L352.743 251.249C349.575 248.081 346.096 247.94 343.042 250.994C339.987 254.049 340.128 257.528 343.296 260.696L353.705 271.104C356.873 274.272 360.352 274.414 363.406 271.359ZM360.578 268.53C359.588 269.52 358.428 269.605 357.014 268.191L346.209 257.386C344.795 255.972 344.88 254.813 345.87 253.823C346.86 252.833 348.02 252.748 349.434 254.162L360.238 264.967C361.653 266.381 361.568 267.541 360.578 268.53ZM374.59 259.61L377.701 256.499L357.902 236.7L355.809 238.793C357.025 241.423 356.657 242.922 354.027 245.553L356.233 247.759L359.486 244.506L374.59 259.61Z" fill="black" fill-opacity="0.3"/>
<path d="M-92.3845 430.584L-89.2732 427.473L-109.072 407.674L-112.183 410.785L-92.3845 430.584ZM-86.6603 424.86L-83.945 422.144L-98.9356 407.154L-98.8791 407.097L-81.6257 419.825L-79.0235 417.223L-91.7514 399.97L-91.6949 399.913L-76.7042 414.904L-73.7626 411.962L-93.5616 392.163L-98.0022 396.604L-85.8117 412.754L-85.8683 412.811L-102.019 400.62L-106.459 405.061L-86.6603 424.86ZM-71.9783 410.178L-69.0933 407.293L-72.4025 402.852L-68.867 399.317L-68.9236 399.26L-64.4264 402.626L-61.3151 399.515L-84.3385 382.94L-88.5529 387.154L-71.9783 410.178ZM-74.7219 399.797L-83.1506 388.653L-83.094 388.597L-71.9217 396.997L-74.7219 399.797ZM-54.8829 393.648C-51.8282 390.593 -52.0544 387.199 -55.2223 384.031L-61.6994 377.554L-66.1966 382.052L-63.3682 384.88L-61.8125 383.324L-57.9376 387.199C-56.5234 388.613 -56.6365 389.745 -57.6264 390.735C-58.6164 391.725 -59.7478 391.838 -61.162 390.424L-71.9949 379.591C-73.4091 378.177 -73.3242 377.017 -72.3343 376.027C-71.3443 375.037 -70.1847 374.952 -68.7704 376.366L-66.8754 378.261L-63.9338 375.32L-65.6309 373.623C-68.7987 370.455 -72.1928 370.229 -75.2475 373.283C-78.3022 376.338 -78.076 379.732 -74.9081 382.9L-64.4995 393.309C-61.3317 396.477 -57.9376 396.703 -54.8829 393.648ZM-48.2467 386.446L-39.7614 377.961L-42.5898 375.132L-47.9638 380.507L-54.045 374.425L-49.774 370.154L-52.6025 367.326L-56.8734 371.597L-62.106 366.364L-56.732 360.99L-59.5604 358.162L-68.0457 366.647L-48.2467 386.446ZM-37.6887 375.888L-34.9734 373.173L-49.9641 358.182L-49.9075 358.126L-32.6541 370.854L-30.0519 368.251L-42.7799 350.998L-42.7233 350.941L-27.7326 365.932L-24.7911 362.991L-44.5901 343.192L-49.0307 347.632L-36.8402 363.783L-36.8967 363.839L-53.047 351.649L-57.4877 356.089L-37.6887 375.888ZM-12.5937 351.359C-9.53899 348.304 -9.68041 344.825 -12.8482 341.657L-23.2569 331.249C-26.4247 328.081 -29.9037 327.94 -32.9584 330.994C-36.0131 334.049 -35.8716 337.528 -32.7038 340.696L-22.2952 351.104C-19.1274 354.272 -15.6484 354.414 -12.5937 351.359ZM-15.4221 348.53C-16.4121 349.52 -17.5717 349.605 -18.9859 348.191L-29.7905 337.386C-31.2047 335.972 -31.1199 334.813 -30.1299 333.823C-29.14 332.833 -27.9803 332.748 -26.5661 334.162L-15.7615 344.967C-14.3473 346.381 -14.4322 347.541 -15.4221 348.53ZM-1.41036 339.61L1.70091 336.499L-18.0981 316.7L-20.1911 318.793C-18.9749 321.423 -19.3426 322.922 -21.973 325.553L-19.7668 327.759L-16.5142 324.506L-1.41036 339.61Z" fill="black" fill-opacity="0.3"/>
<path d="M-7.3845 64.584L-4.27323 61.4728L-24.0722 41.6738L-27.1835 44.785L-7.3845 64.584ZM-1.66025 58.8598L1.05504 56.1445L-13.9356 41.1538L-13.8791 41.0973L3.37435 53.8252L5.9765 51.223L-6.75142 33.9696L-6.69485 33.9131L8.29581 48.9037L11.2374 45.9622L-8.56161 26.1632L-13.0022 30.6038L-0.811723 46.7541L-0.868292 46.8107L-17.0186 34.6202L-21.4592 39.0608L-1.66025 58.8598ZM13.0217 44.1778L15.9067 41.2928L12.5975 36.8522L16.133 33.3167L16.0764 33.2601L20.5736 36.6259L23.6849 33.5146L0.661488 16.9401L-3.55287 21.1544L13.0217 44.1778ZM10.2781 33.7975L1.84943 22.6535L1.906 22.5969L13.0783 30.9973L10.2781 33.7975ZM30.1171 27.6481C33.1718 24.5934 32.9456 21.1993 29.7777 18.0314L23.3006 11.5543L18.8034 16.0515L21.6318 18.88L23.1875 17.3243L27.0624 21.1993C28.4766 22.6135 28.3635 23.7449 27.3736 24.7348C26.3836 25.7248 25.2522 25.8379 23.838 24.4237L13.0051 13.5908C11.5909 12.1766 11.6758 11.0169 12.6657 10.027C13.6557 9.03704 14.8153 8.95218 16.2296 10.3664L18.1246 12.2614L21.0662 9.31988L19.3691 7.62282C16.2013 4.45498 12.8072 4.22871 9.75245 7.28341C6.69775 10.3381 6.92402 13.7322 10.0919 16.9001L20.5005 27.3087C23.6683 30.4765 27.0624 30.7028 30.1171 27.6481ZM36.7533 20.4462L45.2386 11.9609L42.4102 9.1325L37.0362 14.5065L30.955 8.42539L35.226 4.15446L32.3975 1.32604L28.1266 5.59696L22.894 0.364373L28.268 -5.00964L25.4396 -7.83807L16.9543 0.647215L36.7533 20.4462ZM47.3113 9.88822L50.0266 7.17293L35.0359 -7.81774L35.0925 -7.87431L52.3459 4.85362L54.9481 2.25146L42.2201 -15.0019L42.2767 -15.0585L57.2674 -0.0678466L60.2089 -3.00941L40.4099 -22.8084L35.9693 -18.3678L48.1598 -2.21745L48.1033 -2.16088L31.953 -14.3514L27.5123 -9.91077L47.3113 9.88822ZM72.4063 -14.6411C75.461 -17.6958 75.3196 -21.1748 72.1518 -24.3426L61.7431 -34.7512C58.5753 -37.9191 55.0963 -38.0605 52.0416 -35.0058C48.9869 -31.9511 49.1284 -28.4721 52.2962 -25.3043L62.7048 -14.8957C65.8726 -11.7278 69.3516 -11.5864 72.4063 -14.6411ZM69.5779 -17.4695C68.5879 -16.4796 67.4283 -16.3947 66.0141 -17.8089L55.2095 -28.6135C53.7953 -30.0277 53.8801 -31.1874 54.8701 -32.1773C55.86 -33.1673 57.0197 -33.2521 58.4339 -31.8379L69.2385 -21.0333C70.6527 -19.6191 70.5678 -18.4595 69.5779 -17.4695ZM83.5896 -26.3901L86.7009 -29.5014L66.9019 -49.3004L64.8089 -47.2073C66.0251 -44.5769 65.6574 -43.0778 63.027 -40.4474L65.2332 -38.2412L68.4858 -41.4939L83.5896 -26.3901Z" fill="black" fill-opacity="0.3"/>
</g>
<defs>
<clipPath id="clip0_209_340">
<rect width="319" height="320" fill="white"/>
</clipPath>
</defs>
</svg>
