<svg width="319" height="320" viewBox="0 0 319 320" fill="none" xmlns="http://www.w3.org/2000/svg">
<g clip-path="url(#clip0_205_1253)">
<rect width="319" height="320" fill="white"/>
<path d="M152.632 262.844C222.245 262.844 278.678 206.411 278.678 136.798C278.678 67.1847 222.245 10.7519 152.632 10.7519C83.0185 10.7519 26.5858 67.1847 26.5858 136.798C26.5858 206.411 83.0185 262.844 152.632 262.844Z" fill="#F2F6F9"/>
<path d="M310.326 307.202H7.67395C3.43575 307.202 0 310.638 0 314.876C0 319.114 3.43575 322.55 7.67395 322.55H310.326C314.564 322.55 318 319.114 318 314.876C318 310.638 314.564 307.202 310.326 307.202Z" fill="#E1E8EF"/>
<path d="M265.41 285.917C263.673 249.101 284.118 234.103 284.118 234.103C284.118 234.103 288.922 274.903 265.41 285.917Z" fill="#1B67AC"/>
<path d="M284.118 234.089C277.187 258.995 265.354 284.418 265.354 284.418" stroke="#154E82" stroke-miterlimit="10"/>
<path d="M259.227 296.517C287.997 273.481 312.16 281.204 312.16 281.204C312.16 281.204 281.955 309.072 259.227 296.517Z" fill="#1B67AC"/>
<path d="M312.161 281.204C287.934 290.23 260.41 295.593 260.41 295.593" stroke="#154E82" stroke-miterlimit="10"/>
<path d="M258.618 300.242C274.589 256.425 305.796 248.898 305.796 248.898C305.796 248.898 291.442 298.884 258.618 300.242Z" fill="#154E82"/>
<path d="M305.796 248.898C285.526 274.581 259.283 298.464 259.283 298.464" stroke="#1B67AC" stroke-miterlimit="10"/>
<path d="M30.9619 168.553C27.6563 168.553 24.425 169.533 21.6765 171.369C18.928 173.206 16.7858 175.816 15.5208 178.87C14.2559 181.924 13.9249 185.285 14.5698 188.527C15.2146 191.769 16.8064 194.747 19.1438 197.084C21.4812 199.421 24.4592 201.013 27.7013 201.658C30.9433 202.303 34.3038 201.972 37.3578 200.707C40.4117 199.442 43.022 197.3 44.8584 194.551C46.6949 191.803 47.6751 188.572 47.6751 185.266C47.6751 180.833 45.9143 176.582 42.7799 173.448C39.6456 170.314 35.3945 168.553 30.9619 168.553V168.553ZM30.9619 194.529C29.1298 194.529 27.3388 193.986 25.8154 192.968C24.2921 191.95 23.1048 190.504 22.4036 188.811C21.7025 187.118 21.5191 185.256 21.8765 183.459C22.2339 181.662 23.1162 180.011 24.4117 178.716C25.7072 177.42 27.3578 176.538 29.1547 176.181C30.9516 175.823 32.8142 176.007 34.5068 176.708C36.1995 177.409 37.6462 178.596 38.6641 180.12C39.6819 181.643 40.2252 183.434 40.2252 185.266C40.2252 186.482 39.9856 187.687 39.5201 188.811C39.0546 189.935 38.3722 190.956 37.5121 191.816C36.6519 192.676 35.6307 193.359 34.5068 193.824C33.3829 194.29 32.1784 194.529 30.9619 194.529V194.529Z" fill="#B0C9E2"/>
<path d="M32.7613 162.755H29.1484C28.1585 162.755 27.356 163.558 27.356 164.548V167.951C27.356 168.941 28.1585 169.743 29.1484 169.743H32.7613C33.7513 169.743 34.5538 168.941 34.5538 167.951V164.548C34.5538 163.558 33.7513 162.755 32.7613 162.755Z" fill="#B0C9E2"/>
<path d="M16.311 168.071L13.7563 170.625C13.0563 171.325 13.0563 172.46 13.7563 173.16L16.1625 175.567C16.8625 176.267 17.9974 176.267 18.6974 175.567L21.2521 173.012C21.9521 172.312 21.9521 171.177 21.2521 170.477L18.846 168.071C18.146 167.371 17.011 167.371 16.311 168.071Z" fill="#B0C9E2"/>
<path d="M8.44415 183.46V187.072C8.44415 188.062 9.24666 188.865 10.2366 188.865H13.6395C14.6294 188.865 15.4319 188.062 15.4319 187.072V183.46C15.4319 182.47 14.6294 181.667 13.6395 181.667H10.2366C9.24666 181.667 8.44415 182.47 8.44415 183.46Z" fill="#B0C9E2"/>
<path d="M13.7575 199.912L16.3122 202.467C17.0122 203.167 18.1472 203.167 18.8472 202.467L21.2533 200.06C21.9533 199.36 21.9533 198.226 21.2533 197.526L18.6986 194.971C17.9986 194.271 16.8637 194.271 16.1637 194.971L13.7575 197.377C13.0575 198.077 13.0575 199.212 13.7575 199.912Z" fill="#B0C9E2"/>
<path d="M29.1554 207.784H32.7683C33.7583 207.784 34.5608 206.981 34.5608 205.991V202.588C34.5608 201.598 33.7583 200.796 32.7683 200.796H29.1554C28.1655 200.796 27.363 201.598 27.363 202.588V205.991C27.363 206.981 28.1655 207.784 29.1554 207.784Z" fill="#B0C9E2"/>
<path d="M45.6029 202.461L48.1576 199.907C48.8576 199.207 48.8576 198.072 48.1576 197.372L45.7514 194.965C45.0514 194.265 43.9165 194.265 43.2165 194.965L40.6618 197.52C39.9618 198.22 39.9618 199.355 40.6618 200.055L43.0679 202.461C43.7679 203.161 44.9029 203.161 45.6029 202.461Z" fill="#B0C9E2"/>
<path d="M53.4726 187.072V183.46C53.4726 182.47 52.6701 181.667 51.6802 181.667H48.2773C47.2873 181.667 46.4848 182.47 46.4848 183.46V187.072C46.4848 188.062 47.2873 188.865 48.2773 188.865H51.6802C52.6701 188.865 53.4726 188.062 53.4726 187.072Z" fill="#B0C9E2"/>
<path d="M48.1551 170.62L45.6004 168.065C44.9004 167.365 43.7655 167.365 43.0655 168.065L40.6593 170.472C39.9593 171.172 39.9593 172.306 40.6593 173.006L43.214 175.561C43.914 176.261 45.0489 176.261 45.7489 175.561L48.1551 173.155C48.8551 172.455 48.8551 171.32 48.1551 170.62Z" fill="#B0C9E2"/>
<path d="M53.4166 226.542C46.8046 226.537 40.3398 228.494 34.8401 232.165C29.3404 235.835 25.0527 241.054 22.5195 247.162C19.9864 253.269 19.3214 259.991 20.6088 266.476C21.8962 272.962 25.0781 278.92 29.752 283.597C34.426 288.274 40.382 291.459 46.8667 292.751C53.3513 294.042 60.0734 293.381 66.1825 290.852C72.2916 288.323 77.5134 284.038 81.1872 278.541C84.8611 273.044 86.8221 266.58 86.8221 259.968C86.8221 251.106 83.3033 242.607 77.0391 236.339C70.775 230.071 62.2782 226.547 53.4166 226.542V226.542ZM53.4166 278.495C49.7523 278.495 46.1704 277.408 43.1237 275.372C40.077 273.337 37.7024 270.443 36.3001 267.058C34.8979 263.673 34.531 259.947 35.2459 256.354C35.9607 252.76 37.7252 249.459 40.3162 246.868C42.9072 244.277 46.2084 242.512 49.8022 241.797C53.396 241.082 57.1211 241.449 60.5065 242.852C63.8918 244.254 66.7852 246.628 68.821 249.675C70.8567 252.722 71.9433 256.304 71.9433 259.968C71.9433 264.882 69.9914 269.594 66.517 273.068C63.0425 276.543 58.3302 278.495 53.4166 278.495V278.495Z" fill="#D2DFEE"/>
<path d="M58.822 214.94H48.0112C47.0213 214.94 46.2188 215.742 46.2188 216.732V227.116C46.2188 228.106 47.0213 228.908 48.0112 228.908H58.822C59.8119 228.908 60.6144 228.106 60.6144 227.116V216.732C60.6144 215.742 59.8119 214.94 58.822 214.94Z" fill="#D2DFEE"/>
<path d="M25.4003 224.31L17.7559 231.954C17.0559 232.654 17.0559 233.789 17.7559 234.489L25.0983 241.832C25.7983 242.532 26.9332 242.532 27.6332 241.832L35.2775 234.187C35.9775 233.487 35.9775 232.352 35.2775 231.652L27.9352 224.31C27.2352 223.61 26.1003 223.61 25.4003 224.31Z" fill="#D2DFEE"/>
<path d="M8.38814 254.57V265.38C8.38814 266.37 9.19065 267.173 10.1806 267.173H20.5642C21.5542 267.173 22.3567 266.37 22.3567 265.38V254.57C22.3567 253.58 21.5542 252.777 20.5642 252.777H10.1806C9.19065 252.777 8.38814 253.58 8.38814 254.57Z" fill="#D2DFEE"/>
<path d="M17.7494 287.986L25.3938 295.631C26.0938 296.331 27.2287 296.331 27.9287 295.631L35.271 288.288C35.971 287.588 35.971 286.454 35.271 285.754L27.6267 278.109C26.9267 277.409 25.7918 277.409 25.0918 278.109L17.7494 285.452C17.0494 286.152 17.0494 287.286 17.7494 287.986Z" fill="#D2DFEE"/>
<path d="M48.0042 304.997H58.815C59.8049 304.997 60.6074 304.194 60.6074 303.204V292.82C60.6074 291.83 59.8049 291.028 58.815 291.028H48.0042C47.0143 291.028 46.2118 291.83 46.2118 292.82V303.204C46.2118 304.194 47.0143 304.997 48.0042 304.997Z" fill="#D2DFEE"/>
<path d="M81.4321 295.638L89.0765 287.994C89.7765 287.294 89.7765 286.159 89.0765 285.459L81.7342 278.116C81.0342 277.416 79.8992 277.416 79.1992 278.116L71.5549 285.761C70.8549 286.461 70.8549 287.596 71.5549 288.296L78.8972 295.638C79.5972 296.338 80.7322 296.338 81.4321 295.638Z" fill="#D2DFEE"/>
<path d="M98.438 265.373V254.563C98.438 253.573 97.6355 252.77 96.6456 252.77H86.262C85.272 252.77 84.4695 253.573 84.4695 254.563V265.373C84.4695 266.363 85.272 267.166 86.262 267.166H96.6456C97.6355 267.166 98.438 266.363 98.438 265.373Z" fill="#D2DFEE"/>
<path d="M89.0775 231.955L81.4332 224.31C80.7332 223.61 79.5983 223.61 78.8983 224.31L71.5559 231.653C70.8559 232.353 70.8559 233.487 71.5559 234.187L79.2003 241.832C79.9003 242.532 81.0352 242.532 81.7352 241.832L89.0775 234.489C89.7775 233.789 89.7775 232.655 89.0775 231.955Z" fill="#D2DFEE"/>
<path d="M66.615 20.7435C57.2021 20.8993 47.8611 22.4133 38.8809 25.2386C38.8809 25.2386 41.4436 40.2014 23.757 45.4317C24.6323 102.916 48.2633 120.568 69.6817 120.568C91.1002 120.568 114.731 102.916 115.599 45.4317C97.9199 40.2014 100.483 25.2386 100.483 25.2386C90.5208 22.1007 80.1175 20.5923 69.6747 20.7715C68.6455 20.7365 67.6232 20.7295 66.608 20.7715L66.615 20.7435Z" fill="#154E82"/>
<path d="M69.4927 26.625C68.5475 26.625 67.6162 26.625 66.692 26.625C59.358 26.6388 52.0619 27.6757 45.0145 29.7057C44.8658 31.5918 44.4752 33.4508 43.8522 35.2372C42.0877 40.1804 37.7746 45.7398 30.1567 49.2407C31.0669 74.9303 36.8154 91.4895 44.0972 101.201C51.7992 111.438 60.7475 114.728 69.6818 114.728C78.616 114.728 87.5993 111.438 95.2733 101.201C102.548 91.4895 108.297 74.9303 109.207 49.2407C101.589 45.7398 97.3038 40.2014 95.5113 35.2372C94.8806 33.4285 94.4875 31.5456 94.342 29.6357C86.3639 27.503 78.128 26.4897 69.8708 26.625H69.4927Z" fill="#D2DFEE" stroke="#0B2140" stroke-linecap="round" stroke-linejoin="round"/>
<path d="M64.9275 43.8633C63.1038 43.8689 61.3564 44.5958 60.0668 45.8854C58.7772 47.1749 58.0503 48.9224 58.0448 50.7461V59.6594C57.0225 59.9324 56.0003 60.2405 54.985 60.6046V84.7468C64.6545 86.6512 74.3519 88.1706 84.3925 84.7468V60.6046C83.3702 60.2825 82.348 60.0025 81.3327 59.7434V50.7461C81.329 48.9218 80.6027 47.1733 79.3127 45.8833C78.0227 44.5934 76.2742 43.867 74.45 43.8633H64.9275ZM64.9275 46.9511H74.436C74.9356 46.9455 75.4312 47.0398 75.8938 47.2286C76.3564 47.4174 76.7766 47.6969 77.1295 48.0505C77.4825 48.4041 77.7611 48.8248 77.9491 49.2877C78.137 49.7506 78.2305 50.2465 78.2239 50.7461V59.0572C72.5895 57.9223 66.7893 57.8819 61.1396 58.9382V50.7461C61.134 50.2468 61.2281 49.7513 61.4163 49.2888C61.6046 48.8263 61.8833 48.4061 62.2361 48.0526C62.5889 47.6992 63.0086 47.4197 63.4708 47.2306C63.9329 47.0414 64.4282 46.9464 64.9275 46.9511V46.9511ZM69.6817 66.052C70.3763 66.054 71.0495 66.2917 71.5914 66.7261C72.1333 67.1606 72.5116 67.7661 72.6645 68.4436C72.8174 69.1211 72.7358 69.8304 72.4331 70.4555C72.1304 71.0806 71.6244 71.5844 70.9981 71.8845V76.3306H68.3654V71.8845C67.7391 71.5844 67.2331 71.0806 66.9304 70.4555C66.6277 69.8304 66.5461 69.1211 66.699 68.4436C66.8519 67.7661 67.2302 67.1606 67.7721 66.7261C68.3139 66.2917 68.9872 66.054 69.6817 66.052V66.052Z" fill="#154E82"/>
<path d="M308.779 121.401C308.785 134.739 304.837 147.78 297.431 158.874C290.026 169.968 279.497 178.617 267.176 183.726C254.855 188.836 241.296 190.177 228.213 187.579C215.13 184.982 203.111 178.563 193.676 169.134C184.241 159.705 177.815 147.69 175.209 134.609C172.604 121.527 173.936 107.967 179.038 95.6429C184.14 83.3188 192.782 72.7845 203.871 65.3723C214.961 57.9602 227.999 54.0032 241.337 54.0018C259.217 53.9999 276.366 61.0989 289.013 73.7379C301.66 86.3769 308.769 103.521 308.779 121.401V121.401Z" fill="#D2DFEE" stroke="white" stroke-linecap="round" stroke-linejoin="round"/>
<path d="M277.894 121.401C277.894 158.7 261.524 188.94 241.337 188.94C221.144 188.94 204.774 158.7 204.774 121.401C204.774 84.0956 221.144 53.8549 241.337 53.8549C261.524 53.8549 277.894 84.0956 277.894 121.401V121.401Z" fill="#D2DFEE" stroke="white" stroke-linecap="round" stroke-linejoin="round"/>
<path d="M241.337 54.0019V188.94" stroke="white" stroke-linecap="round" stroke-linejoin="round"/>
<path d="M173.847 121.457H308.821" stroke="white" stroke-linecap="round" stroke-linejoin="round"/>
<path d="M241.337 54.0019C231.597 54.0105 221.974 56.1299 213.131 60.2142C204.287 64.2985 196.435 70.2507 190.112 77.6609C202.884 85.804 221.62 90.5162 241.337 90.5582C261.054 90.6002 279.847 85.874 292.667 77.745C286.341 70.3066 278.475 64.3311 269.612 60.2317C260.749 56.1322 251.102 54.0066 241.337 54.0019V54.0019ZM241.337 152.307C221.599 152.349 202.884 157.061 190.112 165.211C196.442 172.632 204.309 178.589 213.168 182.671C222.027 186.752 231.667 188.86 241.421 188.848C251.175 188.837 260.81 186.707 269.659 182.605C278.509 178.503 286.362 172.528 292.674 165.092C279.84 156.963 261.082 152.279 241.337 152.272V152.307Z" stroke="white" stroke-linecap="round" stroke-linejoin="round"/>
<path d="M181.437 70.6678C186.149 71.8161 193.165 62.7278 188.04 59.619C191.667 53.3174 184.539 43.1158 177.537 46.7848C177.315 45.48 176.982 44.1964 176.543 42.9478C175.443 40.368 173.456 38.2669 170.942 37.0243C167.805 35.6939 157.001 36.9472 157.834 41.8135C154.76 39.895 150.314 38.1866 146.764 40.3011C143.32 42.3526 141.947 48.1851 143.964 51.4619C137.333 52.7433 131.676 63.582 138.803 67.7901C136.969 70.5558 139.167 74.0917 140.792 76.5353C148.613 88.3053 164.843 83.4321 174.582 76.7594C175.638 76.1117 176.61 75.3356 177.474 74.4488C178.321 73.4055 179.967 69.7436 181.437 70.6678V70.6678Z" fill="#0B2140"/>
<path d="M183.272 67.8811C183.272 67.8811 177.495 85.3856 169.436 94.0748C164.808 99.0811 159.487 99.1861 155.349 97.4706C151.211 95.7552 151.239 93.9067 147.416 101.084C141.52 99.1161 136.913 93.2836 136.913 93.2836C136.913 93.2836 141.814 90.5739 142.269 88.1023C142.724 85.6306 140.372 80.9394 142.171 75.7581C136.465 75.275 136.003 68.4413 139.371 62.0416C142.738 55.642 150.825 57.5815 149.25 65.0804C148.814 67.1927 148.108 69.2401 147.149 71.1719C147.149 71.1719 148.921 76.0732 149.985 74.0427C150.804 72.4673 150.797 63.9391 151.715 63.0079C153.115 61.5655 153.64 63.344 155.986 64.2962C160.334 66.0536 164.206 56.2161 164.206 56.2161C164.206 56.2161 173.791 65.0874 183.272 67.8811V67.8811Z" fill="#FCA697"/>
<path d="M142.99 61.6985C143.309 61.5654 143.654 61.5045 143.999 61.52C144.345 61.5356 144.682 61.6272 144.988 61.7885C145.294 61.9497 145.56 62.1765 145.768 62.4527C145.976 62.7289 146.12 63.0475 146.19 63.386C146.89 66.0046 144.412 71.431 142.031 71.7531" stroke="#DD6858" stroke-width="1.53" stroke-linecap="round" stroke-linejoin="round"/>
<path d="M171.852 76.3183C171.852 76.3183 172.062 84.4683 169.828 85.7147C167.595 86.961 165.767 84.2303 165.767 84.2303" stroke="#DD6858" stroke-width="1.53" stroke-linecap="round" stroke-linejoin="round"/>
<path d="M172.027 66.1867C171.754 65.0664 170.907 64.0021 168.372 63.68C165.837 63.358 164.535 64.6043 165.445 65.5705C166.355 66.5368 171.404 68.5393 172.027 66.1867Z" fill="#0B2140"/>
<path d="M176.865 68.7003C177.782 68.3782 178.833 68.5113 179.82 70.2547C180.807 71.9982 180.268 73.5666 179.274 73.3355C178.279 73.1044 175.29 70.2337 176.865 68.7003Z" fill="#0B2140"/>
<path d="M167.273 71.0599C166.67 70.6888 165.774 71.0599 165.27 71.8791C164.766 72.6984 164.85 73.6716 165.452 74.0357C166.054 74.3998 166.951 74.0357 167.455 73.2165C167.959 72.3973 167.875 71.431 167.273 71.0599Z" fill="#0B2140"/>
<path d="M175.836 76.0242C175.234 75.6531 174.337 76.0242 173.833 76.8434C173.329 77.6626 173.413 78.6359 174.015 78.9999C174.617 79.364 175.514 78.9999 176.018 78.1807C176.522 77.3615 176.445 76.4023 175.836 76.0242Z" fill="#0B2140"/>
<path d="M164.227 89.0055C164.227 89.0055 160.817 86.0998 159.935 84.1953C159.053 82.2908 157.925 83.243 157.869 85.1195C157.813 86.996 159.97 89.6847 161.104 90.0978C162.238 90.5109 164.892 90.3428 164.227 89.0055Z" fill="white"/>
<path d="M145.763 66.2007C145.201 65.7467 144.491 65.5181 143.77 65.5596C143.049 65.601 142.369 65.9094 141.863 66.4247" stroke="#DD6858" stroke-width="1.53" stroke-linecap="round" stroke-linejoin="round"/>
<path d="M143.425 85.8057C144.574 88.9039 146.503 91.6532 149.026 93.7877C150.107 94.6924 151.281 95.481 152.527 96.1403C151.414 95.6782 150.685 95.8182 149.509 97.4987C148.241 96.372 147.039 95.1727 145.91 93.9067C143.425 91.015 143.425 85.8057 143.425 85.8057Z" fill="#FFA88D"/>
<path d="M149.306 71.5781C152.443 73.1955 154.809 69.0014 153.416 66.4668C158.219 68.5673 163.842 63.323 164.486 59.1709C165.76 61.7966 167.567 62.8468 170.297 61.9716C172.636 65.7106 175.801 67.7901 180.1 67.384C181.059 70.8849 185.043 69.9747 185.519 66.5648C185.68 65.4445 184.903 63.561 184.511 62.5598C182.684 57.9736 177.292 54.1156 172.832 52.4702C167.98 50.6707 160.502 49.6065 156.301 53.4995C155.405 54.3327 155.153 55.6 154.424 56.5732C152.779 58.7228 151.316 60.4382 150.622 63.1409C150.202 64.7863 150.461 66.5438 150.188 68.2172C149.999 69.4075 149.376 70.3948 149.299 71.6131L149.306 71.5781Z" fill="#0B2140"/>
<path d="M141.562 92.7794L136.325 88.3053L132.887 91.176C132.887 91.176 117.343 85.7287 111.881 86.6319C106.42 87.5351 90.5611 102.365 84.6936 118.315C78.8261 134.265 66.2509 171.115 66.3489 175.33C66.3888 176.583 66.6802 177.815 67.2058 178.953C67.7315 180.091 68.4806 181.112 69.4087 181.954L66.818 188.599C66.818 188.599 115.27 208.967 136.479 203.758C134.896 199.662 135.393 198.737 135.393 198.737C135.393 198.737 143.039 196.014 145.364 192.821C147.689 189.628 164.654 123.86 165.62 118.861C166.586 113.862 165.452 109.605 160.131 106.671C156.532 104.682 152.03 101.931 152.03 101.931L153.43 100.012L141.562 92.7794Z" fill="#1B5F9D"/>
<path d="M61.2726 157.938H245.833C252.582 157.938 258.058 163.105 258.065 169.484L258.114 290.356C258.114 296.727 252.645 301.895 245.896 301.895H61.3356C54.5859 301.895 49.1105 296.727 49.1035 290.356L49.0545 169.484C49.0475 163.105 54.5229 157.938 61.2726 157.938Z" fill="#6F90C1"/>
<path d="M67.9173 157.938H252.484C259.241 157.938 264.716 163.105 264.716 169.484L264.772 290.356C264.772 296.727 259.304 301.895 252.547 301.895H67.9873C61.2376 301.895 55.7622 296.727 55.7622 290.356L55.7062 169.484C55.7062 163.105 61.1746 157.938 67.9173 157.938Z" fill="#87A1CF"/>
<path d="M67.7562 163.925C66.9507 163.906 66.1498 164.052 65.4021 164.352C64.6543 164.652 63.9752 165.101 63.4058 165.671C62.8364 166.241 62.3885 166.92 62.0892 167.668C61.79 168.417 61.6455 169.218 61.6647 170.023L61.7137 289.873C61.6955 290.678 61.8408 291.479 62.141 292.227C62.4411 292.975 62.8897 293.654 63.4598 294.223C64.0299 294.792 64.7095 295.24 65.4576 295.54C66.2057 295.839 67.0067 295.983 67.8123 295.964H252.715C253.521 295.984 254.323 295.841 255.071 295.542C255.82 295.243 256.5 294.795 257.07 294.225C257.64 293.656 258.089 292.976 258.389 292.228C258.688 291.48 258.833 290.678 258.814 289.873L258.758 170.023C258.777 169.217 258.632 168.415 258.333 167.667C258.033 166.918 257.585 166.238 257.014 165.668C256.444 165.098 255.764 164.649 255.016 164.35C254.267 164.05 253.465 163.905 252.659 163.925H67.7562Z" fill="#D2DFEE"/>
<path d="M55.2021 187.395V289.411C55.2021 292.722 56.5174 295.897 58.8586 298.238C61.1998 300.579 64.3752 301.895 67.6862 301.895H122.902" stroke="#154E82" stroke-miterlimit="10" stroke-linecap="round"/>
<path d="M61.8818 263.693V290.118C61.8818 291.603 62.4719 293.028 63.5224 294.078C64.5729 295.129 65.9976 295.719 67.4832 295.719H220.752" stroke="#154E82" stroke-miterlimit="10" stroke-linecap="round"/>
<path d="M154.34 215.591C152.075 215.596 149.903 216.499 148.301 218.101C146.699 219.703 145.797 221.874 145.791 224.14V235.203C144.517 235.546 143.249 235.903 141.989 236.379V266.354C153.997 268.72 166.04 270.604 178.489 266.354V236.379C177.215 235.98 175.948 235.63 174.687 235.315V224.14C174.68 221.875 173.777 219.706 172.175 218.105C170.573 216.505 168.403 215.603 166.138 215.598L154.34 215.591ZM154.34 219.428H166.138C166.759 219.421 167.374 219.539 167.948 219.773C168.523 220.008 169.044 220.355 169.483 220.794C169.921 221.233 170.267 221.755 170.501 222.329C170.734 222.904 170.851 223.52 170.843 224.14V234.461C163.846 233.053 156.643 233.006 149.628 234.32V224.14C149.622 223.52 149.739 222.904 149.974 222.33C150.208 221.756 150.555 221.234 150.994 220.796C151.433 220.357 151.955 220.011 152.53 219.777C153.104 219.544 153.72 219.427 154.34 219.435V219.428ZM160.236 243.143C161.101 243.139 161.941 243.431 162.618 243.97C163.295 244.508 163.768 245.262 163.959 246.105C164.15 246.949 164.047 247.833 163.668 248.61C163.289 249.388 162.656 250.013 161.874 250.383V255.9H158.604V250.383C157.823 250.013 157.19 249.389 156.811 248.612C156.432 247.835 156.329 246.952 156.519 246.109C156.709 245.266 157.181 244.512 157.856 243.973C158.532 243.434 159.371 243.141 160.236 243.143V243.143Z" fill="#154E82"/>
<path d="M272.236 135.217H204.788V227.83H272.236V135.217Z" fill="#ECF2FA"/>
<path d="M263.008 143.185H214.009V146.798H263.008V143.185Z" fill="#154E82"/>
<path d="M266.117 159.794H210.908V161.67H266.117V159.794Z" fill="#154E82"/>
<path d="M266.117 164.667H210.908V166.543H266.117V164.667Z" fill="#154E82"/>
<path d="M266.117 169.54H210.908V171.416H266.117V169.54Z" fill="#154E82"/>
<path d="M266.117 174.42H210.908V176.297H266.117V174.42Z" fill="#154E82"/>
<path d="M266.117 179.293H210.908V181.17H266.117V179.293Z" fill="#154E82"/>
<path d="M62.3509 314.883H276.255C277.989 314.894 279.657 314.217 280.892 313C282.127 311.783 282.829 310.126 282.844 308.392V308.392C282.831 306.657 282.13 304.998 280.894 303.78C279.659 302.562 277.99 301.884 276.255 301.895H62.3509C61.4915 301.888 60.6393 302.051 59.8429 302.374C59.0465 302.698 58.3217 303.174 57.7098 303.778C57.0979 304.381 56.6109 305.099 56.2767 305.891C55.9425 306.683 55.7677 307.533 55.7622 308.392V308.392C55.7686 309.251 55.9441 310.1 56.2787 310.891C56.6133 311.682 57.1004 312.4 57.7122 313.002C58.3241 313.605 59.0486 314.081 59.8445 314.404C60.6404 314.727 61.4921 314.889 62.3509 314.883V314.883Z" fill="#A8C7E6"/>
<path d="M132.131 314.883H290.161C292.492 314.883 294.362 311.977 294.362 308.392C294.362 304.8 292.478 301.895 290.161 301.895H132.131C129.806 301.895 127.93 304.8 127.93 308.392C127.916 311.977 129.806 314.883 132.131 314.883Z" fill="#CADAF1"/>
<path d="M82.9291 306.278H68.4144V309.919H82.9291V306.278Z" fill="#3D62B3"/>
<path d="M102.716 306.278H88.2014V309.919H102.716V306.278Z" fill="#3D62B3"/>
<path d="M189.951 170.002C189.951 170.002 188.502 175.919 187.592 176.304C186.682 176.689 183.65 179.588 181.99 181.618C180.331 183.649 175.493 187.374 176.319 189.635C177.145 191.897 180.17 190.545 182.754 187.212C180.1 193.717 177.383 202.868 179.043 204.066C180.702 205.263 184.21 197.162 185.386 195.258C186.562 193.353 181.71 205.214 182.662 206.979C183.615 208.743 186.647 204.605 189.664 197.176C191.023 195.349 187.025 205.263 188.621 206.278C190.217 207.294 192.668 200.152 193.641 197.813C194.615 195.475 192.745 202.967 193.368 204.199C193.991 205.431 195.644 204.836 196.953 201.86C198.262 198.884 201.574 188.872 201.448 185.896C201.411 184.245 201.089 182.613 200.496 181.072L202.351 173.475L189.951 170.002Z" fill="#FCA697"/>
<path d="M183.937 198.898L186.338 192.016" stroke="#DD6858" stroke-width="1.53" stroke-linecap="round" stroke-linejoin="round"/>
<path d="M189.104 200.747L190.161 194.375" stroke="#DD6858" stroke-width="1.53" stroke-linecap="round" stroke-linejoin="round"/>
<path d="M193.074 200.747L194.37 194.375" stroke="#DD6858" stroke-width="1.53" stroke-linecap="round" stroke-linejoin="round"/>
<path d="M185.393 191.035C188.075 194.823 196.505 194.354 196.505 194.354" stroke="#DD6858" stroke-width="1.53" stroke-linecap="round" stroke-linejoin="round"/>
<path d="M155.09 104.605C155.09 104.605 166.061 110.627 173.735 114.779C181.409 118.931 200.769 125.352 208.044 130.736C215.319 136.12 213.505 155.074 212.518 162.776C212.203 165.033 211.335 167.176 209.992 169.016C208.648 170.856 206.87 172.335 204.816 173.321L202.926 178.299L186.675 175.421L188.033 170.898C188.033 170.898 180.814 169.302 180.044 166.368C179.274 163.434 173.364 148.521 173.364 148.521L151.82 138.907L155.09 104.605Z" fill="#1B5F9D"/>
<path d="M115.228 171.732C115.228 171.732 120.76 174.301 121.628 173.832C122.496 173.363 126.655 172.817 129.274 172.789C131.893 172.761 137.83 171.325 139.076 173.384C140.323 175.442 137.382 176.962 133.16 176.885C139.896 178.894 148.739 182.486 148.634 184.538C148.529 186.589 140.008 184.251 137.795 183.978C135.583 183.705 147.857 187.339 148.641 189.187C149.425 191.035 144.3 190.804 136.626 188.55C134.35 188.459 144.587 191.54 144.37 193.416C144.153 195.293 137.06 192.716 134.623 192.016C132.187 191.316 139.209 194.543 139.784 195.797C140.358 197.05 138.852 197.974 135.709 197.127C132.565 196.28 122.692 192.632 120.431 190.678C119.167 189.616 118.097 188.344 117.266 186.918L110.201 183.53L115.228 171.732Z" fill="#FCA697"/>
<path d="M137.816 193.339L132.376 191.126" stroke="#DD6858" stroke-width="1.53" stroke-linecap="round" stroke-linejoin="round"/>
<path d="M140.12 190.426L135.022 187.5" stroke="#DD6858" stroke-width="1.53" stroke-linecap="round" stroke-linejoin="round"/>
<path d="M142.234 185.266L135.344 183.298" stroke="#DD6858" stroke-width="1.53" stroke-linecap="round" stroke-linejoin="round"/>
<path d="M131.325 191.995C135.309 189.614 135.491 181.17 135.491 181.17" stroke="#DD6858" stroke-width="1.53" stroke-linecap="round" stroke-linejoin="round"/>
<path d="M110.292 86.905C99.2503 85.7146 90.141 97.3306 84.8896 105.068C79.6383 112.805 56.5674 141.085 56.1823 153.884C55.7972 166.683 92.9487 185.567 98.6341 187.093C100.261 187.526 101.978 187.481 103.58 186.963C105.182 186.445 106.601 185.477 107.666 184.174L113.765 186.477L122.286 172.173L116.895 170.842C116.895 170.842 118.918 171.115 117.826 165.241C116.734 159.366 91.5553 143.787 91.5553 143.787C91.5553 143.787 120.494 103.338 110.292 86.905Z" fill="#1B5F9D"/>
<path d="M174.785 148.248C174.785 148.248 178.496 136.968 189.083 138.585" stroke="#154E82" stroke-linecap="round" stroke-linejoin="bevel"/>
<path d="M161.475 114.786C161.475 114.786 160.019 132.073 155.293 138.102" stroke="#154E82" stroke-linecap="round" stroke-linejoin="bevel"/>
<path d="M114.388 93.4306C114.388 93.4306 118.911 102.484 116.489 109.08C114.066 115.675 95.7354 137.682 95.7354 137.682" stroke="#154E82" stroke-linecap="round" stroke-linejoin="bevel"/>
<path d="M90.8131 144.222C90.8131 144.222 77.1596 140.434 69.6817 148.535" stroke="#154E82" stroke-linecap="round" stroke-linejoin="bevel"/>
<path d="M114.542 173.167L108.241 182.353" stroke="#154E82" stroke-linecap="round" stroke-linejoin="bevel"/>
<path d="M189.832 170.45L203.052 173.468" stroke="#154E82" stroke-linecap="round" stroke-linejoin="bevel"/>
<path d="M140.652 125.184C140.652 125.184 148.291 131.87 152.751 131.94" stroke="#154E82" stroke-linecap="round" stroke-linejoin="bevel"/>
<path d="M266.04 64.5431L263.559 67.2426L285.077 87.0159L287.558 84.3164L266.04 64.5431Z" fill="#8BB0CC"/>
<path d="M278.668 78.5755L276.72 80.6938C276.196 81.2631 276.233 82.149 276.803 82.6724L294.208 98.6772C294.777 99.2007 295.663 99.1636 296.186 98.5943L298.134 96.476C298.658 95.9067 298.621 95.0208 298.051 94.4973L280.646 78.4926C280.077 77.9691 279.191 78.0062 278.668 78.5755Z" fill="#A4BFD8"/>
<path d="M278.496 78.7252L276.864 80.5037C276.572 80.8234 276.418 81.2461 276.436 81.6792C276.455 82.1123 276.644 82.5204 276.962 82.8143L294.019 98.4983C294.339 98.7909 294.761 98.9449 295.194 98.9265C295.627 98.9081 296.036 98.7189 296.329 98.4002" stroke="#154E82" stroke-miterlimit="10" stroke-linecap="round"/>
<path d="M269.415 38.9691C272.956 42.2254 275.452 46.4587 276.587 51.1335C277.722 55.8084 277.446 60.7149 275.793 65.2326C274.139 69.7504 271.184 73.6765 267.299 76.5145C263.415 79.3524 258.776 80.9749 253.97 81.1766C249.163 81.3783 244.405 80.1502 240.296 77.6476C236.188 75.145 232.913 71.4804 230.888 67.117C228.862 62.7536 228.175 57.8875 228.915 53.134C229.654 48.3805 231.787 43.953 235.043 40.4115C239.41 35.6635 245.485 32.8443 251.93 32.5738C258.376 32.3034 264.665 34.6037 269.415 38.9691V38.9691Z" fill="#A4BFD8"/>
<path d="M271.985 57.565C272.82 47.1203 265.031 37.9758 254.586 37.1402C244.141 36.3047 234.997 44.0944 234.161 54.5391C233.326 64.9838 241.115 74.1283 251.56 74.9639C262.005 75.7994 271.149 68.0097 271.985 57.565Z" fill="#D2DFEE"/>
<path d="M266.866 69.6719C263.471 73.3636 258.749 75.5556 253.739 75.7657C248.728 75.9758 243.839 74.1868 240.147 70.7922C236.455 67.3976 234.263 62.6756 234.053 57.6648C233.843 52.6541 235.632 47.7651 239.027 44.0734" stroke="#154E82" stroke-miterlimit="10" stroke-linecap="round"/>
<path d="M266.089 5.68964H202.597V27.4302H266.089V5.68964Z" fill="#154E82"/>
<path d="M225.426 11.8L221.97 19.8L218.562 11.8H215.762L220.594 23H223.154L228.002 11.8H225.426ZM233.785 11.8H228.937V23H231.529V19.912H233.785C236.777 19.912 238.649 18.36 238.649 15.864C238.649 13.352 236.777 11.8 233.785 11.8ZM233.641 17.8H231.529V13.912H233.641C235.225 13.912 236.025 14.632 236.025 15.864C236.025 17.08 235.225 17.8 233.641 17.8ZM248.212 11.8V18.6L242.644 11.8H240.5V23H243.06V16.2L248.644 23H250.772V11.8H248.212Z" fill="white"/>
</g>
<defs>
<clipPath id="clip0_205_1253">
<rect width="319" height="320" fill="white"/>
</clipPath>
</defs>
</svg>
